M48
; DRILL file {KiCad (5.1.9)-1} date 01/16/22 00:30:58
; FORMAT={-:-/ absolute / inch / decimal}
; #@! TF.CreationDate,2022-01-16T00:30:58-08:00
; #@! TF.GenerationSoftware,Kicad,Pcbnew,(5.1.9)-1
; #@! TF.FileFunction,Plated,1,2,PTH
FMAT,2
INCH
T1C0.0157
T2C0.0394
T3C0.0402
T4C0.0472
T5C0.0520
%
G90
G05
T1
X2.52Y-2.47
X2.7Y-2.11
X2.73Y-1.7
X2.81Y-1.6
X2.96Y-1.25
X3.02Y-2.11
X3.06Y-1.42
T2
X2.43Y-1.24
X2.53Y-1.24
X2.63Y-1.24
X2.73Y-1.24
X3.31Y-1.14
X3.41Y-1.14
X3.51Y-1.14
X3.81Y-1.14
X3.91Y-1.14
X4.01Y-1.14
T3
X1.2043Y-1.196
X1.2043Y-1.296
X1.2043Y-1.396
X1.2043Y-1.496
X1.2043Y-1.596
X1.2043Y-1.696
X1.2043Y-1.796
X1.2043Y-1.896
X1.2043Y-1.996
X1.2043Y-2.096
X1.2043Y-2.196
X1.2043Y-2.296
X1.2043Y-2.396
X1.2043Y-2.496
X1.2043Y-2.596
X1.2043Y-2.696
X1.2043Y-2.796
X1.2043Y-2.896
X1.2043Y-2.996
X1.2043Y-3.096
X1.4543Y-3.0869
X1.5543Y-3.0869
X1.6543Y-3.0869
X1.9043Y-1.196
X1.9043Y-1.296
X1.9043Y-1.396
X1.9043Y-1.496
X1.9043Y-1.596
X1.9043Y-1.696
X1.9043Y-1.796
X1.9043Y-1.896
X1.9043Y-1.996
X1.9043Y-2.096
X1.9043Y-2.196
X1.9043Y-2.296
X1.9043Y-2.396
X1.9043Y-2.496
X1.9043Y-2.596
X1.9043Y-2.696
X1.9043Y-2.796
X1.9043Y-2.896
X1.9043Y-2.996
X1.9043Y-3.096
T4
X3.2036Y-1.6928
X3.2036Y-2.0928
X3.2036Y-2.5928
X3.2036Y-2.7928
T5
X3.92Y-1.49
X3.92Y-1.6869
X3.92Y-1.8837
X3.92Y-2.29
X3.92Y-2.4869
X3.92Y-2.79
X3.92Y-2.9869
T0
M30
