%TF.GenerationSoftware,KiCad,Pcbnew,(5.1.9)-1*%
%TF.CreationDate,2022-01-22T22:11:56-08:00*%
%TF.ProjectId,keurig-filler,6b657572-6967-42d6-9669-6c6c65722e6b,rev?*%
%TF.SameCoordinates,Original*%
%TF.FileFunction,Copper,L2,Bot*%
%TF.FilePolarity,Positive*%
%FSLAX46Y46*%
G04 Gerber Fmt 4.6, Leading zero omitted, Abs format (unit mm)*
G04 Created by KiCad (PCBNEW (5.1.9)-1) date 2022-01-22 22:11:56*
%MOMM*%
%LPD*%
G01*
G04 APERTURE LIST*
%TA.AperFunction,SMDPad,CuDef*%
%ADD10R,0.800000X0.900000*%
%TD*%
%TA.AperFunction,ComponentPad*%
%ADD11O,1.700000X1.700000*%
%TD*%
%TA.AperFunction,ComponentPad*%
%ADD12R,1.700000X1.700000*%
%TD*%
%TA.AperFunction,ComponentPad*%
%ADD13O,3.960000X1.980000*%
%TD*%
%TA.AperFunction,ComponentPad*%
%ADD14R,3.960000X1.980000*%
%TD*%
%TA.AperFunction,ComponentPad*%
%ADD15C,1.800000*%
%TD*%
%TA.AperFunction,ComponentPad*%
%ADD16R,1.800000X1.800000*%
%TD*%
%TA.AperFunction,ViaPad*%
%ADD17C,0.800000*%
%TD*%
%TA.AperFunction,Conductor*%
%ADD18C,0.250000*%
%TD*%
%TA.AperFunction,Conductor*%
%ADD19C,0.254000*%
%TD*%
%TA.AperFunction,Conductor*%
%ADD20C,0.100000*%
%TD*%
G04 APERTURE END LIST*
%TO.P,R13,2*%
%TO.N,+3V3*%
%TA.AperFunction,SMDPad,CuDef*%
G36*
G01*
X37611000Y-76396001D02*
X37611000Y-75495999D01*
G75*
G02*
X37860999Y-75246000I249999J0D01*
G01*
X38561001Y-75246000D01*
G75*
G02*
X38811000Y-75495999I0J-249999D01*
G01*
X38811000Y-76396001D01*
G75*
G02*
X38561001Y-76646000I-249999J0D01*
G01*
X37860999Y-76646000D01*
G75*
G02*
X37611000Y-76396001I0J249999D01*
G01*
G37*
%TD.AperFunction*%
%TO.P,R13,1*%
%TO.N,~UART_KEY*%
%TA.AperFunction,SMDPad,CuDef*%
G36*
G01*
X35611000Y-76396001D02*
X35611000Y-75495999D01*
G75*
G02*
X35860999Y-75246000I249999J0D01*
G01*
X36561001Y-75246000D01*
G75*
G02*
X36811000Y-75495999I0J-249999D01*
G01*
X36811000Y-76396001D01*
G75*
G02*
X36561001Y-76646000I-249999J0D01*
G01*
X35860999Y-76646000D01*
G75*
G02*
X35611000Y-76396001I0J249999D01*
G01*
G37*
%TD.AperFunction*%
%TD*%
%TO.P,R11,2*%
%TO.N,+3V3*%
%TA.AperFunction,SMDPad,CuDef*%
G36*
G01*
X39373000Y-70173001D02*
X39373000Y-69272999D01*
G75*
G02*
X39622999Y-69023000I249999J0D01*
G01*
X40323001Y-69023000D01*
G75*
G02*
X40573000Y-69272999I0J-249999D01*
G01*
X40573000Y-70173001D01*
G75*
G02*
X40323001Y-70423000I-249999J0D01*
G01*
X39622999Y-70423000D01*
G75*
G02*
X39373000Y-70173001I0J249999D01*
G01*
G37*
%TD.AperFunction*%
%TO.P,R11,1*%
%TO.N,UART_RX0*%
%TA.AperFunction,SMDPad,CuDef*%
G36*
G01*
X37373000Y-70173001D02*
X37373000Y-69272999D01*
G75*
G02*
X37622999Y-69023000I249999J0D01*
G01*
X38323001Y-69023000D01*
G75*
G02*
X38573000Y-69272999I0J-249999D01*
G01*
X38573000Y-70173001D01*
G75*
G02*
X38323001Y-70423000I-249999J0D01*
G01*
X37622999Y-70423000D01*
G75*
G02*
X37373000Y-70173001I0J249999D01*
G01*
G37*
%TD.AperFunction*%
%TD*%
%TO.P,R9,2*%
%TO.N,+3V3*%
%TA.AperFunction,SMDPad,CuDef*%
G36*
G01*
X34928000Y-67379001D02*
X34928000Y-66478999D01*
G75*
G02*
X35177999Y-66229000I249999J0D01*
G01*
X35878001Y-66229000D01*
G75*
G02*
X36128000Y-66478999I0J-249999D01*
G01*
X36128000Y-67379001D01*
G75*
G02*
X35878001Y-67629000I-249999J0D01*
G01*
X35177999Y-67629000D01*
G75*
G02*
X34928000Y-67379001I0J249999D01*
G01*
G37*
%TD.AperFunction*%
%TO.P,R9,1*%
%TO.N,UART_TX0*%
%TA.AperFunction,SMDPad,CuDef*%
G36*
G01*
X32928000Y-67379001D02*
X32928000Y-66478999D01*
G75*
G02*
X33177999Y-66229000I249999J0D01*
G01*
X33878001Y-66229000D01*
G75*
G02*
X34128000Y-66478999I0J-249999D01*
G01*
X34128000Y-67379001D01*
G75*
G02*
X33878001Y-67629000I-249999J0D01*
G01*
X33177999Y-67629000D01*
G75*
G02*
X32928000Y-67379001I0J249999D01*
G01*
G37*
%TD.AperFunction*%
%TD*%
D10*
%TO.P,Q6,3*%
%TO.N,~HC05_KEY*%
X37338000Y-71882000D03*
%TO.P,Q6,2*%
%TO.N,~UART_KEY*%
X36388000Y-73882000D03*
%TO.P,Q6,1*%
%TO.N,+3V3*%
X38288000Y-73882000D03*
%TD*%
%TO.P,Q5,3*%
%TO.N,HC05_TX*%
X38989000Y-65786000D03*
%TO.P,Q5,2*%
%TO.N,UART_RX0*%
X38039000Y-67786000D03*
%TO.P,Q5,1*%
%TO.N,+3V3*%
X39939000Y-67786000D03*
%TD*%
%TO.P,Q4,3*%
%TO.N,HC05_RX*%
X34544000Y-62992000D03*
%TO.P,Q4,2*%
%TO.N,UART_TX0*%
X33594000Y-64992000D03*
%TO.P,Q4,1*%
%TO.N,+3V3*%
X35494000Y-64992000D03*
%TD*%
D11*
%TO.P,J8,6*%
%TO.N,N/C*%
X63119000Y-24384000D03*
%TO.P,J8,5*%
%TO.N,HC05_RX*%
X60579000Y-24384000D03*
%TO.P,J8,4*%
%TO.N,HC05_TX*%
X58039000Y-24384000D03*
%TO.P,J8,3*%
%TO.N,GND*%
X55499000Y-24384000D03*
%TO.P,J8,2*%
%TO.N,+5V*%
X52959000Y-24384000D03*
D12*
%TO.P,J8,1*%
%TO.N,~HC05_KEY*%
X50419000Y-24384000D03*
%TD*%
%TO.P,R4,2*%
%TO.N,+3V3*%
%TA.AperFunction,SMDPad,CuDef*%
G36*
G01*
X38738000Y-55822001D02*
X38738000Y-54921999D01*
G75*
G02*
X38987999Y-54672000I249999J0D01*
G01*
X39688001Y-54672000D01*
G75*
G02*
X39938000Y-54921999I0J-249999D01*
G01*
X39938000Y-55822001D01*
G75*
G02*
X39688001Y-56072000I-249999J0D01*
G01*
X38987999Y-56072000D01*
G75*
G02*
X38738000Y-55822001I0J249999D01*
G01*
G37*
%TD.AperFunction*%
%TO.P,R4,1*%
%TO.N,SCL0*%
%TA.AperFunction,SMDPad,CuDef*%
G36*
G01*
X36738000Y-55822001D02*
X36738000Y-54921999D01*
G75*
G02*
X36987999Y-54672000I249999J0D01*
G01*
X37688001Y-54672000D01*
G75*
G02*
X37938000Y-54921999I0J-249999D01*
G01*
X37938000Y-55822001D01*
G75*
G02*
X37688001Y-56072000I-249999J0D01*
G01*
X36987999Y-56072000D01*
G75*
G02*
X36738000Y-55822001I0J249999D01*
G01*
G37*
%TD.AperFunction*%
%TD*%
%TO.P,R3,2*%
%TO.N,+5V*%
%TA.AperFunction,SMDPad,CuDef*%
G36*
G01*
X38042001Y-46844000D02*
X37141999Y-46844000D01*
G75*
G02*
X36892000Y-46594001I0J249999D01*
G01*
X36892000Y-45893999D01*
G75*
G02*
X37141999Y-45644000I249999J0D01*
G01*
X38042001Y-45644000D01*
G75*
G02*
X38292000Y-45893999I0J-249999D01*
G01*
X38292000Y-46594001D01*
G75*
G02*
X38042001Y-46844000I-249999J0D01*
G01*
G37*
%TD.AperFunction*%
%TO.P,R3,1*%
%TO.N,SDA_5V*%
%TA.AperFunction,SMDPad,CuDef*%
G36*
G01*
X38042001Y-48844000D02*
X37141999Y-48844000D01*
G75*
G02*
X36892000Y-48594001I0J249999D01*
G01*
X36892000Y-47893999D01*
G75*
G02*
X37141999Y-47644000I249999J0D01*
G01*
X38042001Y-47644000D01*
G75*
G02*
X38292000Y-47893999I0J-249999D01*
G01*
X38292000Y-48594001D01*
G75*
G02*
X38042001Y-48844000I-249999J0D01*
G01*
G37*
%TD.AperFunction*%
%TD*%
%TO.P,R2,2*%
%TO.N,+5V*%
%TA.AperFunction,SMDPad,CuDef*%
G36*
G01*
X42106001Y-49400000D02*
X41205999Y-49400000D01*
G75*
G02*
X40956000Y-49150001I0J249999D01*
G01*
X40956000Y-48449999D01*
G75*
G02*
X41205999Y-48200000I249999J0D01*
G01*
X42106001Y-48200000D01*
G75*
G02*
X42356000Y-48449999I0J-249999D01*
G01*
X42356000Y-49150001D01*
G75*
G02*
X42106001Y-49400000I-249999J0D01*
G01*
G37*
%TD.AperFunction*%
%TO.P,R2,1*%
%TO.N,SCL_5V*%
%TA.AperFunction,SMDPad,CuDef*%
G36*
G01*
X42106001Y-51400000D02*
X41205999Y-51400000D01*
G75*
G02*
X40956000Y-51150001I0J249999D01*
G01*
X40956000Y-50449999D01*
G75*
G02*
X41205999Y-50200000I249999J0D01*
G01*
X42106001Y-50200000D01*
G75*
G02*
X42356000Y-50449999I0J-249999D01*
G01*
X42356000Y-51150001D01*
G75*
G02*
X42106001Y-51400000I-249999J0D01*
G01*
G37*
%TD.AperFunction*%
%TD*%
D10*
%TO.P,Q3,3*%
%TO.N,SDA_5V*%
X34798000Y-48530000D03*
%TO.P,Q3,2*%
%TO.N,SDA0*%
X33848000Y-50530000D03*
%TO.P,Q3,1*%
%TO.N,+3V3*%
X35748000Y-50530000D03*
%TD*%
%TO.P,Q2,3*%
%TO.N,SCL_5V*%
X38354000Y-51070000D03*
%TO.P,Q2,2*%
%TO.N,SCL0*%
X37404000Y-53070000D03*
%TO.P,Q2,1*%
%TO.N,+3V3*%
X39304000Y-53070000D03*
%TD*%
D11*
%TO.P,J7,4*%
%TO.N,SCL_5V*%
X70104000Y-80137000D03*
%TO.P,J7,3*%
%TO.N,SDA_5V*%
X72644000Y-80137000D03*
%TO.P,J7,2*%
%TO.N,+5V*%
X75184000Y-80137000D03*
D12*
%TO.P,J7,1*%
%TO.N,GND*%
X77724000Y-80137000D03*
%TD*%
D11*
%TO.P,U1,43*%
%TO.N,Net-(U1-Pad43)*%
X42020000Y-78408001D03*
D12*
%TO.P,U1,42*%
%TO.N,GND*%
X39480000Y-78408001D03*
D11*
%TO.P,U1,41*%
%TO.N,Net-(U1-Pad41)*%
X36940000Y-78408001D03*
%TO.P,U1,40*%
%TO.N,VBUS*%
X48370000Y-30378001D03*
%TO.P,U1,39*%
%TO.N,+5V*%
X48370000Y-32918001D03*
D12*
%TO.P,U1,38*%
%TO.N,GND*%
X48370000Y-35458001D03*
D11*
%TO.P,U1,37*%
%TO.N,Net-(U1-Pad37)*%
X48370000Y-37998001D03*
%TO.P,U1,36*%
%TO.N,+3V3*%
X48370000Y-40538001D03*
%TO.P,U1,35*%
X48370000Y-43078001D03*
%TO.P,U1,34*%
%TO.N,Net-(U1-Pad34)*%
X48370000Y-45618001D03*
D12*
%TO.P,U1,33*%
%TO.N,GND*%
X48370000Y-48158001D03*
D11*
%TO.P,U1,32*%
%TO.N,ADC1*%
X48370000Y-50698001D03*
%TO.P,U1,31*%
%TO.N,ADC0*%
X48370000Y-53238001D03*
%TO.P,U1,30*%
%TO.N,~RESET*%
X48370000Y-55778001D03*
%TO.P,U1,29*%
%TO.N,PUMP_EN*%
X48370000Y-58318001D03*
D12*
%TO.P,U1,28*%
%TO.N,GND*%
X48370000Y-60858001D03*
D11*
%TO.P,U1,27*%
%TO.N,Net-(U1-Pad27)*%
X48370000Y-63398001D03*
%TO.P,U1,26*%
%TO.N,FLOW_PULSE*%
X48370000Y-65938001D03*
%TO.P,U1,25*%
%TO.N,MOSI0*%
X48370000Y-68478001D03*
%TO.P,U1,24*%
%TO.N,SCK0*%
X48370000Y-71018001D03*
D12*
%TO.P,U1,23*%
%TO.N,GND*%
X48370000Y-73558001D03*
D11*
%TO.P,U1,22*%
%TO.N,SPI_CS0*%
X48370000Y-76098001D03*
%TO.P,U1,21*%
%TO.N,MISO0*%
X48370000Y-78638001D03*
%TO.P,U1,20*%
%TO.N,Net-(U1-Pad20)*%
X30590000Y-78638001D03*
%TO.P,U1,19*%
%TO.N,~UART_KEY*%
X30590000Y-76098001D03*
D12*
%TO.P,U1,18*%
%TO.N,GND*%
X30590000Y-73558001D03*
D11*
%TO.P,U1,17*%
%TO.N,UART_RX0*%
X30590000Y-71018001D03*
%TO.P,U1,16*%
%TO.N,UART_TX0*%
X30590000Y-68478001D03*
%TO.P,U1,15*%
%TO.N,Net-(U1-Pad15)*%
X30590000Y-65938001D03*
%TO.P,U1,14*%
%TO.N,Net-(U1-Pad14)*%
X30590000Y-63398001D03*
D12*
%TO.P,U1,13*%
%TO.N,GND*%
X30590000Y-60858001D03*
D11*
%TO.P,U1,12*%
%TO.N,Net-(U1-Pad12)*%
X30590000Y-58318001D03*
%TO.P,U1,11*%
%TO.N,Net-(U1-Pad11)*%
X30590000Y-55778001D03*
%TO.P,U1,10*%
%TO.N,SCL0*%
X30590000Y-53238001D03*
%TO.P,U1,9*%
%TO.N,SDA0*%
X30590000Y-50698001D03*
D12*
%TO.P,U1,8*%
%TO.N,GND*%
X30590000Y-48158001D03*
D11*
%TO.P,U1,7*%
%TO.N,Net-(U1-Pad7)*%
X30590000Y-45618001D03*
%TO.P,U1,6*%
%TO.N,Net-(U1-Pad6)*%
X30590000Y-43078001D03*
%TO.P,U1,5*%
%TO.N,Net-(U1-Pad5)*%
X30590000Y-40538001D03*
%TO.P,U1,4*%
%TO.N,Net-(U1-Pad4)*%
X30590000Y-37998001D03*
D12*
%TO.P,U1,3*%
%TO.N,GND*%
X30590000Y-35458001D03*
D11*
%TO.P,U1,2*%
%TO.N,Net-(U1-Pad2)*%
X30590000Y-32918001D03*
%TO.P,U1,1*%
%TO.N,Net-(U1-Pad1)*%
X30590000Y-30378001D03*
%TD*%
D13*
%TO.P,J6,2*%
%TO.N,GND*%
X99568000Y-75866000D03*
D14*
%TO.P,J6,1*%
%TO.N,+12V*%
X99568000Y-70866000D03*
%TD*%
D13*
%TO.P,J4,2*%
%TO.N,GND*%
X99568000Y-63166000D03*
D14*
%TO.P,J4,1*%
%TO.N,Net-(J4-Pad1)*%
X99568000Y-58166000D03*
%TD*%
D13*
%TO.P,J3,3*%
%TO.N,Net-(D1-Pad1)*%
X99568000Y-47846000D03*
%TO.P,J3,2*%
%TO.N,+12V*%
X99568000Y-42846000D03*
D14*
%TO.P,J3,1*%
%TO.N,GND*%
X99568000Y-37846000D03*
%TD*%
D15*
%TO.P,K1,4*%
%TO.N,+12V*%
X81371000Y-42996000D03*
%TO.P,K1,3*%
%TO.N,Net-(J4-Pad1)*%
X81371000Y-53156000D03*
%TO.P,K1,2*%
%TO.N,PUMP_EN*%
X81371000Y-65856000D03*
D16*
%TO.P,K1,1*%
%TO.N,GND*%
X81371000Y-70936000D03*
%TD*%
D11*
%TO.P,J5,4*%
%TO.N,N/C*%
X69342000Y-31496000D03*
%TO.P,J5,3*%
%TO.N,+12V*%
X66802000Y-31496000D03*
%TO.P,J5,2*%
%TO.N,GND*%
X64262000Y-31496000D03*
D12*
%TO.P,J5,1*%
%TO.N,Net-(J5-Pad1)*%
X61722000Y-31496000D03*
%TD*%
D11*
%TO.P,J2,3*%
%TO.N,ADC0*%
X84074000Y-28956000D03*
%TO.P,J2,2*%
%TO.N,+3V3*%
X86614000Y-28956000D03*
D12*
%TO.P,J2,1*%
%TO.N,GND*%
X89154000Y-28956000D03*
%TD*%
D11*
%TO.P,J1,3*%
%TO.N,ADC1*%
X96774000Y-28956000D03*
%TO.P,J1,2*%
%TO.N,+3V3*%
X99314000Y-28956000D03*
D12*
%TO.P,J1,1*%
%TO.N,GND*%
X101854000Y-28956000D03*
%TD*%
D17*
%TO.N,FLOW_PULSE*%
X68580000Y-53594000D03*
X64008000Y-62738000D03*
%TO.N,ADC1*%
X71374000Y-40640000D03*
X77724000Y-36068000D03*
%TO.N,+3V3*%
X40624000Y-53070000D03*
X35748000Y-51750000D03*
X40005000Y-75946000D03*
X41058000Y-67691000D03*
X35560000Y-68453000D03*
%TO.N,GND*%
X76708000Y-53594000D03*
X60706000Y-79502000D03*
X80137000Y-33528000D03*
%TO.N,ADC0*%
X69342000Y-43180000D03*
X75184000Y-31750000D03*
%TO.N,+5V*%
X41656000Y-46228000D03*
X52832000Y-32512000D03*
X67310000Y-38862000D03*
X67310000Y-47752000D03*
X73787000Y-62992000D03*
%TO.N,SDA0*%
X33848000Y-51750000D03*
%TO.N,SDA_5V*%
X39370000Y-48768000D03*
X44450000Y-77470000D03*
X41783000Y-53594000D03*
%TO.N,SCL_5V*%
X45847000Y-75819000D03*
X43561000Y-50165000D03*
X44323000Y-52197000D03*
X44323000Y-60960000D03*
X45847000Y-65405000D03*
%TO.N,MOSI0*%
X60579000Y-69723000D03*
%TO.N,HC05_RX*%
X40640000Y-62357000D03*
X62484000Y-40386000D03*
X46355000Y-48895000D03*
X44323000Y-62230000D03*
X45339000Y-59944000D03*
X45339000Y-56769000D03*
%TO.N,HC05_TX*%
X40767000Y-63881000D03*
X43561000Y-63627000D03*
X58420000Y-36957000D03*
X46482000Y-46228000D03*
%TO.N,~HC05_KEY*%
X40640000Y-71247000D03*
X42672000Y-69977000D03*
X42672000Y-52324000D03*
X44386500Y-35115500D03*
%TD*%
D18*
%TO.N,FLOW_PULSE*%
X68580000Y-53594000D02*
X68580000Y-58166000D01*
X68580000Y-58166000D02*
X64008000Y-62738000D01*
%TO.N,ADC1*%
X75946000Y-36068000D02*
X71374000Y-40640000D01*
X77724000Y-36068000D02*
X75946000Y-36068000D01*
%TO.N,+3V3*%
X39304000Y-53070000D02*
X40624000Y-53070000D01*
X35748000Y-50530000D02*
X35748000Y-51750000D01*
X39338000Y-53104000D02*
X39304000Y-53070000D01*
X39338000Y-55372000D02*
X39338000Y-53104000D01*
X38211000Y-73959000D02*
X38288000Y-73882000D01*
X38211000Y-75946000D02*
X38211000Y-73959000D01*
X38211000Y-75946000D02*
X40005000Y-75946000D01*
X39973000Y-67820000D02*
X39939000Y-67786000D01*
X39973000Y-69723000D02*
X39973000Y-67820000D01*
X39939000Y-67786000D02*
X41053000Y-67786000D01*
X41058000Y-67781000D02*
X41058000Y-67691000D01*
X41053000Y-67786000D02*
X41058000Y-67781000D01*
X35494000Y-66895000D02*
X35528000Y-66929000D01*
X35494000Y-64992000D02*
X35494000Y-66895000D01*
X35528000Y-68421000D02*
X35560000Y-68453000D01*
X35528000Y-66929000D02*
X35528000Y-68421000D01*
%TO.N,ADC0*%
X69342000Y-37592000D02*
X69342000Y-43180000D01*
X75184000Y-31750000D02*
X69342000Y-37592000D01*
%TO.N,+5V*%
X41656000Y-48800000D02*
X41656000Y-46228000D01*
X41640000Y-46244000D02*
X41656000Y-46228000D01*
X37592000Y-46244000D02*
X41640000Y-46244000D01*
X41656000Y-46228000D02*
X41656000Y-46228000D01*
X52832000Y-24511000D02*
X52959000Y-24384000D01*
X52832000Y-32512000D02*
X52832000Y-24511000D01*
X67310000Y-38862000D02*
X67310000Y-47752000D01*
X75184000Y-64389000D02*
X75184000Y-80137000D01*
X73787000Y-62992000D02*
X75184000Y-64389000D01*
%TO.N,SCL0*%
X30758001Y-53070000D02*
X30590000Y-53238001D01*
X37404000Y-53070000D02*
X30758001Y-53070000D01*
X37338000Y-53136000D02*
X37404000Y-53070000D01*
X37338000Y-55372000D02*
X37338000Y-53136000D01*
%TO.N,SDA0*%
X33679999Y-50698001D02*
X33848000Y-50530000D01*
X30590000Y-50698001D02*
X33679999Y-50698001D01*
X33848000Y-50530000D02*
X33848000Y-51750000D01*
%TO.N,UART_RX0*%
X30590000Y-71018001D02*
X32994999Y-71018001D01*
X34290000Y-69723000D02*
X37973000Y-69723000D01*
X32994999Y-71018001D02*
X34290000Y-69723000D01*
X37973000Y-67852000D02*
X38039000Y-67786000D01*
X37973000Y-69723000D02*
X37973000Y-67852000D01*
%TO.N,UART_TX0*%
X31978999Y-68478001D02*
X33528000Y-66929000D01*
X30590000Y-68478001D02*
X31978999Y-68478001D01*
X33528000Y-65058000D02*
X33594000Y-64992000D01*
X33528000Y-66929000D02*
X33528000Y-65058000D01*
%TO.N,SDA_5V*%
X37306000Y-48530000D02*
X37592000Y-48244000D01*
X34798000Y-48530000D02*
X37306000Y-48530000D01*
X37592000Y-48244000D02*
X38846000Y-48244000D01*
X38846000Y-48244000D02*
X39370000Y-48768000D01*
X41783000Y-74803000D02*
X44450000Y-77470000D01*
X41783000Y-53594000D02*
X41783000Y-74803000D01*
%TO.N,SCL_5V*%
X41386000Y-51070000D02*
X41656000Y-50800000D01*
X38354000Y-51070000D02*
X41386000Y-51070000D01*
X41656000Y-50800000D02*
X42799000Y-50800000D01*
X43434000Y-50165000D02*
X43561000Y-50165000D01*
X42799000Y-50800000D02*
X43434000Y-50165000D01*
X45847000Y-65405000D02*
X45847000Y-75819000D01*
X44323000Y-52197000D02*
X44323000Y-60960000D01*
%TO.N,MOSI0*%
X59334001Y-68478001D02*
X48370000Y-68478001D01*
X60579000Y-69723000D02*
X59334001Y-68478001D01*
%TO.N,HC05_RX*%
X34544000Y-62992000D02*
X39116000Y-62992000D01*
X39751000Y-62357000D02*
X40640000Y-62357000D01*
X39116000Y-62992000D02*
X39751000Y-62357000D01*
X62484000Y-40386000D02*
X62484000Y-36449000D01*
X59729001Y-25233999D02*
X60579000Y-24384000D01*
X59729001Y-33694001D02*
X59729001Y-25233999D01*
X62484000Y-36449000D02*
X59729001Y-33694001D01*
X46355000Y-48895000D02*
X46355000Y-50419000D01*
X44323000Y-62230000D02*
X45339000Y-61214000D01*
X45339000Y-61214000D02*
X45339000Y-59944000D01*
X45339000Y-51435000D02*
X46355000Y-50419000D01*
X45339000Y-56769000D02*
X45339000Y-51435000D01*
%TO.N,HC05_TX*%
X38989000Y-65786000D02*
X38989000Y-64897000D01*
X40005000Y-63881000D02*
X40767000Y-63881000D01*
X38989000Y-64897000D02*
X40005000Y-63881000D01*
X58420000Y-24765000D02*
X58039000Y-24384000D01*
X58420000Y-36957000D02*
X58420000Y-24765000D01*
X44958000Y-50419000D02*
X43561000Y-51816000D01*
X43561000Y-51816000D02*
X43561000Y-63627000D01*
X44958000Y-47752000D02*
X44958000Y-50419000D01*
X46482000Y-46228000D02*
X44958000Y-47752000D01*
%TO.N,~HC05_KEY*%
X44450000Y-30353000D02*
X50419000Y-24384000D01*
X44450000Y-35052000D02*
X44450000Y-30353000D01*
X37338000Y-71882000D02*
X40005000Y-71882000D01*
X40005000Y-71882000D02*
X40640000Y-71247000D01*
X40640000Y-71247000D02*
X40640000Y-71247000D01*
X42672000Y-69977000D02*
X42672000Y-52324000D01*
%TO.N,~UART_KEY*%
X36058999Y-76098001D02*
X36211000Y-75946000D01*
X30590000Y-76098001D02*
X36058999Y-76098001D01*
X36211000Y-74059000D02*
X36388000Y-73882000D01*
X36211000Y-75946000D02*
X36211000Y-74059000D01*
%TD*%
D19*
%TO.N,GND*%
X48979498Y-23289820D02*
X48943188Y-23409518D01*
X48930928Y-23534000D01*
X48930928Y-24797270D01*
X43938998Y-29789201D01*
X43910000Y-29812999D01*
X43886202Y-29841997D01*
X43886201Y-29841998D01*
X43815026Y-29928724D01*
X43744454Y-30060754D01*
X43727859Y-30115463D01*
X43706197Y-30186876D01*
X43681011Y-30060258D01*
X43565299Y-29780906D01*
X43397312Y-29529496D01*
X43183505Y-29315689D01*
X42932095Y-29147702D01*
X42652743Y-29031990D01*
X42356184Y-28973001D01*
X42053816Y-28973001D01*
X41757257Y-29031990D01*
X41477905Y-29147702D01*
X41226495Y-29315689D01*
X41012688Y-29529496D01*
X40844701Y-29780906D01*
X40728989Y-30060258D01*
X40670000Y-30356817D01*
X40670000Y-30659185D01*
X40728989Y-30955744D01*
X40844701Y-31235096D01*
X41012688Y-31486506D01*
X41226495Y-31700313D01*
X41477905Y-31868300D01*
X41757257Y-31984012D01*
X42053816Y-32043001D01*
X42356184Y-32043001D01*
X42652743Y-31984012D01*
X42932095Y-31868300D01*
X43183505Y-31700313D01*
X43397312Y-31486506D01*
X43565299Y-31235096D01*
X43681011Y-30955744D01*
X43690001Y-30910549D01*
X43690000Y-34348289D01*
X43582563Y-34455726D01*
X43469295Y-34625244D01*
X43391274Y-34813602D01*
X43351500Y-35013561D01*
X43351500Y-35217439D01*
X43391274Y-35417398D01*
X43469295Y-35605756D01*
X43582563Y-35775274D01*
X43726726Y-35919437D01*
X43896244Y-36032705D01*
X44084602Y-36110726D01*
X44284561Y-36150500D01*
X44488439Y-36150500D01*
X44688398Y-36110726D01*
X44876756Y-36032705D01*
X45046274Y-35919437D01*
X45190437Y-35775274D01*
X45303705Y-35605756D01*
X45381726Y-35417398D01*
X45421500Y-35217439D01*
X45421500Y-35013561D01*
X45381726Y-34813602D01*
X45303705Y-34625244D01*
X45292184Y-34608001D01*
X46881928Y-34608001D01*
X46885000Y-35172251D01*
X47043750Y-35331001D01*
X48243000Y-35331001D01*
X48243000Y-35311001D01*
X48497000Y-35311001D01*
X48497000Y-35331001D01*
X49696250Y-35331001D01*
X49855000Y-35172251D01*
X49858072Y-34608001D01*
X49845812Y-34483519D01*
X49809502Y-34363821D01*
X49750537Y-34253507D01*
X49671185Y-34156816D01*
X49574494Y-34077464D01*
X49464180Y-34018499D01*
X49391620Y-33996488D01*
X49523475Y-33864633D01*
X49685990Y-33621412D01*
X49797932Y-33351159D01*
X49855000Y-33064261D01*
X49855000Y-32771741D01*
X49797932Y-32484843D01*
X49685990Y-32214590D01*
X49523475Y-31971369D01*
X49316632Y-31764526D01*
X49142240Y-31648001D01*
X49316632Y-31531476D01*
X49523475Y-31324633D01*
X49685990Y-31081412D01*
X49797932Y-30811159D01*
X49855000Y-30524261D01*
X49855000Y-30231741D01*
X49797932Y-29944843D01*
X49685990Y-29674590D01*
X49523475Y-29431369D01*
X49316632Y-29224526D01*
X49073411Y-29062011D01*
X48803158Y-28950069D01*
X48516260Y-28893001D01*
X48223740Y-28893001D01*
X47936842Y-28950069D01*
X47666589Y-29062011D01*
X47423368Y-29224526D01*
X47216525Y-29431369D01*
X47054010Y-29674590D01*
X46942068Y-29944843D01*
X46885000Y-30231741D01*
X46885000Y-30524261D01*
X46942068Y-30811159D01*
X47054010Y-31081412D01*
X47216525Y-31324633D01*
X47423368Y-31531476D01*
X47597760Y-31648001D01*
X47423368Y-31764526D01*
X47216525Y-31971369D01*
X47054010Y-32214590D01*
X46942068Y-32484843D01*
X46885000Y-32771741D01*
X46885000Y-33064261D01*
X46942068Y-33351159D01*
X47054010Y-33621412D01*
X47216525Y-33864633D01*
X47348380Y-33996488D01*
X47275820Y-34018499D01*
X47165506Y-34077464D01*
X47068815Y-34156816D01*
X46989463Y-34253507D01*
X46930498Y-34363821D01*
X46894188Y-34483519D01*
X46881928Y-34608001D01*
X45292184Y-34608001D01*
X45210000Y-34485004D01*
X45210000Y-30667801D01*
X50005730Y-25872072D01*
X51269000Y-25872072D01*
X51393482Y-25859812D01*
X51513180Y-25823502D01*
X51623494Y-25764537D01*
X51720185Y-25685185D01*
X51799537Y-25588494D01*
X51858502Y-25478180D01*
X51880513Y-25405620D01*
X52012368Y-25537475D01*
X52072001Y-25577320D01*
X52072000Y-31808289D01*
X52028063Y-31852226D01*
X51914795Y-32021744D01*
X51836774Y-32210102D01*
X51797000Y-32410061D01*
X51797000Y-32613939D01*
X51836774Y-32813898D01*
X51914795Y-33002256D01*
X52028063Y-33171774D01*
X52172226Y-33315937D01*
X52341744Y-33429205D01*
X52530102Y-33507226D01*
X52730061Y-33547000D01*
X52933939Y-33547000D01*
X53133898Y-33507226D01*
X53322256Y-33429205D01*
X53491774Y-33315937D01*
X53635937Y-33171774D01*
X53749205Y-33002256D01*
X53827226Y-32813898D01*
X53867000Y-32613939D01*
X53867000Y-32410061D01*
X53827226Y-32210102D01*
X53749205Y-32021744D01*
X53635937Y-31852226D01*
X53592000Y-31808289D01*
X53592000Y-25729155D01*
X53662411Y-25699990D01*
X53905632Y-25537475D01*
X54112475Y-25330632D01*
X54234195Y-25148466D01*
X54303822Y-25265355D01*
X54498731Y-25481588D01*
X54732080Y-25655641D01*
X54994901Y-25780825D01*
X55142110Y-25825476D01*
X55372000Y-25704155D01*
X55372000Y-24511000D01*
X55352000Y-24511000D01*
X55352000Y-24257000D01*
X55372000Y-24257000D01*
X55372000Y-24237000D01*
X55626000Y-24237000D01*
X55626000Y-24257000D01*
X55646000Y-24257000D01*
X55646000Y-24511000D01*
X55626000Y-24511000D01*
X55626000Y-25704155D01*
X55855890Y-25825476D01*
X56003099Y-25780825D01*
X56265920Y-25655641D01*
X56499269Y-25481588D01*
X56694178Y-25265355D01*
X56763805Y-25148466D01*
X56885525Y-25330632D01*
X57092368Y-25537475D01*
X57335589Y-25699990D01*
X57605842Y-25811932D01*
X57660001Y-25822705D01*
X57660000Y-36253289D01*
X57616063Y-36297226D01*
X57502795Y-36466744D01*
X57424774Y-36655102D01*
X57385000Y-36855061D01*
X57385000Y-37058939D01*
X57424774Y-37258898D01*
X57502795Y-37447256D01*
X57616063Y-37616774D01*
X57760226Y-37760937D01*
X57929744Y-37874205D01*
X58118102Y-37952226D01*
X58318061Y-37992000D01*
X58521939Y-37992000D01*
X58721898Y-37952226D01*
X58910256Y-37874205D01*
X59079774Y-37760937D01*
X59223937Y-37616774D01*
X59337205Y-37447256D01*
X59415226Y-37258898D01*
X59455000Y-37058939D01*
X59455000Y-36855061D01*
X59415226Y-36655102D01*
X59337205Y-36466744D01*
X59223937Y-36297226D01*
X59180000Y-36253289D01*
X59180000Y-34223035D01*
X59189000Y-34234002D01*
X59218004Y-34257805D01*
X61724001Y-36763803D01*
X61724000Y-39682289D01*
X61680063Y-39726226D01*
X61566795Y-39895744D01*
X61488774Y-40084102D01*
X61449000Y-40284061D01*
X61449000Y-40487939D01*
X61488774Y-40687898D01*
X61566795Y-40876256D01*
X61680063Y-41045774D01*
X61824226Y-41189937D01*
X61993744Y-41303205D01*
X62182102Y-41381226D01*
X62382061Y-41421000D01*
X62585939Y-41421000D01*
X62785898Y-41381226D01*
X62974256Y-41303205D01*
X63143774Y-41189937D01*
X63287937Y-41045774D01*
X63401205Y-40876256D01*
X63479226Y-40687898D01*
X63519000Y-40487939D01*
X63519000Y-40284061D01*
X63479226Y-40084102D01*
X63401205Y-39895744D01*
X63287937Y-39726226D01*
X63244000Y-39682289D01*
X63244000Y-38760061D01*
X66275000Y-38760061D01*
X66275000Y-38963939D01*
X66314774Y-39163898D01*
X66392795Y-39352256D01*
X66506063Y-39521774D01*
X66550000Y-39565711D01*
X66550001Y-47048288D01*
X66506063Y-47092226D01*
X66392795Y-47261744D01*
X66314774Y-47450102D01*
X66275000Y-47650061D01*
X66275000Y-47853939D01*
X66314774Y-48053898D01*
X66392795Y-48242256D01*
X66506063Y-48411774D01*
X66650226Y-48555937D01*
X66819744Y-48669205D01*
X67008102Y-48747226D01*
X67208061Y-48787000D01*
X67411939Y-48787000D01*
X67611898Y-48747226D01*
X67800256Y-48669205D01*
X67969774Y-48555937D01*
X68113937Y-48411774D01*
X68227205Y-48242256D01*
X68305226Y-48053898D01*
X68345000Y-47853939D01*
X68345000Y-47846000D01*
X96945138Y-47846000D01*
X96976513Y-48164556D01*
X97069432Y-48470869D01*
X97220325Y-48753170D01*
X97423392Y-49000608D01*
X97670830Y-49203675D01*
X97953131Y-49354568D01*
X98259444Y-49447487D01*
X98498176Y-49471000D01*
X100637824Y-49471000D01*
X100876556Y-49447487D01*
X101182869Y-49354568D01*
X101465170Y-49203675D01*
X101712608Y-49000608D01*
X101915675Y-48753170D01*
X102066568Y-48470869D01*
X102159487Y-48164556D01*
X102190862Y-47846000D01*
X102159487Y-47527444D01*
X102066568Y-47221131D01*
X101915675Y-46938830D01*
X101712608Y-46691392D01*
X101465170Y-46488325D01*
X101182869Y-46337432D01*
X100876556Y-46244513D01*
X100637824Y-46221000D01*
X98498176Y-46221000D01*
X98259444Y-46244513D01*
X97953131Y-46337432D01*
X97670830Y-46488325D01*
X97423392Y-46691392D01*
X97220325Y-46938830D01*
X97069432Y-47221131D01*
X96976513Y-47527444D01*
X96945138Y-47846000D01*
X68345000Y-47846000D01*
X68345000Y-47650061D01*
X68305226Y-47450102D01*
X68227205Y-47261744D01*
X68113937Y-47092226D01*
X68070000Y-47048289D01*
X68070000Y-43078061D01*
X68307000Y-43078061D01*
X68307000Y-43281939D01*
X68346774Y-43481898D01*
X68424795Y-43670256D01*
X68538063Y-43839774D01*
X68682226Y-43983937D01*
X68851744Y-44097205D01*
X69040102Y-44175226D01*
X69240061Y-44215000D01*
X69443939Y-44215000D01*
X69643898Y-44175226D01*
X69832256Y-44097205D01*
X70001774Y-43983937D01*
X70145937Y-43839774D01*
X70259205Y-43670256D01*
X70337226Y-43481898D01*
X70377000Y-43281939D01*
X70377000Y-43078061D01*
X70337226Y-42878102D01*
X70323439Y-42844816D01*
X79836000Y-42844816D01*
X79836000Y-43147184D01*
X79894989Y-43443743D01*
X80010701Y-43723095D01*
X80178688Y-43974505D01*
X80392495Y-44188312D01*
X80643905Y-44356299D01*
X80923257Y-44472011D01*
X81219816Y-44531000D01*
X81522184Y-44531000D01*
X81818743Y-44472011D01*
X82098095Y-44356299D01*
X82349505Y-44188312D01*
X82563312Y-43974505D01*
X82731299Y-43723095D01*
X82847011Y-43443743D01*
X82906000Y-43147184D01*
X82906000Y-42846000D01*
X96945138Y-42846000D01*
X96976513Y-43164556D01*
X97069432Y-43470869D01*
X97220325Y-43753170D01*
X97423392Y-44000608D01*
X97670830Y-44203675D01*
X97953131Y-44354568D01*
X98259444Y-44447487D01*
X98498176Y-44471000D01*
X100637824Y-44471000D01*
X100876556Y-44447487D01*
X101182869Y-44354568D01*
X101465170Y-44203675D01*
X101712608Y-44000608D01*
X101915675Y-43753170D01*
X102066568Y-43470869D01*
X102159487Y-43164556D01*
X102190862Y-42846000D01*
X102159487Y-42527444D01*
X102066568Y-42221131D01*
X101915675Y-41938830D01*
X101712608Y-41691392D01*
X101465170Y-41488325D01*
X101182869Y-41337432D01*
X100876556Y-41244513D01*
X100637824Y-41221000D01*
X98498176Y-41221000D01*
X98259444Y-41244513D01*
X97953131Y-41337432D01*
X97670830Y-41488325D01*
X97423392Y-41691392D01*
X97220325Y-41938830D01*
X97069432Y-42221131D01*
X96976513Y-42527444D01*
X96945138Y-42846000D01*
X82906000Y-42846000D01*
X82906000Y-42844816D01*
X82847011Y-42548257D01*
X82731299Y-42268905D01*
X82563312Y-42017495D01*
X82349505Y-41803688D01*
X82098095Y-41635701D01*
X81818743Y-41519989D01*
X81522184Y-41461000D01*
X81219816Y-41461000D01*
X80923257Y-41519989D01*
X80643905Y-41635701D01*
X80392495Y-41803688D01*
X80178688Y-42017495D01*
X80010701Y-42268905D01*
X79894989Y-42548257D01*
X79836000Y-42844816D01*
X70323439Y-42844816D01*
X70259205Y-42689744D01*
X70145937Y-42520226D01*
X70102000Y-42476289D01*
X70102000Y-40538061D01*
X70339000Y-40538061D01*
X70339000Y-40741939D01*
X70378774Y-40941898D01*
X70456795Y-41130256D01*
X70570063Y-41299774D01*
X70714226Y-41443937D01*
X70883744Y-41557205D01*
X71072102Y-41635226D01*
X71272061Y-41675000D01*
X71475939Y-41675000D01*
X71675898Y-41635226D01*
X71864256Y-41557205D01*
X72033774Y-41443937D01*
X72177937Y-41299774D01*
X72291205Y-41130256D01*
X72369226Y-40941898D01*
X72409000Y-40741939D01*
X72409000Y-40679801D01*
X74252801Y-38836000D01*
X96949928Y-38836000D01*
X96962188Y-38960482D01*
X96998498Y-39080180D01*
X97057463Y-39190494D01*
X97136815Y-39287185D01*
X97233506Y-39366537D01*
X97343820Y-39425502D01*
X97463518Y-39461812D01*
X97588000Y-39474072D01*
X99282250Y-39471000D01*
X99441000Y-39312250D01*
X99441000Y-37973000D01*
X99695000Y-37973000D01*
X99695000Y-39312250D01*
X99853750Y-39471000D01*
X101548000Y-39474072D01*
X101672482Y-39461812D01*
X101792180Y-39425502D01*
X101902494Y-39366537D01*
X101999185Y-39287185D01*
X102078537Y-39190494D01*
X102137502Y-39080180D01*
X102173812Y-38960482D01*
X102186072Y-38836000D01*
X102183000Y-38131750D01*
X102024250Y-37973000D01*
X99695000Y-37973000D01*
X99441000Y-37973000D01*
X97111750Y-37973000D01*
X96953000Y-38131750D01*
X96949928Y-38836000D01*
X74252801Y-38836000D01*
X76260803Y-36828000D01*
X77020289Y-36828000D01*
X77064226Y-36871937D01*
X77233744Y-36985205D01*
X77422102Y-37063226D01*
X77622061Y-37103000D01*
X77825939Y-37103000D01*
X78025898Y-37063226D01*
X78214256Y-36985205D01*
X78383774Y-36871937D01*
X78399711Y-36856000D01*
X96949928Y-36856000D01*
X96953000Y-37560250D01*
X97111750Y-37719000D01*
X99441000Y-37719000D01*
X99441000Y-36379750D01*
X99695000Y-36379750D01*
X99695000Y-37719000D01*
X102024250Y-37719000D01*
X102183000Y-37560250D01*
X102186072Y-36856000D01*
X102173812Y-36731518D01*
X102137502Y-36611820D01*
X102078537Y-36501506D01*
X101999185Y-36404815D01*
X101902494Y-36325463D01*
X101792180Y-36266498D01*
X101672482Y-36230188D01*
X101548000Y-36217928D01*
X99853750Y-36221000D01*
X99695000Y-36379750D01*
X99441000Y-36379750D01*
X99282250Y-36221000D01*
X97588000Y-36217928D01*
X97463518Y-36230188D01*
X97343820Y-36266498D01*
X97233506Y-36325463D01*
X97136815Y-36404815D01*
X97057463Y-36501506D01*
X96998498Y-36611820D01*
X96962188Y-36731518D01*
X96949928Y-36856000D01*
X78399711Y-36856000D01*
X78527937Y-36727774D01*
X78641205Y-36558256D01*
X78719226Y-36369898D01*
X78759000Y-36169939D01*
X78759000Y-35966061D01*
X78719226Y-35766102D01*
X78641205Y-35577744D01*
X78527937Y-35408226D01*
X78383774Y-35264063D01*
X78214256Y-35150795D01*
X78025898Y-35072774D01*
X77825939Y-35033000D01*
X77622061Y-35033000D01*
X77422102Y-35072774D01*
X77233744Y-35150795D01*
X77064226Y-35264063D01*
X77020289Y-35308000D01*
X75983322Y-35308000D01*
X75945999Y-35304324D01*
X75908676Y-35308000D01*
X75908667Y-35308000D01*
X75797014Y-35318997D01*
X75653753Y-35362454D01*
X75521724Y-35433026D01*
X75521722Y-35433027D01*
X75521723Y-35433027D01*
X75434996Y-35504201D01*
X75434992Y-35504205D01*
X75405999Y-35527999D01*
X75382205Y-35556992D01*
X71334199Y-39605000D01*
X71272061Y-39605000D01*
X71072102Y-39644774D01*
X70883744Y-39722795D01*
X70714226Y-39836063D01*
X70570063Y-39980226D01*
X70456795Y-40149744D01*
X70378774Y-40338102D01*
X70339000Y-40538061D01*
X70102000Y-40538061D01*
X70102000Y-37906801D01*
X75223802Y-32785000D01*
X75285939Y-32785000D01*
X75485898Y-32745226D01*
X75674256Y-32667205D01*
X75843774Y-32553937D01*
X75987937Y-32409774D01*
X76101205Y-32240256D01*
X76179226Y-32051898D01*
X76219000Y-31851939D01*
X76219000Y-31648061D01*
X76179226Y-31448102D01*
X76101205Y-31259744D01*
X75987937Y-31090226D01*
X75843774Y-30946063D01*
X75674256Y-30832795D01*
X75485898Y-30754774D01*
X75285939Y-30715000D01*
X75082061Y-30715000D01*
X74882102Y-30754774D01*
X74693744Y-30832795D01*
X74524226Y-30946063D01*
X74380063Y-31090226D01*
X74266795Y-31259744D01*
X74188774Y-31448102D01*
X74149000Y-31648061D01*
X74149000Y-31710198D01*
X68831003Y-37028196D01*
X68801999Y-37051999D01*
X68746871Y-37119174D01*
X68707026Y-37167724D01*
X68663451Y-37249246D01*
X68636454Y-37299754D01*
X68592997Y-37443015D01*
X68582000Y-37554668D01*
X68582000Y-37554678D01*
X68578324Y-37592000D01*
X68582000Y-37629323D01*
X68582001Y-42476288D01*
X68538063Y-42520226D01*
X68424795Y-42689744D01*
X68346774Y-42878102D01*
X68307000Y-43078061D01*
X68070000Y-43078061D01*
X68070000Y-39565711D01*
X68113937Y-39521774D01*
X68227205Y-39352256D01*
X68305226Y-39163898D01*
X68345000Y-38963939D01*
X68345000Y-38760061D01*
X68305226Y-38560102D01*
X68227205Y-38371744D01*
X68113937Y-38202226D01*
X67969774Y-38058063D01*
X67800256Y-37944795D01*
X67611898Y-37866774D01*
X67411939Y-37827000D01*
X67208061Y-37827000D01*
X67008102Y-37866774D01*
X66819744Y-37944795D01*
X66650226Y-38058063D01*
X66506063Y-38202226D01*
X66392795Y-38371744D01*
X66314774Y-38560102D01*
X66275000Y-38760061D01*
X63244000Y-38760061D01*
X63244000Y-36486323D01*
X63247676Y-36449000D01*
X63244000Y-36411677D01*
X63244000Y-36411667D01*
X63233003Y-36300014D01*
X63189546Y-36156753D01*
X63164944Y-36110726D01*
X63118974Y-36024723D01*
X63047799Y-35937997D01*
X63024001Y-35908999D01*
X62995003Y-35885201D01*
X60489001Y-33379200D01*
X60489001Y-32853144D01*
X60517506Y-32876537D01*
X60627820Y-32935502D01*
X60747518Y-32971812D01*
X60872000Y-32984072D01*
X62572000Y-32984072D01*
X62696482Y-32971812D01*
X62816180Y-32935502D01*
X62926494Y-32876537D01*
X63023185Y-32797185D01*
X63102537Y-32700494D01*
X63161502Y-32590180D01*
X63185966Y-32509534D01*
X63261731Y-32593588D01*
X63495080Y-32767641D01*
X63757901Y-32892825D01*
X63905110Y-32937476D01*
X64135000Y-32816155D01*
X64135000Y-31623000D01*
X64115000Y-31623000D01*
X64115000Y-31369000D01*
X64135000Y-31369000D01*
X64135000Y-30175845D01*
X64389000Y-30175845D01*
X64389000Y-31369000D01*
X64409000Y-31369000D01*
X64409000Y-31623000D01*
X64389000Y-31623000D01*
X64389000Y-32816155D01*
X64618890Y-32937476D01*
X64766099Y-32892825D01*
X65028920Y-32767641D01*
X65262269Y-32593588D01*
X65457178Y-32377355D01*
X65526805Y-32260466D01*
X65648525Y-32442632D01*
X65855368Y-32649475D01*
X66098589Y-32811990D01*
X66368842Y-32923932D01*
X66655740Y-32981000D01*
X66948260Y-32981000D01*
X67235158Y-32923932D01*
X67505411Y-32811990D01*
X67748632Y-32649475D01*
X67955475Y-32442632D01*
X68072000Y-32268240D01*
X68188525Y-32442632D01*
X68395368Y-32649475D01*
X68638589Y-32811990D01*
X68908842Y-32923932D01*
X69195740Y-32981000D01*
X69488260Y-32981000D01*
X69775158Y-32923932D01*
X70045411Y-32811990D01*
X70288632Y-32649475D01*
X70495475Y-32442632D01*
X70657990Y-32199411D01*
X70769932Y-31929158D01*
X70827000Y-31642260D01*
X70827000Y-31349740D01*
X70769932Y-31062842D01*
X70657990Y-30792589D01*
X70495475Y-30549368D01*
X70288632Y-30342525D01*
X70045411Y-30180010D01*
X69775158Y-30068068D01*
X69488260Y-30011000D01*
X69195740Y-30011000D01*
X68908842Y-30068068D01*
X68638589Y-30180010D01*
X68395368Y-30342525D01*
X68188525Y-30549368D01*
X68072000Y-30723760D01*
X67955475Y-30549368D01*
X67748632Y-30342525D01*
X67505411Y-30180010D01*
X67235158Y-30068068D01*
X66948260Y-30011000D01*
X66655740Y-30011000D01*
X66368842Y-30068068D01*
X66098589Y-30180010D01*
X65855368Y-30342525D01*
X65648525Y-30549368D01*
X65526805Y-30731534D01*
X65457178Y-30614645D01*
X65262269Y-30398412D01*
X65028920Y-30224359D01*
X64766099Y-30099175D01*
X64618890Y-30054524D01*
X64389000Y-30175845D01*
X64135000Y-30175845D01*
X63905110Y-30054524D01*
X63757901Y-30099175D01*
X63495080Y-30224359D01*
X63261731Y-30398412D01*
X63185966Y-30482466D01*
X63161502Y-30401820D01*
X63102537Y-30291506D01*
X63023185Y-30194815D01*
X62926494Y-30115463D01*
X62816180Y-30056498D01*
X62696482Y-30020188D01*
X62572000Y-30007928D01*
X60872000Y-30007928D01*
X60747518Y-30020188D01*
X60627820Y-30056498D01*
X60517506Y-30115463D01*
X60489001Y-30138856D01*
X60489001Y-28809740D01*
X82589000Y-28809740D01*
X82589000Y-29102260D01*
X82646068Y-29389158D01*
X82758010Y-29659411D01*
X82920525Y-29902632D01*
X83127368Y-30109475D01*
X83370589Y-30271990D01*
X83640842Y-30383932D01*
X83927740Y-30441000D01*
X84220260Y-30441000D01*
X84507158Y-30383932D01*
X84777411Y-30271990D01*
X85020632Y-30109475D01*
X85227475Y-29902632D01*
X85344000Y-29728240D01*
X85460525Y-29902632D01*
X85667368Y-30109475D01*
X85910589Y-30271990D01*
X86180842Y-30383932D01*
X86467740Y-30441000D01*
X86760260Y-30441000D01*
X87047158Y-30383932D01*
X87317411Y-30271990D01*
X87560632Y-30109475D01*
X87692487Y-29977620D01*
X87714498Y-30050180D01*
X87773463Y-30160494D01*
X87852815Y-30257185D01*
X87949506Y-30336537D01*
X88059820Y-30395502D01*
X88179518Y-30431812D01*
X88304000Y-30444072D01*
X88868250Y-30441000D01*
X89027000Y-30282250D01*
X89027000Y-29083000D01*
X89281000Y-29083000D01*
X89281000Y-30282250D01*
X89439750Y-30441000D01*
X90004000Y-30444072D01*
X90128482Y-30431812D01*
X90248180Y-30395502D01*
X90358494Y-30336537D01*
X90455185Y-30257185D01*
X90534537Y-30160494D01*
X90593502Y-30050180D01*
X90629812Y-29930482D01*
X90642072Y-29806000D01*
X90639000Y-29241750D01*
X90480250Y-29083000D01*
X89281000Y-29083000D01*
X89027000Y-29083000D01*
X89007000Y-29083000D01*
X89007000Y-28829000D01*
X89027000Y-28829000D01*
X89027000Y-27629750D01*
X89281000Y-27629750D01*
X89281000Y-28829000D01*
X90480250Y-28829000D01*
X90499510Y-28809740D01*
X95289000Y-28809740D01*
X95289000Y-29102260D01*
X95346068Y-29389158D01*
X95458010Y-29659411D01*
X95620525Y-29902632D01*
X95827368Y-30109475D01*
X96070589Y-30271990D01*
X96340842Y-30383932D01*
X96627740Y-30441000D01*
X96920260Y-30441000D01*
X97207158Y-30383932D01*
X97477411Y-30271990D01*
X97720632Y-30109475D01*
X97927475Y-29902632D01*
X98044000Y-29728240D01*
X98160525Y-29902632D01*
X98367368Y-30109475D01*
X98610589Y-30271990D01*
X98880842Y-30383932D01*
X99167740Y-30441000D01*
X99460260Y-30441000D01*
X99747158Y-30383932D01*
X100017411Y-30271990D01*
X100260632Y-30109475D01*
X100392487Y-29977620D01*
X100414498Y-30050180D01*
X100473463Y-30160494D01*
X100552815Y-30257185D01*
X100649506Y-30336537D01*
X100759820Y-30395502D01*
X100879518Y-30431812D01*
X101004000Y-30444072D01*
X101568250Y-30441000D01*
X101727000Y-30282250D01*
X101727000Y-29083000D01*
X101981000Y-29083000D01*
X101981000Y-30282250D01*
X102139750Y-30441000D01*
X102704000Y-30444072D01*
X102828482Y-30431812D01*
X102948180Y-30395502D01*
X103058494Y-30336537D01*
X103155185Y-30257185D01*
X103234537Y-30160494D01*
X103293502Y-30050180D01*
X103329812Y-29930482D01*
X103342072Y-29806000D01*
X103339000Y-29241750D01*
X103180250Y-29083000D01*
X101981000Y-29083000D01*
X101727000Y-29083000D01*
X101707000Y-29083000D01*
X101707000Y-28829000D01*
X101727000Y-28829000D01*
X101727000Y-27629750D01*
X101981000Y-27629750D01*
X101981000Y-28829000D01*
X103180250Y-28829000D01*
X103339000Y-28670250D01*
X103342072Y-28106000D01*
X103329812Y-27981518D01*
X103293502Y-27861820D01*
X103234537Y-27751506D01*
X103155185Y-27654815D01*
X103058494Y-27575463D01*
X102948180Y-27516498D01*
X102828482Y-27480188D01*
X102704000Y-27467928D01*
X102139750Y-27471000D01*
X101981000Y-27629750D01*
X101727000Y-27629750D01*
X101568250Y-27471000D01*
X101004000Y-27467928D01*
X100879518Y-27480188D01*
X100759820Y-27516498D01*
X100649506Y-27575463D01*
X100552815Y-27654815D01*
X100473463Y-27751506D01*
X100414498Y-27861820D01*
X100392487Y-27934380D01*
X100260632Y-27802525D01*
X100017411Y-27640010D01*
X99747158Y-27528068D01*
X99460260Y-27471000D01*
X99167740Y-27471000D01*
X98880842Y-27528068D01*
X98610589Y-27640010D01*
X98367368Y-27802525D01*
X98160525Y-28009368D01*
X98044000Y-28183760D01*
X97927475Y-28009368D01*
X97720632Y-27802525D01*
X97477411Y-27640010D01*
X97207158Y-27528068D01*
X96920260Y-27471000D01*
X96627740Y-27471000D01*
X96340842Y-27528068D01*
X96070589Y-27640010D01*
X95827368Y-27802525D01*
X95620525Y-28009368D01*
X95458010Y-28252589D01*
X95346068Y-28522842D01*
X95289000Y-28809740D01*
X90499510Y-28809740D01*
X90639000Y-28670250D01*
X90642072Y-28106000D01*
X90629812Y-27981518D01*
X90593502Y-27861820D01*
X90534537Y-27751506D01*
X90455185Y-27654815D01*
X90358494Y-27575463D01*
X90248180Y-27516498D01*
X90128482Y-27480188D01*
X90004000Y-27467928D01*
X89439750Y-27471000D01*
X89281000Y-27629750D01*
X89027000Y-27629750D01*
X88868250Y-27471000D01*
X88304000Y-27467928D01*
X88179518Y-27480188D01*
X88059820Y-27516498D01*
X87949506Y-27575463D01*
X87852815Y-27654815D01*
X87773463Y-27751506D01*
X87714498Y-27861820D01*
X87692487Y-27934380D01*
X87560632Y-27802525D01*
X87317411Y-27640010D01*
X87047158Y-27528068D01*
X86760260Y-27471000D01*
X86467740Y-27471000D01*
X86180842Y-27528068D01*
X85910589Y-27640010D01*
X85667368Y-27802525D01*
X85460525Y-28009368D01*
X85344000Y-28183760D01*
X85227475Y-28009368D01*
X85020632Y-27802525D01*
X84777411Y-27640010D01*
X84507158Y-27528068D01*
X84220260Y-27471000D01*
X83927740Y-27471000D01*
X83640842Y-27528068D01*
X83370589Y-27640010D01*
X83127368Y-27802525D01*
X82920525Y-28009368D01*
X82758010Y-28252589D01*
X82646068Y-28522842D01*
X82589000Y-28809740D01*
X60489001Y-28809740D01*
X60489001Y-25869000D01*
X60725260Y-25869000D01*
X61012158Y-25811932D01*
X61282411Y-25699990D01*
X61525632Y-25537475D01*
X61732475Y-25330632D01*
X61849000Y-25156240D01*
X61965525Y-25330632D01*
X62172368Y-25537475D01*
X62415589Y-25699990D01*
X62685842Y-25811932D01*
X62972740Y-25869000D01*
X63265260Y-25869000D01*
X63552158Y-25811932D01*
X63822411Y-25699990D01*
X64065632Y-25537475D01*
X64272475Y-25330632D01*
X64434990Y-25087411D01*
X64546932Y-24817158D01*
X64604000Y-24530260D01*
X64604000Y-24237740D01*
X64546932Y-23950842D01*
X64434990Y-23680589D01*
X64272475Y-23437368D01*
X64076107Y-23241000D01*
X107315000Y-23241000D01*
X107315000Y-84455000D01*
X24003000Y-84455000D01*
X24003000Y-49008001D01*
X29101928Y-49008001D01*
X29114188Y-49132483D01*
X29150498Y-49252181D01*
X29209463Y-49362495D01*
X29288815Y-49459186D01*
X29385506Y-49538538D01*
X29495820Y-49597503D01*
X29568380Y-49619514D01*
X29436525Y-49751369D01*
X29274010Y-49994590D01*
X29162068Y-50264843D01*
X29105000Y-50551741D01*
X29105000Y-50844261D01*
X29162068Y-51131159D01*
X29274010Y-51401412D01*
X29436525Y-51644633D01*
X29643368Y-51851476D01*
X29817760Y-51968001D01*
X29643368Y-52084526D01*
X29436525Y-52291369D01*
X29274010Y-52534590D01*
X29162068Y-52804843D01*
X29105000Y-53091741D01*
X29105000Y-53384261D01*
X29162068Y-53671159D01*
X29274010Y-53941412D01*
X29436525Y-54184633D01*
X29643368Y-54391476D01*
X29817760Y-54508001D01*
X29643368Y-54624526D01*
X29436525Y-54831369D01*
X29274010Y-55074590D01*
X29162068Y-55344843D01*
X29105000Y-55631741D01*
X29105000Y-55924261D01*
X29162068Y-56211159D01*
X29274010Y-56481412D01*
X29436525Y-56724633D01*
X29643368Y-56931476D01*
X29817760Y-57048001D01*
X29643368Y-57164526D01*
X29436525Y-57371369D01*
X29274010Y-57614590D01*
X29162068Y-57884843D01*
X29105000Y-58171741D01*
X29105000Y-58464261D01*
X29162068Y-58751159D01*
X29274010Y-59021412D01*
X29436525Y-59264633D01*
X29568380Y-59396488D01*
X29495820Y-59418499D01*
X29385506Y-59477464D01*
X29288815Y-59556816D01*
X29209463Y-59653507D01*
X29150498Y-59763821D01*
X29114188Y-59883519D01*
X29101928Y-60008001D01*
X29105000Y-60572251D01*
X29263750Y-60731001D01*
X30463000Y-60731001D01*
X30463000Y-60711001D01*
X30717000Y-60711001D01*
X30717000Y-60731001D01*
X31916250Y-60731001D01*
X32075000Y-60572251D01*
X32078072Y-60008001D01*
X32065812Y-59883519D01*
X32029502Y-59763821D01*
X31970537Y-59653507D01*
X31891185Y-59556816D01*
X31794494Y-59477464D01*
X31684180Y-59418499D01*
X31611620Y-59396488D01*
X31743475Y-59264633D01*
X31905990Y-59021412D01*
X32017932Y-58751159D01*
X32075000Y-58464261D01*
X32075000Y-58171741D01*
X32017932Y-57884843D01*
X31905990Y-57614590D01*
X31743475Y-57371369D01*
X31536632Y-57164526D01*
X31362240Y-57048001D01*
X31536632Y-56931476D01*
X31743475Y-56724633D01*
X31905990Y-56481412D01*
X32017932Y-56211159D01*
X32075000Y-55924261D01*
X32075000Y-55631741D01*
X32017932Y-55344843D01*
X31905990Y-55074590D01*
X31743475Y-54831369D01*
X31536632Y-54624526D01*
X31362240Y-54508001D01*
X31536632Y-54391476D01*
X31743475Y-54184633D01*
X31905990Y-53941412D01*
X31952138Y-53830000D01*
X36449680Y-53830000D01*
X36473463Y-53874494D01*
X36552815Y-53971185D01*
X36578001Y-53991854D01*
X36578001Y-54139023D01*
X36494613Y-54183595D01*
X36360038Y-54294038D01*
X36249595Y-54428613D01*
X36167528Y-54582149D01*
X36116992Y-54748745D01*
X36099928Y-54921999D01*
X36099928Y-55822001D01*
X36116992Y-55995255D01*
X36167528Y-56161851D01*
X36249595Y-56315387D01*
X36360038Y-56449962D01*
X36494613Y-56560405D01*
X36648149Y-56642472D01*
X36814745Y-56693008D01*
X36987999Y-56710072D01*
X37688001Y-56710072D01*
X37861255Y-56693008D01*
X38027851Y-56642472D01*
X38181387Y-56560405D01*
X38315962Y-56449962D01*
X38338000Y-56423109D01*
X38360038Y-56449962D01*
X38494613Y-56560405D01*
X38648149Y-56642472D01*
X38814745Y-56693008D01*
X38987999Y-56710072D01*
X39688001Y-56710072D01*
X39861255Y-56693008D01*
X40027851Y-56642472D01*
X40181387Y-56560405D01*
X40315962Y-56449962D01*
X40426405Y-56315387D01*
X40508472Y-56161851D01*
X40559008Y-55995255D01*
X40576072Y-55822001D01*
X40576072Y-54921999D01*
X40559008Y-54748745D01*
X40508472Y-54582149D01*
X40426405Y-54428613D01*
X40315962Y-54294038D01*
X40181387Y-54183595D01*
X40098000Y-54139024D01*
X40098000Y-54018115D01*
X40135020Y-53987734D01*
X40322102Y-54065226D01*
X40522061Y-54105000D01*
X40725939Y-54105000D01*
X40863088Y-54077720D01*
X40865795Y-54084256D01*
X40979063Y-54253774D01*
X41023000Y-54297711D01*
X41023000Y-61395368D01*
X40941898Y-61361774D01*
X40741939Y-61322000D01*
X40538061Y-61322000D01*
X40338102Y-61361774D01*
X40149744Y-61439795D01*
X39980226Y-61553063D01*
X39936289Y-61597000D01*
X39788333Y-61597000D01*
X39751000Y-61593323D01*
X39713667Y-61597000D01*
X39602014Y-61607997D01*
X39458753Y-61651454D01*
X39326724Y-61722026D01*
X39210999Y-61816999D01*
X39187200Y-61845998D01*
X38801199Y-62232000D01*
X35498320Y-62232000D01*
X35474537Y-62187506D01*
X35395185Y-62090815D01*
X35298494Y-62011463D01*
X35188180Y-61952498D01*
X35068482Y-61916188D01*
X34944000Y-61903928D01*
X34144000Y-61903928D01*
X34019518Y-61916188D01*
X33899820Y-61952498D01*
X33789506Y-62011463D01*
X33692815Y-62090815D01*
X33613463Y-62187506D01*
X33554498Y-62297820D01*
X33518188Y-62417518D01*
X33505928Y-62542000D01*
X33505928Y-63442000D01*
X33518188Y-63566482D01*
X33554498Y-63686180D01*
X33613463Y-63796494D01*
X33692815Y-63893185D01*
X33705905Y-63903928D01*
X33194000Y-63903928D01*
X33069518Y-63916188D01*
X32949820Y-63952498D01*
X32839506Y-64011463D01*
X32742815Y-64090815D01*
X32663463Y-64187506D01*
X32604498Y-64297820D01*
X32568188Y-64417518D01*
X32555928Y-64542000D01*
X32555928Y-65442000D01*
X32568188Y-65566482D01*
X32604498Y-65686180D01*
X32649143Y-65769704D01*
X32550038Y-65851038D01*
X32439595Y-65985613D01*
X32357528Y-66139149D01*
X32306992Y-66305745D01*
X32289928Y-66478999D01*
X32289928Y-67092270D01*
X31786475Y-67595723D01*
X31743475Y-67531369D01*
X31536632Y-67324526D01*
X31362240Y-67208001D01*
X31536632Y-67091476D01*
X31743475Y-66884633D01*
X31905990Y-66641412D01*
X32017932Y-66371159D01*
X32075000Y-66084261D01*
X32075000Y-65791741D01*
X32017932Y-65504843D01*
X31905990Y-65234590D01*
X31743475Y-64991369D01*
X31536632Y-64784526D01*
X31362240Y-64668001D01*
X31536632Y-64551476D01*
X31743475Y-64344633D01*
X31905990Y-64101412D01*
X32017932Y-63831159D01*
X32075000Y-63544261D01*
X32075000Y-63251741D01*
X32017932Y-62964843D01*
X31905990Y-62694590D01*
X31743475Y-62451369D01*
X31611620Y-62319514D01*
X31684180Y-62297503D01*
X31794494Y-62238538D01*
X31891185Y-62159186D01*
X31970537Y-62062495D01*
X32029502Y-61952181D01*
X32065812Y-61832483D01*
X32078072Y-61708001D01*
X32075000Y-61143751D01*
X31916250Y-60985001D01*
X30717000Y-60985001D01*
X30717000Y-61005001D01*
X30463000Y-61005001D01*
X30463000Y-60985001D01*
X29263750Y-60985001D01*
X29105000Y-61143751D01*
X29101928Y-61708001D01*
X29114188Y-61832483D01*
X29150498Y-61952181D01*
X29209463Y-62062495D01*
X29288815Y-62159186D01*
X29385506Y-62238538D01*
X29495820Y-62297503D01*
X29568380Y-62319514D01*
X29436525Y-62451369D01*
X29274010Y-62694590D01*
X29162068Y-62964843D01*
X29105000Y-63251741D01*
X29105000Y-63544261D01*
X29162068Y-63831159D01*
X29274010Y-64101412D01*
X29436525Y-64344633D01*
X29643368Y-64551476D01*
X29817760Y-64668001D01*
X29643368Y-64784526D01*
X29436525Y-64991369D01*
X29274010Y-65234590D01*
X29162068Y-65504843D01*
X29105000Y-65791741D01*
X29105000Y-66084261D01*
X29162068Y-66371159D01*
X29274010Y-66641412D01*
X29436525Y-66884633D01*
X29643368Y-67091476D01*
X29817760Y-67208001D01*
X29643368Y-67324526D01*
X29436525Y-67531369D01*
X29274010Y-67774590D01*
X29162068Y-68044843D01*
X29105000Y-68331741D01*
X29105000Y-68624261D01*
X29162068Y-68911159D01*
X29274010Y-69181412D01*
X29436525Y-69424633D01*
X29643368Y-69631476D01*
X29817760Y-69748001D01*
X29643368Y-69864526D01*
X29436525Y-70071369D01*
X29274010Y-70314590D01*
X29162068Y-70584843D01*
X29105000Y-70871741D01*
X29105000Y-71164261D01*
X29162068Y-71451159D01*
X29274010Y-71721412D01*
X29436525Y-71964633D01*
X29568380Y-72096488D01*
X29495820Y-72118499D01*
X29385506Y-72177464D01*
X29288815Y-72256816D01*
X29209463Y-72353507D01*
X29150498Y-72463821D01*
X29114188Y-72583519D01*
X29101928Y-72708001D01*
X29105000Y-73272251D01*
X29263750Y-73431001D01*
X30463000Y-73431001D01*
X30463000Y-73411001D01*
X30717000Y-73411001D01*
X30717000Y-73431001D01*
X31916250Y-73431001D01*
X32075000Y-73272251D01*
X32078072Y-72708001D01*
X32065812Y-72583519D01*
X32029502Y-72463821D01*
X31970537Y-72353507D01*
X31891185Y-72256816D01*
X31794494Y-72177464D01*
X31684180Y-72118499D01*
X31611620Y-72096488D01*
X31743475Y-71964633D01*
X31868178Y-71778001D01*
X32957677Y-71778001D01*
X32994999Y-71781677D01*
X33032321Y-71778001D01*
X33032332Y-71778001D01*
X33143985Y-71767004D01*
X33287246Y-71723547D01*
X33419275Y-71652975D01*
X33535000Y-71558002D01*
X33558803Y-71528998D01*
X34604802Y-70483000D01*
X36793473Y-70483000D01*
X36802528Y-70512851D01*
X36884595Y-70666387D01*
X36989265Y-70793928D01*
X36938000Y-70793928D01*
X36813518Y-70806188D01*
X36693820Y-70842498D01*
X36583506Y-70901463D01*
X36486815Y-70980815D01*
X36407463Y-71077506D01*
X36348498Y-71187820D01*
X36312188Y-71307518D01*
X36299928Y-71432000D01*
X36299928Y-72332000D01*
X36312188Y-72456482D01*
X36348498Y-72576180D01*
X36407463Y-72686494D01*
X36486815Y-72783185D01*
X36499905Y-72793928D01*
X35988000Y-72793928D01*
X35863518Y-72806188D01*
X35743820Y-72842498D01*
X35633506Y-72901463D01*
X35536815Y-72980815D01*
X35457463Y-73077506D01*
X35398498Y-73187820D01*
X35362188Y-73307518D01*
X35349928Y-73432000D01*
X35349928Y-74332000D01*
X35362188Y-74456482D01*
X35398498Y-74576180D01*
X35451001Y-74674404D01*
X35451001Y-74713023D01*
X35367613Y-74757595D01*
X35233038Y-74868038D01*
X35122595Y-75002613D01*
X35040528Y-75156149D01*
X34989992Y-75322745D01*
X34988489Y-75338001D01*
X31868178Y-75338001D01*
X31743475Y-75151369D01*
X31611620Y-75019514D01*
X31684180Y-74997503D01*
X31794494Y-74938538D01*
X31891185Y-74859186D01*
X31970537Y-74762495D01*
X32029502Y-74652181D01*
X32065812Y-74532483D01*
X32078072Y-74408001D01*
X32075000Y-73843751D01*
X31916250Y-73685001D01*
X30717000Y-73685001D01*
X30717000Y-73705001D01*
X30463000Y-73705001D01*
X30463000Y-73685001D01*
X29263750Y-73685001D01*
X29105000Y-73843751D01*
X29101928Y-74408001D01*
X29114188Y-74532483D01*
X29150498Y-74652181D01*
X29209463Y-74762495D01*
X29288815Y-74859186D01*
X29385506Y-74938538D01*
X29495820Y-74997503D01*
X29568380Y-75019514D01*
X29436525Y-75151369D01*
X29274010Y-75394590D01*
X29162068Y-75664843D01*
X29105000Y-75951741D01*
X29105000Y-76244261D01*
X29162068Y-76531159D01*
X29274010Y-76801412D01*
X29436525Y-77044633D01*
X29643368Y-77251476D01*
X29817760Y-77368001D01*
X29643368Y-77484526D01*
X29436525Y-77691369D01*
X29274010Y-77934590D01*
X29162068Y-78204843D01*
X29105000Y-78491741D01*
X29105000Y-78784261D01*
X29162068Y-79071159D01*
X29274010Y-79341412D01*
X29436525Y-79584633D01*
X29643368Y-79791476D01*
X29886589Y-79953991D01*
X30156842Y-80065933D01*
X30443740Y-80123001D01*
X30736260Y-80123001D01*
X31023158Y-80065933D01*
X31293411Y-79953991D01*
X31536632Y-79791476D01*
X31743475Y-79584633D01*
X31905990Y-79341412D01*
X32017932Y-79071159D01*
X32075000Y-78784261D01*
X32075000Y-78491741D01*
X32017932Y-78204843D01*
X31905990Y-77934590D01*
X31743475Y-77691369D01*
X31536632Y-77484526D01*
X31362240Y-77368001D01*
X31536632Y-77251476D01*
X31743475Y-77044633D01*
X31868178Y-76858001D01*
X35105819Y-76858001D01*
X35122595Y-76889387D01*
X35233038Y-77023962D01*
X35367613Y-77134405D01*
X35521149Y-77216472D01*
X35687745Y-77267008D01*
X35860999Y-77284072D01*
X35963822Y-77284072D01*
X35786525Y-77461369D01*
X35624010Y-77704590D01*
X35512068Y-77974843D01*
X35455000Y-78261741D01*
X35455000Y-78554261D01*
X35512068Y-78841159D01*
X35624010Y-79111412D01*
X35786525Y-79354633D01*
X35993368Y-79561476D01*
X36236589Y-79723991D01*
X36506842Y-79835933D01*
X36793740Y-79893001D01*
X37086260Y-79893001D01*
X37373158Y-79835933D01*
X37643411Y-79723991D01*
X37886632Y-79561476D01*
X38018487Y-79429621D01*
X38040498Y-79502181D01*
X38099463Y-79612495D01*
X38178815Y-79709186D01*
X38275506Y-79788538D01*
X38385820Y-79847503D01*
X38505518Y-79883813D01*
X38630000Y-79896073D01*
X39194250Y-79893001D01*
X39353000Y-79734251D01*
X39353000Y-78535001D01*
X39333000Y-78535001D01*
X39333000Y-78281001D01*
X39353000Y-78281001D01*
X39353000Y-77081751D01*
X39236854Y-76965605D01*
X39299405Y-76889387D01*
X39366386Y-76764075D01*
X39514744Y-76863205D01*
X39703102Y-76941226D01*
X39740155Y-76948596D01*
X39607000Y-77081751D01*
X39607000Y-78281001D01*
X39627000Y-78281001D01*
X39627000Y-78535001D01*
X39607000Y-78535001D01*
X39607000Y-79734251D01*
X39765750Y-79893001D01*
X40330000Y-79896073D01*
X40454482Y-79883813D01*
X40574180Y-79847503D01*
X40684494Y-79788538D01*
X40781185Y-79709186D01*
X40860537Y-79612495D01*
X40919502Y-79502181D01*
X40941513Y-79429621D01*
X41073368Y-79561476D01*
X41316589Y-79723991D01*
X41586842Y-79835933D01*
X41873740Y-79893001D01*
X42166260Y-79893001D01*
X42453158Y-79835933D01*
X42723411Y-79723991D01*
X42966632Y-79561476D01*
X43173475Y-79354633D01*
X43335990Y-79111412D01*
X43447932Y-78841159D01*
X43505000Y-78554261D01*
X43505000Y-78261741D01*
X43447932Y-77974843D01*
X43335990Y-77704590D01*
X43173475Y-77461369D01*
X42966632Y-77254526D01*
X42723411Y-77092011D01*
X42453158Y-76980069D01*
X42166260Y-76923001D01*
X41873740Y-76923001D01*
X41586842Y-76980069D01*
X41316589Y-77092011D01*
X41073368Y-77254526D01*
X40941513Y-77386381D01*
X40919502Y-77313821D01*
X40860537Y-77203507D01*
X40781185Y-77106816D01*
X40684494Y-77027464D01*
X40574180Y-76968499D01*
X40454482Y-76932189D01*
X40352874Y-76922182D01*
X40495256Y-76863205D01*
X40664774Y-76749937D01*
X40808937Y-76605774D01*
X40922205Y-76436256D01*
X41000226Y-76247898D01*
X41040000Y-76047939D01*
X41040000Y-75844061D01*
X41000226Y-75644102D01*
X40922205Y-75455744D01*
X40808937Y-75286226D01*
X40664774Y-75142063D01*
X40495256Y-75028795D01*
X40306898Y-74950774D01*
X40106939Y-74911000D01*
X39903061Y-74911000D01*
X39703102Y-74950774D01*
X39514744Y-75028795D01*
X39366386Y-75127925D01*
X39299405Y-75002613D01*
X39188962Y-74868038D01*
X39112377Y-74805186D01*
X39139185Y-74783185D01*
X39218537Y-74686494D01*
X39277502Y-74576180D01*
X39313812Y-74456482D01*
X39326072Y-74332000D01*
X39326072Y-73432000D01*
X39313812Y-73307518D01*
X39277502Y-73187820D01*
X39218537Y-73077506D01*
X39139185Y-72980815D01*
X39042494Y-72901463D01*
X38932180Y-72842498D01*
X38812482Y-72806188D01*
X38688000Y-72793928D01*
X38176095Y-72793928D01*
X38189185Y-72783185D01*
X38268537Y-72686494D01*
X38292320Y-72642000D01*
X39967678Y-72642000D01*
X40005000Y-72645676D01*
X40042322Y-72642000D01*
X40042333Y-72642000D01*
X40153986Y-72631003D01*
X40297247Y-72587546D01*
X40429276Y-72516974D01*
X40545001Y-72422001D01*
X40568803Y-72392998D01*
X40679801Y-72282000D01*
X40741939Y-72282000D01*
X40941898Y-72242226D01*
X41023001Y-72208632D01*
X41023001Y-74765667D01*
X41019324Y-74803000D01*
X41023001Y-74840333D01*
X41033998Y-74951986D01*
X41039484Y-74970072D01*
X41077454Y-75095246D01*
X41148026Y-75227276D01*
X41196406Y-75286226D01*
X41243000Y-75343001D01*
X41271998Y-75366799D01*
X43415000Y-77509802D01*
X43415000Y-77571939D01*
X43454774Y-77771898D01*
X43532795Y-77960256D01*
X43646063Y-78129774D01*
X43790226Y-78273937D01*
X43959744Y-78387205D01*
X44148102Y-78465226D01*
X44348061Y-78505000D01*
X44551939Y-78505000D01*
X44751898Y-78465226D01*
X44940256Y-78387205D01*
X45109774Y-78273937D01*
X45253937Y-78129774D01*
X45367205Y-77960256D01*
X45445226Y-77771898D01*
X45485000Y-77571939D01*
X45485000Y-77368061D01*
X45445226Y-77168102D01*
X45367205Y-76979744D01*
X45253937Y-76810226D01*
X45109774Y-76666063D01*
X44940256Y-76552795D01*
X44751898Y-76474774D01*
X44551939Y-76435000D01*
X44489802Y-76435000D01*
X42543000Y-74488199D01*
X42543000Y-71006617D01*
X42570061Y-71012000D01*
X42773939Y-71012000D01*
X42973898Y-70972226D01*
X43162256Y-70894205D01*
X43331774Y-70780937D01*
X43475937Y-70636774D01*
X43589205Y-70467256D01*
X43667226Y-70278898D01*
X43707000Y-70078939D01*
X43707000Y-69875061D01*
X43667226Y-69675102D01*
X43589205Y-69486744D01*
X43475937Y-69317226D01*
X43432000Y-69273289D01*
X43432000Y-65303061D01*
X44812000Y-65303061D01*
X44812000Y-65506939D01*
X44851774Y-65706898D01*
X44929795Y-65895256D01*
X45043063Y-66064774D01*
X45087000Y-66108711D01*
X45087001Y-75115288D01*
X45043063Y-75159226D01*
X44929795Y-75328744D01*
X44851774Y-75517102D01*
X44812000Y-75717061D01*
X44812000Y-75920939D01*
X44851774Y-76120898D01*
X44929795Y-76309256D01*
X45043063Y-76478774D01*
X45187226Y-76622937D01*
X45356744Y-76736205D01*
X45545102Y-76814226D01*
X45745061Y-76854000D01*
X45948939Y-76854000D01*
X46148898Y-76814226D01*
X46337256Y-76736205D01*
X46506774Y-76622937D01*
X46650937Y-76478774D01*
X46764205Y-76309256D01*
X46842226Y-76120898D01*
X46882000Y-75920939D01*
X46882000Y-75717061D01*
X46842226Y-75517102D01*
X46764205Y-75328744D01*
X46650937Y-75159226D01*
X46607000Y-75115289D01*
X46607000Y-74408001D01*
X46881928Y-74408001D01*
X46894188Y-74532483D01*
X46930498Y-74652181D01*
X46989463Y-74762495D01*
X47068815Y-74859186D01*
X47165506Y-74938538D01*
X47275820Y-74997503D01*
X47348380Y-75019514D01*
X47216525Y-75151369D01*
X47054010Y-75394590D01*
X46942068Y-75664843D01*
X46885000Y-75951741D01*
X46885000Y-76244261D01*
X46942068Y-76531159D01*
X47054010Y-76801412D01*
X47216525Y-77044633D01*
X47423368Y-77251476D01*
X47597760Y-77368001D01*
X47423368Y-77484526D01*
X47216525Y-77691369D01*
X47054010Y-77934590D01*
X46942068Y-78204843D01*
X46885000Y-78491741D01*
X46885000Y-78784261D01*
X46942068Y-79071159D01*
X47054010Y-79341412D01*
X47216525Y-79584633D01*
X47423368Y-79791476D01*
X47666589Y-79953991D01*
X47936842Y-80065933D01*
X48223740Y-80123001D01*
X48516260Y-80123001D01*
X48803158Y-80065933D01*
X48984690Y-79990740D01*
X68619000Y-79990740D01*
X68619000Y-80283260D01*
X68676068Y-80570158D01*
X68788010Y-80840411D01*
X68950525Y-81083632D01*
X69157368Y-81290475D01*
X69400589Y-81452990D01*
X69670842Y-81564932D01*
X69957740Y-81622000D01*
X70250260Y-81622000D01*
X70537158Y-81564932D01*
X70807411Y-81452990D01*
X71050632Y-81290475D01*
X71257475Y-81083632D01*
X71374000Y-80909240D01*
X71490525Y-81083632D01*
X71697368Y-81290475D01*
X71940589Y-81452990D01*
X72210842Y-81564932D01*
X72497740Y-81622000D01*
X72790260Y-81622000D01*
X73077158Y-81564932D01*
X73347411Y-81452990D01*
X73590632Y-81290475D01*
X73797475Y-81083632D01*
X73914000Y-80909240D01*
X74030525Y-81083632D01*
X74237368Y-81290475D01*
X74480589Y-81452990D01*
X74750842Y-81564932D01*
X75037740Y-81622000D01*
X75330260Y-81622000D01*
X75617158Y-81564932D01*
X75887411Y-81452990D01*
X76130632Y-81290475D01*
X76262487Y-81158620D01*
X76284498Y-81231180D01*
X76343463Y-81341494D01*
X76422815Y-81438185D01*
X76519506Y-81517537D01*
X76629820Y-81576502D01*
X76749518Y-81612812D01*
X76874000Y-81625072D01*
X77438250Y-81622000D01*
X77597000Y-81463250D01*
X77597000Y-80264000D01*
X77851000Y-80264000D01*
X77851000Y-81463250D01*
X78009750Y-81622000D01*
X78574000Y-81625072D01*
X78698482Y-81612812D01*
X78818180Y-81576502D01*
X78928494Y-81517537D01*
X79025185Y-81438185D01*
X79104537Y-81341494D01*
X79163502Y-81231180D01*
X79199812Y-81111482D01*
X79212072Y-80987000D01*
X79209000Y-80422750D01*
X79050250Y-80264000D01*
X77851000Y-80264000D01*
X77597000Y-80264000D01*
X77577000Y-80264000D01*
X77577000Y-80010000D01*
X77597000Y-80010000D01*
X77597000Y-78810750D01*
X77851000Y-78810750D01*
X77851000Y-80010000D01*
X79050250Y-80010000D01*
X79209000Y-79851250D01*
X79212072Y-79287000D01*
X79199812Y-79162518D01*
X79163502Y-79042820D01*
X79104537Y-78932506D01*
X79025185Y-78835815D01*
X78928494Y-78756463D01*
X78818180Y-78697498D01*
X78698482Y-78661188D01*
X78574000Y-78648928D01*
X78009750Y-78652000D01*
X77851000Y-78810750D01*
X77597000Y-78810750D01*
X77438250Y-78652000D01*
X76874000Y-78648928D01*
X76749518Y-78661188D01*
X76629820Y-78697498D01*
X76519506Y-78756463D01*
X76422815Y-78835815D01*
X76343463Y-78932506D01*
X76284498Y-79042820D01*
X76262487Y-79115380D01*
X76130632Y-78983525D01*
X75944000Y-78858822D01*
X75944000Y-76244865D01*
X96997782Y-76244865D01*
X97028095Y-76370528D01*
X97156304Y-76663205D01*
X97339148Y-76925246D01*
X97569601Y-77146581D01*
X97838806Y-77318704D01*
X98136418Y-77435000D01*
X98451000Y-77491000D01*
X99441000Y-77491000D01*
X99441000Y-75993000D01*
X99695000Y-75993000D01*
X99695000Y-77491000D01*
X100685000Y-77491000D01*
X100999582Y-77435000D01*
X101297194Y-77318704D01*
X101566399Y-77146581D01*
X101796852Y-76925246D01*
X101979696Y-76663205D01*
X102107905Y-76370528D01*
X102138218Y-76244865D01*
X102018740Y-75993000D01*
X99695000Y-75993000D01*
X99441000Y-75993000D01*
X97117260Y-75993000D01*
X96997782Y-76244865D01*
X75944000Y-76244865D01*
X75944000Y-75487135D01*
X96997782Y-75487135D01*
X97117260Y-75739000D01*
X99441000Y-75739000D01*
X99441000Y-74241000D01*
X99695000Y-74241000D01*
X99695000Y-75739000D01*
X102018740Y-75739000D01*
X102138218Y-75487135D01*
X102107905Y-75361472D01*
X101979696Y-75068795D01*
X101796852Y-74806754D01*
X101566399Y-74585419D01*
X101297194Y-74413296D01*
X100999582Y-74297000D01*
X100685000Y-74241000D01*
X99695000Y-74241000D01*
X99441000Y-74241000D01*
X98451000Y-74241000D01*
X98136418Y-74297000D01*
X97838806Y-74413296D01*
X97569601Y-74585419D01*
X97339148Y-74806754D01*
X97156304Y-75068795D01*
X97028095Y-75361472D01*
X96997782Y-75487135D01*
X75944000Y-75487135D01*
X75944000Y-71836000D01*
X79832928Y-71836000D01*
X79845188Y-71960482D01*
X79881498Y-72080180D01*
X79940463Y-72190494D01*
X80019815Y-72287185D01*
X80116506Y-72366537D01*
X80226820Y-72425502D01*
X80346518Y-72461812D01*
X80471000Y-72474072D01*
X81085250Y-72471000D01*
X81244000Y-72312250D01*
X81244000Y-71063000D01*
X81498000Y-71063000D01*
X81498000Y-72312250D01*
X81656750Y-72471000D01*
X82271000Y-72474072D01*
X82395482Y-72461812D01*
X82515180Y-72425502D01*
X82625494Y-72366537D01*
X82722185Y-72287185D01*
X82801537Y-72190494D01*
X82860502Y-72080180D01*
X82896812Y-71960482D01*
X82909072Y-71836000D01*
X82906000Y-71221750D01*
X82747250Y-71063000D01*
X81498000Y-71063000D01*
X81244000Y-71063000D01*
X79994750Y-71063000D01*
X79836000Y-71221750D01*
X79832928Y-71836000D01*
X75944000Y-71836000D01*
X75944000Y-70036000D01*
X79832928Y-70036000D01*
X79836000Y-70650250D01*
X79994750Y-70809000D01*
X81244000Y-70809000D01*
X81244000Y-69559750D01*
X81498000Y-69559750D01*
X81498000Y-70809000D01*
X82747250Y-70809000D01*
X82906000Y-70650250D01*
X82909072Y-70036000D01*
X82896812Y-69911518D01*
X82886038Y-69876000D01*
X96949928Y-69876000D01*
X96949928Y-71856000D01*
X96962188Y-71980482D01*
X96998498Y-72100180D01*
X97057463Y-72210494D01*
X97136815Y-72307185D01*
X97233506Y-72386537D01*
X97343820Y-72445502D01*
X97463518Y-72481812D01*
X97588000Y-72494072D01*
X101548000Y-72494072D01*
X101672482Y-72481812D01*
X101792180Y-72445502D01*
X101902494Y-72386537D01*
X101999185Y-72307185D01*
X102078537Y-72210494D01*
X102137502Y-72100180D01*
X102173812Y-71980482D01*
X102186072Y-71856000D01*
X102186072Y-69876000D01*
X102173812Y-69751518D01*
X102137502Y-69631820D01*
X102078537Y-69521506D01*
X101999185Y-69424815D01*
X101902494Y-69345463D01*
X101792180Y-69286498D01*
X101672482Y-69250188D01*
X101548000Y-69237928D01*
X97588000Y-69237928D01*
X97463518Y-69250188D01*
X97343820Y-69286498D01*
X97233506Y-69345463D01*
X97136815Y-69424815D01*
X97057463Y-69521506D01*
X96998498Y-69631820D01*
X96962188Y-69751518D01*
X96949928Y-69876000D01*
X82886038Y-69876000D01*
X82860502Y-69791820D01*
X82801537Y-69681506D01*
X82722185Y-69584815D01*
X82625494Y-69505463D01*
X82515180Y-69446498D01*
X82395482Y-69410188D01*
X82271000Y-69397928D01*
X81656750Y-69401000D01*
X81498000Y-69559750D01*
X81244000Y-69559750D01*
X81085250Y-69401000D01*
X80471000Y-69397928D01*
X80346518Y-69410188D01*
X80226820Y-69446498D01*
X80116506Y-69505463D01*
X80019815Y-69584815D01*
X79940463Y-69681506D01*
X79881498Y-69791820D01*
X79845188Y-69911518D01*
X79832928Y-70036000D01*
X75944000Y-70036000D01*
X75944000Y-65704816D01*
X79836000Y-65704816D01*
X79836000Y-66007184D01*
X79894989Y-66303743D01*
X80010701Y-66583095D01*
X80178688Y-66834505D01*
X80392495Y-67048312D01*
X80643905Y-67216299D01*
X80923257Y-67332011D01*
X81219816Y-67391000D01*
X81522184Y-67391000D01*
X81818743Y-67332011D01*
X82098095Y-67216299D01*
X82349505Y-67048312D01*
X82563312Y-66834505D01*
X82731299Y-66583095D01*
X82847011Y-66303743D01*
X82906000Y-66007184D01*
X82906000Y-65704816D01*
X82847011Y-65408257D01*
X82731299Y-65128905D01*
X82563312Y-64877495D01*
X82349505Y-64663688D01*
X82098095Y-64495701D01*
X81818743Y-64379989D01*
X81522184Y-64321000D01*
X81219816Y-64321000D01*
X80923257Y-64379989D01*
X80643905Y-64495701D01*
X80392495Y-64663688D01*
X80178688Y-64877495D01*
X80010701Y-65128905D01*
X79894989Y-65408257D01*
X79836000Y-65704816D01*
X75944000Y-65704816D01*
X75944000Y-64426322D01*
X75947676Y-64388999D01*
X75944000Y-64351676D01*
X75944000Y-64351667D01*
X75933003Y-64240014D01*
X75889546Y-64096753D01*
X75818974Y-63964724D01*
X75724001Y-63848999D01*
X75695004Y-63825202D01*
X75414667Y-63544865D01*
X96997782Y-63544865D01*
X97028095Y-63670528D01*
X97156304Y-63963205D01*
X97339148Y-64225246D01*
X97569601Y-64446581D01*
X97838806Y-64618704D01*
X98136418Y-64735000D01*
X98451000Y-64791000D01*
X99441000Y-64791000D01*
X99441000Y-63293000D01*
X99695000Y-63293000D01*
X99695000Y-64791000D01*
X100685000Y-64791000D01*
X100999582Y-64735000D01*
X101297194Y-64618704D01*
X101566399Y-64446581D01*
X101796852Y-64225246D01*
X101979696Y-63963205D01*
X102107905Y-63670528D01*
X102138218Y-63544865D01*
X102018740Y-63293000D01*
X99695000Y-63293000D01*
X99441000Y-63293000D01*
X97117260Y-63293000D01*
X96997782Y-63544865D01*
X75414667Y-63544865D01*
X74822000Y-62952199D01*
X74822000Y-62890061D01*
X74801527Y-62787135D01*
X96997782Y-62787135D01*
X97117260Y-63039000D01*
X99441000Y-63039000D01*
X99441000Y-61541000D01*
X99695000Y-61541000D01*
X99695000Y-63039000D01*
X102018740Y-63039000D01*
X102138218Y-62787135D01*
X102107905Y-62661472D01*
X101979696Y-62368795D01*
X101796852Y-62106754D01*
X101566399Y-61885419D01*
X101297194Y-61713296D01*
X100999582Y-61597000D01*
X100685000Y-61541000D01*
X99695000Y-61541000D01*
X99441000Y-61541000D01*
X98451000Y-61541000D01*
X98136418Y-61597000D01*
X97838806Y-61713296D01*
X97569601Y-61885419D01*
X97339148Y-62106754D01*
X97156304Y-62368795D01*
X97028095Y-62661472D01*
X96997782Y-62787135D01*
X74801527Y-62787135D01*
X74782226Y-62690102D01*
X74704205Y-62501744D01*
X74590937Y-62332226D01*
X74446774Y-62188063D01*
X74277256Y-62074795D01*
X74088898Y-61996774D01*
X73888939Y-61957000D01*
X73685061Y-61957000D01*
X73485102Y-61996774D01*
X73296744Y-62074795D01*
X73127226Y-62188063D01*
X72983063Y-62332226D01*
X72869795Y-62501744D01*
X72791774Y-62690102D01*
X72752000Y-62890061D01*
X72752000Y-63093939D01*
X72791774Y-63293898D01*
X72869795Y-63482256D01*
X72983063Y-63651774D01*
X73127226Y-63795937D01*
X73296744Y-63909205D01*
X73485102Y-63987226D01*
X73685061Y-64027000D01*
X73747199Y-64027000D01*
X74424000Y-64703802D01*
X74424001Y-78858821D01*
X74237368Y-78983525D01*
X74030525Y-79190368D01*
X73914000Y-79364760D01*
X73797475Y-79190368D01*
X73590632Y-78983525D01*
X73347411Y-78821010D01*
X73077158Y-78709068D01*
X72790260Y-78652000D01*
X72497740Y-78652000D01*
X72210842Y-78709068D01*
X71940589Y-78821010D01*
X71697368Y-78983525D01*
X71490525Y-79190368D01*
X71374000Y-79364760D01*
X71257475Y-79190368D01*
X71050632Y-78983525D01*
X70807411Y-78821010D01*
X70537158Y-78709068D01*
X70250260Y-78652000D01*
X69957740Y-78652000D01*
X69670842Y-78709068D01*
X69400589Y-78821010D01*
X69157368Y-78983525D01*
X68950525Y-79190368D01*
X68788010Y-79433589D01*
X68676068Y-79703842D01*
X68619000Y-79990740D01*
X48984690Y-79990740D01*
X49073411Y-79953991D01*
X49316632Y-79791476D01*
X49523475Y-79584633D01*
X49685990Y-79341412D01*
X49797932Y-79071159D01*
X49855000Y-78784261D01*
X49855000Y-78491741D01*
X49797932Y-78204843D01*
X49685990Y-77934590D01*
X49523475Y-77691369D01*
X49316632Y-77484526D01*
X49142240Y-77368001D01*
X49316632Y-77251476D01*
X49523475Y-77044633D01*
X49685990Y-76801412D01*
X49797932Y-76531159D01*
X49855000Y-76244261D01*
X49855000Y-75951741D01*
X49797932Y-75664843D01*
X49685990Y-75394590D01*
X49523475Y-75151369D01*
X49391620Y-75019514D01*
X49464180Y-74997503D01*
X49574494Y-74938538D01*
X49671185Y-74859186D01*
X49750537Y-74762495D01*
X49809502Y-74652181D01*
X49845812Y-74532483D01*
X49858072Y-74408001D01*
X49855000Y-73843751D01*
X49696250Y-73685001D01*
X48497000Y-73685001D01*
X48497000Y-73705001D01*
X48243000Y-73705001D01*
X48243000Y-73685001D01*
X47043750Y-73685001D01*
X46885000Y-73843751D01*
X46881928Y-74408001D01*
X46607000Y-74408001D01*
X46607000Y-66108711D01*
X46650937Y-66064774D01*
X46764205Y-65895256D01*
X46842226Y-65706898D01*
X46882000Y-65506939D01*
X46882000Y-65303061D01*
X46842226Y-65103102D01*
X46764205Y-64914744D01*
X46650937Y-64745226D01*
X46506774Y-64601063D01*
X46337256Y-64487795D01*
X46148898Y-64409774D01*
X45948939Y-64370000D01*
X45745061Y-64370000D01*
X45545102Y-64409774D01*
X45356744Y-64487795D01*
X45187226Y-64601063D01*
X45043063Y-64745226D01*
X44929795Y-64914744D01*
X44851774Y-65103102D01*
X44812000Y-65303061D01*
X43432000Y-65303061D01*
X43432000Y-64656617D01*
X43459061Y-64662000D01*
X43662939Y-64662000D01*
X43862898Y-64622226D01*
X44051256Y-64544205D01*
X44220774Y-64430937D01*
X44364937Y-64286774D01*
X44478205Y-64117256D01*
X44556226Y-63928898D01*
X44596000Y-63728939D01*
X44596000Y-63525061D01*
X44556226Y-63325102D01*
X44523232Y-63245448D01*
X44624898Y-63225226D01*
X44813256Y-63147205D01*
X44982774Y-63033937D01*
X45126937Y-62889774D01*
X45240205Y-62720256D01*
X45318226Y-62531898D01*
X45358000Y-62331939D01*
X45358000Y-62269801D01*
X45850004Y-61777798D01*
X45879001Y-61754001D01*
X45916752Y-61708001D01*
X46881928Y-61708001D01*
X46894188Y-61832483D01*
X46930498Y-61952181D01*
X46989463Y-62062495D01*
X47068815Y-62159186D01*
X47165506Y-62238538D01*
X47275820Y-62297503D01*
X47348380Y-62319514D01*
X47216525Y-62451369D01*
X47054010Y-62694590D01*
X46942068Y-62964843D01*
X46885000Y-63251741D01*
X46885000Y-63544261D01*
X46942068Y-63831159D01*
X47054010Y-64101412D01*
X47216525Y-64344633D01*
X47423368Y-64551476D01*
X47597760Y-64668001D01*
X47423368Y-64784526D01*
X47216525Y-64991369D01*
X47054010Y-65234590D01*
X46942068Y-65504843D01*
X46885000Y-65791741D01*
X46885000Y-66084261D01*
X46942068Y-66371159D01*
X47054010Y-66641412D01*
X47216525Y-66884633D01*
X47423368Y-67091476D01*
X47597760Y-67208001D01*
X47423368Y-67324526D01*
X47216525Y-67531369D01*
X47054010Y-67774590D01*
X46942068Y-68044843D01*
X46885000Y-68331741D01*
X46885000Y-68624261D01*
X46942068Y-68911159D01*
X47054010Y-69181412D01*
X47216525Y-69424633D01*
X47423368Y-69631476D01*
X47597760Y-69748001D01*
X47423368Y-69864526D01*
X47216525Y-70071369D01*
X47054010Y-70314590D01*
X46942068Y-70584843D01*
X46885000Y-70871741D01*
X46885000Y-71164261D01*
X46942068Y-71451159D01*
X47054010Y-71721412D01*
X47216525Y-71964633D01*
X47348380Y-72096488D01*
X47275820Y-72118499D01*
X47165506Y-72177464D01*
X47068815Y-72256816D01*
X46989463Y-72353507D01*
X46930498Y-72463821D01*
X46894188Y-72583519D01*
X46881928Y-72708001D01*
X46885000Y-73272251D01*
X47043750Y-73431001D01*
X48243000Y-73431001D01*
X48243000Y-73411001D01*
X48497000Y-73411001D01*
X48497000Y-73431001D01*
X49696250Y-73431001D01*
X49855000Y-73272251D01*
X49858072Y-72708001D01*
X49845812Y-72583519D01*
X49809502Y-72463821D01*
X49750537Y-72353507D01*
X49671185Y-72256816D01*
X49574494Y-72177464D01*
X49464180Y-72118499D01*
X49391620Y-72096488D01*
X49523475Y-71964633D01*
X49685990Y-71721412D01*
X49797932Y-71451159D01*
X49855000Y-71164261D01*
X49855000Y-70871741D01*
X49797932Y-70584843D01*
X49685990Y-70314590D01*
X49523475Y-70071369D01*
X49316632Y-69864526D01*
X49142240Y-69748001D01*
X49316632Y-69631476D01*
X49523475Y-69424633D01*
X49648178Y-69238001D01*
X59019200Y-69238001D01*
X59544000Y-69762802D01*
X59544000Y-69824939D01*
X59583774Y-70024898D01*
X59661795Y-70213256D01*
X59775063Y-70382774D01*
X59919226Y-70526937D01*
X60088744Y-70640205D01*
X60277102Y-70718226D01*
X60477061Y-70758000D01*
X60680939Y-70758000D01*
X60880898Y-70718226D01*
X61069256Y-70640205D01*
X61238774Y-70526937D01*
X61382937Y-70382774D01*
X61496205Y-70213256D01*
X61574226Y-70024898D01*
X61614000Y-69824939D01*
X61614000Y-69621061D01*
X61574226Y-69421102D01*
X61496205Y-69232744D01*
X61382937Y-69063226D01*
X61238774Y-68919063D01*
X61069256Y-68805795D01*
X60880898Y-68727774D01*
X60680939Y-68688000D01*
X60618802Y-68688000D01*
X59897804Y-67967003D01*
X59874002Y-67938000D01*
X59758277Y-67843027D01*
X59626248Y-67772455D01*
X59482987Y-67728998D01*
X59371334Y-67718001D01*
X59371323Y-67718001D01*
X59334001Y-67714325D01*
X59296679Y-67718001D01*
X49648178Y-67718001D01*
X49523475Y-67531369D01*
X49316632Y-67324526D01*
X49142240Y-67208001D01*
X49316632Y-67091476D01*
X49523475Y-66884633D01*
X49685990Y-66641412D01*
X49797932Y-66371159D01*
X49855000Y-66084261D01*
X49855000Y-65791741D01*
X49797932Y-65504843D01*
X49685990Y-65234590D01*
X49523475Y-64991369D01*
X49316632Y-64784526D01*
X49142240Y-64668001D01*
X49316632Y-64551476D01*
X49523475Y-64344633D01*
X49685990Y-64101412D01*
X49797932Y-63831159D01*
X49855000Y-63544261D01*
X49855000Y-63251741D01*
X49797932Y-62964843D01*
X49685990Y-62694590D01*
X49646883Y-62636061D01*
X62973000Y-62636061D01*
X62973000Y-62839939D01*
X63012774Y-63039898D01*
X63090795Y-63228256D01*
X63204063Y-63397774D01*
X63348226Y-63541937D01*
X63517744Y-63655205D01*
X63706102Y-63733226D01*
X63906061Y-63773000D01*
X64109939Y-63773000D01*
X64309898Y-63733226D01*
X64498256Y-63655205D01*
X64667774Y-63541937D01*
X64811937Y-63397774D01*
X64925205Y-63228256D01*
X65003226Y-63039898D01*
X65043000Y-62839939D01*
X65043000Y-62777801D01*
X69091008Y-58729795D01*
X69120001Y-58706001D01*
X69143795Y-58677008D01*
X69143799Y-58677004D01*
X69214973Y-58590277D01*
X69214974Y-58590276D01*
X69285546Y-58458247D01*
X69329003Y-58314986D01*
X69340000Y-58203333D01*
X69340000Y-58203324D01*
X69343676Y-58166001D01*
X69340000Y-58128678D01*
X69340000Y-57176000D01*
X96949928Y-57176000D01*
X96949928Y-59156000D01*
X96962188Y-59280482D01*
X96998498Y-59400180D01*
X97057463Y-59510494D01*
X97136815Y-59607185D01*
X97233506Y-59686537D01*
X97343820Y-59745502D01*
X97463518Y-59781812D01*
X97588000Y-59794072D01*
X101548000Y-59794072D01*
X101672482Y-59781812D01*
X101792180Y-59745502D01*
X101902494Y-59686537D01*
X101999185Y-59607185D01*
X102078537Y-59510494D01*
X102137502Y-59400180D01*
X102173812Y-59280482D01*
X102186072Y-59156000D01*
X102186072Y-57176000D01*
X102173812Y-57051518D01*
X102137502Y-56931820D01*
X102078537Y-56821506D01*
X101999185Y-56724815D01*
X101902494Y-56645463D01*
X101792180Y-56586498D01*
X101672482Y-56550188D01*
X101548000Y-56537928D01*
X97588000Y-56537928D01*
X97463518Y-56550188D01*
X97343820Y-56586498D01*
X97233506Y-56645463D01*
X97136815Y-56724815D01*
X97057463Y-56821506D01*
X96998498Y-56931820D01*
X96962188Y-57051518D01*
X96949928Y-57176000D01*
X69340000Y-57176000D01*
X69340000Y-54297711D01*
X69383937Y-54253774D01*
X69497205Y-54084256D01*
X69575226Y-53895898D01*
X69615000Y-53695939D01*
X69615000Y-53492061D01*
X69575226Y-53292102D01*
X69497205Y-53103744D01*
X69431104Y-53004816D01*
X79836000Y-53004816D01*
X79836000Y-53307184D01*
X79894989Y-53603743D01*
X80010701Y-53883095D01*
X80178688Y-54134505D01*
X80392495Y-54348312D01*
X80643905Y-54516299D01*
X80923257Y-54632011D01*
X81219816Y-54691000D01*
X81522184Y-54691000D01*
X81818743Y-54632011D01*
X82098095Y-54516299D01*
X82349505Y-54348312D01*
X82563312Y-54134505D01*
X82731299Y-53883095D01*
X82847011Y-53603743D01*
X82906000Y-53307184D01*
X82906000Y-53004816D01*
X82847011Y-52708257D01*
X82731299Y-52428905D01*
X82563312Y-52177495D01*
X82349505Y-51963688D01*
X82098095Y-51795701D01*
X81818743Y-51679989D01*
X81522184Y-51621000D01*
X81219816Y-51621000D01*
X80923257Y-51679989D01*
X80643905Y-51795701D01*
X80392495Y-51963688D01*
X80178688Y-52177495D01*
X80010701Y-52428905D01*
X79894989Y-52708257D01*
X79836000Y-53004816D01*
X69431104Y-53004816D01*
X69383937Y-52934226D01*
X69239774Y-52790063D01*
X69070256Y-52676795D01*
X68881898Y-52598774D01*
X68681939Y-52559000D01*
X68478061Y-52559000D01*
X68278102Y-52598774D01*
X68089744Y-52676795D01*
X67920226Y-52790063D01*
X67776063Y-52934226D01*
X67662795Y-53103744D01*
X67584774Y-53292102D01*
X67545000Y-53492061D01*
X67545000Y-53695939D01*
X67584774Y-53895898D01*
X67662795Y-54084256D01*
X67776063Y-54253774D01*
X67820000Y-54297711D01*
X67820001Y-57851196D01*
X63968199Y-61703000D01*
X63906061Y-61703000D01*
X63706102Y-61742774D01*
X63517744Y-61820795D01*
X63348226Y-61934063D01*
X63204063Y-62078226D01*
X63090795Y-62247744D01*
X63012774Y-62436102D01*
X62973000Y-62636061D01*
X49646883Y-62636061D01*
X49523475Y-62451369D01*
X49391620Y-62319514D01*
X49464180Y-62297503D01*
X49574494Y-62238538D01*
X49671185Y-62159186D01*
X49750537Y-62062495D01*
X49809502Y-61952181D01*
X49845812Y-61832483D01*
X49858072Y-61708001D01*
X49855000Y-61143751D01*
X49696250Y-60985001D01*
X48497000Y-60985001D01*
X48497000Y-61005001D01*
X48243000Y-61005001D01*
X48243000Y-60985001D01*
X47043750Y-60985001D01*
X46885000Y-61143751D01*
X46881928Y-61708001D01*
X45916752Y-61708001D01*
X45973974Y-61638277D01*
X46044546Y-61506247D01*
X46061530Y-61450256D01*
X46088003Y-61362986D01*
X46099000Y-61251333D01*
X46099000Y-61251323D01*
X46102676Y-61214000D01*
X46099000Y-61176678D01*
X46099000Y-60647711D01*
X46142937Y-60603774D01*
X46256205Y-60434256D01*
X46334226Y-60245898D01*
X46374000Y-60045939D01*
X46374000Y-59842061D01*
X46334226Y-59642102D01*
X46256205Y-59453744D01*
X46142937Y-59284226D01*
X45998774Y-59140063D01*
X45829256Y-59026795D01*
X45640898Y-58948774D01*
X45440939Y-58909000D01*
X45237061Y-58909000D01*
X45083000Y-58939644D01*
X45083000Y-57773356D01*
X45237061Y-57804000D01*
X45440939Y-57804000D01*
X45640898Y-57764226D01*
X45829256Y-57686205D01*
X45998774Y-57572937D01*
X46142937Y-57428774D01*
X46256205Y-57259256D01*
X46334226Y-57070898D01*
X46374000Y-56870939D01*
X46374000Y-56667061D01*
X46334226Y-56467102D01*
X46256205Y-56278744D01*
X46142937Y-56109226D01*
X46099000Y-56065289D01*
X46099000Y-51749801D01*
X46866003Y-50982799D01*
X46895001Y-50959001D01*
X46905322Y-50946425D01*
X46942068Y-51131159D01*
X47054010Y-51401412D01*
X47216525Y-51644633D01*
X47423368Y-51851476D01*
X47597760Y-51968001D01*
X47423368Y-52084526D01*
X47216525Y-52291369D01*
X47054010Y-52534590D01*
X46942068Y-52804843D01*
X46885000Y-53091741D01*
X46885000Y-53384261D01*
X46942068Y-53671159D01*
X47054010Y-53941412D01*
X47216525Y-54184633D01*
X47423368Y-54391476D01*
X47597760Y-54508001D01*
X47423368Y-54624526D01*
X47216525Y-54831369D01*
X47054010Y-55074590D01*
X46942068Y-55344843D01*
X46885000Y-55631741D01*
X46885000Y-55924261D01*
X46942068Y-56211159D01*
X47054010Y-56481412D01*
X47216525Y-56724633D01*
X47423368Y-56931476D01*
X47597760Y-57048001D01*
X47423368Y-57164526D01*
X47216525Y-57371369D01*
X47054010Y-57614590D01*
X46942068Y-57884843D01*
X46885000Y-58171741D01*
X46885000Y-58464261D01*
X46942068Y-58751159D01*
X47054010Y-59021412D01*
X47216525Y-59264633D01*
X47348380Y-59396488D01*
X47275820Y-59418499D01*
X47165506Y-59477464D01*
X47068815Y-59556816D01*
X46989463Y-59653507D01*
X46930498Y-59763821D01*
X46894188Y-59883519D01*
X46881928Y-60008001D01*
X46885000Y-60572251D01*
X47043750Y-60731001D01*
X48243000Y-60731001D01*
X48243000Y-60711001D01*
X48497000Y-60711001D01*
X48497000Y-60731001D01*
X49696250Y-60731001D01*
X49855000Y-60572251D01*
X49858072Y-60008001D01*
X49845812Y-59883519D01*
X49809502Y-59763821D01*
X49750537Y-59653507D01*
X49671185Y-59556816D01*
X49574494Y-59477464D01*
X49464180Y-59418499D01*
X49391620Y-59396488D01*
X49523475Y-59264633D01*
X49685990Y-59021412D01*
X49797932Y-58751159D01*
X49855000Y-58464261D01*
X49855000Y-58171741D01*
X49797932Y-57884843D01*
X49685990Y-57614590D01*
X49523475Y-57371369D01*
X49316632Y-57164526D01*
X49142240Y-57048001D01*
X49316632Y-56931476D01*
X49523475Y-56724633D01*
X49685990Y-56481412D01*
X49797932Y-56211159D01*
X49855000Y-55924261D01*
X49855000Y-55631741D01*
X49797932Y-55344843D01*
X49685990Y-55074590D01*
X49523475Y-54831369D01*
X49316632Y-54624526D01*
X49142240Y-54508001D01*
X49316632Y-54391476D01*
X49523475Y-54184633D01*
X49685990Y-53941412D01*
X49797932Y-53671159D01*
X49855000Y-53384261D01*
X49855000Y-53091741D01*
X49797932Y-52804843D01*
X49685990Y-52534590D01*
X49523475Y-52291369D01*
X49316632Y-52084526D01*
X49142240Y-51968001D01*
X49316632Y-51851476D01*
X49523475Y-51644633D01*
X49685990Y-51401412D01*
X49797932Y-51131159D01*
X49855000Y-50844261D01*
X49855000Y-50551741D01*
X49797932Y-50264843D01*
X49685990Y-49994590D01*
X49523475Y-49751369D01*
X49391620Y-49619514D01*
X49464180Y-49597503D01*
X49574494Y-49538538D01*
X49671185Y-49459186D01*
X49750537Y-49362495D01*
X49809502Y-49252181D01*
X49845812Y-49132483D01*
X49858072Y-49008001D01*
X49855000Y-48443751D01*
X49696250Y-48285001D01*
X48497000Y-48285001D01*
X48497000Y-48305001D01*
X48243000Y-48305001D01*
X48243000Y-48285001D01*
X48223000Y-48285001D01*
X48223000Y-48031001D01*
X48243000Y-48031001D01*
X48243000Y-48011001D01*
X48497000Y-48011001D01*
X48497000Y-48031001D01*
X49696250Y-48031001D01*
X49855000Y-47872251D01*
X49858072Y-47308001D01*
X49845812Y-47183519D01*
X49809502Y-47063821D01*
X49750537Y-46953507D01*
X49671185Y-46856816D01*
X49574494Y-46777464D01*
X49464180Y-46718499D01*
X49391620Y-46696488D01*
X49523475Y-46564633D01*
X49685990Y-46321412D01*
X49797932Y-46051159D01*
X49855000Y-45764261D01*
X49855000Y-45471741D01*
X49797932Y-45184843D01*
X49685990Y-44914590D01*
X49523475Y-44671369D01*
X49316632Y-44464526D01*
X49142240Y-44348001D01*
X49316632Y-44231476D01*
X49523475Y-44024633D01*
X49685990Y-43781412D01*
X49797932Y-43511159D01*
X49855000Y-43224261D01*
X49855000Y-42931741D01*
X49797932Y-42644843D01*
X49685990Y-42374590D01*
X49523475Y-42131369D01*
X49316632Y-41924526D01*
X49142240Y-41808001D01*
X49316632Y-41691476D01*
X49523475Y-41484633D01*
X49685990Y-41241412D01*
X49797932Y-40971159D01*
X49855000Y-40684261D01*
X49855000Y-40391741D01*
X49797932Y-40104843D01*
X49685990Y-39834590D01*
X49523475Y-39591369D01*
X49316632Y-39384526D01*
X49142240Y-39268001D01*
X49316632Y-39151476D01*
X49523475Y-38944633D01*
X49685990Y-38701412D01*
X49797932Y-38431159D01*
X49855000Y-38144261D01*
X49855000Y-37851741D01*
X49797932Y-37564843D01*
X49685990Y-37294590D01*
X49523475Y-37051369D01*
X49391620Y-36919514D01*
X49464180Y-36897503D01*
X49574494Y-36838538D01*
X49671185Y-36759186D01*
X49750537Y-36662495D01*
X49809502Y-36552181D01*
X49845812Y-36432483D01*
X49858072Y-36308001D01*
X49855000Y-35743751D01*
X49696250Y-35585001D01*
X48497000Y-35585001D01*
X48497000Y-35605001D01*
X48243000Y-35605001D01*
X48243000Y-35585001D01*
X47043750Y-35585001D01*
X46885000Y-35743751D01*
X46881928Y-36308001D01*
X46894188Y-36432483D01*
X46930498Y-36552181D01*
X46989463Y-36662495D01*
X47068815Y-36759186D01*
X47165506Y-36838538D01*
X47275820Y-36897503D01*
X47348380Y-36919514D01*
X47216525Y-37051369D01*
X47054010Y-37294590D01*
X46942068Y-37564843D01*
X46885000Y-37851741D01*
X46885000Y-38144261D01*
X46942068Y-38431159D01*
X47054010Y-38701412D01*
X47216525Y-38944633D01*
X47423368Y-39151476D01*
X47597760Y-39268001D01*
X47423368Y-39384526D01*
X47216525Y-39591369D01*
X47054010Y-39834590D01*
X46942068Y-40104843D01*
X46885000Y-40391741D01*
X46885000Y-40684261D01*
X46942068Y-40971159D01*
X47054010Y-41241412D01*
X47216525Y-41484633D01*
X47423368Y-41691476D01*
X47597760Y-41808001D01*
X47423368Y-41924526D01*
X47216525Y-42131369D01*
X47054010Y-42374590D01*
X46942068Y-42644843D01*
X46885000Y-42931741D01*
X46885000Y-43224261D01*
X46942068Y-43511159D01*
X47054010Y-43781412D01*
X47216525Y-44024633D01*
X47423368Y-44231476D01*
X47597760Y-44348001D01*
X47423368Y-44464526D01*
X47216525Y-44671369D01*
X47054010Y-44914590D01*
X46942068Y-45184843D01*
X46921219Y-45289655D01*
X46783898Y-45232774D01*
X46583939Y-45193000D01*
X46380061Y-45193000D01*
X46180102Y-45232774D01*
X45991744Y-45310795D01*
X45822226Y-45424063D01*
X45678063Y-45568226D01*
X45564795Y-45737744D01*
X45486774Y-45926102D01*
X45447000Y-46126061D01*
X45447000Y-46188198D01*
X44447002Y-47188197D01*
X44417999Y-47211999D01*
X44377175Y-47261744D01*
X44323026Y-47327724D01*
X44320524Y-47332405D01*
X44252454Y-47459754D01*
X44208997Y-47603015D01*
X44198000Y-47714668D01*
X44198000Y-47714678D01*
X44194324Y-47752000D01*
X44198000Y-47789323D01*
X44198001Y-49345846D01*
X44051256Y-49247795D01*
X43862898Y-49169774D01*
X43662939Y-49130000D01*
X43459061Y-49130000D01*
X43259102Y-49169774D01*
X43070744Y-49247795D01*
X42978360Y-49309524D01*
X42994072Y-49150001D01*
X42994072Y-48449999D01*
X42977008Y-48276745D01*
X42926472Y-48110149D01*
X42844405Y-47956613D01*
X42733962Y-47822038D01*
X42599387Y-47711595D01*
X42445851Y-47629528D01*
X42416000Y-47620473D01*
X42416000Y-46931711D01*
X42459937Y-46887774D01*
X42573205Y-46718256D01*
X42651226Y-46529898D01*
X42691000Y-46329939D01*
X42691000Y-46126061D01*
X42651226Y-45926102D01*
X42573205Y-45737744D01*
X42459937Y-45568226D01*
X42315774Y-45424063D01*
X42146256Y-45310795D01*
X41957898Y-45232774D01*
X41757939Y-45193000D01*
X41554061Y-45193000D01*
X41354102Y-45232774D01*
X41165744Y-45310795D01*
X40996226Y-45424063D01*
X40936289Y-45484000D01*
X38824976Y-45484000D01*
X38780405Y-45400613D01*
X38669962Y-45266038D01*
X38535387Y-45155595D01*
X38381851Y-45073528D01*
X38215255Y-45022992D01*
X38042001Y-45005928D01*
X37141999Y-45005928D01*
X36968745Y-45022992D01*
X36802149Y-45073528D01*
X36648613Y-45155595D01*
X36514038Y-45266038D01*
X36403595Y-45400613D01*
X36321528Y-45554149D01*
X36270992Y-45720745D01*
X36253928Y-45893999D01*
X36253928Y-46594001D01*
X36270992Y-46767255D01*
X36321528Y-46933851D01*
X36403595Y-47087387D01*
X36514038Y-47221962D01*
X36540891Y-47244000D01*
X36514038Y-47266038D01*
X36403595Y-47400613D01*
X36321528Y-47554149D01*
X36270992Y-47720745D01*
X36266141Y-47770000D01*
X35752320Y-47770000D01*
X35728537Y-47725506D01*
X35649185Y-47628815D01*
X35552494Y-47549463D01*
X35442180Y-47490498D01*
X35322482Y-47454188D01*
X35198000Y-47441928D01*
X34398000Y-47441928D01*
X34273518Y-47454188D01*
X34153820Y-47490498D01*
X34043506Y-47549463D01*
X33946815Y-47628815D01*
X33867463Y-47725506D01*
X33808498Y-47835820D01*
X33772188Y-47955518D01*
X33759928Y-48080000D01*
X33759928Y-48980000D01*
X33772188Y-49104482D01*
X33808498Y-49224180D01*
X33867463Y-49334494D01*
X33946815Y-49431185D01*
X33959905Y-49441928D01*
X33448000Y-49441928D01*
X33323518Y-49454188D01*
X33203820Y-49490498D01*
X33093506Y-49549463D01*
X32996815Y-49628815D01*
X32917463Y-49725506D01*
X32858498Y-49835820D01*
X32827502Y-49938001D01*
X31868178Y-49938001D01*
X31743475Y-49751369D01*
X31611620Y-49619514D01*
X31684180Y-49597503D01*
X31794494Y-49538538D01*
X31891185Y-49459186D01*
X31970537Y-49362495D01*
X32029502Y-49252181D01*
X32065812Y-49132483D01*
X32078072Y-49008001D01*
X32075000Y-48443751D01*
X31916250Y-48285001D01*
X30717000Y-48285001D01*
X30717000Y-48305001D01*
X30463000Y-48305001D01*
X30463000Y-48285001D01*
X29263750Y-48285001D01*
X29105000Y-48443751D01*
X29101928Y-49008001D01*
X24003000Y-49008001D01*
X24003000Y-36308001D01*
X29101928Y-36308001D01*
X29114188Y-36432483D01*
X29150498Y-36552181D01*
X29209463Y-36662495D01*
X29288815Y-36759186D01*
X29385506Y-36838538D01*
X29495820Y-36897503D01*
X29568380Y-36919514D01*
X29436525Y-37051369D01*
X29274010Y-37294590D01*
X29162068Y-37564843D01*
X29105000Y-37851741D01*
X29105000Y-38144261D01*
X29162068Y-38431159D01*
X29274010Y-38701412D01*
X29436525Y-38944633D01*
X29643368Y-39151476D01*
X29817760Y-39268001D01*
X29643368Y-39384526D01*
X29436525Y-39591369D01*
X29274010Y-39834590D01*
X29162068Y-40104843D01*
X29105000Y-40391741D01*
X29105000Y-40684261D01*
X29162068Y-40971159D01*
X29274010Y-41241412D01*
X29436525Y-41484633D01*
X29643368Y-41691476D01*
X29817760Y-41808001D01*
X29643368Y-41924526D01*
X29436525Y-42131369D01*
X29274010Y-42374590D01*
X29162068Y-42644843D01*
X29105000Y-42931741D01*
X29105000Y-43224261D01*
X29162068Y-43511159D01*
X29274010Y-43781412D01*
X29436525Y-44024633D01*
X29643368Y-44231476D01*
X29817760Y-44348001D01*
X29643368Y-44464526D01*
X29436525Y-44671369D01*
X29274010Y-44914590D01*
X29162068Y-45184843D01*
X29105000Y-45471741D01*
X29105000Y-45764261D01*
X29162068Y-46051159D01*
X29274010Y-46321412D01*
X29436525Y-46564633D01*
X29568380Y-46696488D01*
X29495820Y-46718499D01*
X29385506Y-46777464D01*
X29288815Y-46856816D01*
X29209463Y-46953507D01*
X29150498Y-47063821D01*
X29114188Y-47183519D01*
X29101928Y-47308001D01*
X29105000Y-47872251D01*
X29263750Y-48031001D01*
X30463000Y-48031001D01*
X30463000Y-48011001D01*
X30717000Y-48011001D01*
X30717000Y-48031001D01*
X31916250Y-48031001D01*
X32075000Y-47872251D01*
X32078072Y-47308001D01*
X32065812Y-47183519D01*
X32029502Y-47063821D01*
X31970537Y-46953507D01*
X31891185Y-46856816D01*
X31794494Y-46777464D01*
X31684180Y-46718499D01*
X31611620Y-46696488D01*
X31743475Y-46564633D01*
X31905990Y-46321412D01*
X32017932Y-46051159D01*
X32075000Y-45764261D01*
X32075000Y-45471741D01*
X32017932Y-45184843D01*
X31905990Y-44914590D01*
X31743475Y-44671369D01*
X31536632Y-44464526D01*
X31362240Y-44348001D01*
X31536632Y-44231476D01*
X31743475Y-44024633D01*
X31905990Y-43781412D01*
X32017932Y-43511159D01*
X32075000Y-43224261D01*
X32075000Y-42931741D01*
X32017932Y-42644843D01*
X31905990Y-42374590D01*
X31743475Y-42131369D01*
X31536632Y-41924526D01*
X31362240Y-41808001D01*
X31536632Y-41691476D01*
X31743475Y-41484633D01*
X31905990Y-41241412D01*
X32017932Y-40971159D01*
X32075000Y-40684261D01*
X32075000Y-40391741D01*
X32017932Y-40104843D01*
X31905990Y-39834590D01*
X31743475Y-39591369D01*
X31536632Y-39384526D01*
X31362240Y-39268001D01*
X31536632Y-39151476D01*
X31743475Y-38944633D01*
X31905990Y-38701412D01*
X32017932Y-38431159D01*
X32075000Y-38144261D01*
X32075000Y-37851741D01*
X32017932Y-37564843D01*
X31905990Y-37294590D01*
X31743475Y-37051369D01*
X31611620Y-36919514D01*
X31684180Y-36897503D01*
X31794494Y-36838538D01*
X31891185Y-36759186D01*
X31970537Y-36662495D01*
X32029502Y-36552181D01*
X32065812Y-36432483D01*
X32078072Y-36308001D01*
X32075000Y-35743751D01*
X31916250Y-35585001D01*
X30717000Y-35585001D01*
X30717000Y-35605001D01*
X30463000Y-35605001D01*
X30463000Y-35585001D01*
X29263750Y-35585001D01*
X29105000Y-35743751D01*
X29101928Y-36308001D01*
X24003000Y-36308001D01*
X24003000Y-34608001D01*
X29101928Y-34608001D01*
X29105000Y-35172251D01*
X29263750Y-35331001D01*
X30463000Y-35331001D01*
X30463000Y-35311001D01*
X30717000Y-35311001D01*
X30717000Y-35331001D01*
X31916250Y-35331001D01*
X32075000Y-35172251D01*
X32078072Y-34608001D01*
X32065812Y-34483519D01*
X32029502Y-34363821D01*
X31970537Y-34253507D01*
X31891185Y-34156816D01*
X31794494Y-34077464D01*
X31684180Y-34018499D01*
X31611620Y-33996488D01*
X31743475Y-33864633D01*
X31905990Y-33621412D01*
X31997042Y-33401590D01*
X35670000Y-33401590D01*
X35670000Y-33674412D01*
X35723225Y-33941990D01*
X35827629Y-34194044D01*
X35979201Y-34420887D01*
X36172114Y-34613800D01*
X36398957Y-34765372D01*
X36651011Y-34869776D01*
X36918589Y-34923001D01*
X37191411Y-34923001D01*
X37458989Y-34869776D01*
X37711043Y-34765372D01*
X37937886Y-34613800D01*
X38130799Y-34420887D01*
X38282371Y-34194044D01*
X38386775Y-33941990D01*
X38440000Y-33674412D01*
X38440000Y-33401590D01*
X40520000Y-33401590D01*
X40520000Y-33674412D01*
X40573225Y-33941990D01*
X40677629Y-34194044D01*
X40829201Y-34420887D01*
X41022114Y-34613800D01*
X41248957Y-34765372D01*
X41501011Y-34869776D01*
X41768589Y-34923001D01*
X42041411Y-34923001D01*
X42308989Y-34869776D01*
X42561043Y-34765372D01*
X42787886Y-34613800D01*
X42980799Y-34420887D01*
X43132371Y-34194044D01*
X43236775Y-33941990D01*
X43290000Y-33674412D01*
X43290000Y-33401590D01*
X43236775Y-33134012D01*
X43132371Y-32881958D01*
X42980799Y-32655115D01*
X42787886Y-32462202D01*
X42561043Y-32310630D01*
X42308989Y-32206226D01*
X42041411Y-32153001D01*
X41768589Y-32153001D01*
X41501011Y-32206226D01*
X41248957Y-32310630D01*
X41022114Y-32462202D01*
X40829201Y-32655115D01*
X40677629Y-32881958D01*
X40573225Y-33134012D01*
X40520000Y-33401590D01*
X38440000Y-33401590D01*
X38386775Y-33134012D01*
X38282371Y-32881958D01*
X38130799Y-32655115D01*
X37937886Y-32462202D01*
X37711043Y-32310630D01*
X37458989Y-32206226D01*
X37191411Y-32153001D01*
X36918589Y-32153001D01*
X36651011Y-32206226D01*
X36398957Y-32310630D01*
X36172114Y-32462202D01*
X35979201Y-32655115D01*
X35827629Y-32881958D01*
X35723225Y-33134012D01*
X35670000Y-33401590D01*
X31997042Y-33401590D01*
X32017932Y-33351159D01*
X32075000Y-33064261D01*
X32075000Y-32771741D01*
X32017932Y-32484843D01*
X31905990Y-32214590D01*
X31743475Y-31971369D01*
X31536632Y-31764526D01*
X31362240Y-31648001D01*
X31536632Y-31531476D01*
X31743475Y-31324633D01*
X31905990Y-31081412D01*
X32017932Y-30811159D01*
X32075000Y-30524261D01*
X32075000Y-30356817D01*
X35220000Y-30356817D01*
X35220000Y-30659185D01*
X35278989Y-30955744D01*
X35394701Y-31235096D01*
X35562688Y-31486506D01*
X35776495Y-31700313D01*
X36027905Y-31868300D01*
X36307257Y-31984012D01*
X36603816Y-32043001D01*
X36906184Y-32043001D01*
X37202743Y-31984012D01*
X37482095Y-31868300D01*
X37733505Y-31700313D01*
X37947312Y-31486506D01*
X38115299Y-31235096D01*
X38231011Y-30955744D01*
X38290000Y-30659185D01*
X38290000Y-30356817D01*
X38231011Y-30060258D01*
X38115299Y-29780906D01*
X37947312Y-29529496D01*
X37733505Y-29315689D01*
X37482095Y-29147702D01*
X37202743Y-29031990D01*
X36906184Y-28973001D01*
X36603816Y-28973001D01*
X36307257Y-29031990D01*
X36027905Y-29147702D01*
X35776495Y-29315689D01*
X35562688Y-29529496D01*
X35394701Y-29780906D01*
X35278989Y-30060258D01*
X35220000Y-30356817D01*
X32075000Y-30356817D01*
X32075000Y-30231741D01*
X32017932Y-29944843D01*
X31905990Y-29674590D01*
X31743475Y-29431369D01*
X31536632Y-29224526D01*
X31293411Y-29062011D01*
X31023158Y-28950069D01*
X30736260Y-28893001D01*
X30443740Y-28893001D01*
X30156842Y-28950069D01*
X29886589Y-29062011D01*
X29643368Y-29224526D01*
X29436525Y-29431369D01*
X29274010Y-29674590D01*
X29162068Y-29944843D01*
X29105000Y-30231741D01*
X29105000Y-30524261D01*
X29162068Y-30811159D01*
X29274010Y-31081412D01*
X29436525Y-31324633D01*
X29643368Y-31531476D01*
X29817760Y-31648001D01*
X29643368Y-31764526D01*
X29436525Y-31971369D01*
X29274010Y-32214590D01*
X29162068Y-32484843D01*
X29105000Y-32771741D01*
X29105000Y-33064261D01*
X29162068Y-33351159D01*
X29274010Y-33621412D01*
X29436525Y-33864633D01*
X29568380Y-33996488D01*
X29495820Y-34018499D01*
X29385506Y-34077464D01*
X29288815Y-34156816D01*
X29209463Y-34253507D01*
X29150498Y-34363821D01*
X29114188Y-34483519D01*
X29101928Y-34608001D01*
X24003000Y-34608001D01*
X24003000Y-23241000D01*
X49005593Y-23241000D01*
X48979498Y-23289820D01*
%TA.AperFunction,Conductor*%
D20*
G36*
X48979498Y-23289820D02*
G01*
X48943188Y-23409518D01*
X48930928Y-23534000D01*
X48930928Y-24797270D01*
X43938998Y-29789201D01*
X43910000Y-29812999D01*
X43886202Y-29841997D01*
X43886201Y-29841998D01*
X43815026Y-29928724D01*
X43744454Y-30060754D01*
X43727859Y-30115463D01*
X43706197Y-30186876D01*
X43681011Y-30060258D01*
X43565299Y-29780906D01*
X43397312Y-29529496D01*
X43183505Y-29315689D01*
X42932095Y-29147702D01*
X42652743Y-29031990D01*
X42356184Y-28973001D01*
X42053816Y-28973001D01*
X41757257Y-29031990D01*
X41477905Y-29147702D01*
X41226495Y-29315689D01*
X41012688Y-29529496D01*
X40844701Y-29780906D01*
X40728989Y-30060258D01*
X40670000Y-30356817D01*
X40670000Y-30659185D01*
X40728989Y-30955744D01*
X40844701Y-31235096D01*
X41012688Y-31486506D01*
X41226495Y-31700313D01*
X41477905Y-31868300D01*
X41757257Y-31984012D01*
X42053816Y-32043001D01*
X42356184Y-32043001D01*
X42652743Y-31984012D01*
X42932095Y-31868300D01*
X43183505Y-31700313D01*
X43397312Y-31486506D01*
X43565299Y-31235096D01*
X43681011Y-30955744D01*
X43690001Y-30910549D01*
X43690000Y-34348289D01*
X43582563Y-34455726D01*
X43469295Y-34625244D01*
X43391274Y-34813602D01*
X43351500Y-35013561D01*
X43351500Y-35217439D01*
X43391274Y-35417398D01*
X43469295Y-35605756D01*
X43582563Y-35775274D01*
X43726726Y-35919437D01*
X43896244Y-36032705D01*
X44084602Y-36110726D01*
X44284561Y-36150500D01*
X44488439Y-36150500D01*
X44688398Y-36110726D01*
X44876756Y-36032705D01*
X45046274Y-35919437D01*
X45190437Y-35775274D01*
X45303705Y-35605756D01*
X45381726Y-35417398D01*
X45421500Y-35217439D01*
X45421500Y-35013561D01*
X45381726Y-34813602D01*
X45303705Y-34625244D01*
X45292184Y-34608001D01*
X46881928Y-34608001D01*
X46885000Y-35172251D01*
X47043750Y-35331001D01*
X48243000Y-35331001D01*
X48243000Y-35311001D01*
X48497000Y-35311001D01*
X48497000Y-35331001D01*
X49696250Y-35331001D01*
X49855000Y-35172251D01*
X49858072Y-34608001D01*
X49845812Y-34483519D01*
X49809502Y-34363821D01*
X49750537Y-34253507D01*
X49671185Y-34156816D01*
X49574494Y-34077464D01*
X49464180Y-34018499D01*
X49391620Y-33996488D01*
X49523475Y-33864633D01*
X49685990Y-33621412D01*
X49797932Y-33351159D01*
X49855000Y-33064261D01*
X49855000Y-32771741D01*
X49797932Y-32484843D01*
X49685990Y-32214590D01*
X49523475Y-31971369D01*
X49316632Y-31764526D01*
X49142240Y-31648001D01*
X49316632Y-31531476D01*
X49523475Y-31324633D01*
X49685990Y-31081412D01*
X49797932Y-30811159D01*
X49855000Y-30524261D01*
X49855000Y-30231741D01*
X49797932Y-29944843D01*
X49685990Y-29674590D01*
X49523475Y-29431369D01*
X49316632Y-29224526D01*
X49073411Y-29062011D01*
X48803158Y-28950069D01*
X48516260Y-28893001D01*
X48223740Y-28893001D01*
X47936842Y-28950069D01*
X47666589Y-29062011D01*
X47423368Y-29224526D01*
X47216525Y-29431369D01*
X47054010Y-29674590D01*
X46942068Y-29944843D01*
X46885000Y-30231741D01*
X46885000Y-30524261D01*
X46942068Y-30811159D01*
X47054010Y-31081412D01*
X47216525Y-31324633D01*
X47423368Y-31531476D01*
X47597760Y-31648001D01*
X47423368Y-31764526D01*
X47216525Y-31971369D01*
X47054010Y-32214590D01*
X46942068Y-32484843D01*
X46885000Y-32771741D01*
X46885000Y-33064261D01*
X46942068Y-33351159D01*
X47054010Y-33621412D01*
X47216525Y-33864633D01*
X47348380Y-33996488D01*
X47275820Y-34018499D01*
X47165506Y-34077464D01*
X47068815Y-34156816D01*
X46989463Y-34253507D01*
X46930498Y-34363821D01*
X46894188Y-34483519D01*
X46881928Y-34608001D01*
X45292184Y-34608001D01*
X45210000Y-34485004D01*
X45210000Y-30667801D01*
X50005730Y-25872072D01*
X51269000Y-25872072D01*
X51393482Y-25859812D01*
X51513180Y-25823502D01*
X51623494Y-25764537D01*
X51720185Y-25685185D01*
X51799537Y-25588494D01*
X51858502Y-25478180D01*
X51880513Y-25405620D01*
X52012368Y-25537475D01*
X52072001Y-25577320D01*
X52072000Y-31808289D01*
X52028063Y-31852226D01*
X51914795Y-32021744D01*
X51836774Y-32210102D01*
X51797000Y-32410061D01*
X51797000Y-32613939D01*
X51836774Y-32813898D01*
X51914795Y-33002256D01*
X52028063Y-33171774D01*
X52172226Y-33315937D01*
X52341744Y-33429205D01*
X52530102Y-33507226D01*
X52730061Y-33547000D01*
X52933939Y-33547000D01*
X53133898Y-33507226D01*
X53322256Y-33429205D01*
X53491774Y-33315937D01*
X53635937Y-33171774D01*
X53749205Y-33002256D01*
X53827226Y-32813898D01*
X53867000Y-32613939D01*
X53867000Y-32410061D01*
X53827226Y-32210102D01*
X53749205Y-32021744D01*
X53635937Y-31852226D01*
X53592000Y-31808289D01*
X53592000Y-25729155D01*
X53662411Y-25699990D01*
X53905632Y-25537475D01*
X54112475Y-25330632D01*
X54234195Y-25148466D01*
X54303822Y-25265355D01*
X54498731Y-25481588D01*
X54732080Y-25655641D01*
X54994901Y-25780825D01*
X55142110Y-25825476D01*
X55372000Y-25704155D01*
X55372000Y-24511000D01*
X55352000Y-24511000D01*
X55352000Y-24257000D01*
X55372000Y-24257000D01*
X55372000Y-24237000D01*
X55626000Y-24237000D01*
X55626000Y-24257000D01*
X55646000Y-24257000D01*
X55646000Y-24511000D01*
X55626000Y-24511000D01*
X55626000Y-25704155D01*
X55855890Y-25825476D01*
X56003099Y-25780825D01*
X56265920Y-25655641D01*
X56499269Y-25481588D01*
X56694178Y-25265355D01*
X56763805Y-25148466D01*
X56885525Y-25330632D01*
X57092368Y-25537475D01*
X57335589Y-25699990D01*
X57605842Y-25811932D01*
X57660001Y-25822705D01*
X57660000Y-36253289D01*
X57616063Y-36297226D01*
X57502795Y-36466744D01*
X57424774Y-36655102D01*
X57385000Y-36855061D01*
X57385000Y-37058939D01*
X57424774Y-37258898D01*
X57502795Y-37447256D01*
X57616063Y-37616774D01*
X57760226Y-37760937D01*
X57929744Y-37874205D01*
X58118102Y-37952226D01*
X58318061Y-37992000D01*
X58521939Y-37992000D01*
X58721898Y-37952226D01*
X58910256Y-37874205D01*
X59079774Y-37760937D01*
X59223937Y-37616774D01*
X59337205Y-37447256D01*
X59415226Y-37258898D01*
X59455000Y-37058939D01*
X59455000Y-36855061D01*
X59415226Y-36655102D01*
X59337205Y-36466744D01*
X59223937Y-36297226D01*
X59180000Y-36253289D01*
X59180000Y-34223035D01*
X59189000Y-34234002D01*
X59218004Y-34257805D01*
X61724001Y-36763803D01*
X61724000Y-39682289D01*
X61680063Y-39726226D01*
X61566795Y-39895744D01*
X61488774Y-40084102D01*
X61449000Y-40284061D01*
X61449000Y-40487939D01*
X61488774Y-40687898D01*
X61566795Y-40876256D01*
X61680063Y-41045774D01*
X61824226Y-41189937D01*
X61993744Y-41303205D01*
X62182102Y-41381226D01*
X62382061Y-41421000D01*
X62585939Y-41421000D01*
X62785898Y-41381226D01*
X62974256Y-41303205D01*
X63143774Y-41189937D01*
X63287937Y-41045774D01*
X63401205Y-40876256D01*
X63479226Y-40687898D01*
X63519000Y-40487939D01*
X63519000Y-40284061D01*
X63479226Y-40084102D01*
X63401205Y-39895744D01*
X63287937Y-39726226D01*
X63244000Y-39682289D01*
X63244000Y-38760061D01*
X66275000Y-38760061D01*
X66275000Y-38963939D01*
X66314774Y-39163898D01*
X66392795Y-39352256D01*
X66506063Y-39521774D01*
X66550000Y-39565711D01*
X66550001Y-47048288D01*
X66506063Y-47092226D01*
X66392795Y-47261744D01*
X66314774Y-47450102D01*
X66275000Y-47650061D01*
X66275000Y-47853939D01*
X66314774Y-48053898D01*
X66392795Y-48242256D01*
X66506063Y-48411774D01*
X66650226Y-48555937D01*
X66819744Y-48669205D01*
X67008102Y-48747226D01*
X67208061Y-48787000D01*
X67411939Y-48787000D01*
X67611898Y-48747226D01*
X67800256Y-48669205D01*
X67969774Y-48555937D01*
X68113937Y-48411774D01*
X68227205Y-48242256D01*
X68305226Y-48053898D01*
X68345000Y-47853939D01*
X68345000Y-47846000D01*
X96945138Y-47846000D01*
X96976513Y-48164556D01*
X97069432Y-48470869D01*
X97220325Y-48753170D01*
X97423392Y-49000608D01*
X97670830Y-49203675D01*
X97953131Y-49354568D01*
X98259444Y-49447487D01*
X98498176Y-49471000D01*
X100637824Y-49471000D01*
X100876556Y-49447487D01*
X101182869Y-49354568D01*
X101465170Y-49203675D01*
X101712608Y-49000608D01*
X101915675Y-48753170D01*
X102066568Y-48470869D01*
X102159487Y-48164556D01*
X102190862Y-47846000D01*
X102159487Y-47527444D01*
X102066568Y-47221131D01*
X101915675Y-46938830D01*
X101712608Y-46691392D01*
X101465170Y-46488325D01*
X101182869Y-46337432D01*
X100876556Y-46244513D01*
X100637824Y-46221000D01*
X98498176Y-46221000D01*
X98259444Y-46244513D01*
X97953131Y-46337432D01*
X97670830Y-46488325D01*
X97423392Y-46691392D01*
X97220325Y-46938830D01*
X97069432Y-47221131D01*
X96976513Y-47527444D01*
X96945138Y-47846000D01*
X68345000Y-47846000D01*
X68345000Y-47650061D01*
X68305226Y-47450102D01*
X68227205Y-47261744D01*
X68113937Y-47092226D01*
X68070000Y-47048289D01*
X68070000Y-43078061D01*
X68307000Y-43078061D01*
X68307000Y-43281939D01*
X68346774Y-43481898D01*
X68424795Y-43670256D01*
X68538063Y-43839774D01*
X68682226Y-43983937D01*
X68851744Y-44097205D01*
X69040102Y-44175226D01*
X69240061Y-44215000D01*
X69443939Y-44215000D01*
X69643898Y-44175226D01*
X69832256Y-44097205D01*
X70001774Y-43983937D01*
X70145937Y-43839774D01*
X70259205Y-43670256D01*
X70337226Y-43481898D01*
X70377000Y-43281939D01*
X70377000Y-43078061D01*
X70337226Y-42878102D01*
X70323439Y-42844816D01*
X79836000Y-42844816D01*
X79836000Y-43147184D01*
X79894989Y-43443743D01*
X80010701Y-43723095D01*
X80178688Y-43974505D01*
X80392495Y-44188312D01*
X80643905Y-44356299D01*
X80923257Y-44472011D01*
X81219816Y-44531000D01*
X81522184Y-44531000D01*
X81818743Y-44472011D01*
X82098095Y-44356299D01*
X82349505Y-44188312D01*
X82563312Y-43974505D01*
X82731299Y-43723095D01*
X82847011Y-43443743D01*
X82906000Y-43147184D01*
X82906000Y-42846000D01*
X96945138Y-42846000D01*
X96976513Y-43164556D01*
X97069432Y-43470869D01*
X97220325Y-43753170D01*
X97423392Y-44000608D01*
X97670830Y-44203675D01*
X97953131Y-44354568D01*
X98259444Y-44447487D01*
X98498176Y-44471000D01*
X100637824Y-44471000D01*
X100876556Y-44447487D01*
X101182869Y-44354568D01*
X101465170Y-44203675D01*
X101712608Y-44000608D01*
X101915675Y-43753170D01*
X102066568Y-43470869D01*
X102159487Y-43164556D01*
X102190862Y-42846000D01*
X102159487Y-42527444D01*
X102066568Y-42221131D01*
X101915675Y-41938830D01*
X101712608Y-41691392D01*
X101465170Y-41488325D01*
X101182869Y-41337432D01*
X100876556Y-41244513D01*
X100637824Y-41221000D01*
X98498176Y-41221000D01*
X98259444Y-41244513D01*
X97953131Y-41337432D01*
X97670830Y-41488325D01*
X97423392Y-41691392D01*
X97220325Y-41938830D01*
X97069432Y-42221131D01*
X96976513Y-42527444D01*
X96945138Y-42846000D01*
X82906000Y-42846000D01*
X82906000Y-42844816D01*
X82847011Y-42548257D01*
X82731299Y-42268905D01*
X82563312Y-42017495D01*
X82349505Y-41803688D01*
X82098095Y-41635701D01*
X81818743Y-41519989D01*
X81522184Y-41461000D01*
X81219816Y-41461000D01*
X80923257Y-41519989D01*
X80643905Y-41635701D01*
X80392495Y-41803688D01*
X80178688Y-42017495D01*
X80010701Y-42268905D01*
X79894989Y-42548257D01*
X79836000Y-42844816D01*
X70323439Y-42844816D01*
X70259205Y-42689744D01*
X70145937Y-42520226D01*
X70102000Y-42476289D01*
X70102000Y-40538061D01*
X70339000Y-40538061D01*
X70339000Y-40741939D01*
X70378774Y-40941898D01*
X70456795Y-41130256D01*
X70570063Y-41299774D01*
X70714226Y-41443937D01*
X70883744Y-41557205D01*
X71072102Y-41635226D01*
X71272061Y-41675000D01*
X71475939Y-41675000D01*
X71675898Y-41635226D01*
X71864256Y-41557205D01*
X72033774Y-41443937D01*
X72177937Y-41299774D01*
X72291205Y-41130256D01*
X72369226Y-40941898D01*
X72409000Y-40741939D01*
X72409000Y-40679801D01*
X74252801Y-38836000D01*
X96949928Y-38836000D01*
X96962188Y-38960482D01*
X96998498Y-39080180D01*
X97057463Y-39190494D01*
X97136815Y-39287185D01*
X97233506Y-39366537D01*
X97343820Y-39425502D01*
X97463518Y-39461812D01*
X97588000Y-39474072D01*
X99282250Y-39471000D01*
X99441000Y-39312250D01*
X99441000Y-37973000D01*
X99695000Y-37973000D01*
X99695000Y-39312250D01*
X99853750Y-39471000D01*
X101548000Y-39474072D01*
X101672482Y-39461812D01*
X101792180Y-39425502D01*
X101902494Y-39366537D01*
X101999185Y-39287185D01*
X102078537Y-39190494D01*
X102137502Y-39080180D01*
X102173812Y-38960482D01*
X102186072Y-38836000D01*
X102183000Y-38131750D01*
X102024250Y-37973000D01*
X99695000Y-37973000D01*
X99441000Y-37973000D01*
X97111750Y-37973000D01*
X96953000Y-38131750D01*
X96949928Y-38836000D01*
X74252801Y-38836000D01*
X76260803Y-36828000D01*
X77020289Y-36828000D01*
X77064226Y-36871937D01*
X77233744Y-36985205D01*
X77422102Y-37063226D01*
X77622061Y-37103000D01*
X77825939Y-37103000D01*
X78025898Y-37063226D01*
X78214256Y-36985205D01*
X78383774Y-36871937D01*
X78399711Y-36856000D01*
X96949928Y-36856000D01*
X96953000Y-37560250D01*
X97111750Y-37719000D01*
X99441000Y-37719000D01*
X99441000Y-36379750D01*
X99695000Y-36379750D01*
X99695000Y-37719000D01*
X102024250Y-37719000D01*
X102183000Y-37560250D01*
X102186072Y-36856000D01*
X102173812Y-36731518D01*
X102137502Y-36611820D01*
X102078537Y-36501506D01*
X101999185Y-36404815D01*
X101902494Y-36325463D01*
X101792180Y-36266498D01*
X101672482Y-36230188D01*
X101548000Y-36217928D01*
X99853750Y-36221000D01*
X99695000Y-36379750D01*
X99441000Y-36379750D01*
X99282250Y-36221000D01*
X97588000Y-36217928D01*
X97463518Y-36230188D01*
X97343820Y-36266498D01*
X97233506Y-36325463D01*
X97136815Y-36404815D01*
X97057463Y-36501506D01*
X96998498Y-36611820D01*
X96962188Y-36731518D01*
X96949928Y-36856000D01*
X78399711Y-36856000D01*
X78527937Y-36727774D01*
X78641205Y-36558256D01*
X78719226Y-36369898D01*
X78759000Y-36169939D01*
X78759000Y-35966061D01*
X78719226Y-35766102D01*
X78641205Y-35577744D01*
X78527937Y-35408226D01*
X78383774Y-35264063D01*
X78214256Y-35150795D01*
X78025898Y-35072774D01*
X77825939Y-35033000D01*
X77622061Y-35033000D01*
X77422102Y-35072774D01*
X77233744Y-35150795D01*
X77064226Y-35264063D01*
X77020289Y-35308000D01*
X75983322Y-35308000D01*
X75945999Y-35304324D01*
X75908676Y-35308000D01*
X75908667Y-35308000D01*
X75797014Y-35318997D01*
X75653753Y-35362454D01*
X75521724Y-35433026D01*
X75521722Y-35433027D01*
X75521723Y-35433027D01*
X75434996Y-35504201D01*
X75434992Y-35504205D01*
X75405999Y-35527999D01*
X75382205Y-35556992D01*
X71334199Y-39605000D01*
X71272061Y-39605000D01*
X71072102Y-39644774D01*
X70883744Y-39722795D01*
X70714226Y-39836063D01*
X70570063Y-39980226D01*
X70456795Y-40149744D01*
X70378774Y-40338102D01*
X70339000Y-40538061D01*
X70102000Y-40538061D01*
X70102000Y-37906801D01*
X75223802Y-32785000D01*
X75285939Y-32785000D01*
X75485898Y-32745226D01*
X75674256Y-32667205D01*
X75843774Y-32553937D01*
X75987937Y-32409774D01*
X76101205Y-32240256D01*
X76179226Y-32051898D01*
X76219000Y-31851939D01*
X76219000Y-31648061D01*
X76179226Y-31448102D01*
X76101205Y-31259744D01*
X75987937Y-31090226D01*
X75843774Y-30946063D01*
X75674256Y-30832795D01*
X75485898Y-30754774D01*
X75285939Y-30715000D01*
X75082061Y-30715000D01*
X74882102Y-30754774D01*
X74693744Y-30832795D01*
X74524226Y-30946063D01*
X74380063Y-31090226D01*
X74266795Y-31259744D01*
X74188774Y-31448102D01*
X74149000Y-31648061D01*
X74149000Y-31710198D01*
X68831003Y-37028196D01*
X68801999Y-37051999D01*
X68746871Y-37119174D01*
X68707026Y-37167724D01*
X68663451Y-37249246D01*
X68636454Y-37299754D01*
X68592997Y-37443015D01*
X68582000Y-37554668D01*
X68582000Y-37554678D01*
X68578324Y-37592000D01*
X68582000Y-37629323D01*
X68582001Y-42476288D01*
X68538063Y-42520226D01*
X68424795Y-42689744D01*
X68346774Y-42878102D01*
X68307000Y-43078061D01*
X68070000Y-43078061D01*
X68070000Y-39565711D01*
X68113937Y-39521774D01*
X68227205Y-39352256D01*
X68305226Y-39163898D01*
X68345000Y-38963939D01*
X68345000Y-38760061D01*
X68305226Y-38560102D01*
X68227205Y-38371744D01*
X68113937Y-38202226D01*
X67969774Y-38058063D01*
X67800256Y-37944795D01*
X67611898Y-37866774D01*
X67411939Y-37827000D01*
X67208061Y-37827000D01*
X67008102Y-37866774D01*
X66819744Y-37944795D01*
X66650226Y-38058063D01*
X66506063Y-38202226D01*
X66392795Y-38371744D01*
X66314774Y-38560102D01*
X66275000Y-38760061D01*
X63244000Y-38760061D01*
X63244000Y-36486323D01*
X63247676Y-36449000D01*
X63244000Y-36411677D01*
X63244000Y-36411667D01*
X63233003Y-36300014D01*
X63189546Y-36156753D01*
X63164944Y-36110726D01*
X63118974Y-36024723D01*
X63047799Y-35937997D01*
X63024001Y-35908999D01*
X62995003Y-35885201D01*
X60489001Y-33379200D01*
X60489001Y-32853144D01*
X60517506Y-32876537D01*
X60627820Y-32935502D01*
X60747518Y-32971812D01*
X60872000Y-32984072D01*
X62572000Y-32984072D01*
X62696482Y-32971812D01*
X62816180Y-32935502D01*
X62926494Y-32876537D01*
X63023185Y-32797185D01*
X63102537Y-32700494D01*
X63161502Y-32590180D01*
X63185966Y-32509534D01*
X63261731Y-32593588D01*
X63495080Y-32767641D01*
X63757901Y-32892825D01*
X63905110Y-32937476D01*
X64135000Y-32816155D01*
X64135000Y-31623000D01*
X64115000Y-31623000D01*
X64115000Y-31369000D01*
X64135000Y-31369000D01*
X64135000Y-30175845D01*
X64389000Y-30175845D01*
X64389000Y-31369000D01*
X64409000Y-31369000D01*
X64409000Y-31623000D01*
X64389000Y-31623000D01*
X64389000Y-32816155D01*
X64618890Y-32937476D01*
X64766099Y-32892825D01*
X65028920Y-32767641D01*
X65262269Y-32593588D01*
X65457178Y-32377355D01*
X65526805Y-32260466D01*
X65648525Y-32442632D01*
X65855368Y-32649475D01*
X66098589Y-32811990D01*
X66368842Y-32923932D01*
X66655740Y-32981000D01*
X66948260Y-32981000D01*
X67235158Y-32923932D01*
X67505411Y-32811990D01*
X67748632Y-32649475D01*
X67955475Y-32442632D01*
X68072000Y-32268240D01*
X68188525Y-32442632D01*
X68395368Y-32649475D01*
X68638589Y-32811990D01*
X68908842Y-32923932D01*
X69195740Y-32981000D01*
X69488260Y-32981000D01*
X69775158Y-32923932D01*
X70045411Y-32811990D01*
X70288632Y-32649475D01*
X70495475Y-32442632D01*
X70657990Y-32199411D01*
X70769932Y-31929158D01*
X70827000Y-31642260D01*
X70827000Y-31349740D01*
X70769932Y-31062842D01*
X70657990Y-30792589D01*
X70495475Y-30549368D01*
X70288632Y-30342525D01*
X70045411Y-30180010D01*
X69775158Y-30068068D01*
X69488260Y-30011000D01*
X69195740Y-30011000D01*
X68908842Y-30068068D01*
X68638589Y-30180010D01*
X68395368Y-30342525D01*
X68188525Y-30549368D01*
X68072000Y-30723760D01*
X67955475Y-30549368D01*
X67748632Y-30342525D01*
X67505411Y-30180010D01*
X67235158Y-30068068D01*
X66948260Y-30011000D01*
X66655740Y-30011000D01*
X66368842Y-30068068D01*
X66098589Y-30180010D01*
X65855368Y-30342525D01*
X65648525Y-30549368D01*
X65526805Y-30731534D01*
X65457178Y-30614645D01*
X65262269Y-30398412D01*
X65028920Y-30224359D01*
X64766099Y-30099175D01*
X64618890Y-30054524D01*
X64389000Y-30175845D01*
X64135000Y-30175845D01*
X63905110Y-30054524D01*
X63757901Y-30099175D01*
X63495080Y-30224359D01*
X63261731Y-30398412D01*
X63185966Y-30482466D01*
X63161502Y-30401820D01*
X63102537Y-30291506D01*
X63023185Y-30194815D01*
X62926494Y-30115463D01*
X62816180Y-30056498D01*
X62696482Y-30020188D01*
X62572000Y-30007928D01*
X60872000Y-30007928D01*
X60747518Y-30020188D01*
X60627820Y-30056498D01*
X60517506Y-30115463D01*
X60489001Y-30138856D01*
X60489001Y-28809740D01*
X82589000Y-28809740D01*
X82589000Y-29102260D01*
X82646068Y-29389158D01*
X82758010Y-29659411D01*
X82920525Y-29902632D01*
X83127368Y-30109475D01*
X83370589Y-30271990D01*
X83640842Y-30383932D01*
X83927740Y-30441000D01*
X84220260Y-30441000D01*
X84507158Y-30383932D01*
X84777411Y-30271990D01*
X85020632Y-30109475D01*
X85227475Y-29902632D01*
X85344000Y-29728240D01*
X85460525Y-29902632D01*
X85667368Y-30109475D01*
X85910589Y-30271990D01*
X86180842Y-30383932D01*
X86467740Y-30441000D01*
X86760260Y-30441000D01*
X87047158Y-30383932D01*
X87317411Y-30271990D01*
X87560632Y-30109475D01*
X87692487Y-29977620D01*
X87714498Y-30050180D01*
X87773463Y-30160494D01*
X87852815Y-30257185D01*
X87949506Y-30336537D01*
X88059820Y-30395502D01*
X88179518Y-30431812D01*
X88304000Y-30444072D01*
X88868250Y-30441000D01*
X89027000Y-30282250D01*
X89027000Y-29083000D01*
X89281000Y-29083000D01*
X89281000Y-30282250D01*
X89439750Y-30441000D01*
X90004000Y-30444072D01*
X90128482Y-30431812D01*
X90248180Y-30395502D01*
X90358494Y-30336537D01*
X90455185Y-30257185D01*
X90534537Y-30160494D01*
X90593502Y-30050180D01*
X90629812Y-29930482D01*
X90642072Y-29806000D01*
X90639000Y-29241750D01*
X90480250Y-29083000D01*
X89281000Y-29083000D01*
X89027000Y-29083000D01*
X89007000Y-29083000D01*
X89007000Y-28829000D01*
X89027000Y-28829000D01*
X89027000Y-27629750D01*
X89281000Y-27629750D01*
X89281000Y-28829000D01*
X90480250Y-28829000D01*
X90499510Y-28809740D01*
X95289000Y-28809740D01*
X95289000Y-29102260D01*
X95346068Y-29389158D01*
X95458010Y-29659411D01*
X95620525Y-29902632D01*
X95827368Y-30109475D01*
X96070589Y-30271990D01*
X96340842Y-30383932D01*
X96627740Y-30441000D01*
X96920260Y-30441000D01*
X97207158Y-30383932D01*
X97477411Y-30271990D01*
X97720632Y-30109475D01*
X97927475Y-29902632D01*
X98044000Y-29728240D01*
X98160525Y-29902632D01*
X98367368Y-30109475D01*
X98610589Y-30271990D01*
X98880842Y-30383932D01*
X99167740Y-30441000D01*
X99460260Y-30441000D01*
X99747158Y-30383932D01*
X100017411Y-30271990D01*
X100260632Y-30109475D01*
X100392487Y-29977620D01*
X100414498Y-30050180D01*
X100473463Y-30160494D01*
X100552815Y-30257185D01*
X100649506Y-30336537D01*
X100759820Y-30395502D01*
X100879518Y-30431812D01*
X101004000Y-30444072D01*
X101568250Y-30441000D01*
X101727000Y-30282250D01*
X101727000Y-29083000D01*
X101981000Y-29083000D01*
X101981000Y-30282250D01*
X102139750Y-30441000D01*
X102704000Y-30444072D01*
X102828482Y-30431812D01*
X102948180Y-30395502D01*
X103058494Y-30336537D01*
X103155185Y-30257185D01*
X103234537Y-30160494D01*
X103293502Y-30050180D01*
X103329812Y-29930482D01*
X103342072Y-29806000D01*
X103339000Y-29241750D01*
X103180250Y-29083000D01*
X101981000Y-29083000D01*
X101727000Y-29083000D01*
X101707000Y-29083000D01*
X101707000Y-28829000D01*
X101727000Y-28829000D01*
X101727000Y-27629750D01*
X101981000Y-27629750D01*
X101981000Y-28829000D01*
X103180250Y-28829000D01*
X103339000Y-28670250D01*
X103342072Y-28106000D01*
X103329812Y-27981518D01*
X103293502Y-27861820D01*
X103234537Y-27751506D01*
X103155185Y-27654815D01*
X103058494Y-27575463D01*
X102948180Y-27516498D01*
X102828482Y-27480188D01*
X102704000Y-27467928D01*
X102139750Y-27471000D01*
X101981000Y-27629750D01*
X101727000Y-27629750D01*
X101568250Y-27471000D01*
X101004000Y-27467928D01*
X100879518Y-27480188D01*
X100759820Y-27516498D01*
X100649506Y-27575463D01*
X100552815Y-27654815D01*
X100473463Y-27751506D01*
X100414498Y-27861820D01*
X100392487Y-27934380D01*
X100260632Y-27802525D01*
X100017411Y-27640010D01*
X99747158Y-27528068D01*
X99460260Y-27471000D01*
X99167740Y-27471000D01*
X98880842Y-27528068D01*
X98610589Y-27640010D01*
X98367368Y-27802525D01*
X98160525Y-28009368D01*
X98044000Y-28183760D01*
X97927475Y-28009368D01*
X97720632Y-27802525D01*
X97477411Y-27640010D01*
X97207158Y-27528068D01*
X96920260Y-27471000D01*
X96627740Y-27471000D01*
X96340842Y-27528068D01*
X96070589Y-27640010D01*
X95827368Y-27802525D01*
X95620525Y-28009368D01*
X95458010Y-28252589D01*
X95346068Y-28522842D01*
X95289000Y-28809740D01*
X90499510Y-28809740D01*
X90639000Y-28670250D01*
X90642072Y-28106000D01*
X90629812Y-27981518D01*
X90593502Y-27861820D01*
X90534537Y-27751506D01*
X90455185Y-27654815D01*
X90358494Y-27575463D01*
X90248180Y-27516498D01*
X90128482Y-27480188D01*
X90004000Y-27467928D01*
X89439750Y-27471000D01*
X89281000Y-27629750D01*
X89027000Y-27629750D01*
X88868250Y-27471000D01*
X88304000Y-27467928D01*
X88179518Y-27480188D01*
X88059820Y-27516498D01*
X87949506Y-27575463D01*
X87852815Y-27654815D01*
X87773463Y-27751506D01*
X87714498Y-27861820D01*
X87692487Y-27934380D01*
X87560632Y-27802525D01*
X87317411Y-27640010D01*
X87047158Y-27528068D01*
X86760260Y-27471000D01*
X86467740Y-27471000D01*
X86180842Y-27528068D01*
X85910589Y-27640010D01*
X85667368Y-27802525D01*
X85460525Y-28009368D01*
X85344000Y-28183760D01*
X85227475Y-28009368D01*
X85020632Y-27802525D01*
X84777411Y-27640010D01*
X84507158Y-27528068D01*
X84220260Y-27471000D01*
X83927740Y-27471000D01*
X83640842Y-27528068D01*
X83370589Y-27640010D01*
X83127368Y-27802525D01*
X82920525Y-28009368D01*
X82758010Y-28252589D01*
X82646068Y-28522842D01*
X82589000Y-28809740D01*
X60489001Y-28809740D01*
X60489001Y-25869000D01*
X60725260Y-25869000D01*
X61012158Y-25811932D01*
X61282411Y-25699990D01*
X61525632Y-25537475D01*
X61732475Y-25330632D01*
X61849000Y-25156240D01*
X61965525Y-25330632D01*
X62172368Y-25537475D01*
X62415589Y-25699990D01*
X62685842Y-25811932D01*
X62972740Y-25869000D01*
X63265260Y-25869000D01*
X63552158Y-25811932D01*
X63822411Y-25699990D01*
X64065632Y-25537475D01*
X64272475Y-25330632D01*
X64434990Y-25087411D01*
X64546932Y-24817158D01*
X64604000Y-24530260D01*
X64604000Y-24237740D01*
X64546932Y-23950842D01*
X64434990Y-23680589D01*
X64272475Y-23437368D01*
X64076107Y-23241000D01*
X107315000Y-23241000D01*
X107315000Y-84455000D01*
X24003000Y-84455000D01*
X24003000Y-49008001D01*
X29101928Y-49008001D01*
X29114188Y-49132483D01*
X29150498Y-49252181D01*
X29209463Y-49362495D01*
X29288815Y-49459186D01*
X29385506Y-49538538D01*
X29495820Y-49597503D01*
X29568380Y-49619514D01*
X29436525Y-49751369D01*
X29274010Y-49994590D01*
X29162068Y-50264843D01*
X29105000Y-50551741D01*
X29105000Y-50844261D01*
X29162068Y-51131159D01*
X29274010Y-51401412D01*
X29436525Y-51644633D01*
X29643368Y-51851476D01*
X29817760Y-51968001D01*
X29643368Y-52084526D01*
X29436525Y-52291369D01*
X29274010Y-52534590D01*
X29162068Y-52804843D01*
X29105000Y-53091741D01*
X29105000Y-53384261D01*
X29162068Y-53671159D01*
X29274010Y-53941412D01*
X29436525Y-54184633D01*
X29643368Y-54391476D01*
X29817760Y-54508001D01*
X29643368Y-54624526D01*
X29436525Y-54831369D01*
X29274010Y-55074590D01*
X29162068Y-55344843D01*
X29105000Y-55631741D01*
X29105000Y-55924261D01*
X29162068Y-56211159D01*
X29274010Y-56481412D01*
X29436525Y-56724633D01*
X29643368Y-56931476D01*
X29817760Y-57048001D01*
X29643368Y-57164526D01*
X29436525Y-57371369D01*
X29274010Y-57614590D01*
X29162068Y-57884843D01*
X29105000Y-58171741D01*
X29105000Y-58464261D01*
X29162068Y-58751159D01*
X29274010Y-59021412D01*
X29436525Y-59264633D01*
X29568380Y-59396488D01*
X29495820Y-59418499D01*
X29385506Y-59477464D01*
X29288815Y-59556816D01*
X29209463Y-59653507D01*
X29150498Y-59763821D01*
X29114188Y-59883519D01*
X29101928Y-60008001D01*
X29105000Y-60572251D01*
X29263750Y-60731001D01*
X30463000Y-60731001D01*
X30463000Y-60711001D01*
X30717000Y-60711001D01*
X30717000Y-60731001D01*
X31916250Y-60731001D01*
X32075000Y-60572251D01*
X32078072Y-60008001D01*
X32065812Y-59883519D01*
X32029502Y-59763821D01*
X31970537Y-59653507D01*
X31891185Y-59556816D01*
X31794494Y-59477464D01*
X31684180Y-59418499D01*
X31611620Y-59396488D01*
X31743475Y-59264633D01*
X31905990Y-59021412D01*
X32017932Y-58751159D01*
X32075000Y-58464261D01*
X32075000Y-58171741D01*
X32017932Y-57884843D01*
X31905990Y-57614590D01*
X31743475Y-57371369D01*
X31536632Y-57164526D01*
X31362240Y-57048001D01*
X31536632Y-56931476D01*
X31743475Y-56724633D01*
X31905990Y-56481412D01*
X32017932Y-56211159D01*
X32075000Y-55924261D01*
X32075000Y-55631741D01*
X32017932Y-55344843D01*
X31905990Y-55074590D01*
X31743475Y-54831369D01*
X31536632Y-54624526D01*
X31362240Y-54508001D01*
X31536632Y-54391476D01*
X31743475Y-54184633D01*
X31905990Y-53941412D01*
X31952138Y-53830000D01*
X36449680Y-53830000D01*
X36473463Y-53874494D01*
X36552815Y-53971185D01*
X36578001Y-53991854D01*
X36578001Y-54139023D01*
X36494613Y-54183595D01*
X36360038Y-54294038D01*
X36249595Y-54428613D01*
X36167528Y-54582149D01*
X36116992Y-54748745D01*
X36099928Y-54921999D01*
X36099928Y-55822001D01*
X36116992Y-55995255D01*
X36167528Y-56161851D01*
X36249595Y-56315387D01*
X36360038Y-56449962D01*
X36494613Y-56560405D01*
X36648149Y-56642472D01*
X36814745Y-56693008D01*
X36987999Y-56710072D01*
X37688001Y-56710072D01*
X37861255Y-56693008D01*
X38027851Y-56642472D01*
X38181387Y-56560405D01*
X38315962Y-56449962D01*
X38338000Y-56423109D01*
X38360038Y-56449962D01*
X38494613Y-56560405D01*
X38648149Y-56642472D01*
X38814745Y-56693008D01*
X38987999Y-56710072D01*
X39688001Y-56710072D01*
X39861255Y-56693008D01*
X40027851Y-56642472D01*
X40181387Y-56560405D01*
X40315962Y-56449962D01*
X40426405Y-56315387D01*
X40508472Y-56161851D01*
X40559008Y-55995255D01*
X40576072Y-55822001D01*
X40576072Y-54921999D01*
X40559008Y-54748745D01*
X40508472Y-54582149D01*
X40426405Y-54428613D01*
X40315962Y-54294038D01*
X40181387Y-54183595D01*
X40098000Y-54139024D01*
X40098000Y-54018115D01*
X40135020Y-53987734D01*
X40322102Y-54065226D01*
X40522061Y-54105000D01*
X40725939Y-54105000D01*
X40863088Y-54077720D01*
X40865795Y-54084256D01*
X40979063Y-54253774D01*
X41023000Y-54297711D01*
X41023000Y-61395368D01*
X40941898Y-61361774D01*
X40741939Y-61322000D01*
X40538061Y-61322000D01*
X40338102Y-61361774D01*
X40149744Y-61439795D01*
X39980226Y-61553063D01*
X39936289Y-61597000D01*
X39788333Y-61597000D01*
X39751000Y-61593323D01*
X39713667Y-61597000D01*
X39602014Y-61607997D01*
X39458753Y-61651454D01*
X39326724Y-61722026D01*
X39210999Y-61816999D01*
X39187200Y-61845998D01*
X38801199Y-62232000D01*
X35498320Y-62232000D01*
X35474537Y-62187506D01*
X35395185Y-62090815D01*
X35298494Y-62011463D01*
X35188180Y-61952498D01*
X35068482Y-61916188D01*
X34944000Y-61903928D01*
X34144000Y-61903928D01*
X34019518Y-61916188D01*
X33899820Y-61952498D01*
X33789506Y-62011463D01*
X33692815Y-62090815D01*
X33613463Y-62187506D01*
X33554498Y-62297820D01*
X33518188Y-62417518D01*
X33505928Y-62542000D01*
X33505928Y-63442000D01*
X33518188Y-63566482D01*
X33554498Y-63686180D01*
X33613463Y-63796494D01*
X33692815Y-63893185D01*
X33705905Y-63903928D01*
X33194000Y-63903928D01*
X33069518Y-63916188D01*
X32949820Y-63952498D01*
X32839506Y-64011463D01*
X32742815Y-64090815D01*
X32663463Y-64187506D01*
X32604498Y-64297820D01*
X32568188Y-64417518D01*
X32555928Y-64542000D01*
X32555928Y-65442000D01*
X32568188Y-65566482D01*
X32604498Y-65686180D01*
X32649143Y-65769704D01*
X32550038Y-65851038D01*
X32439595Y-65985613D01*
X32357528Y-66139149D01*
X32306992Y-66305745D01*
X32289928Y-66478999D01*
X32289928Y-67092270D01*
X31786475Y-67595723D01*
X31743475Y-67531369D01*
X31536632Y-67324526D01*
X31362240Y-67208001D01*
X31536632Y-67091476D01*
X31743475Y-66884633D01*
X31905990Y-66641412D01*
X32017932Y-66371159D01*
X32075000Y-66084261D01*
X32075000Y-65791741D01*
X32017932Y-65504843D01*
X31905990Y-65234590D01*
X31743475Y-64991369D01*
X31536632Y-64784526D01*
X31362240Y-64668001D01*
X31536632Y-64551476D01*
X31743475Y-64344633D01*
X31905990Y-64101412D01*
X32017932Y-63831159D01*
X32075000Y-63544261D01*
X32075000Y-63251741D01*
X32017932Y-62964843D01*
X31905990Y-62694590D01*
X31743475Y-62451369D01*
X31611620Y-62319514D01*
X31684180Y-62297503D01*
X31794494Y-62238538D01*
X31891185Y-62159186D01*
X31970537Y-62062495D01*
X32029502Y-61952181D01*
X32065812Y-61832483D01*
X32078072Y-61708001D01*
X32075000Y-61143751D01*
X31916250Y-60985001D01*
X30717000Y-60985001D01*
X30717000Y-61005001D01*
X30463000Y-61005001D01*
X30463000Y-60985001D01*
X29263750Y-60985001D01*
X29105000Y-61143751D01*
X29101928Y-61708001D01*
X29114188Y-61832483D01*
X29150498Y-61952181D01*
X29209463Y-62062495D01*
X29288815Y-62159186D01*
X29385506Y-62238538D01*
X29495820Y-62297503D01*
X29568380Y-62319514D01*
X29436525Y-62451369D01*
X29274010Y-62694590D01*
X29162068Y-62964843D01*
X29105000Y-63251741D01*
X29105000Y-63544261D01*
X29162068Y-63831159D01*
X29274010Y-64101412D01*
X29436525Y-64344633D01*
X29643368Y-64551476D01*
X29817760Y-64668001D01*
X29643368Y-64784526D01*
X29436525Y-64991369D01*
X29274010Y-65234590D01*
X29162068Y-65504843D01*
X29105000Y-65791741D01*
X29105000Y-66084261D01*
X29162068Y-66371159D01*
X29274010Y-66641412D01*
X29436525Y-66884633D01*
X29643368Y-67091476D01*
X29817760Y-67208001D01*
X29643368Y-67324526D01*
X29436525Y-67531369D01*
X29274010Y-67774590D01*
X29162068Y-68044843D01*
X29105000Y-68331741D01*
X29105000Y-68624261D01*
X29162068Y-68911159D01*
X29274010Y-69181412D01*
X29436525Y-69424633D01*
X29643368Y-69631476D01*
X29817760Y-69748001D01*
X29643368Y-69864526D01*
X29436525Y-70071369D01*
X29274010Y-70314590D01*
X29162068Y-70584843D01*
X29105000Y-70871741D01*
X29105000Y-71164261D01*
X29162068Y-71451159D01*
X29274010Y-71721412D01*
X29436525Y-71964633D01*
X29568380Y-72096488D01*
X29495820Y-72118499D01*
X29385506Y-72177464D01*
X29288815Y-72256816D01*
X29209463Y-72353507D01*
X29150498Y-72463821D01*
X29114188Y-72583519D01*
X29101928Y-72708001D01*
X29105000Y-73272251D01*
X29263750Y-73431001D01*
X30463000Y-73431001D01*
X30463000Y-73411001D01*
X30717000Y-73411001D01*
X30717000Y-73431001D01*
X31916250Y-73431001D01*
X32075000Y-73272251D01*
X32078072Y-72708001D01*
X32065812Y-72583519D01*
X32029502Y-72463821D01*
X31970537Y-72353507D01*
X31891185Y-72256816D01*
X31794494Y-72177464D01*
X31684180Y-72118499D01*
X31611620Y-72096488D01*
X31743475Y-71964633D01*
X31868178Y-71778001D01*
X32957677Y-71778001D01*
X32994999Y-71781677D01*
X33032321Y-71778001D01*
X33032332Y-71778001D01*
X33143985Y-71767004D01*
X33287246Y-71723547D01*
X33419275Y-71652975D01*
X33535000Y-71558002D01*
X33558803Y-71528998D01*
X34604802Y-70483000D01*
X36793473Y-70483000D01*
X36802528Y-70512851D01*
X36884595Y-70666387D01*
X36989265Y-70793928D01*
X36938000Y-70793928D01*
X36813518Y-70806188D01*
X36693820Y-70842498D01*
X36583506Y-70901463D01*
X36486815Y-70980815D01*
X36407463Y-71077506D01*
X36348498Y-71187820D01*
X36312188Y-71307518D01*
X36299928Y-71432000D01*
X36299928Y-72332000D01*
X36312188Y-72456482D01*
X36348498Y-72576180D01*
X36407463Y-72686494D01*
X36486815Y-72783185D01*
X36499905Y-72793928D01*
X35988000Y-72793928D01*
X35863518Y-72806188D01*
X35743820Y-72842498D01*
X35633506Y-72901463D01*
X35536815Y-72980815D01*
X35457463Y-73077506D01*
X35398498Y-73187820D01*
X35362188Y-73307518D01*
X35349928Y-73432000D01*
X35349928Y-74332000D01*
X35362188Y-74456482D01*
X35398498Y-74576180D01*
X35451001Y-74674404D01*
X35451001Y-74713023D01*
X35367613Y-74757595D01*
X35233038Y-74868038D01*
X35122595Y-75002613D01*
X35040528Y-75156149D01*
X34989992Y-75322745D01*
X34988489Y-75338001D01*
X31868178Y-75338001D01*
X31743475Y-75151369D01*
X31611620Y-75019514D01*
X31684180Y-74997503D01*
X31794494Y-74938538D01*
X31891185Y-74859186D01*
X31970537Y-74762495D01*
X32029502Y-74652181D01*
X32065812Y-74532483D01*
X32078072Y-74408001D01*
X32075000Y-73843751D01*
X31916250Y-73685001D01*
X30717000Y-73685001D01*
X30717000Y-73705001D01*
X30463000Y-73705001D01*
X30463000Y-73685001D01*
X29263750Y-73685001D01*
X29105000Y-73843751D01*
X29101928Y-74408001D01*
X29114188Y-74532483D01*
X29150498Y-74652181D01*
X29209463Y-74762495D01*
X29288815Y-74859186D01*
X29385506Y-74938538D01*
X29495820Y-74997503D01*
X29568380Y-75019514D01*
X29436525Y-75151369D01*
X29274010Y-75394590D01*
X29162068Y-75664843D01*
X29105000Y-75951741D01*
X29105000Y-76244261D01*
X29162068Y-76531159D01*
X29274010Y-76801412D01*
X29436525Y-77044633D01*
X29643368Y-77251476D01*
X29817760Y-77368001D01*
X29643368Y-77484526D01*
X29436525Y-77691369D01*
X29274010Y-77934590D01*
X29162068Y-78204843D01*
X29105000Y-78491741D01*
X29105000Y-78784261D01*
X29162068Y-79071159D01*
X29274010Y-79341412D01*
X29436525Y-79584633D01*
X29643368Y-79791476D01*
X29886589Y-79953991D01*
X30156842Y-80065933D01*
X30443740Y-80123001D01*
X30736260Y-80123001D01*
X31023158Y-80065933D01*
X31293411Y-79953991D01*
X31536632Y-79791476D01*
X31743475Y-79584633D01*
X31905990Y-79341412D01*
X32017932Y-79071159D01*
X32075000Y-78784261D01*
X32075000Y-78491741D01*
X32017932Y-78204843D01*
X31905990Y-77934590D01*
X31743475Y-77691369D01*
X31536632Y-77484526D01*
X31362240Y-77368001D01*
X31536632Y-77251476D01*
X31743475Y-77044633D01*
X31868178Y-76858001D01*
X35105819Y-76858001D01*
X35122595Y-76889387D01*
X35233038Y-77023962D01*
X35367613Y-77134405D01*
X35521149Y-77216472D01*
X35687745Y-77267008D01*
X35860999Y-77284072D01*
X35963822Y-77284072D01*
X35786525Y-77461369D01*
X35624010Y-77704590D01*
X35512068Y-77974843D01*
X35455000Y-78261741D01*
X35455000Y-78554261D01*
X35512068Y-78841159D01*
X35624010Y-79111412D01*
X35786525Y-79354633D01*
X35993368Y-79561476D01*
X36236589Y-79723991D01*
X36506842Y-79835933D01*
X36793740Y-79893001D01*
X37086260Y-79893001D01*
X37373158Y-79835933D01*
X37643411Y-79723991D01*
X37886632Y-79561476D01*
X38018487Y-79429621D01*
X38040498Y-79502181D01*
X38099463Y-79612495D01*
X38178815Y-79709186D01*
X38275506Y-79788538D01*
X38385820Y-79847503D01*
X38505518Y-79883813D01*
X38630000Y-79896073D01*
X39194250Y-79893001D01*
X39353000Y-79734251D01*
X39353000Y-78535001D01*
X39333000Y-78535001D01*
X39333000Y-78281001D01*
X39353000Y-78281001D01*
X39353000Y-77081751D01*
X39236854Y-76965605D01*
X39299405Y-76889387D01*
X39366386Y-76764075D01*
X39514744Y-76863205D01*
X39703102Y-76941226D01*
X39740155Y-76948596D01*
X39607000Y-77081751D01*
X39607000Y-78281001D01*
X39627000Y-78281001D01*
X39627000Y-78535001D01*
X39607000Y-78535001D01*
X39607000Y-79734251D01*
X39765750Y-79893001D01*
X40330000Y-79896073D01*
X40454482Y-79883813D01*
X40574180Y-79847503D01*
X40684494Y-79788538D01*
X40781185Y-79709186D01*
X40860537Y-79612495D01*
X40919502Y-79502181D01*
X40941513Y-79429621D01*
X41073368Y-79561476D01*
X41316589Y-79723991D01*
X41586842Y-79835933D01*
X41873740Y-79893001D01*
X42166260Y-79893001D01*
X42453158Y-79835933D01*
X42723411Y-79723991D01*
X42966632Y-79561476D01*
X43173475Y-79354633D01*
X43335990Y-79111412D01*
X43447932Y-78841159D01*
X43505000Y-78554261D01*
X43505000Y-78261741D01*
X43447932Y-77974843D01*
X43335990Y-77704590D01*
X43173475Y-77461369D01*
X42966632Y-77254526D01*
X42723411Y-77092011D01*
X42453158Y-76980069D01*
X42166260Y-76923001D01*
X41873740Y-76923001D01*
X41586842Y-76980069D01*
X41316589Y-77092011D01*
X41073368Y-77254526D01*
X40941513Y-77386381D01*
X40919502Y-77313821D01*
X40860537Y-77203507D01*
X40781185Y-77106816D01*
X40684494Y-77027464D01*
X40574180Y-76968499D01*
X40454482Y-76932189D01*
X40352874Y-76922182D01*
X40495256Y-76863205D01*
X40664774Y-76749937D01*
X40808937Y-76605774D01*
X40922205Y-76436256D01*
X41000226Y-76247898D01*
X41040000Y-76047939D01*
X41040000Y-75844061D01*
X41000226Y-75644102D01*
X40922205Y-75455744D01*
X40808937Y-75286226D01*
X40664774Y-75142063D01*
X40495256Y-75028795D01*
X40306898Y-74950774D01*
X40106939Y-74911000D01*
X39903061Y-74911000D01*
X39703102Y-74950774D01*
X39514744Y-75028795D01*
X39366386Y-75127925D01*
X39299405Y-75002613D01*
X39188962Y-74868038D01*
X39112377Y-74805186D01*
X39139185Y-74783185D01*
X39218537Y-74686494D01*
X39277502Y-74576180D01*
X39313812Y-74456482D01*
X39326072Y-74332000D01*
X39326072Y-73432000D01*
X39313812Y-73307518D01*
X39277502Y-73187820D01*
X39218537Y-73077506D01*
X39139185Y-72980815D01*
X39042494Y-72901463D01*
X38932180Y-72842498D01*
X38812482Y-72806188D01*
X38688000Y-72793928D01*
X38176095Y-72793928D01*
X38189185Y-72783185D01*
X38268537Y-72686494D01*
X38292320Y-72642000D01*
X39967678Y-72642000D01*
X40005000Y-72645676D01*
X40042322Y-72642000D01*
X40042333Y-72642000D01*
X40153986Y-72631003D01*
X40297247Y-72587546D01*
X40429276Y-72516974D01*
X40545001Y-72422001D01*
X40568803Y-72392998D01*
X40679801Y-72282000D01*
X40741939Y-72282000D01*
X40941898Y-72242226D01*
X41023001Y-72208632D01*
X41023001Y-74765667D01*
X41019324Y-74803000D01*
X41023001Y-74840333D01*
X41033998Y-74951986D01*
X41039484Y-74970072D01*
X41077454Y-75095246D01*
X41148026Y-75227276D01*
X41196406Y-75286226D01*
X41243000Y-75343001D01*
X41271998Y-75366799D01*
X43415000Y-77509802D01*
X43415000Y-77571939D01*
X43454774Y-77771898D01*
X43532795Y-77960256D01*
X43646063Y-78129774D01*
X43790226Y-78273937D01*
X43959744Y-78387205D01*
X44148102Y-78465226D01*
X44348061Y-78505000D01*
X44551939Y-78505000D01*
X44751898Y-78465226D01*
X44940256Y-78387205D01*
X45109774Y-78273937D01*
X45253937Y-78129774D01*
X45367205Y-77960256D01*
X45445226Y-77771898D01*
X45485000Y-77571939D01*
X45485000Y-77368061D01*
X45445226Y-77168102D01*
X45367205Y-76979744D01*
X45253937Y-76810226D01*
X45109774Y-76666063D01*
X44940256Y-76552795D01*
X44751898Y-76474774D01*
X44551939Y-76435000D01*
X44489802Y-76435000D01*
X42543000Y-74488199D01*
X42543000Y-71006617D01*
X42570061Y-71012000D01*
X42773939Y-71012000D01*
X42973898Y-70972226D01*
X43162256Y-70894205D01*
X43331774Y-70780937D01*
X43475937Y-70636774D01*
X43589205Y-70467256D01*
X43667226Y-70278898D01*
X43707000Y-70078939D01*
X43707000Y-69875061D01*
X43667226Y-69675102D01*
X43589205Y-69486744D01*
X43475937Y-69317226D01*
X43432000Y-69273289D01*
X43432000Y-65303061D01*
X44812000Y-65303061D01*
X44812000Y-65506939D01*
X44851774Y-65706898D01*
X44929795Y-65895256D01*
X45043063Y-66064774D01*
X45087000Y-66108711D01*
X45087001Y-75115288D01*
X45043063Y-75159226D01*
X44929795Y-75328744D01*
X44851774Y-75517102D01*
X44812000Y-75717061D01*
X44812000Y-75920939D01*
X44851774Y-76120898D01*
X44929795Y-76309256D01*
X45043063Y-76478774D01*
X45187226Y-76622937D01*
X45356744Y-76736205D01*
X45545102Y-76814226D01*
X45745061Y-76854000D01*
X45948939Y-76854000D01*
X46148898Y-76814226D01*
X46337256Y-76736205D01*
X46506774Y-76622937D01*
X46650937Y-76478774D01*
X46764205Y-76309256D01*
X46842226Y-76120898D01*
X46882000Y-75920939D01*
X46882000Y-75717061D01*
X46842226Y-75517102D01*
X46764205Y-75328744D01*
X46650937Y-75159226D01*
X46607000Y-75115289D01*
X46607000Y-74408001D01*
X46881928Y-74408001D01*
X46894188Y-74532483D01*
X46930498Y-74652181D01*
X46989463Y-74762495D01*
X47068815Y-74859186D01*
X47165506Y-74938538D01*
X47275820Y-74997503D01*
X47348380Y-75019514D01*
X47216525Y-75151369D01*
X47054010Y-75394590D01*
X46942068Y-75664843D01*
X46885000Y-75951741D01*
X46885000Y-76244261D01*
X46942068Y-76531159D01*
X47054010Y-76801412D01*
X47216525Y-77044633D01*
X47423368Y-77251476D01*
X47597760Y-77368001D01*
X47423368Y-77484526D01*
X47216525Y-77691369D01*
X47054010Y-77934590D01*
X46942068Y-78204843D01*
X46885000Y-78491741D01*
X46885000Y-78784261D01*
X46942068Y-79071159D01*
X47054010Y-79341412D01*
X47216525Y-79584633D01*
X47423368Y-79791476D01*
X47666589Y-79953991D01*
X47936842Y-80065933D01*
X48223740Y-80123001D01*
X48516260Y-80123001D01*
X48803158Y-80065933D01*
X48984690Y-79990740D01*
X68619000Y-79990740D01*
X68619000Y-80283260D01*
X68676068Y-80570158D01*
X68788010Y-80840411D01*
X68950525Y-81083632D01*
X69157368Y-81290475D01*
X69400589Y-81452990D01*
X69670842Y-81564932D01*
X69957740Y-81622000D01*
X70250260Y-81622000D01*
X70537158Y-81564932D01*
X70807411Y-81452990D01*
X71050632Y-81290475D01*
X71257475Y-81083632D01*
X71374000Y-80909240D01*
X71490525Y-81083632D01*
X71697368Y-81290475D01*
X71940589Y-81452990D01*
X72210842Y-81564932D01*
X72497740Y-81622000D01*
X72790260Y-81622000D01*
X73077158Y-81564932D01*
X73347411Y-81452990D01*
X73590632Y-81290475D01*
X73797475Y-81083632D01*
X73914000Y-80909240D01*
X74030525Y-81083632D01*
X74237368Y-81290475D01*
X74480589Y-81452990D01*
X74750842Y-81564932D01*
X75037740Y-81622000D01*
X75330260Y-81622000D01*
X75617158Y-81564932D01*
X75887411Y-81452990D01*
X76130632Y-81290475D01*
X76262487Y-81158620D01*
X76284498Y-81231180D01*
X76343463Y-81341494D01*
X76422815Y-81438185D01*
X76519506Y-81517537D01*
X76629820Y-81576502D01*
X76749518Y-81612812D01*
X76874000Y-81625072D01*
X77438250Y-81622000D01*
X77597000Y-81463250D01*
X77597000Y-80264000D01*
X77851000Y-80264000D01*
X77851000Y-81463250D01*
X78009750Y-81622000D01*
X78574000Y-81625072D01*
X78698482Y-81612812D01*
X78818180Y-81576502D01*
X78928494Y-81517537D01*
X79025185Y-81438185D01*
X79104537Y-81341494D01*
X79163502Y-81231180D01*
X79199812Y-81111482D01*
X79212072Y-80987000D01*
X79209000Y-80422750D01*
X79050250Y-80264000D01*
X77851000Y-80264000D01*
X77597000Y-80264000D01*
X77577000Y-80264000D01*
X77577000Y-80010000D01*
X77597000Y-80010000D01*
X77597000Y-78810750D01*
X77851000Y-78810750D01*
X77851000Y-80010000D01*
X79050250Y-80010000D01*
X79209000Y-79851250D01*
X79212072Y-79287000D01*
X79199812Y-79162518D01*
X79163502Y-79042820D01*
X79104537Y-78932506D01*
X79025185Y-78835815D01*
X78928494Y-78756463D01*
X78818180Y-78697498D01*
X78698482Y-78661188D01*
X78574000Y-78648928D01*
X78009750Y-78652000D01*
X77851000Y-78810750D01*
X77597000Y-78810750D01*
X77438250Y-78652000D01*
X76874000Y-78648928D01*
X76749518Y-78661188D01*
X76629820Y-78697498D01*
X76519506Y-78756463D01*
X76422815Y-78835815D01*
X76343463Y-78932506D01*
X76284498Y-79042820D01*
X76262487Y-79115380D01*
X76130632Y-78983525D01*
X75944000Y-78858822D01*
X75944000Y-76244865D01*
X96997782Y-76244865D01*
X97028095Y-76370528D01*
X97156304Y-76663205D01*
X97339148Y-76925246D01*
X97569601Y-77146581D01*
X97838806Y-77318704D01*
X98136418Y-77435000D01*
X98451000Y-77491000D01*
X99441000Y-77491000D01*
X99441000Y-75993000D01*
X99695000Y-75993000D01*
X99695000Y-77491000D01*
X100685000Y-77491000D01*
X100999582Y-77435000D01*
X101297194Y-77318704D01*
X101566399Y-77146581D01*
X101796852Y-76925246D01*
X101979696Y-76663205D01*
X102107905Y-76370528D01*
X102138218Y-76244865D01*
X102018740Y-75993000D01*
X99695000Y-75993000D01*
X99441000Y-75993000D01*
X97117260Y-75993000D01*
X96997782Y-76244865D01*
X75944000Y-76244865D01*
X75944000Y-75487135D01*
X96997782Y-75487135D01*
X97117260Y-75739000D01*
X99441000Y-75739000D01*
X99441000Y-74241000D01*
X99695000Y-74241000D01*
X99695000Y-75739000D01*
X102018740Y-75739000D01*
X102138218Y-75487135D01*
X102107905Y-75361472D01*
X101979696Y-75068795D01*
X101796852Y-74806754D01*
X101566399Y-74585419D01*
X101297194Y-74413296D01*
X100999582Y-74297000D01*
X100685000Y-74241000D01*
X99695000Y-74241000D01*
X99441000Y-74241000D01*
X98451000Y-74241000D01*
X98136418Y-74297000D01*
X97838806Y-74413296D01*
X97569601Y-74585419D01*
X97339148Y-74806754D01*
X97156304Y-75068795D01*
X97028095Y-75361472D01*
X96997782Y-75487135D01*
X75944000Y-75487135D01*
X75944000Y-71836000D01*
X79832928Y-71836000D01*
X79845188Y-71960482D01*
X79881498Y-72080180D01*
X79940463Y-72190494D01*
X80019815Y-72287185D01*
X80116506Y-72366537D01*
X80226820Y-72425502D01*
X80346518Y-72461812D01*
X80471000Y-72474072D01*
X81085250Y-72471000D01*
X81244000Y-72312250D01*
X81244000Y-71063000D01*
X81498000Y-71063000D01*
X81498000Y-72312250D01*
X81656750Y-72471000D01*
X82271000Y-72474072D01*
X82395482Y-72461812D01*
X82515180Y-72425502D01*
X82625494Y-72366537D01*
X82722185Y-72287185D01*
X82801537Y-72190494D01*
X82860502Y-72080180D01*
X82896812Y-71960482D01*
X82909072Y-71836000D01*
X82906000Y-71221750D01*
X82747250Y-71063000D01*
X81498000Y-71063000D01*
X81244000Y-71063000D01*
X79994750Y-71063000D01*
X79836000Y-71221750D01*
X79832928Y-71836000D01*
X75944000Y-71836000D01*
X75944000Y-70036000D01*
X79832928Y-70036000D01*
X79836000Y-70650250D01*
X79994750Y-70809000D01*
X81244000Y-70809000D01*
X81244000Y-69559750D01*
X81498000Y-69559750D01*
X81498000Y-70809000D01*
X82747250Y-70809000D01*
X82906000Y-70650250D01*
X82909072Y-70036000D01*
X82896812Y-69911518D01*
X82886038Y-69876000D01*
X96949928Y-69876000D01*
X96949928Y-71856000D01*
X96962188Y-71980482D01*
X96998498Y-72100180D01*
X97057463Y-72210494D01*
X97136815Y-72307185D01*
X97233506Y-72386537D01*
X97343820Y-72445502D01*
X97463518Y-72481812D01*
X97588000Y-72494072D01*
X101548000Y-72494072D01*
X101672482Y-72481812D01*
X101792180Y-72445502D01*
X101902494Y-72386537D01*
X101999185Y-72307185D01*
X102078537Y-72210494D01*
X102137502Y-72100180D01*
X102173812Y-71980482D01*
X102186072Y-71856000D01*
X102186072Y-69876000D01*
X102173812Y-69751518D01*
X102137502Y-69631820D01*
X102078537Y-69521506D01*
X101999185Y-69424815D01*
X101902494Y-69345463D01*
X101792180Y-69286498D01*
X101672482Y-69250188D01*
X101548000Y-69237928D01*
X97588000Y-69237928D01*
X97463518Y-69250188D01*
X97343820Y-69286498D01*
X97233506Y-69345463D01*
X97136815Y-69424815D01*
X97057463Y-69521506D01*
X96998498Y-69631820D01*
X96962188Y-69751518D01*
X96949928Y-69876000D01*
X82886038Y-69876000D01*
X82860502Y-69791820D01*
X82801537Y-69681506D01*
X82722185Y-69584815D01*
X82625494Y-69505463D01*
X82515180Y-69446498D01*
X82395482Y-69410188D01*
X82271000Y-69397928D01*
X81656750Y-69401000D01*
X81498000Y-69559750D01*
X81244000Y-69559750D01*
X81085250Y-69401000D01*
X80471000Y-69397928D01*
X80346518Y-69410188D01*
X80226820Y-69446498D01*
X80116506Y-69505463D01*
X80019815Y-69584815D01*
X79940463Y-69681506D01*
X79881498Y-69791820D01*
X79845188Y-69911518D01*
X79832928Y-70036000D01*
X75944000Y-70036000D01*
X75944000Y-65704816D01*
X79836000Y-65704816D01*
X79836000Y-66007184D01*
X79894989Y-66303743D01*
X80010701Y-66583095D01*
X80178688Y-66834505D01*
X80392495Y-67048312D01*
X80643905Y-67216299D01*
X80923257Y-67332011D01*
X81219816Y-67391000D01*
X81522184Y-67391000D01*
X81818743Y-67332011D01*
X82098095Y-67216299D01*
X82349505Y-67048312D01*
X82563312Y-66834505D01*
X82731299Y-66583095D01*
X82847011Y-66303743D01*
X82906000Y-66007184D01*
X82906000Y-65704816D01*
X82847011Y-65408257D01*
X82731299Y-65128905D01*
X82563312Y-64877495D01*
X82349505Y-64663688D01*
X82098095Y-64495701D01*
X81818743Y-64379989D01*
X81522184Y-64321000D01*
X81219816Y-64321000D01*
X80923257Y-64379989D01*
X80643905Y-64495701D01*
X80392495Y-64663688D01*
X80178688Y-64877495D01*
X80010701Y-65128905D01*
X79894989Y-65408257D01*
X79836000Y-65704816D01*
X75944000Y-65704816D01*
X75944000Y-64426322D01*
X75947676Y-64388999D01*
X75944000Y-64351676D01*
X75944000Y-64351667D01*
X75933003Y-64240014D01*
X75889546Y-64096753D01*
X75818974Y-63964724D01*
X75724001Y-63848999D01*
X75695004Y-63825202D01*
X75414667Y-63544865D01*
X96997782Y-63544865D01*
X97028095Y-63670528D01*
X97156304Y-63963205D01*
X97339148Y-64225246D01*
X97569601Y-64446581D01*
X97838806Y-64618704D01*
X98136418Y-64735000D01*
X98451000Y-64791000D01*
X99441000Y-64791000D01*
X99441000Y-63293000D01*
X99695000Y-63293000D01*
X99695000Y-64791000D01*
X100685000Y-64791000D01*
X100999582Y-64735000D01*
X101297194Y-64618704D01*
X101566399Y-64446581D01*
X101796852Y-64225246D01*
X101979696Y-63963205D01*
X102107905Y-63670528D01*
X102138218Y-63544865D01*
X102018740Y-63293000D01*
X99695000Y-63293000D01*
X99441000Y-63293000D01*
X97117260Y-63293000D01*
X96997782Y-63544865D01*
X75414667Y-63544865D01*
X74822000Y-62952199D01*
X74822000Y-62890061D01*
X74801527Y-62787135D01*
X96997782Y-62787135D01*
X97117260Y-63039000D01*
X99441000Y-63039000D01*
X99441000Y-61541000D01*
X99695000Y-61541000D01*
X99695000Y-63039000D01*
X102018740Y-63039000D01*
X102138218Y-62787135D01*
X102107905Y-62661472D01*
X101979696Y-62368795D01*
X101796852Y-62106754D01*
X101566399Y-61885419D01*
X101297194Y-61713296D01*
X100999582Y-61597000D01*
X100685000Y-61541000D01*
X99695000Y-61541000D01*
X99441000Y-61541000D01*
X98451000Y-61541000D01*
X98136418Y-61597000D01*
X97838806Y-61713296D01*
X97569601Y-61885419D01*
X97339148Y-62106754D01*
X97156304Y-62368795D01*
X97028095Y-62661472D01*
X96997782Y-62787135D01*
X74801527Y-62787135D01*
X74782226Y-62690102D01*
X74704205Y-62501744D01*
X74590937Y-62332226D01*
X74446774Y-62188063D01*
X74277256Y-62074795D01*
X74088898Y-61996774D01*
X73888939Y-61957000D01*
X73685061Y-61957000D01*
X73485102Y-61996774D01*
X73296744Y-62074795D01*
X73127226Y-62188063D01*
X72983063Y-62332226D01*
X72869795Y-62501744D01*
X72791774Y-62690102D01*
X72752000Y-62890061D01*
X72752000Y-63093939D01*
X72791774Y-63293898D01*
X72869795Y-63482256D01*
X72983063Y-63651774D01*
X73127226Y-63795937D01*
X73296744Y-63909205D01*
X73485102Y-63987226D01*
X73685061Y-64027000D01*
X73747199Y-64027000D01*
X74424000Y-64703802D01*
X74424001Y-78858821D01*
X74237368Y-78983525D01*
X74030525Y-79190368D01*
X73914000Y-79364760D01*
X73797475Y-79190368D01*
X73590632Y-78983525D01*
X73347411Y-78821010D01*
X73077158Y-78709068D01*
X72790260Y-78652000D01*
X72497740Y-78652000D01*
X72210842Y-78709068D01*
X71940589Y-78821010D01*
X71697368Y-78983525D01*
X71490525Y-79190368D01*
X71374000Y-79364760D01*
X71257475Y-79190368D01*
X71050632Y-78983525D01*
X70807411Y-78821010D01*
X70537158Y-78709068D01*
X70250260Y-78652000D01*
X69957740Y-78652000D01*
X69670842Y-78709068D01*
X69400589Y-78821010D01*
X69157368Y-78983525D01*
X68950525Y-79190368D01*
X68788010Y-79433589D01*
X68676068Y-79703842D01*
X68619000Y-79990740D01*
X48984690Y-79990740D01*
X49073411Y-79953991D01*
X49316632Y-79791476D01*
X49523475Y-79584633D01*
X49685990Y-79341412D01*
X49797932Y-79071159D01*
X49855000Y-78784261D01*
X49855000Y-78491741D01*
X49797932Y-78204843D01*
X49685990Y-77934590D01*
X49523475Y-77691369D01*
X49316632Y-77484526D01*
X49142240Y-77368001D01*
X49316632Y-77251476D01*
X49523475Y-77044633D01*
X49685990Y-76801412D01*
X49797932Y-76531159D01*
X49855000Y-76244261D01*
X49855000Y-75951741D01*
X49797932Y-75664843D01*
X49685990Y-75394590D01*
X49523475Y-75151369D01*
X49391620Y-75019514D01*
X49464180Y-74997503D01*
X49574494Y-74938538D01*
X49671185Y-74859186D01*
X49750537Y-74762495D01*
X49809502Y-74652181D01*
X49845812Y-74532483D01*
X49858072Y-74408001D01*
X49855000Y-73843751D01*
X49696250Y-73685001D01*
X48497000Y-73685001D01*
X48497000Y-73705001D01*
X48243000Y-73705001D01*
X48243000Y-73685001D01*
X47043750Y-73685001D01*
X46885000Y-73843751D01*
X46881928Y-74408001D01*
X46607000Y-74408001D01*
X46607000Y-66108711D01*
X46650937Y-66064774D01*
X46764205Y-65895256D01*
X46842226Y-65706898D01*
X46882000Y-65506939D01*
X46882000Y-65303061D01*
X46842226Y-65103102D01*
X46764205Y-64914744D01*
X46650937Y-64745226D01*
X46506774Y-64601063D01*
X46337256Y-64487795D01*
X46148898Y-64409774D01*
X45948939Y-64370000D01*
X45745061Y-64370000D01*
X45545102Y-64409774D01*
X45356744Y-64487795D01*
X45187226Y-64601063D01*
X45043063Y-64745226D01*
X44929795Y-64914744D01*
X44851774Y-65103102D01*
X44812000Y-65303061D01*
X43432000Y-65303061D01*
X43432000Y-64656617D01*
X43459061Y-64662000D01*
X43662939Y-64662000D01*
X43862898Y-64622226D01*
X44051256Y-64544205D01*
X44220774Y-64430937D01*
X44364937Y-64286774D01*
X44478205Y-64117256D01*
X44556226Y-63928898D01*
X44596000Y-63728939D01*
X44596000Y-63525061D01*
X44556226Y-63325102D01*
X44523232Y-63245448D01*
X44624898Y-63225226D01*
X44813256Y-63147205D01*
X44982774Y-63033937D01*
X45126937Y-62889774D01*
X45240205Y-62720256D01*
X45318226Y-62531898D01*
X45358000Y-62331939D01*
X45358000Y-62269801D01*
X45850004Y-61777798D01*
X45879001Y-61754001D01*
X45916752Y-61708001D01*
X46881928Y-61708001D01*
X46894188Y-61832483D01*
X46930498Y-61952181D01*
X46989463Y-62062495D01*
X47068815Y-62159186D01*
X47165506Y-62238538D01*
X47275820Y-62297503D01*
X47348380Y-62319514D01*
X47216525Y-62451369D01*
X47054010Y-62694590D01*
X46942068Y-62964843D01*
X46885000Y-63251741D01*
X46885000Y-63544261D01*
X46942068Y-63831159D01*
X47054010Y-64101412D01*
X47216525Y-64344633D01*
X47423368Y-64551476D01*
X47597760Y-64668001D01*
X47423368Y-64784526D01*
X47216525Y-64991369D01*
X47054010Y-65234590D01*
X46942068Y-65504843D01*
X46885000Y-65791741D01*
X46885000Y-66084261D01*
X46942068Y-66371159D01*
X47054010Y-66641412D01*
X47216525Y-66884633D01*
X47423368Y-67091476D01*
X47597760Y-67208001D01*
X47423368Y-67324526D01*
X47216525Y-67531369D01*
X47054010Y-67774590D01*
X46942068Y-68044843D01*
X46885000Y-68331741D01*
X46885000Y-68624261D01*
X46942068Y-68911159D01*
X47054010Y-69181412D01*
X47216525Y-69424633D01*
X47423368Y-69631476D01*
X47597760Y-69748001D01*
X47423368Y-69864526D01*
X47216525Y-70071369D01*
X47054010Y-70314590D01*
X46942068Y-70584843D01*
X46885000Y-70871741D01*
X46885000Y-71164261D01*
X46942068Y-71451159D01*
X47054010Y-71721412D01*
X47216525Y-71964633D01*
X47348380Y-72096488D01*
X47275820Y-72118499D01*
X47165506Y-72177464D01*
X47068815Y-72256816D01*
X46989463Y-72353507D01*
X46930498Y-72463821D01*
X46894188Y-72583519D01*
X46881928Y-72708001D01*
X46885000Y-73272251D01*
X47043750Y-73431001D01*
X48243000Y-73431001D01*
X48243000Y-73411001D01*
X48497000Y-73411001D01*
X48497000Y-73431001D01*
X49696250Y-73431001D01*
X49855000Y-73272251D01*
X49858072Y-72708001D01*
X49845812Y-72583519D01*
X49809502Y-72463821D01*
X49750537Y-72353507D01*
X49671185Y-72256816D01*
X49574494Y-72177464D01*
X49464180Y-72118499D01*
X49391620Y-72096488D01*
X49523475Y-71964633D01*
X49685990Y-71721412D01*
X49797932Y-71451159D01*
X49855000Y-71164261D01*
X49855000Y-70871741D01*
X49797932Y-70584843D01*
X49685990Y-70314590D01*
X49523475Y-70071369D01*
X49316632Y-69864526D01*
X49142240Y-69748001D01*
X49316632Y-69631476D01*
X49523475Y-69424633D01*
X49648178Y-69238001D01*
X59019200Y-69238001D01*
X59544000Y-69762802D01*
X59544000Y-69824939D01*
X59583774Y-70024898D01*
X59661795Y-70213256D01*
X59775063Y-70382774D01*
X59919226Y-70526937D01*
X60088744Y-70640205D01*
X60277102Y-70718226D01*
X60477061Y-70758000D01*
X60680939Y-70758000D01*
X60880898Y-70718226D01*
X61069256Y-70640205D01*
X61238774Y-70526937D01*
X61382937Y-70382774D01*
X61496205Y-70213256D01*
X61574226Y-70024898D01*
X61614000Y-69824939D01*
X61614000Y-69621061D01*
X61574226Y-69421102D01*
X61496205Y-69232744D01*
X61382937Y-69063226D01*
X61238774Y-68919063D01*
X61069256Y-68805795D01*
X60880898Y-68727774D01*
X60680939Y-68688000D01*
X60618802Y-68688000D01*
X59897804Y-67967003D01*
X59874002Y-67938000D01*
X59758277Y-67843027D01*
X59626248Y-67772455D01*
X59482987Y-67728998D01*
X59371334Y-67718001D01*
X59371323Y-67718001D01*
X59334001Y-67714325D01*
X59296679Y-67718001D01*
X49648178Y-67718001D01*
X49523475Y-67531369D01*
X49316632Y-67324526D01*
X49142240Y-67208001D01*
X49316632Y-67091476D01*
X49523475Y-66884633D01*
X49685990Y-66641412D01*
X49797932Y-66371159D01*
X49855000Y-66084261D01*
X49855000Y-65791741D01*
X49797932Y-65504843D01*
X49685990Y-65234590D01*
X49523475Y-64991369D01*
X49316632Y-64784526D01*
X49142240Y-64668001D01*
X49316632Y-64551476D01*
X49523475Y-64344633D01*
X49685990Y-64101412D01*
X49797932Y-63831159D01*
X49855000Y-63544261D01*
X49855000Y-63251741D01*
X49797932Y-62964843D01*
X49685990Y-62694590D01*
X49646883Y-62636061D01*
X62973000Y-62636061D01*
X62973000Y-62839939D01*
X63012774Y-63039898D01*
X63090795Y-63228256D01*
X63204063Y-63397774D01*
X63348226Y-63541937D01*
X63517744Y-63655205D01*
X63706102Y-63733226D01*
X63906061Y-63773000D01*
X64109939Y-63773000D01*
X64309898Y-63733226D01*
X64498256Y-63655205D01*
X64667774Y-63541937D01*
X64811937Y-63397774D01*
X64925205Y-63228256D01*
X65003226Y-63039898D01*
X65043000Y-62839939D01*
X65043000Y-62777801D01*
X69091008Y-58729795D01*
X69120001Y-58706001D01*
X69143795Y-58677008D01*
X69143799Y-58677004D01*
X69214973Y-58590277D01*
X69214974Y-58590276D01*
X69285546Y-58458247D01*
X69329003Y-58314986D01*
X69340000Y-58203333D01*
X69340000Y-58203324D01*
X69343676Y-58166001D01*
X69340000Y-58128678D01*
X69340000Y-57176000D01*
X96949928Y-57176000D01*
X96949928Y-59156000D01*
X96962188Y-59280482D01*
X96998498Y-59400180D01*
X97057463Y-59510494D01*
X97136815Y-59607185D01*
X97233506Y-59686537D01*
X97343820Y-59745502D01*
X97463518Y-59781812D01*
X97588000Y-59794072D01*
X101548000Y-59794072D01*
X101672482Y-59781812D01*
X101792180Y-59745502D01*
X101902494Y-59686537D01*
X101999185Y-59607185D01*
X102078537Y-59510494D01*
X102137502Y-59400180D01*
X102173812Y-59280482D01*
X102186072Y-59156000D01*
X102186072Y-57176000D01*
X102173812Y-57051518D01*
X102137502Y-56931820D01*
X102078537Y-56821506D01*
X101999185Y-56724815D01*
X101902494Y-56645463D01*
X101792180Y-56586498D01*
X101672482Y-56550188D01*
X101548000Y-56537928D01*
X97588000Y-56537928D01*
X97463518Y-56550188D01*
X97343820Y-56586498D01*
X97233506Y-56645463D01*
X97136815Y-56724815D01*
X97057463Y-56821506D01*
X96998498Y-56931820D01*
X96962188Y-57051518D01*
X96949928Y-57176000D01*
X69340000Y-57176000D01*
X69340000Y-54297711D01*
X69383937Y-54253774D01*
X69497205Y-54084256D01*
X69575226Y-53895898D01*
X69615000Y-53695939D01*
X69615000Y-53492061D01*
X69575226Y-53292102D01*
X69497205Y-53103744D01*
X69431104Y-53004816D01*
X79836000Y-53004816D01*
X79836000Y-53307184D01*
X79894989Y-53603743D01*
X80010701Y-53883095D01*
X80178688Y-54134505D01*
X80392495Y-54348312D01*
X80643905Y-54516299D01*
X80923257Y-54632011D01*
X81219816Y-54691000D01*
X81522184Y-54691000D01*
X81818743Y-54632011D01*
X82098095Y-54516299D01*
X82349505Y-54348312D01*
X82563312Y-54134505D01*
X82731299Y-53883095D01*
X82847011Y-53603743D01*
X82906000Y-53307184D01*
X82906000Y-53004816D01*
X82847011Y-52708257D01*
X82731299Y-52428905D01*
X82563312Y-52177495D01*
X82349505Y-51963688D01*
X82098095Y-51795701D01*
X81818743Y-51679989D01*
X81522184Y-51621000D01*
X81219816Y-51621000D01*
X80923257Y-51679989D01*
X80643905Y-51795701D01*
X80392495Y-51963688D01*
X80178688Y-52177495D01*
X80010701Y-52428905D01*
X79894989Y-52708257D01*
X79836000Y-53004816D01*
X69431104Y-53004816D01*
X69383937Y-52934226D01*
X69239774Y-52790063D01*
X69070256Y-52676795D01*
X68881898Y-52598774D01*
X68681939Y-52559000D01*
X68478061Y-52559000D01*
X68278102Y-52598774D01*
X68089744Y-52676795D01*
X67920226Y-52790063D01*
X67776063Y-52934226D01*
X67662795Y-53103744D01*
X67584774Y-53292102D01*
X67545000Y-53492061D01*
X67545000Y-53695939D01*
X67584774Y-53895898D01*
X67662795Y-54084256D01*
X67776063Y-54253774D01*
X67820000Y-54297711D01*
X67820001Y-57851196D01*
X63968199Y-61703000D01*
X63906061Y-61703000D01*
X63706102Y-61742774D01*
X63517744Y-61820795D01*
X63348226Y-61934063D01*
X63204063Y-62078226D01*
X63090795Y-62247744D01*
X63012774Y-62436102D01*
X62973000Y-62636061D01*
X49646883Y-62636061D01*
X49523475Y-62451369D01*
X49391620Y-62319514D01*
X49464180Y-62297503D01*
X49574494Y-62238538D01*
X49671185Y-62159186D01*
X49750537Y-62062495D01*
X49809502Y-61952181D01*
X49845812Y-61832483D01*
X49858072Y-61708001D01*
X49855000Y-61143751D01*
X49696250Y-60985001D01*
X48497000Y-60985001D01*
X48497000Y-61005001D01*
X48243000Y-61005001D01*
X48243000Y-60985001D01*
X47043750Y-60985001D01*
X46885000Y-61143751D01*
X46881928Y-61708001D01*
X45916752Y-61708001D01*
X45973974Y-61638277D01*
X46044546Y-61506247D01*
X46061530Y-61450256D01*
X46088003Y-61362986D01*
X46099000Y-61251333D01*
X46099000Y-61251323D01*
X46102676Y-61214000D01*
X46099000Y-61176678D01*
X46099000Y-60647711D01*
X46142937Y-60603774D01*
X46256205Y-60434256D01*
X46334226Y-60245898D01*
X46374000Y-60045939D01*
X46374000Y-59842061D01*
X46334226Y-59642102D01*
X46256205Y-59453744D01*
X46142937Y-59284226D01*
X45998774Y-59140063D01*
X45829256Y-59026795D01*
X45640898Y-58948774D01*
X45440939Y-58909000D01*
X45237061Y-58909000D01*
X45083000Y-58939644D01*
X45083000Y-57773356D01*
X45237061Y-57804000D01*
X45440939Y-57804000D01*
X45640898Y-57764226D01*
X45829256Y-57686205D01*
X45998774Y-57572937D01*
X46142937Y-57428774D01*
X46256205Y-57259256D01*
X46334226Y-57070898D01*
X46374000Y-56870939D01*
X46374000Y-56667061D01*
X46334226Y-56467102D01*
X46256205Y-56278744D01*
X46142937Y-56109226D01*
X46099000Y-56065289D01*
X46099000Y-51749801D01*
X46866003Y-50982799D01*
X46895001Y-50959001D01*
X46905322Y-50946425D01*
X46942068Y-51131159D01*
X47054010Y-51401412D01*
X47216525Y-51644633D01*
X47423368Y-51851476D01*
X47597760Y-51968001D01*
X47423368Y-52084526D01*
X47216525Y-52291369D01*
X47054010Y-52534590D01*
X46942068Y-52804843D01*
X46885000Y-53091741D01*
X46885000Y-53384261D01*
X46942068Y-53671159D01*
X47054010Y-53941412D01*
X47216525Y-54184633D01*
X47423368Y-54391476D01*
X47597760Y-54508001D01*
X47423368Y-54624526D01*
X47216525Y-54831369D01*
X47054010Y-55074590D01*
X46942068Y-55344843D01*
X46885000Y-55631741D01*
X46885000Y-55924261D01*
X46942068Y-56211159D01*
X47054010Y-56481412D01*
X47216525Y-56724633D01*
X47423368Y-56931476D01*
X47597760Y-57048001D01*
X47423368Y-57164526D01*
X47216525Y-57371369D01*
X47054010Y-57614590D01*
X46942068Y-57884843D01*
X46885000Y-58171741D01*
X46885000Y-58464261D01*
X46942068Y-58751159D01*
X47054010Y-59021412D01*
X47216525Y-59264633D01*
X47348380Y-59396488D01*
X47275820Y-59418499D01*
X47165506Y-59477464D01*
X47068815Y-59556816D01*
X46989463Y-59653507D01*
X46930498Y-59763821D01*
X46894188Y-59883519D01*
X46881928Y-60008001D01*
X46885000Y-60572251D01*
X47043750Y-60731001D01*
X48243000Y-60731001D01*
X48243000Y-60711001D01*
X48497000Y-60711001D01*
X48497000Y-60731001D01*
X49696250Y-60731001D01*
X49855000Y-60572251D01*
X49858072Y-60008001D01*
X49845812Y-59883519D01*
X49809502Y-59763821D01*
X49750537Y-59653507D01*
X49671185Y-59556816D01*
X49574494Y-59477464D01*
X49464180Y-59418499D01*
X49391620Y-59396488D01*
X49523475Y-59264633D01*
X49685990Y-59021412D01*
X49797932Y-58751159D01*
X49855000Y-58464261D01*
X49855000Y-58171741D01*
X49797932Y-57884843D01*
X49685990Y-57614590D01*
X49523475Y-57371369D01*
X49316632Y-57164526D01*
X49142240Y-57048001D01*
X49316632Y-56931476D01*
X49523475Y-56724633D01*
X49685990Y-56481412D01*
X49797932Y-56211159D01*
X49855000Y-55924261D01*
X49855000Y-55631741D01*
X49797932Y-55344843D01*
X49685990Y-55074590D01*
X49523475Y-54831369D01*
X49316632Y-54624526D01*
X49142240Y-54508001D01*
X49316632Y-54391476D01*
X49523475Y-54184633D01*
X49685990Y-53941412D01*
X49797932Y-53671159D01*
X49855000Y-53384261D01*
X49855000Y-53091741D01*
X49797932Y-52804843D01*
X49685990Y-52534590D01*
X49523475Y-52291369D01*
X49316632Y-52084526D01*
X49142240Y-51968001D01*
X49316632Y-51851476D01*
X49523475Y-51644633D01*
X49685990Y-51401412D01*
X49797932Y-51131159D01*
X49855000Y-50844261D01*
X49855000Y-50551741D01*
X49797932Y-50264843D01*
X49685990Y-49994590D01*
X49523475Y-49751369D01*
X49391620Y-49619514D01*
X49464180Y-49597503D01*
X49574494Y-49538538D01*
X49671185Y-49459186D01*
X49750537Y-49362495D01*
X49809502Y-49252181D01*
X49845812Y-49132483D01*
X49858072Y-49008001D01*
X49855000Y-48443751D01*
X49696250Y-48285001D01*
X48497000Y-48285001D01*
X48497000Y-48305001D01*
X48243000Y-48305001D01*
X48243000Y-48285001D01*
X48223000Y-48285001D01*
X48223000Y-48031001D01*
X48243000Y-48031001D01*
X48243000Y-48011001D01*
X48497000Y-48011001D01*
X48497000Y-48031001D01*
X49696250Y-48031001D01*
X49855000Y-47872251D01*
X49858072Y-47308001D01*
X49845812Y-47183519D01*
X49809502Y-47063821D01*
X49750537Y-46953507D01*
X49671185Y-46856816D01*
X49574494Y-46777464D01*
X49464180Y-46718499D01*
X49391620Y-46696488D01*
X49523475Y-46564633D01*
X49685990Y-46321412D01*
X49797932Y-46051159D01*
X49855000Y-45764261D01*
X49855000Y-45471741D01*
X49797932Y-45184843D01*
X49685990Y-44914590D01*
X49523475Y-44671369D01*
X49316632Y-44464526D01*
X49142240Y-44348001D01*
X49316632Y-44231476D01*
X49523475Y-44024633D01*
X49685990Y-43781412D01*
X49797932Y-43511159D01*
X49855000Y-43224261D01*
X49855000Y-42931741D01*
X49797932Y-42644843D01*
X49685990Y-42374590D01*
X49523475Y-42131369D01*
X49316632Y-41924526D01*
X49142240Y-41808001D01*
X49316632Y-41691476D01*
X49523475Y-41484633D01*
X49685990Y-41241412D01*
X49797932Y-40971159D01*
X49855000Y-40684261D01*
X49855000Y-40391741D01*
X49797932Y-40104843D01*
X49685990Y-39834590D01*
X49523475Y-39591369D01*
X49316632Y-39384526D01*
X49142240Y-39268001D01*
X49316632Y-39151476D01*
X49523475Y-38944633D01*
X49685990Y-38701412D01*
X49797932Y-38431159D01*
X49855000Y-38144261D01*
X49855000Y-37851741D01*
X49797932Y-37564843D01*
X49685990Y-37294590D01*
X49523475Y-37051369D01*
X49391620Y-36919514D01*
X49464180Y-36897503D01*
X49574494Y-36838538D01*
X49671185Y-36759186D01*
X49750537Y-36662495D01*
X49809502Y-36552181D01*
X49845812Y-36432483D01*
X49858072Y-36308001D01*
X49855000Y-35743751D01*
X49696250Y-35585001D01*
X48497000Y-35585001D01*
X48497000Y-35605001D01*
X48243000Y-35605001D01*
X48243000Y-35585001D01*
X47043750Y-35585001D01*
X46885000Y-35743751D01*
X46881928Y-36308001D01*
X46894188Y-36432483D01*
X46930498Y-36552181D01*
X46989463Y-36662495D01*
X47068815Y-36759186D01*
X47165506Y-36838538D01*
X47275820Y-36897503D01*
X47348380Y-36919514D01*
X47216525Y-37051369D01*
X47054010Y-37294590D01*
X46942068Y-37564843D01*
X46885000Y-37851741D01*
X46885000Y-38144261D01*
X46942068Y-38431159D01*
X47054010Y-38701412D01*
X47216525Y-38944633D01*
X47423368Y-39151476D01*
X47597760Y-39268001D01*
X47423368Y-39384526D01*
X47216525Y-39591369D01*
X47054010Y-39834590D01*
X46942068Y-40104843D01*
X46885000Y-40391741D01*
X46885000Y-40684261D01*
X46942068Y-40971159D01*
X47054010Y-41241412D01*
X47216525Y-41484633D01*
X47423368Y-41691476D01*
X47597760Y-41808001D01*
X47423368Y-41924526D01*
X47216525Y-42131369D01*
X47054010Y-42374590D01*
X46942068Y-42644843D01*
X46885000Y-42931741D01*
X46885000Y-43224261D01*
X46942068Y-43511159D01*
X47054010Y-43781412D01*
X47216525Y-44024633D01*
X47423368Y-44231476D01*
X47597760Y-44348001D01*
X47423368Y-44464526D01*
X47216525Y-44671369D01*
X47054010Y-44914590D01*
X46942068Y-45184843D01*
X46921219Y-45289655D01*
X46783898Y-45232774D01*
X46583939Y-45193000D01*
X46380061Y-45193000D01*
X46180102Y-45232774D01*
X45991744Y-45310795D01*
X45822226Y-45424063D01*
X45678063Y-45568226D01*
X45564795Y-45737744D01*
X45486774Y-45926102D01*
X45447000Y-46126061D01*
X45447000Y-46188198D01*
X44447002Y-47188197D01*
X44417999Y-47211999D01*
X44377175Y-47261744D01*
X44323026Y-47327724D01*
X44320524Y-47332405D01*
X44252454Y-47459754D01*
X44208997Y-47603015D01*
X44198000Y-47714668D01*
X44198000Y-47714678D01*
X44194324Y-47752000D01*
X44198000Y-47789323D01*
X44198001Y-49345846D01*
X44051256Y-49247795D01*
X43862898Y-49169774D01*
X43662939Y-49130000D01*
X43459061Y-49130000D01*
X43259102Y-49169774D01*
X43070744Y-49247795D01*
X42978360Y-49309524D01*
X42994072Y-49150001D01*
X42994072Y-48449999D01*
X42977008Y-48276745D01*
X42926472Y-48110149D01*
X42844405Y-47956613D01*
X42733962Y-47822038D01*
X42599387Y-47711595D01*
X42445851Y-47629528D01*
X42416000Y-47620473D01*
X42416000Y-46931711D01*
X42459937Y-46887774D01*
X42573205Y-46718256D01*
X42651226Y-46529898D01*
X42691000Y-46329939D01*
X42691000Y-46126061D01*
X42651226Y-45926102D01*
X42573205Y-45737744D01*
X42459937Y-45568226D01*
X42315774Y-45424063D01*
X42146256Y-45310795D01*
X41957898Y-45232774D01*
X41757939Y-45193000D01*
X41554061Y-45193000D01*
X41354102Y-45232774D01*
X41165744Y-45310795D01*
X40996226Y-45424063D01*
X40936289Y-45484000D01*
X38824976Y-45484000D01*
X38780405Y-45400613D01*
X38669962Y-45266038D01*
X38535387Y-45155595D01*
X38381851Y-45073528D01*
X38215255Y-45022992D01*
X38042001Y-45005928D01*
X37141999Y-45005928D01*
X36968745Y-45022992D01*
X36802149Y-45073528D01*
X36648613Y-45155595D01*
X36514038Y-45266038D01*
X36403595Y-45400613D01*
X36321528Y-45554149D01*
X36270992Y-45720745D01*
X36253928Y-45893999D01*
X36253928Y-46594001D01*
X36270992Y-46767255D01*
X36321528Y-46933851D01*
X36403595Y-47087387D01*
X36514038Y-47221962D01*
X36540891Y-47244000D01*
X36514038Y-47266038D01*
X36403595Y-47400613D01*
X36321528Y-47554149D01*
X36270992Y-47720745D01*
X36266141Y-47770000D01*
X35752320Y-47770000D01*
X35728537Y-47725506D01*
X35649185Y-47628815D01*
X35552494Y-47549463D01*
X35442180Y-47490498D01*
X35322482Y-47454188D01*
X35198000Y-47441928D01*
X34398000Y-47441928D01*
X34273518Y-47454188D01*
X34153820Y-47490498D01*
X34043506Y-47549463D01*
X33946815Y-47628815D01*
X33867463Y-47725506D01*
X33808498Y-47835820D01*
X33772188Y-47955518D01*
X33759928Y-48080000D01*
X33759928Y-48980000D01*
X33772188Y-49104482D01*
X33808498Y-49224180D01*
X33867463Y-49334494D01*
X33946815Y-49431185D01*
X33959905Y-49441928D01*
X33448000Y-49441928D01*
X33323518Y-49454188D01*
X33203820Y-49490498D01*
X33093506Y-49549463D01*
X32996815Y-49628815D01*
X32917463Y-49725506D01*
X32858498Y-49835820D01*
X32827502Y-49938001D01*
X31868178Y-49938001D01*
X31743475Y-49751369D01*
X31611620Y-49619514D01*
X31684180Y-49597503D01*
X31794494Y-49538538D01*
X31891185Y-49459186D01*
X31970537Y-49362495D01*
X32029502Y-49252181D01*
X32065812Y-49132483D01*
X32078072Y-49008001D01*
X32075000Y-48443751D01*
X31916250Y-48285001D01*
X30717000Y-48285001D01*
X30717000Y-48305001D01*
X30463000Y-48305001D01*
X30463000Y-48285001D01*
X29263750Y-48285001D01*
X29105000Y-48443751D01*
X29101928Y-49008001D01*
X24003000Y-49008001D01*
X24003000Y-36308001D01*
X29101928Y-36308001D01*
X29114188Y-36432483D01*
X29150498Y-36552181D01*
X29209463Y-36662495D01*
X29288815Y-36759186D01*
X29385506Y-36838538D01*
X29495820Y-36897503D01*
X29568380Y-36919514D01*
X29436525Y-37051369D01*
X29274010Y-37294590D01*
X29162068Y-37564843D01*
X29105000Y-37851741D01*
X29105000Y-38144261D01*
X29162068Y-38431159D01*
X29274010Y-38701412D01*
X29436525Y-38944633D01*
X29643368Y-39151476D01*
X29817760Y-39268001D01*
X29643368Y-39384526D01*
X29436525Y-39591369D01*
X29274010Y-39834590D01*
X29162068Y-40104843D01*
X29105000Y-40391741D01*
X29105000Y-40684261D01*
X29162068Y-40971159D01*
X29274010Y-41241412D01*
X29436525Y-41484633D01*
X29643368Y-41691476D01*
X29817760Y-41808001D01*
X29643368Y-41924526D01*
X29436525Y-42131369D01*
X29274010Y-42374590D01*
X29162068Y-42644843D01*
X29105000Y-42931741D01*
X29105000Y-43224261D01*
X29162068Y-43511159D01*
X29274010Y-43781412D01*
X29436525Y-44024633D01*
X29643368Y-44231476D01*
X29817760Y-44348001D01*
X29643368Y-44464526D01*
X29436525Y-44671369D01*
X29274010Y-44914590D01*
X29162068Y-45184843D01*
X29105000Y-45471741D01*
X29105000Y-45764261D01*
X29162068Y-46051159D01*
X29274010Y-46321412D01*
X29436525Y-46564633D01*
X29568380Y-46696488D01*
X29495820Y-46718499D01*
X29385506Y-46777464D01*
X29288815Y-46856816D01*
X29209463Y-46953507D01*
X29150498Y-47063821D01*
X29114188Y-47183519D01*
X29101928Y-47308001D01*
X29105000Y-47872251D01*
X29263750Y-48031001D01*
X30463000Y-48031001D01*
X30463000Y-48011001D01*
X30717000Y-48011001D01*
X30717000Y-48031001D01*
X31916250Y-48031001D01*
X32075000Y-47872251D01*
X32078072Y-47308001D01*
X32065812Y-47183519D01*
X32029502Y-47063821D01*
X31970537Y-46953507D01*
X31891185Y-46856816D01*
X31794494Y-46777464D01*
X31684180Y-46718499D01*
X31611620Y-46696488D01*
X31743475Y-46564633D01*
X31905990Y-46321412D01*
X32017932Y-46051159D01*
X32075000Y-45764261D01*
X32075000Y-45471741D01*
X32017932Y-45184843D01*
X31905990Y-44914590D01*
X31743475Y-44671369D01*
X31536632Y-44464526D01*
X31362240Y-44348001D01*
X31536632Y-44231476D01*
X31743475Y-44024633D01*
X31905990Y-43781412D01*
X32017932Y-43511159D01*
X32075000Y-43224261D01*
X32075000Y-42931741D01*
X32017932Y-42644843D01*
X31905990Y-42374590D01*
X31743475Y-42131369D01*
X31536632Y-41924526D01*
X31362240Y-41808001D01*
X31536632Y-41691476D01*
X31743475Y-41484633D01*
X31905990Y-41241412D01*
X32017932Y-40971159D01*
X32075000Y-40684261D01*
X32075000Y-40391741D01*
X32017932Y-40104843D01*
X31905990Y-39834590D01*
X31743475Y-39591369D01*
X31536632Y-39384526D01*
X31362240Y-39268001D01*
X31536632Y-39151476D01*
X31743475Y-38944633D01*
X31905990Y-38701412D01*
X32017932Y-38431159D01*
X32075000Y-38144261D01*
X32075000Y-37851741D01*
X32017932Y-37564843D01*
X31905990Y-37294590D01*
X31743475Y-37051369D01*
X31611620Y-36919514D01*
X31684180Y-36897503D01*
X31794494Y-36838538D01*
X31891185Y-36759186D01*
X31970537Y-36662495D01*
X32029502Y-36552181D01*
X32065812Y-36432483D01*
X32078072Y-36308001D01*
X32075000Y-35743751D01*
X31916250Y-35585001D01*
X30717000Y-35585001D01*
X30717000Y-35605001D01*
X30463000Y-35605001D01*
X30463000Y-35585001D01*
X29263750Y-35585001D01*
X29105000Y-35743751D01*
X29101928Y-36308001D01*
X24003000Y-36308001D01*
X24003000Y-34608001D01*
X29101928Y-34608001D01*
X29105000Y-35172251D01*
X29263750Y-35331001D01*
X30463000Y-35331001D01*
X30463000Y-35311001D01*
X30717000Y-35311001D01*
X30717000Y-35331001D01*
X31916250Y-35331001D01*
X32075000Y-35172251D01*
X32078072Y-34608001D01*
X32065812Y-34483519D01*
X32029502Y-34363821D01*
X31970537Y-34253507D01*
X31891185Y-34156816D01*
X31794494Y-34077464D01*
X31684180Y-34018499D01*
X31611620Y-33996488D01*
X31743475Y-33864633D01*
X31905990Y-33621412D01*
X31997042Y-33401590D01*
X35670000Y-33401590D01*
X35670000Y-33674412D01*
X35723225Y-33941990D01*
X35827629Y-34194044D01*
X35979201Y-34420887D01*
X36172114Y-34613800D01*
X36398957Y-34765372D01*
X36651011Y-34869776D01*
X36918589Y-34923001D01*
X37191411Y-34923001D01*
X37458989Y-34869776D01*
X37711043Y-34765372D01*
X37937886Y-34613800D01*
X38130799Y-34420887D01*
X38282371Y-34194044D01*
X38386775Y-33941990D01*
X38440000Y-33674412D01*
X38440000Y-33401590D01*
X40520000Y-33401590D01*
X40520000Y-33674412D01*
X40573225Y-33941990D01*
X40677629Y-34194044D01*
X40829201Y-34420887D01*
X41022114Y-34613800D01*
X41248957Y-34765372D01*
X41501011Y-34869776D01*
X41768589Y-34923001D01*
X42041411Y-34923001D01*
X42308989Y-34869776D01*
X42561043Y-34765372D01*
X42787886Y-34613800D01*
X42980799Y-34420887D01*
X43132371Y-34194044D01*
X43236775Y-33941990D01*
X43290000Y-33674412D01*
X43290000Y-33401590D01*
X43236775Y-33134012D01*
X43132371Y-32881958D01*
X42980799Y-32655115D01*
X42787886Y-32462202D01*
X42561043Y-32310630D01*
X42308989Y-32206226D01*
X42041411Y-32153001D01*
X41768589Y-32153001D01*
X41501011Y-32206226D01*
X41248957Y-32310630D01*
X41022114Y-32462202D01*
X40829201Y-32655115D01*
X40677629Y-32881958D01*
X40573225Y-33134012D01*
X40520000Y-33401590D01*
X38440000Y-33401590D01*
X38386775Y-33134012D01*
X38282371Y-32881958D01*
X38130799Y-32655115D01*
X37937886Y-32462202D01*
X37711043Y-32310630D01*
X37458989Y-32206226D01*
X37191411Y-32153001D01*
X36918589Y-32153001D01*
X36651011Y-32206226D01*
X36398957Y-32310630D01*
X36172114Y-32462202D01*
X35979201Y-32655115D01*
X35827629Y-32881958D01*
X35723225Y-33134012D01*
X35670000Y-33401590D01*
X31997042Y-33401590D01*
X32017932Y-33351159D01*
X32075000Y-33064261D01*
X32075000Y-32771741D01*
X32017932Y-32484843D01*
X31905990Y-32214590D01*
X31743475Y-31971369D01*
X31536632Y-31764526D01*
X31362240Y-31648001D01*
X31536632Y-31531476D01*
X31743475Y-31324633D01*
X31905990Y-31081412D01*
X32017932Y-30811159D01*
X32075000Y-30524261D01*
X32075000Y-30356817D01*
X35220000Y-30356817D01*
X35220000Y-30659185D01*
X35278989Y-30955744D01*
X35394701Y-31235096D01*
X35562688Y-31486506D01*
X35776495Y-31700313D01*
X36027905Y-31868300D01*
X36307257Y-31984012D01*
X36603816Y-32043001D01*
X36906184Y-32043001D01*
X37202743Y-31984012D01*
X37482095Y-31868300D01*
X37733505Y-31700313D01*
X37947312Y-31486506D01*
X38115299Y-31235096D01*
X38231011Y-30955744D01*
X38290000Y-30659185D01*
X38290000Y-30356817D01*
X38231011Y-30060258D01*
X38115299Y-29780906D01*
X37947312Y-29529496D01*
X37733505Y-29315689D01*
X37482095Y-29147702D01*
X37202743Y-29031990D01*
X36906184Y-28973001D01*
X36603816Y-28973001D01*
X36307257Y-29031990D01*
X36027905Y-29147702D01*
X35776495Y-29315689D01*
X35562688Y-29529496D01*
X35394701Y-29780906D01*
X35278989Y-30060258D01*
X35220000Y-30356817D01*
X32075000Y-30356817D01*
X32075000Y-30231741D01*
X32017932Y-29944843D01*
X31905990Y-29674590D01*
X31743475Y-29431369D01*
X31536632Y-29224526D01*
X31293411Y-29062011D01*
X31023158Y-28950069D01*
X30736260Y-28893001D01*
X30443740Y-28893001D01*
X30156842Y-28950069D01*
X29886589Y-29062011D01*
X29643368Y-29224526D01*
X29436525Y-29431369D01*
X29274010Y-29674590D01*
X29162068Y-29944843D01*
X29105000Y-30231741D01*
X29105000Y-30524261D01*
X29162068Y-30811159D01*
X29274010Y-31081412D01*
X29436525Y-31324633D01*
X29643368Y-31531476D01*
X29817760Y-31648001D01*
X29643368Y-31764526D01*
X29436525Y-31971369D01*
X29274010Y-32214590D01*
X29162068Y-32484843D01*
X29105000Y-32771741D01*
X29105000Y-33064261D01*
X29162068Y-33351159D01*
X29274010Y-33621412D01*
X29436525Y-33864633D01*
X29568380Y-33996488D01*
X29495820Y-34018499D01*
X29385506Y-34077464D01*
X29288815Y-34156816D01*
X29209463Y-34253507D01*
X29150498Y-34363821D01*
X29114188Y-34483519D01*
X29101928Y-34608001D01*
X24003000Y-34608001D01*
X24003000Y-23241000D01*
X49005593Y-23241000D01*
X48979498Y-23289820D01*
G37*
%TD.AperFunction*%
%TD*%
M02*
