%TF.GenerationSoftware,KiCad,Pcbnew,(5.1.9)-1*%
%TF.CreationDate,2022-01-22T22:11:56-08:00*%
%TF.ProjectId,keurig-filler,6b657572-6967-42d6-9669-6c6c65722e6b,rev?*%
%TF.SameCoordinates,Original*%
%TF.FileFunction,Legend,Bot*%
%TF.FilePolarity,Positive*%
%FSLAX46Y46*%
G04 Gerber Fmt 4.6, Leading zero omitted, Abs format (unit mm)*
G04 Created by KiCad (PCBNEW (5.1.9)-1) date 2022-01-22 22:11:56*
%MOMM*%
%LPD*%
G01*
G04 APERTURE LIST*
%ADD10C,0.120000*%
%ADD11C,0.150000*%
G04 APERTURE END LIST*
D10*
%TO.C,R13*%
X36983936Y-75211000D02*
X37438064Y-75211000D01*
X36983936Y-76681000D02*
X37438064Y-76681000D01*
%TO.C,R11*%
X38745936Y-68988000D02*
X39200064Y-68988000D01*
X38745936Y-70458000D02*
X39200064Y-70458000D01*
%TO.C,R9*%
X34300936Y-66194000D02*
X34755064Y-66194000D01*
X34300936Y-67664000D02*
X34755064Y-67664000D01*
%TO.C,Q6*%
X35758000Y-72122000D02*
X35758000Y-73582000D01*
X38918000Y-72122000D02*
X38918000Y-74282000D01*
X38918000Y-72122000D02*
X37988000Y-72122000D01*
X35758000Y-72122000D02*
X36688000Y-72122000D01*
%TO.C,Q5*%
X37409000Y-66026000D02*
X37409000Y-67486000D01*
X40569000Y-66026000D02*
X40569000Y-68186000D01*
X40569000Y-66026000D02*
X39639000Y-66026000D01*
X37409000Y-66026000D02*
X38339000Y-66026000D01*
%TO.C,Q4*%
X32964000Y-63232000D02*
X32964000Y-64692000D01*
X36124000Y-63232000D02*
X36124000Y-65392000D01*
X36124000Y-63232000D02*
X35194000Y-63232000D01*
X32964000Y-63232000D02*
X33894000Y-63232000D01*
%TO.C,R4*%
X38110936Y-56107000D02*
X38565064Y-56107000D01*
X38110936Y-54637000D02*
X38565064Y-54637000D01*
%TO.C,R3*%
X38327000Y-47471064D02*
X38327000Y-47016936D01*
X36857000Y-47471064D02*
X36857000Y-47016936D01*
%TO.C,R2*%
X42391000Y-50027064D02*
X42391000Y-49572936D01*
X40921000Y-50027064D02*
X40921000Y-49572936D01*
%TO.C,Q3*%
X33218000Y-48770000D02*
X34148000Y-48770000D01*
X36378000Y-48770000D02*
X35448000Y-48770000D01*
X36378000Y-48770000D02*
X36378000Y-50930000D01*
X33218000Y-48770000D02*
X33218000Y-50230000D01*
%TO.C,Q2*%
X36774000Y-51310000D02*
X37704000Y-51310000D01*
X39934000Y-51310000D02*
X39004000Y-51310000D01*
X39934000Y-51310000D02*
X39934000Y-53470000D01*
X36774000Y-51310000D02*
X36774000Y-52770000D01*
%TO.C,R13*%
D11*
X37853857Y-78048380D02*
X38187190Y-77572190D01*
X38425285Y-78048380D02*
X38425285Y-77048380D01*
X38044333Y-77048380D01*
X37949095Y-77096000D01*
X37901476Y-77143619D01*
X37853857Y-77238857D01*
X37853857Y-77381714D01*
X37901476Y-77476952D01*
X37949095Y-77524571D01*
X38044333Y-77572190D01*
X38425285Y-77572190D01*
X36901476Y-78048380D02*
X37472904Y-78048380D01*
X37187190Y-78048380D02*
X37187190Y-77048380D01*
X37282428Y-77191238D01*
X37377666Y-77286476D01*
X37472904Y-77334095D01*
X36568142Y-77048380D02*
X35949095Y-77048380D01*
X36282428Y-77429333D01*
X36139571Y-77429333D01*
X36044333Y-77476952D01*
X35996714Y-77524571D01*
X35949095Y-77619809D01*
X35949095Y-77857904D01*
X35996714Y-77953142D01*
X36044333Y-78000761D01*
X36139571Y-78048380D01*
X36425285Y-78048380D01*
X36520523Y-78000761D01*
X36568142Y-77953142D01*
%TO.C,R11*%
X39615857Y-71825380D02*
X39949190Y-71349190D01*
X40187285Y-71825380D02*
X40187285Y-70825380D01*
X39806333Y-70825380D01*
X39711095Y-70873000D01*
X39663476Y-70920619D01*
X39615857Y-71015857D01*
X39615857Y-71158714D01*
X39663476Y-71253952D01*
X39711095Y-71301571D01*
X39806333Y-71349190D01*
X40187285Y-71349190D01*
X38663476Y-71825380D02*
X39234904Y-71825380D01*
X38949190Y-71825380D02*
X38949190Y-70825380D01*
X39044428Y-70968238D01*
X39139666Y-71063476D01*
X39234904Y-71111095D01*
X37711095Y-71825380D02*
X38282523Y-71825380D01*
X37996809Y-71825380D02*
X37996809Y-70825380D01*
X38092047Y-70968238D01*
X38187285Y-71063476D01*
X38282523Y-71111095D01*
%TO.C,R9*%
X34329666Y-69159380D02*
X34663000Y-68683190D01*
X34901095Y-69159380D02*
X34901095Y-68159380D01*
X34520142Y-68159380D01*
X34424904Y-68207000D01*
X34377285Y-68254619D01*
X34329666Y-68349857D01*
X34329666Y-68492714D01*
X34377285Y-68587952D01*
X34424904Y-68635571D01*
X34520142Y-68683190D01*
X34901095Y-68683190D01*
X33853476Y-69159380D02*
X33663000Y-69159380D01*
X33567761Y-69111761D01*
X33520142Y-69064142D01*
X33424904Y-68921285D01*
X33377285Y-68730809D01*
X33377285Y-68349857D01*
X33424904Y-68254619D01*
X33472523Y-68207000D01*
X33567761Y-68159380D01*
X33758238Y-68159380D01*
X33853476Y-68207000D01*
X33901095Y-68254619D01*
X33948714Y-68349857D01*
X33948714Y-68587952D01*
X33901095Y-68683190D01*
X33853476Y-68730809D01*
X33758238Y-68778428D01*
X33567761Y-68778428D01*
X33472523Y-68730809D01*
X33424904Y-68683190D01*
X33377285Y-68587952D01*
%TO.C,Q6*%
X40385619Y-72786761D02*
X40338000Y-72691523D01*
X40242761Y-72596285D01*
X40099904Y-72453428D01*
X40052285Y-72358190D01*
X40052285Y-72262952D01*
X40290380Y-72310571D02*
X40242761Y-72215333D01*
X40147523Y-72120095D01*
X39957047Y-72072476D01*
X39623714Y-72072476D01*
X39433238Y-72120095D01*
X39338000Y-72215333D01*
X39290380Y-72310571D01*
X39290380Y-72501047D01*
X39338000Y-72596285D01*
X39433238Y-72691523D01*
X39623714Y-72739142D01*
X39957047Y-72739142D01*
X40147523Y-72691523D01*
X40242761Y-72596285D01*
X40290380Y-72501047D01*
X40290380Y-72310571D01*
X39290380Y-73596285D02*
X39290380Y-73405809D01*
X39338000Y-73310571D01*
X39385619Y-73262952D01*
X39528476Y-73167714D01*
X39718952Y-73120095D01*
X40099904Y-73120095D01*
X40195142Y-73167714D01*
X40242761Y-73215333D01*
X40290380Y-73310571D01*
X40290380Y-73501047D01*
X40242761Y-73596285D01*
X40195142Y-73643904D01*
X40099904Y-73691523D01*
X39861809Y-73691523D01*
X39766571Y-73643904D01*
X39718952Y-73596285D01*
X39671333Y-73501047D01*
X39671333Y-73310571D01*
X39718952Y-73215333D01*
X39766571Y-73167714D01*
X39861809Y-73120095D01*
%TO.C,Q5*%
X42076619Y-66198761D02*
X42029000Y-66103523D01*
X41933761Y-66008285D01*
X41790904Y-65865428D01*
X41743285Y-65770190D01*
X41743285Y-65674952D01*
X41981380Y-65722571D02*
X41933761Y-65627333D01*
X41838523Y-65532095D01*
X41648047Y-65484476D01*
X41314714Y-65484476D01*
X41124238Y-65532095D01*
X41029000Y-65627333D01*
X40981380Y-65722571D01*
X40981380Y-65913047D01*
X41029000Y-66008285D01*
X41124238Y-66103523D01*
X41314714Y-66151142D01*
X41648047Y-66151142D01*
X41838523Y-66103523D01*
X41933761Y-66008285D01*
X41981380Y-65913047D01*
X41981380Y-65722571D01*
X40981380Y-67055904D02*
X40981380Y-66579714D01*
X41457571Y-66532095D01*
X41409952Y-66579714D01*
X41362333Y-66674952D01*
X41362333Y-66913047D01*
X41409952Y-67008285D01*
X41457571Y-67055904D01*
X41552809Y-67103523D01*
X41790904Y-67103523D01*
X41886142Y-67055904D01*
X41933761Y-67008285D01*
X41981380Y-66913047D01*
X41981380Y-66674952D01*
X41933761Y-66579714D01*
X41886142Y-66532095D01*
%TO.C,Q4*%
X37591619Y-63896761D02*
X37544000Y-63801523D01*
X37448761Y-63706285D01*
X37305904Y-63563428D01*
X37258285Y-63468190D01*
X37258285Y-63372952D01*
X37496380Y-63420571D02*
X37448761Y-63325333D01*
X37353523Y-63230095D01*
X37163047Y-63182476D01*
X36829714Y-63182476D01*
X36639238Y-63230095D01*
X36544000Y-63325333D01*
X36496380Y-63420571D01*
X36496380Y-63611047D01*
X36544000Y-63706285D01*
X36639238Y-63801523D01*
X36829714Y-63849142D01*
X37163047Y-63849142D01*
X37353523Y-63801523D01*
X37448761Y-63706285D01*
X37496380Y-63611047D01*
X37496380Y-63420571D01*
X36829714Y-64706285D02*
X37496380Y-64706285D01*
X36448761Y-64468190D02*
X37163047Y-64230095D01*
X37163047Y-64849142D01*
%TO.C,R4*%
X38504666Y-57474380D02*
X38838000Y-56998190D01*
X39076095Y-57474380D02*
X39076095Y-56474380D01*
X38695142Y-56474380D01*
X38599904Y-56522000D01*
X38552285Y-56569619D01*
X38504666Y-56664857D01*
X38504666Y-56807714D01*
X38552285Y-56902952D01*
X38599904Y-56950571D01*
X38695142Y-56998190D01*
X39076095Y-56998190D01*
X37647523Y-56807714D02*
X37647523Y-57474380D01*
X37885619Y-56426761D02*
X38123714Y-57141047D01*
X37504666Y-57141047D01*
%TO.C,R3*%
X39694380Y-47077333D02*
X39218190Y-46744000D01*
X39694380Y-46505904D02*
X38694380Y-46505904D01*
X38694380Y-46886857D01*
X38742000Y-46982095D01*
X38789619Y-47029714D01*
X38884857Y-47077333D01*
X39027714Y-47077333D01*
X39122952Y-47029714D01*
X39170571Y-46982095D01*
X39218190Y-46886857D01*
X39218190Y-46505904D01*
X38694380Y-47410666D02*
X38694380Y-48029714D01*
X39075333Y-47696380D01*
X39075333Y-47839238D01*
X39122952Y-47934476D01*
X39170571Y-47982095D01*
X39265809Y-48029714D01*
X39503904Y-48029714D01*
X39599142Y-47982095D01*
X39646761Y-47934476D01*
X39694380Y-47839238D01*
X39694380Y-47553523D01*
X39646761Y-47458285D01*
X39599142Y-47410666D01*
%TO.C,R2*%
X43758380Y-48728333D02*
X43282190Y-48395000D01*
X43758380Y-48156904D02*
X42758380Y-48156904D01*
X42758380Y-48537857D01*
X42806000Y-48633095D01*
X42853619Y-48680714D01*
X42948857Y-48728333D01*
X43091714Y-48728333D01*
X43186952Y-48680714D01*
X43234571Y-48633095D01*
X43282190Y-48537857D01*
X43282190Y-48156904D01*
X42853619Y-49109285D02*
X42806000Y-49156904D01*
X42758380Y-49252142D01*
X42758380Y-49490238D01*
X42806000Y-49585476D01*
X42853619Y-49633095D01*
X42948857Y-49680714D01*
X43044095Y-49680714D01*
X43186952Y-49633095D01*
X43758380Y-49061666D01*
X43758380Y-49680714D01*
%TO.C,Q3*%
X37845619Y-49434761D02*
X37798000Y-49339523D01*
X37702761Y-49244285D01*
X37559904Y-49101428D01*
X37512285Y-49006190D01*
X37512285Y-48910952D01*
X37750380Y-48958571D02*
X37702761Y-48863333D01*
X37607523Y-48768095D01*
X37417047Y-48720476D01*
X37083714Y-48720476D01*
X36893238Y-48768095D01*
X36798000Y-48863333D01*
X36750380Y-48958571D01*
X36750380Y-49149047D01*
X36798000Y-49244285D01*
X36893238Y-49339523D01*
X37083714Y-49387142D01*
X37417047Y-49387142D01*
X37607523Y-49339523D01*
X37702761Y-49244285D01*
X37750380Y-49149047D01*
X37750380Y-48958571D01*
X36750380Y-49720476D02*
X36750380Y-50339523D01*
X37131333Y-50006190D01*
X37131333Y-50149047D01*
X37178952Y-50244285D01*
X37226571Y-50291904D01*
X37321809Y-50339523D01*
X37559904Y-50339523D01*
X37655142Y-50291904D01*
X37702761Y-50244285D01*
X37750380Y-50149047D01*
X37750380Y-49863333D01*
X37702761Y-49768095D01*
X37655142Y-49720476D01*
%TO.C,Q2*%
X40949238Y-52617619D02*
X41044476Y-52570000D01*
X41139714Y-52474761D01*
X41282571Y-52331904D01*
X41377809Y-52284285D01*
X41473047Y-52284285D01*
X41425428Y-52522380D02*
X41520666Y-52474761D01*
X41615904Y-52379523D01*
X41663523Y-52189047D01*
X41663523Y-51855714D01*
X41615904Y-51665238D01*
X41520666Y-51570000D01*
X41425428Y-51522380D01*
X41234952Y-51522380D01*
X41139714Y-51570000D01*
X41044476Y-51665238D01*
X40996857Y-51855714D01*
X40996857Y-52189047D01*
X41044476Y-52379523D01*
X41139714Y-52474761D01*
X41234952Y-52522380D01*
X41425428Y-52522380D01*
X40615904Y-51617619D02*
X40568285Y-51570000D01*
X40473047Y-51522380D01*
X40234952Y-51522380D01*
X40139714Y-51570000D01*
X40092095Y-51617619D01*
X40044476Y-51712857D01*
X40044476Y-51808095D01*
X40092095Y-51950952D01*
X40663523Y-52522380D01*
X40044476Y-52522380D01*
%TD*%
M02*
