%FSLAX45Y45*%
G04 Gerber Fmt 4.5, Leading zero omitted, Abs format (unit mm)*
G04 Created by KiCad (PCBNEW (5.1.9)-1) date 2022-01-16 00:31:00*
%MOMM*%
%LPD*%
G01*
G04 APERTURE LIST*
%TA.AperFunction,Profile*%
%ADD10C,0.100000*%
%TD*%
%ADD11C,0.200000*%
%ADD12C,0.300000*%
G04 APERTURE END LIST*
D10*
X10820400Y-2184400D02*
X10820400Y-8661400D01*
X2209800Y-2184400D02*
X10820400Y-2184400D01*
X2209800Y-8661400D02*
X2209800Y-2184400D01*
X10820400Y-8661400D02*
X2209800Y-8661400D01*
D11*
X3630500Y-3278800D02*
X3780500Y-3428800D01*
X3780500Y-3278800D02*
X3630500Y-3428800D01*
X4115500Y-3278800D02*
X4265500Y-3428800D01*
X4265500Y-3278800D02*
X4115500Y-3428800D01*
X3765500Y-3050800D02*
G75*
G03*
X3765500Y-3050800I-90000J0D01*
G01*
X4310500Y-3050800D02*
G75*
G03*
X4310500Y-3050800I-90000J0D01*
G01*
X2514600Y-8257000D02*
X2514600Y-8507000D01*
X2389600Y-8382000D02*
X2639600Y-8382000D01*
X2590800Y-2415000D02*
X2590800Y-2665000D01*
X2465800Y-2540000D02*
X2715800Y-2540000D01*
X10515600Y-2389600D02*
X10515600Y-2639600D01*
X10390600Y-2514600D02*
X10640600Y-2514600D01*
X10515600Y-8231600D02*
X10515600Y-8481600D01*
X10390600Y-8356600D02*
X10640600Y-8356600D01*
D12*
X2491228Y-9132114D02*
X2491228Y-8832114D01*
X2562657Y-8832114D01*
X2605514Y-8846400D01*
X2634086Y-8874972D01*
X2648371Y-8903543D01*
X2662657Y-8960686D01*
X2662657Y-9003543D01*
X2648371Y-9060686D01*
X2634086Y-9089257D01*
X2605514Y-9117829D01*
X2562657Y-9132114D01*
X2491228Y-9132114D01*
X2791228Y-9132114D02*
X2791228Y-8932114D01*
X2791228Y-8989257D02*
X2805514Y-8960686D01*
X2819800Y-8946400D01*
X2848371Y-8932114D01*
X2876943Y-8932114D01*
X2976943Y-9132114D02*
X2976943Y-8932114D01*
X2976943Y-8832114D02*
X2962657Y-8846400D01*
X2976943Y-8860686D01*
X2991228Y-8846400D01*
X2976943Y-8832114D01*
X2976943Y-8860686D01*
X3162657Y-9132114D02*
X3134086Y-9117829D01*
X3119800Y-9089257D01*
X3119800Y-8832114D01*
X3319800Y-9132114D02*
X3291228Y-9117829D01*
X3276943Y-9089257D01*
X3276943Y-8832114D01*
X3662657Y-9132114D02*
X3662657Y-8832114D01*
X3762657Y-9046400D01*
X3862657Y-8832114D01*
X3862657Y-9132114D01*
X4134086Y-9132114D02*
X4134086Y-8974972D01*
X4119800Y-8946400D01*
X4091228Y-8932114D01*
X4034086Y-8932114D01*
X4005514Y-8946400D01*
X4134086Y-9117829D02*
X4105514Y-9132114D01*
X4034086Y-9132114D01*
X4005514Y-9117829D01*
X3991228Y-9089257D01*
X3991228Y-9060686D01*
X4005514Y-9032114D01*
X4034086Y-9017829D01*
X4105514Y-9017829D01*
X4134086Y-9003543D01*
X4276943Y-8932114D02*
X4276943Y-9232114D01*
X4276943Y-8946400D02*
X4305514Y-8932114D01*
X4362657Y-8932114D01*
X4391228Y-8946400D01*
X4405514Y-8960686D01*
X4419800Y-8989257D01*
X4419800Y-9074972D01*
X4405514Y-9103543D01*
X4391228Y-9117829D01*
X4362657Y-9132114D01*
X4305514Y-9132114D01*
X4276943Y-9117829D01*
X4548371Y-9103543D02*
X4562657Y-9117829D01*
X4548371Y-9132114D01*
X4534086Y-9117829D01*
X4548371Y-9103543D01*
X4548371Y-9132114D01*
X4548371Y-8946400D02*
X4562657Y-8960686D01*
X4548371Y-8974972D01*
X4534086Y-8960686D01*
X4548371Y-8946400D01*
X4548371Y-8974972D01*
X2054800Y-9551400D02*
X2204800Y-9701400D01*
X2204800Y-9551400D02*
X2054800Y-9701400D01*
X2648371Y-9762114D02*
X2476943Y-9762114D01*
X2562657Y-9762114D02*
X2562657Y-9462114D01*
X2534086Y-9504972D01*
X2505514Y-9533543D01*
X2476943Y-9547829D01*
X2776943Y-9733543D02*
X2791228Y-9747829D01*
X2776943Y-9762114D01*
X2762657Y-9747829D01*
X2776943Y-9733543D01*
X2776943Y-9762114D01*
X3062657Y-9462114D02*
X2919800Y-9462114D01*
X2905514Y-9604972D01*
X2919800Y-9590686D01*
X2948371Y-9576400D01*
X3019800Y-9576400D01*
X3048371Y-9590686D01*
X3062657Y-9604972D01*
X3076943Y-9633543D01*
X3076943Y-9704972D01*
X3062657Y-9733543D01*
X3048371Y-9747829D01*
X3019800Y-9762114D01*
X2948371Y-9762114D01*
X2919800Y-9747829D01*
X2905514Y-9733543D01*
X3262657Y-9462114D02*
X3291228Y-9462114D01*
X3319800Y-9476400D01*
X3334086Y-9490686D01*
X3348371Y-9519257D01*
X3362657Y-9576400D01*
X3362657Y-9647829D01*
X3348371Y-9704972D01*
X3334086Y-9733543D01*
X3319800Y-9747829D01*
X3291228Y-9762114D01*
X3262657Y-9762114D01*
X3234086Y-9747829D01*
X3219800Y-9733543D01*
X3205514Y-9704972D01*
X3191228Y-9647829D01*
X3191228Y-9576400D01*
X3205514Y-9519257D01*
X3219800Y-9490686D01*
X3234086Y-9476400D01*
X3262657Y-9462114D01*
X3491228Y-9762114D02*
X3491228Y-9562114D01*
X3491228Y-9590686D02*
X3505514Y-9576400D01*
X3534086Y-9562114D01*
X3576943Y-9562114D01*
X3605514Y-9576400D01*
X3619800Y-9604972D01*
X3619800Y-9762114D01*
X3619800Y-9604972D02*
X3634086Y-9576400D01*
X3662657Y-9562114D01*
X3705514Y-9562114D01*
X3734086Y-9576400D01*
X3748371Y-9604972D01*
X3748371Y-9762114D01*
X3891228Y-9762114D02*
X3891228Y-9562114D01*
X3891228Y-9590686D02*
X3905514Y-9576400D01*
X3934086Y-9562114D01*
X3976943Y-9562114D01*
X4005514Y-9576400D01*
X4019800Y-9604972D01*
X4019800Y-9762114D01*
X4019800Y-9604972D02*
X4034086Y-9576400D01*
X4062657Y-9562114D01*
X4105514Y-9562114D01*
X4134086Y-9576400D01*
X4148371Y-9604972D01*
X4148371Y-9762114D01*
X4734086Y-9447829D02*
X4476943Y-9833543D01*
X5119800Y-9462114D02*
X5148371Y-9462114D01*
X5176943Y-9476400D01*
X5191228Y-9490686D01*
X5205514Y-9519257D01*
X5219800Y-9576400D01*
X5219800Y-9647829D01*
X5205514Y-9704972D01*
X5191228Y-9733543D01*
X5176943Y-9747829D01*
X5148371Y-9762114D01*
X5119800Y-9762114D01*
X5091228Y-9747829D01*
X5076943Y-9733543D01*
X5062657Y-9704972D01*
X5048371Y-9647829D01*
X5048371Y-9576400D01*
X5062657Y-9519257D01*
X5076943Y-9490686D01*
X5091228Y-9476400D01*
X5119800Y-9462114D01*
X5348371Y-9733543D02*
X5362657Y-9747829D01*
X5348371Y-9762114D01*
X5334086Y-9747829D01*
X5348371Y-9733543D01*
X5348371Y-9762114D01*
X5548371Y-9462114D02*
X5576943Y-9462114D01*
X5605514Y-9476400D01*
X5619800Y-9490686D01*
X5634086Y-9519257D01*
X5648371Y-9576400D01*
X5648371Y-9647829D01*
X5634086Y-9704972D01*
X5619800Y-9733543D01*
X5605514Y-9747829D01*
X5576943Y-9762114D01*
X5548371Y-9762114D01*
X5519800Y-9747829D01*
X5505514Y-9733543D01*
X5491228Y-9704972D01*
X5476943Y-9647829D01*
X5476943Y-9576400D01*
X5491228Y-9519257D01*
X5505514Y-9490686D01*
X5519800Y-9476400D01*
X5548371Y-9462114D01*
X5919800Y-9462114D02*
X5776943Y-9462114D01*
X5762657Y-9604972D01*
X5776943Y-9590686D01*
X5805514Y-9576400D01*
X5876943Y-9576400D01*
X5905514Y-9590686D01*
X5919800Y-9604972D01*
X5934086Y-9633543D01*
X5934086Y-9704972D01*
X5919800Y-9733543D01*
X5905514Y-9747829D01*
X5876943Y-9762114D01*
X5805514Y-9762114D01*
X5776943Y-9747829D01*
X5762657Y-9733543D01*
X6076943Y-9762114D02*
X6134086Y-9762114D01*
X6162657Y-9747829D01*
X6176943Y-9733543D01*
X6205514Y-9690686D01*
X6219800Y-9633543D01*
X6219800Y-9519257D01*
X6205514Y-9490686D01*
X6191228Y-9476400D01*
X6162657Y-9462114D01*
X6105514Y-9462114D01*
X6076943Y-9476400D01*
X6062657Y-9490686D01*
X6048371Y-9519257D01*
X6048371Y-9590686D01*
X6062657Y-9619257D01*
X6076943Y-9633543D01*
X6105514Y-9647829D01*
X6162657Y-9647829D01*
X6191228Y-9633543D01*
X6205514Y-9619257D01*
X6219800Y-9590686D01*
X6334086Y-9462114D02*
X6334086Y-9519257D01*
X6448371Y-9462114D02*
X6448371Y-9519257D01*
X6891228Y-9876400D02*
X6876943Y-9862114D01*
X6848371Y-9819257D01*
X6834086Y-9790686D01*
X6819800Y-9747829D01*
X6805514Y-9676400D01*
X6805514Y-9619257D01*
X6819800Y-9547829D01*
X6834086Y-9504972D01*
X6848371Y-9476400D01*
X6876943Y-9433543D01*
X6891228Y-9419257D01*
X6991228Y-9490686D02*
X7005514Y-9476400D01*
X7034086Y-9462114D01*
X7105514Y-9462114D01*
X7134086Y-9476400D01*
X7148371Y-9490686D01*
X7162657Y-9519257D01*
X7162657Y-9547829D01*
X7148371Y-9590686D01*
X6976943Y-9762114D01*
X7162657Y-9762114D01*
X7519800Y-9762114D02*
X7519800Y-9462114D01*
X7648371Y-9762114D02*
X7648371Y-9604972D01*
X7634086Y-9576400D01*
X7605514Y-9562114D01*
X7562657Y-9562114D01*
X7534086Y-9576400D01*
X7519800Y-9590686D01*
X7834086Y-9762114D02*
X7805514Y-9747829D01*
X7791228Y-9733543D01*
X7776943Y-9704972D01*
X7776943Y-9619257D01*
X7791228Y-9590686D01*
X7805514Y-9576400D01*
X7834086Y-9562114D01*
X7876943Y-9562114D01*
X7905514Y-9576400D01*
X7919800Y-9590686D01*
X7934086Y-9619257D01*
X7934086Y-9704972D01*
X7919800Y-9733543D01*
X7905514Y-9747829D01*
X7876943Y-9762114D01*
X7834086Y-9762114D01*
X8105514Y-9762114D02*
X8076943Y-9747829D01*
X8062657Y-9719257D01*
X8062657Y-9462114D01*
X8334086Y-9747829D02*
X8305514Y-9762114D01*
X8248371Y-9762114D01*
X8219800Y-9747829D01*
X8205514Y-9719257D01*
X8205514Y-9604972D01*
X8219800Y-9576400D01*
X8248371Y-9562114D01*
X8305514Y-9562114D01*
X8334086Y-9576400D01*
X8348371Y-9604972D01*
X8348371Y-9633543D01*
X8205514Y-9662114D01*
X8462657Y-9747829D02*
X8491228Y-9762114D01*
X8548371Y-9762114D01*
X8576943Y-9747829D01*
X8591228Y-9719257D01*
X8591228Y-9704972D01*
X8576943Y-9676400D01*
X8548371Y-9662114D01*
X8505514Y-9662114D01*
X8476943Y-9647829D01*
X8462657Y-9619257D01*
X8462657Y-9604972D01*
X8476943Y-9576400D01*
X8505514Y-9562114D01*
X8548371Y-9562114D01*
X8576943Y-9576400D01*
X8691228Y-9876400D02*
X8705514Y-9862114D01*
X8734086Y-9819257D01*
X8748371Y-9790686D01*
X8762657Y-9747829D01*
X8776943Y-9676400D01*
X8776943Y-9619257D01*
X8762657Y-9547829D01*
X8748371Y-9504972D01*
X8734086Y-9476400D01*
X8705514Y-9433543D01*
X8691228Y-9419257D01*
X9234086Y-9876400D02*
X9219800Y-9862114D01*
X9191228Y-9819257D01*
X9176943Y-9790686D01*
X9162657Y-9747829D01*
X9148371Y-9676400D01*
X9148371Y-9619257D01*
X9162657Y-9547829D01*
X9176943Y-9504972D01*
X9191228Y-9476400D01*
X9219800Y-9433543D01*
X9234086Y-9419257D01*
X9348371Y-9562114D02*
X9348371Y-9762114D01*
X9348371Y-9590686D02*
X9362657Y-9576400D01*
X9391228Y-9562114D01*
X9434086Y-9562114D01*
X9462657Y-9576400D01*
X9476943Y-9604972D01*
X9476943Y-9762114D01*
X9662657Y-9762114D02*
X9634086Y-9747829D01*
X9619800Y-9733543D01*
X9605514Y-9704972D01*
X9605514Y-9619257D01*
X9619800Y-9590686D01*
X9634086Y-9576400D01*
X9662657Y-9562114D01*
X9705514Y-9562114D01*
X9734086Y-9576400D01*
X9748371Y-9590686D01*
X9762657Y-9619257D01*
X9762657Y-9704972D01*
X9748371Y-9733543D01*
X9734086Y-9747829D01*
X9705514Y-9762114D01*
X9662657Y-9762114D01*
X9848371Y-9562114D02*
X9962657Y-9562114D01*
X9891228Y-9462114D02*
X9891228Y-9719257D01*
X9905514Y-9747829D01*
X9934086Y-9762114D01*
X9962657Y-9762114D01*
X10291228Y-9562114D02*
X10291228Y-9862114D01*
X10291228Y-9576400D02*
X10319800Y-9562114D01*
X10376943Y-9562114D01*
X10405514Y-9576400D01*
X10419800Y-9590686D01*
X10434086Y-9619257D01*
X10434086Y-9704972D01*
X10419800Y-9733543D01*
X10405514Y-9747829D01*
X10376943Y-9762114D01*
X10319800Y-9762114D01*
X10291228Y-9747829D01*
X10605514Y-9762114D02*
X10576943Y-9747829D01*
X10562657Y-9719257D01*
X10562657Y-9462114D01*
X10848371Y-9762114D02*
X10848371Y-9604972D01*
X10834086Y-9576400D01*
X10805514Y-9562114D01*
X10748371Y-9562114D01*
X10719800Y-9576400D01*
X10848371Y-9747829D02*
X10819800Y-9762114D01*
X10748371Y-9762114D01*
X10719800Y-9747829D01*
X10705514Y-9719257D01*
X10705514Y-9690686D01*
X10719800Y-9662114D01*
X10748371Y-9647829D01*
X10819800Y-9647829D01*
X10848371Y-9633543D01*
X10948371Y-9562114D02*
X11062657Y-9562114D01*
X10991228Y-9462114D02*
X10991228Y-9719257D01*
X11005514Y-9747829D01*
X11034086Y-9762114D01*
X11062657Y-9762114D01*
X11276943Y-9747829D02*
X11248371Y-9762114D01*
X11191228Y-9762114D01*
X11162657Y-9747829D01*
X11148371Y-9719257D01*
X11148371Y-9604972D01*
X11162657Y-9576400D01*
X11191228Y-9562114D01*
X11248371Y-9562114D01*
X11276943Y-9576400D01*
X11291228Y-9604972D01*
X11291228Y-9633543D01*
X11148371Y-9662114D01*
X11548371Y-9762114D02*
X11548371Y-9462114D01*
X11548371Y-9747829D02*
X11519800Y-9762114D01*
X11462657Y-9762114D01*
X11434086Y-9747829D01*
X11419800Y-9733543D01*
X11405514Y-9704972D01*
X11405514Y-9619257D01*
X11419800Y-9590686D01*
X11434086Y-9576400D01*
X11462657Y-9562114D01*
X11519800Y-9562114D01*
X11548371Y-9576400D01*
X11662657Y-9876400D02*
X11676943Y-9862114D01*
X11705514Y-9819257D01*
X11719800Y-9790686D01*
X11734086Y-9747829D01*
X11748371Y-9676400D01*
X11748371Y-9619257D01*
X11734086Y-9547829D01*
X11719800Y-9504972D01*
X11705514Y-9476400D01*
X11676943Y-9433543D01*
X11662657Y-9419257D01*
X2204800Y-10022400D02*
G75*
G03*
X2204800Y-10022400I-90000J0D01*
G01*
X2648371Y-10158114D02*
X2476943Y-10158114D01*
X2562657Y-10158114D02*
X2562657Y-9858114D01*
X2534086Y-9900972D01*
X2505514Y-9929543D01*
X2476943Y-9943829D01*
X2776943Y-10129543D02*
X2791228Y-10143829D01*
X2776943Y-10158114D01*
X2762657Y-10143829D01*
X2776943Y-10129543D01*
X2776943Y-10158114D01*
X2962657Y-9986686D02*
X2934086Y-9972400D01*
X2919800Y-9958114D01*
X2905514Y-9929543D01*
X2905514Y-9915257D01*
X2919800Y-9886686D01*
X2934086Y-9872400D01*
X2962657Y-9858114D01*
X3019800Y-9858114D01*
X3048371Y-9872400D01*
X3062657Y-9886686D01*
X3076943Y-9915257D01*
X3076943Y-9929543D01*
X3062657Y-9958114D01*
X3048371Y-9972400D01*
X3019800Y-9986686D01*
X2962657Y-9986686D01*
X2934086Y-10000972D01*
X2919800Y-10015257D01*
X2905514Y-10043829D01*
X2905514Y-10100972D01*
X2919800Y-10129543D01*
X2934086Y-10143829D01*
X2962657Y-10158114D01*
X3019800Y-10158114D01*
X3048371Y-10143829D01*
X3062657Y-10129543D01*
X3076943Y-10100972D01*
X3076943Y-10043829D01*
X3062657Y-10015257D01*
X3048371Y-10000972D01*
X3019800Y-9986686D01*
X3262657Y-9858114D02*
X3291228Y-9858114D01*
X3319800Y-9872400D01*
X3334086Y-9886686D01*
X3348371Y-9915257D01*
X3362657Y-9972400D01*
X3362657Y-10043829D01*
X3348371Y-10100972D01*
X3334086Y-10129543D01*
X3319800Y-10143829D01*
X3291228Y-10158114D01*
X3262657Y-10158114D01*
X3234086Y-10143829D01*
X3219800Y-10129543D01*
X3205514Y-10100972D01*
X3191228Y-10043829D01*
X3191228Y-9972400D01*
X3205514Y-9915257D01*
X3219800Y-9886686D01*
X3234086Y-9872400D01*
X3262657Y-9858114D01*
X3491228Y-10158114D02*
X3491228Y-9958114D01*
X3491228Y-9986686D02*
X3505514Y-9972400D01*
X3534086Y-9958114D01*
X3576943Y-9958114D01*
X3605514Y-9972400D01*
X3619800Y-10000972D01*
X3619800Y-10158114D01*
X3619800Y-10000972D02*
X3634086Y-9972400D01*
X3662657Y-9958114D01*
X3705514Y-9958114D01*
X3734086Y-9972400D01*
X3748371Y-10000972D01*
X3748371Y-10158114D01*
X3891228Y-10158114D02*
X3891228Y-9958114D01*
X3891228Y-9986686D02*
X3905514Y-9972400D01*
X3934086Y-9958114D01*
X3976943Y-9958114D01*
X4005514Y-9972400D01*
X4019800Y-10000972D01*
X4019800Y-10158114D01*
X4019800Y-10000972D02*
X4034086Y-9972400D01*
X4062657Y-9958114D01*
X4105514Y-9958114D01*
X4134086Y-9972400D01*
X4148371Y-10000972D01*
X4148371Y-10158114D01*
X4734086Y-9843829D02*
X4476943Y-10229543D01*
X5119800Y-9858114D02*
X5148371Y-9858114D01*
X5176943Y-9872400D01*
X5191228Y-9886686D01*
X5205514Y-9915257D01*
X5219800Y-9972400D01*
X5219800Y-10043829D01*
X5205514Y-10100972D01*
X5191228Y-10129543D01*
X5176943Y-10143829D01*
X5148371Y-10158114D01*
X5119800Y-10158114D01*
X5091228Y-10143829D01*
X5076943Y-10129543D01*
X5062657Y-10100972D01*
X5048371Y-10043829D01*
X5048371Y-9972400D01*
X5062657Y-9915257D01*
X5076943Y-9886686D01*
X5091228Y-9872400D01*
X5119800Y-9858114D01*
X5348371Y-10129543D02*
X5362657Y-10143829D01*
X5348371Y-10158114D01*
X5334086Y-10143829D01*
X5348371Y-10129543D01*
X5348371Y-10158114D01*
X5548371Y-9858114D02*
X5576943Y-9858114D01*
X5605514Y-9872400D01*
X5619800Y-9886686D01*
X5634086Y-9915257D01*
X5648371Y-9972400D01*
X5648371Y-10043829D01*
X5634086Y-10100972D01*
X5619800Y-10129543D01*
X5605514Y-10143829D01*
X5576943Y-10158114D01*
X5548371Y-10158114D01*
X5519800Y-10143829D01*
X5505514Y-10129543D01*
X5491228Y-10100972D01*
X5476943Y-10043829D01*
X5476943Y-9972400D01*
X5491228Y-9915257D01*
X5505514Y-9886686D01*
X5519800Y-9872400D01*
X5548371Y-9858114D01*
X5748371Y-9858114D02*
X5948371Y-9858114D01*
X5819800Y-10158114D01*
X6219800Y-10158114D02*
X6048371Y-10158114D01*
X6134086Y-10158114D02*
X6134086Y-9858114D01*
X6105514Y-9900972D01*
X6076943Y-9929543D01*
X6048371Y-9943829D01*
X6334086Y-9858114D02*
X6334086Y-9915257D01*
X6448371Y-9858114D02*
X6448371Y-9915257D01*
X6891228Y-10272400D02*
X6876943Y-10258114D01*
X6848371Y-10215257D01*
X6834086Y-10186686D01*
X6819800Y-10143829D01*
X6805514Y-10072400D01*
X6805514Y-10015257D01*
X6819800Y-9943829D01*
X6834086Y-9900972D01*
X6848371Y-9872400D01*
X6876943Y-9829543D01*
X6891228Y-9815257D01*
X6991228Y-9886686D02*
X7005514Y-9872400D01*
X7034086Y-9858114D01*
X7105514Y-9858114D01*
X7134086Y-9872400D01*
X7148371Y-9886686D01*
X7162657Y-9915257D01*
X7162657Y-9943829D01*
X7148371Y-9986686D01*
X6976943Y-10158114D01*
X7162657Y-10158114D01*
X7519800Y-10158114D02*
X7519800Y-9858114D01*
X7648371Y-10158114D02*
X7648371Y-10000972D01*
X7634086Y-9972400D01*
X7605514Y-9958114D01*
X7562657Y-9958114D01*
X7534086Y-9972400D01*
X7519800Y-9986686D01*
X7834086Y-10158114D02*
X7805514Y-10143829D01*
X7791228Y-10129543D01*
X7776943Y-10100972D01*
X7776943Y-10015257D01*
X7791228Y-9986686D01*
X7805514Y-9972400D01*
X7834086Y-9958114D01*
X7876943Y-9958114D01*
X7905514Y-9972400D01*
X7919800Y-9986686D01*
X7934086Y-10015257D01*
X7934086Y-10100972D01*
X7919800Y-10129543D01*
X7905514Y-10143829D01*
X7876943Y-10158114D01*
X7834086Y-10158114D01*
X8105514Y-10158114D02*
X8076943Y-10143829D01*
X8062657Y-10115257D01*
X8062657Y-9858114D01*
X8334086Y-10143829D02*
X8305514Y-10158114D01*
X8248371Y-10158114D01*
X8219800Y-10143829D01*
X8205514Y-10115257D01*
X8205514Y-10000972D01*
X8219800Y-9972400D01*
X8248371Y-9958114D01*
X8305514Y-9958114D01*
X8334086Y-9972400D01*
X8348371Y-10000972D01*
X8348371Y-10029543D01*
X8205514Y-10058114D01*
X8462657Y-10143829D02*
X8491228Y-10158114D01*
X8548371Y-10158114D01*
X8576943Y-10143829D01*
X8591228Y-10115257D01*
X8591228Y-10100972D01*
X8576943Y-10072400D01*
X8548371Y-10058114D01*
X8505514Y-10058114D01*
X8476943Y-10043829D01*
X8462657Y-10015257D01*
X8462657Y-10000972D01*
X8476943Y-9972400D01*
X8505514Y-9958114D01*
X8548371Y-9958114D01*
X8576943Y-9972400D01*
X8691228Y-10272400D02*
X8705514Y-10258114D01*
X8734086Y-10215257D01*
X8748371Y-10186686D01*
X8762657Y-10143829D01*
X8776943Y-10072400D01*
X8776943Y-10015257D01*
X8762657Y-9943829D01*
X8748371Y-9900972D01*
X8734086Y-9872400D01*
X8705514Y-9829543D01*
X8691228Y-9815257D01*
X9234086Y-10272400D02*
X9219800Y-10258114D01*
X9191228Y-10215257D01*
X9176943Y-10186686D01*
X9162657Y-10143829D01*
X9148371Y-10072400D01*
X9148371Y-10015257D01*
X9162657Y-9943829D01*
X9176943Y-9900972D01*
X9191228Y-9872400D01*
X9219800Y-9829543D01*
X9234086Y-9815257D01*
X9348371Y-9958114D02*
X9348371Y-10158114D01*
X9348371Y-9986686D02*
X9362657Y-9972400D01*
X9391228Y-9958114D01*
X9434086Y-9958114D01*
X9462657Y-9972400D01*
X9476943Y-10000972D01*
X9476943Y-10158114D01*
X9662657Y-10158114D02*
X9634086Y-10143829D01*
X9619800Y-10129543D01*
X9605514Y-10100972D01*
X9605514Y-10015257D01*
X9619800Y-9986686D01*
X9634086Y-9972400D01*
X9662657Y-9958114D01*
X9705514Y-9958114D01*
X9734086Y-9972400D01*
X9748371Y-9986686D01*
X9762657Y-10015257D01*
X9762657Y-10100972D01*
X9748371Y-10129543D01*
X9734086Y-10143829D01*
X9705514Y-10158114D01*
X9662657Y-10158114D01*
X9848371Y-9958114D02*
X9962657Y-9958114D01*
X9891228Y-9858114D02*
X9891228Y-10115257D01*
X9905514Y-10143829D01*
X9934086Y-10158114D01*
X9962657Y-10158114D01*
X10291228Y-9958114D02*
X10291228Y-10258114D01*
X10291228Y-9972400D02*
X10319800Y-9958114D01*
X10376943Y-9958114D01*
X10405514Y-9972400D01*
X10419800Y-9986686D01*
X10434086Y-10015257D01*
X10434086Y-10100972D01*
X10419800Y-10129543D01*
X10405514Y-10143829D01*
X10376943Y-10158114D01*
X10319800Y-10158114D01*
X10291228Y-10143829D01*
X10605514Y-10158114D02*
X10576943Y-10143829D01*
X10562657Y-10115257D01*
X10562657Y-9858114D01*
X10848371Y-10158114D02*
X10848371Y-10000972D01*
X10834086Y-9972400D01*
X10805514Y-9958114D01*
X10748371Y-9958114D01*
X10719800Y-9972400D01*
X10848371Y-10143829D02*
X10819800Y-10158114D01*
X10748371Y-10158114D01*
X10719800Y-10143829D01*
X10705514Y-10115257D01*
X10705514Y-10086686D01*
X10719800Y-10058114D01*
X10748371Y-10043829D01*
X10819800Y-10043829D01*
X10848371Y-10029543D01*
X10948371Y-9958114D02*
X11062657Y-9958114D01*
X10991228Y-9858114D02*
X10991228Y-10115257D01*
X11005514Y-10143829D01*
X11034086Y-10158114D01*
X11062657Y-10158114D01*
X11276943Y-10143829D02*
X11248371Y-10158114D01*
X11191228Y-10158114D01*
X11162657Y-10143829D01*
X11148371Y-10115257D01*
X11148371Y-10000972D01*
X11162657Y-9972400D01*
X11191228Y-9958114D01*
X11248371Y-9958114D01*
X11276943Y-9972400D01*
X11291228Y-10000972D01*
X11291228Y-10029543D01*
X11148371Y-10058114D01*
X11548371Y-10158114D02*
X11548371Y-9858114D01*
X11548371Y-10143829D02*
X11519800Y-10158114D01*
X11462657Y-10158114D01*
X11434086Y-10143829D01*
X11419800Y-10129543D01*
X11405514Y-10100972D01*
X11405514Y-10015257D01*
X11419800Y-9986686D01*
X11434086Y-9972400D01*
X11462657Y-9958114D01*
X11519800Y-9958114D01*
X11548371Y-9972400D01*
X11662657Y-10272400D02*
X11676943Y-10258114D01*
X11705514Y-10215257D01*
X11719800Y-10186686D01*
X11734086Y-10143829D01*
X11748371Y-10072400D01*
X11748371Y-10015257D01*
X11734086Y-9943829D01*
X11719800Y-9900972D01*
X11705514Y-9872400D01*
X11676943Y-9829543D01*
X11662657Y-9815257D01*
X2079800Y-10293400D02*
X2079800Y-10543400D01*
X1954800Y-10418400D02*
X2204800Y-10418400D01*
X2476943Y-10282686D02*
X2491228Y-10268400D01*
X2519800Y-10254114D01*
X2591228Y-10254114D01*
X2619800Y-10268400D01*
X2634086Y-10282686D01*
X2648371Y-10311257D01*
X2648371Y-10339829D01*
X2634086Y-10382686D01*
X2462657Y-10554114D01*
X2648371Y-10554114D01*
X2776943Y-10525543D02*
X2791228Y-10539829D01*
X2776943Y-10554114D01*
X2762657Y-10539829D01*
X2776943Y-10525543D01*
X2776943Y-10554114D01*
X3062657Y-10254114D02*
X2919800Y-10254114D01*
X2905514Y-10396972D01*
X2919800Y-10382686D01*
X2948371Y-10368400D01*
X3019800Y-10368400D01*
X3048371Y-10382686D01*
X3062657Y-10396972D01*
X3076943Y-10425543D01*
X3076943Y-10496972D01*
X3062657Y-10525543D01*
X3048371Y-10539829D01*
X3019800Y-10554114D01*
X2948371Y-10554114D01*
X2919800Y-10539829D01*
X2905514Y-10525543D01*
X3262657Y-10254114D02*
X3291228Y-10254114D01*
X3319800Y-10268400D01*
X3334086Y-10282686D01*
X3348371Y-10311257D01*
X3362657Y-10368400D01*
X3362657Y-10439829D01*
X3348371Y-10496972D01*
X3334086Y-10525543D01*
X3319800Y-10539829D01*
X3291228Y-10554114D01*
X3262657Y-10554114D01*
X3234086Y-10539829D01*
X3219800Y-10525543D01*
X3205514Y-10496972D01*
X3191228Y-10439829D01*
X3191228Y-10368400D01*
X3205514Y-10311257D01*
X3219800Y-10282686D01*
X3234086Y-10268400D01*
X3262657Y-10254114D01*
X3491228Y-10554114D02*
X3491228Y-10354114D01*
X3491228Y-10382686D02*
X3505514Y-10368400D01*
X3534086Y-10354114D01*
X3576943Y-10354114D01*
X3605514Y-10368400D01*
X3619800Y-10396972D01*
X3619800Y-10554114D01*
X3619800Y-10396972D02*
X3634086Y-10368400D01*
X3662657Y-10354114D01*
X3705514Y-10354114D01*
X3734086Y-10368400D01*
X3748371Y-10396972D01*
X3748371Y-10554114D01*
X3891228Y-10554114D02*
X3891228Y-10354114D01*
X3891228Y-10382686D02*
X3905514Y-10368400D01*
X3934086Y-10354114D01*
X3976943Y-10354114D01*
X4005514Y-10368400D01*
X4019800Y-10396972D01*
X4019800Y-10554114D01*
X4019800Y-10396972D02*
X4034086Y-10368400D01*
X4062657Y-10354114D01*
X4105514Y-10354114D01*
X4134086Y-10368400D01*
X4148371Y-10396972D01*
X4148371Y-10554114D01*
X4734086Y-10239829D02*
X4476943Y-10625543D01*
X5119800Y-10254114D02*
X5148371Y-10254114D01*
X5176943Y-10268400D01*
X5191228Y-10282686D01*
X5205514Y-10311257D01*
X5219800Y-10368400D01*
X5219800Y-10439829D01*
X5205514Y-10496972D01*
X5191228Y-10525543D01*
X5176943Y-10539829D01*
X5148371Y-10554114D01*
X5119800Y-10554114D01*
X5091228Y-10539829D01*
X5076943Y-10525543D01*
X5062657Y-10496972D01*
X5048371Y-10439829D01*
X5048371Y-10368400D01*
X5062657Y-10311257D01*
X5076943Y-10282686D01*
X5091228Y-10268400D01*
X5119800Y-10254114D01*
X5348371Y-10525543D02*
X5362657Y-10539829D01*
X5348371Y-10554114D01*
X5334086Y-10539829D01*
X5348371Y-10525543D01*
X5348371Y-10554114D01*
X5548371Y-10254114D02*
X5576943Y-10254114D01*
X5605514Y-10268400D01*
X5619800Y-10282686D01*
X5634086Y-10311257D01*
X5648371Y-10368400D01*
X5648371Y-10439829D01*
X5634086Y-10496972D01*
X5619800Y-10525543D01*
X5605514Y-10539829D01*
X5576943Y-10554114D01*
X5548371Y-10554114D01*
X5519800Y-10539829D01*
X5505514Y-10525543D01*
X5491228Y-10496972D01*
X5476943Y-10439829D01*
X5476943Y-10368400D01*
X5491228Y-10311257D01*
X5505514Y-10282686D01*
X5519800Y-10268400D01*
X5548371Y-10254114D01*
X5791228Y-10554114D02*
X5848371Y-10554114D01*
X5876943Y-10539829D01*
X5891228Y-10525543D01*
X5919800Y-10482686D01*
X5934086Y-10425543D01*
X5934086Y-10311257D01*
X5919800Y-10282686D01*
X5905514Y-10268400D01*
X5876943Y-10254114D01*
X5819800Y-10254114D01*
X5791228Y-10268400D01*
X5776943Y-10282686D01*
X5762657Y-10311257D01*
X5762657Y-10382686D01*
X5776943Y-10411257D01*
X5791228Y-10425543D01*
X5819800Y-10439829D01*
X5876943Y-10439829D01*
X5905514Y-10425543D01*
X5919800Y-10411257D01*
X5934086Y-10382686D01*
X6105514Y-10382686D02*
X6076943Y-10368400D01*
X6062657Y-10354114D01*
X6048371Y-10325543D01*
X6048371Y-10311257D01*
X6062657Y-10282686D01*
X6076943Y-10268400D01*
X6105514Y-10254114D01*
X6162657Y-10254114D01*
X6191228Y-10268400D01*
X6205514Y-10282686D01*
X6219800Y-10311257D01*
X6219800Y-10325543D01*
X6205514Y-10354114D01*
X6191228Y-10368400D01*
X6162657Y-10382686D01*
X6105514Y-10382686D01*
X6076943Y-10396972D01*
X6062657Y-10411257D01*
X6048371Y-10439829D01*
X6048371Y-10496972D01*
X6062657Y-10525543D01*
X6076943Y-10539829D01*
X6105514Y-10554114D01*
X6162657Y-10554114D01*
X6191228Y-10539829D01*
X6205514Y-10525543D01*
X6219800Y-10496972D01*
X6219800Y-10439829D01*
X6205514Y-10411257D01*
X6191228Y-10396972D01*
X6162657Y-10382686D01*
X6334086Y-10254114D02*
X6334086Y-10311257D01*
X6448371Y-10254114D02*
X6448371Y-10311257D01*
X6891228Y-10668400D02*
X6876943Y-10654114D01*
X6848371Y-10611257D01*
X6834086Y-10582686D01*
X6819800Y-10539829D01*
X6805514Y-10468400D01*
X6805514Y-10411257D01*
X6819800Y-10339829D01*
X6834086Y-10296972D01*
X6848371Y-10268400D01*
X6876943Y-10225543D01*
X6891228Y-10211257D01*
X7134086Y-10354114D02*
X7134086Y-10554114D01*
X7062657Y-10239829D02*
X6991228Y-10454114D01*
X7176943Y-10454114D01*
X7519800Y-10554114D02*
X7519800Y-10254114D01*
X7648371Y-10554114D02*
X7648371Y-10396972D01*
X7634086Y-10368400D01*
X7605514Y-10354114D01*
X7562657Y-10354114D01*
X7534086Y-10368400D01*
X7519800Y-10382686D01*
X7834086Y-10554114D02*
X7805514Y-10539829D01*
X7791228Y-10525543D01*
X7776943Y-10496972D01*
X7776943Y-10411257D01*
X7791228Y-10382686D01*
X7805514Y-10368400D01*
X7834086Y-10354114D01*
X7876943Y-10354114D01*
X7905514Y-10368400D01*
X7919800Y-10382686D01*
X7934086Y-10411257D01*
X7934086Y-10496972D01*
X7919800Y-10525543D01*
X7905514Y-10539829D01*
X7876943Y-10554114D01*
X7834086Y-10554114D01*
X8105514Y-10554114D02*
X8076943Y-10539829D01*
X8062657Y-10511257D01*
X8062657Y-10254114D01*
X8334086Y-10539829D02*
X8305514Y-10554114D01*
X8248371Y-10554114D01*
X8219800Y-10539829D01*
X8205514Y-10511257D01*
X8205514Y-10396972D01*
X8219800Y-10368400D01*
X8248371Y-10354114D01*
X8305514Y-10354114D01*
X8334086Y-10368400D01*
X8348371Y-10396972D01*
X8348371Y-10425543D01*
X8205514Y-10454114D01*
X8462657Y-10539829D02*
X8491228Y-10554114D01*
X8548371Y-10554114D01*
X8576943Y-10539829D01*
X8591228Y-10511257D01*
X8591228Y-10496972D01*
X8576943Y-10468400D01*
X8548371Y-10454114D01*
X8505514Y-10454114D01*
X8476943Y-10439829D01*
X8462657Y-10411257D01*
X8462657Y-10396972D01*
X8476943Y-10368400D01*
X8505514Y-10354114D01*
X8548371Y-10354114D01*
X8576943Y-10368400D01*
X8691228Y-10668400D02*
X8705514Y-10654114D01*
X8734086Y-10611257D01*
X8748371Y-10582686D01*
X8762657Y-10539829D01*
X8776943Y-10468400D01*
X8776943Y-10411257D01*
X8762657Y-10339829D01*
X8748371Y-10296972D01*
X8734086Y-10268400D01*
X8705514Y-10225543D01*
X8691228Y-10211257D01*
X9234086Y-10668400D02*
X9219800Y-10654114D01*
X9191228Y-10611257D01*
X9176943Y-10582686D01*
X9162657Y-10539829D01*
X9148371Y-10468400D01*
X9148371Y-10411257D01*
X9162657Y-10339829D01*
X9176943Y-10296972D01*
X9191228Y-10268400D01*
X9219800Y-10225543D01*
X9234086Y-10211257D01*
X9348371Y-10354114D02*
X9348371Y-10554114D01*
X9348371Y-10382686D02*
X9362657Y-10368400D01*
X9391228Y-10354114D01*
X9434086Y-10354114D01*
X9462657Y-10368400D01*
X9476943Y-10396972D01*
X9476943Y-10554114D01*
X9662657Y-10554114D02*
X9634086Y-10539829D01*
X9619800Y-10525543D01*
X9605514Y-10496972D01*
X9605514Y-10411257D01*
X9619800Y-10382686D01*
X9634086Y-10368400D01*
X9662657Y-10354114D01*
X9705514Y-10354114D01*
X9734086Y-10368400D01*
X9748371Y-10382686D01*
X9762657Y-10411257D01*
X9762657Y-10496972D01*
X9748371Y-10525543D01*
X9734086Y-10539829D01*
X9705514Y-10554114D01*
X9662657Y-10554114D01*
X9848371Y-10354114D02*
X9962657Y-10354114D01*
X9891228Y-10254114D02*
X9891228Y-10511257D01*
X9905514Y-10539829D01*
X9934086Y-10554114D01*
X9962657Y-10554114D01*
X10291228Y-10354114D02*
X10291228Y-10654114D01*
X10291228Y-10368400D02*
X10319800Y-10354114D01*
X10376943Y-10354114D01*
X10405514Y-10368400D01*
X10419800Y-10382686D01*
X10434086Y-10411257D01*
X10434086Y-10496972D01*
X10419800Y-10525543D01*
X10405514Y-10539829D01*
X10376943Y-10554114D01*
X10319800Y-10554114D01*
X10291228Y-10539829D01*
X10605514Y-10554114D02*
X10576943Y-10539829D01*
X10562657Y-10511257D01*
X10562657Y-10254114D01*
X10848371Y-10554114D02*
X10848371Y-10396972D01*
X10834086Y-10368400D01*
X10805514Y-10354114D01*
X10748371Y-10354114D01*
X10719800Y-10368400D01*
X10848371Y-10539829D02*
X10819800Y-10554114D01*
X10748371Y-10554114D01*
X10719800Y-10539829D01*
X10705514Y-10511257D01*
X10705514Y-10482686D01*
X10719800Y-10454114D01*
X10748371Y-10439829D01*
X10819800Y-10439829D01*
X10848371Y-10425543D01*
X10948371Y-10354114D02*
X11062657Y-10354114D01*
X10991228Y-10254114D02*
X10991228Y-10511257D01*
X11005514Y-10539829D01*
X11034086Y-10554114D01*
X11062657Y-10554114D01*
X11276943Y-10539829D02*
X11248371Y-10554114D01*
X11191228Y-10554114D01*
X11162657Y-10539829D01*
X11148371Y-10511257D01*
X11148371Y-10396972D01*
X11162657Y-10368400D01*
X11191228Y-10354114D01*
X11248371Y-10354114D01*
X11276943Y-10368400D01*
X11291228Y-10396972D01*
X11291228Y-10425543D01*
X11148371Y-10454114D01*
X11548371Y-10554114D02*
X11548371Y-10254114D01*
X11548371Y-10539829D02*
X11519800Y-10554114D01*
X11462657Y-10554114D01*
X11434086Y-10539829D01*
X11419800Y-10525543D01*
X11405514Y-10496972D01*
X11405514Y-10411257D01*
X11419800Y-10382686D01*
X11434086Y-10368400D01*
X11462657Y-10354114D01*
X11519800Y-10354114D01*
X11548371Y-10368400D01*
X11662657Y-10668400D02*
X11676943Y-10654114D01*
X11705514Y-10611257D01*
X11719800Y-10582686D01*
X11734086Y-10539829D01*
X11748371Y-10468400D01*
X11748371Y-10411257D01*
X11734086Y-10339829D01*
X11719800Y-10296972D01*
X11705514Y-10268400D01*
X11676943Y-10225543D01*
X11662657Y-10211257D01*
M02*
