%TF.GenerationSoftware,KiCad,Pcbnew,(5.1.9)-1*%
%TF.CreationDate,2022-01-16T00:30:18-08:00*%
%TF.ProjectId,keurig-filler,6b657572-6967-42d6-9669-6c6c65722e6b,rev?*%
%TF.SameCoordinates,Original*%
%TF.FileFunction,Soldermask,Top*%
%TF.FilePolarity,Negative*%
%FSLAX46Y46*%
G04 Gerber Fmt 4.6, Leading zero omitted, Abs format (unit mm)*
G04 Created by KiCad (PCBNEW (5.1.9)-1) date 2022-01-16 00:30:18*
%MOMM*%
%LPD*%
G01*
G04 APERTURE LIST*
%ADD10C,2.500000*%
%ADD11O,1.700000X1.700000*%
%ADD12R,1.700000X3.500000*%
%ADD13R,1.700000X1.700000*%
%ADD14O,1.500000X1.500000*%
%ADD15O,1.800000X1.800000*%
%ADD16R,3.500000X1.700000*%
%ADD17O,3.960000X1.980000*%
%ADD18R,3.960000X1.980000*%
%ADD19C,1.800000*%
%ADD20R,1.800000X1.800000*%
%ADD21R,0.800000X0.900000*%
G04 APERTURE END LIST*
D10*
%TO.C,REF\u002A\u002A*%
X25146000Y-83820000D03*
%TD*%
%TO.C,REF\u002A\u002A*%
X105156000Y-83566000D03*
%TD*%
%TO.C,REF\u002A\u002A*%
X105156000Y-25146000D03*
%TD*%
%TO.C,REF\u002A\u002A*%
X25908000Y-25400000D03*
%TD*%
D11*
%TO.C,U1*%
X42020000Y-78408001D03*
D12*
X42020000Y-79308001D03*
D13*
X39480000Y-78408001D03*
D12*
X39480000Y-79308001D03*
D11*
X36940000Y-78408001D03*
D12*
X36940000Y-79308001D03*
D14*
X41905000Y-33538001D03*
X37055000Y-33538001D03*
D15*
X42205000Y-30508001D03*
X36755000Y-30508001D03*
D16*
X49270000Y-78638001D03*
X49270000Y-76098001D03*
X49270000Y-73558001D03*
X49270000Y-71018001D03*
X49270000Y-68478001D03*
X49270000Y-65938001D03*
X49270000Y-63398001D03*
X49270000Y-60858001D03*
X49270000Y-58318001D03*
X49270000Y-55778001D03*
X49270000Y-53238001D03*
X49270000Y-50698001D03*
X49270000Y-48158001D03*
X49270000Y-45618001D03*
X49270000Y-43078001D03*
X49270000Y-40538001D03*
X49270000Y-37998001D03*
X49270000Y-35458001D03*
X49270000Y-32918001D03*
X49270000Y-30378001D03*
X29690000Y-78638001D03*
X29690000Y-76098001D03*
X29690000Y-73558001D03*
X29690000Y-71018001D03*
X29690000Y-68478001D03*
X29690000Y-65938001D03*
X29690000Y-63398001D03*
X29690000Y-60858001D03*
X29690000Y-58318001D03*
X29690000Y-55778001D03*
X29690000Y-53238001D03*
X29690000Y-50698001D03*
X29690000Y-48158001D03*
X29690000Y-45618001D03*
X29690000Y-43078001D03*
X29690000Y-40538001D03*
X29690000Y-37998001D03*
X29690000Y-35458001D03*
X29690000Y-32918001D03*
X29690000Y-30378001D03*
D11*
X48370000Y-30378001D03*
X48370000Y-32918001D03*
D13*
X48370000Y-35458001D03*
D11*
X48370000Y-37998001D03*
X48370000Y-40538001D03*
X48370000Y-43078001D03*
X48370000Y-45618001D03*
D13*
X48370000Y-48158001D03*
D11*
X48370000Y-50698001D03*
X48370000Y-53238001D03*
X48370000Y-55778001D03*
X48370000Y-58318001D03*
D13*
X48370000Y-60858001D03*
D11*
X48370000Y-63398001D03*
X48370000Y-65938001D03*
X48370000Y-68478001D03*
X48370000Y-71018001D03*
D13*
X48370000Y-73558001D03*
D11*
X48370000Y-76098001D03*
X48370000Y-78638001D03*
X30590000Y-78638001D03*
X30590000Y-76098001D03*
D13*
X30590000Y-73558001D03*
D11*
X30590000Y-71018001D03*
X30590000Y-68478001D03*
X30590000Y-65938001D03*
X30590000Y-63398001D03*
D13*
X30590000Y-60858001D03*
D11*
X30590000Y-58318001D03*
X30590000Y-55778001D03*
X30590000Y-53238001D03*
X30590000Y-50698001D03*
D13*
X30590000Y-48158001D03*
D11*
X30590000Y-45618001D03*
X30590000Y-43078001D03*
X30590000Y-40538001D03*
X30590000Y-37998001D03*
D13*
X30590000Y-35458001D03*
D11*
X30590000Y-32918001D03*
X30590000Y-30378001D03*
%TD*%
D17*
%TO.C,J6*%
X99568000Y-75866000D03*
D18*
X99568000Y-70866000D03*
%TD*%
D17*
%TO.C,J4*%
X99568000Y-63166000D03*
D18*
X99568000Y-58166000D03*
%TD*%
D17*
%TO.C,J3*%
X99568000Y-47846000D03*
X99568000Y-42846000D03*
D18*
X99568000Y-37846000D03*
%TD*%
%TO.C,R1*%
G36*
G01*
X74044000Y-54044001D02*
X74044000Y-53143999D01*
G75*
G02*
X74293999Y-52894000I249999J0D01*
G01*
X74994001Y-52894000D01*
G75*
G02*
X75244000Y-53143999I0J-249999D01*
G01*
X75244000Y-54044001D01*
G75*
G02*
X74994001Y-54294000I-249999J0D01*
G01*
X74293999Y-54294000D01*
G75*
G02*
X74044000Y-54044001I0J249999D01*
G01*
G37*
G36*
G01*
X72044000Y-54044001D02*
X72044000Y-53143999D01*
G75*
G02*
X72293999Y-52894000I249999J0D01*
G01*
X72994001Y-52894000D01*
G75*
G02*
X73244000Y-53143999I0J-249999D01*
G01*
X73244000Y-54044001D01*
G75*
G02*
X72994001Y-54294000I-249999J0D01*
G01*
X72293999Y-54294000D01*
G75*
G02*
X72044000Y-54044001I0J249999D01*
G01*
G37*
%TD*%
%TO.C,Q1*%
G36*
G01*
X57340000Y-31853200D02*
X57340000Y-31340800D01*
G75*
G02*
X57388800Y-31292000I48800J0D01*
G01*
X58471200Y-31292000D01*
G75*
G02*
X58520000Y-31340800I0J-48800D01*
G01*
X58520000Y-31853200D01*
G75*
G02*
X58471200Y-31902000I-48800J0D01*
G01*
X57388800Y-31902000D01*
G75*
G02*
X57340000Y-31853200I0J48800D01*
G01*
G37*
G36*
G01*
X55290000Y-32768200D02*
X55290000Y-32255800D01*
G75*
G02*
X55338800Y-32207000I48800J0D01*
G01*
X56421200Y-32207000D01*
G75*
G02*
X56470000Y-32255800I0J-48800D01*
G01*
X56470000Y-32768200D01*
G75*
G02*
X56421200Y-32817000I-48800J0D01*
G01*
X55338800Y-32817000D01*
G75*
G02*
X55290000Y-32768200I0J48800D01*
G01*
G37*
G36*
G01*
X55290000Y-30938200D02*
X55290000Y-30425800D01*
G75*
G02*
X55338800Y-30377000I48800J0D01*
G01*
X56421200Y-30377000D01*
G75*
G02*
X56470000Y-30425800I0J-48800D01*
G01*
X56470000Y-30938200D01*
G75*
G02*
X56421200Y-30987000I-48800J0D01*
G01*
X55338800Y-30987000D01*
G75*
G02*
X55290000Y-30938200I0J48800D01*
G01*
G37*
%TD*%
D19*
%TO.C,K1*%
X81371000Y-42996000D03*
X81371000Y-53156000D03*
X81371000Y-65856000D03*
D20*
X81371000Y-70936000D03*
%TD*%
D11*
%TO.C,J5*%
X69342000Y-31496000D03*
X66802000Y-31496000D03*
X64262000Y-31496000D03*
D13*
X61722000Y-31496000D03*
%TD*%
D11*
%TO.C,J2*%
X84074000Y-28956000D03*
X86614000Y-28956000D03*
D13*
X89154000Y-28956000D03*
%TD*%
D11*
%TO.C,J1*%
X96774000Y-28956000D03*
X99314000Y-28956000D03*
D13*
X101854000Y-28956000D03*
%TD*%
D21*
%TO.C,D1*%
X73660000Y-48022000D03*
X74610000Y-50022000D03*
X72710000Y-50022000D03*
%TD*%
M02*
