%TF.GenerationSoftware,KiCad,Pcbnew,(5.1.9)-1*%
%TF.CreationDate,2022-01-22T22:11:56-08:00*%
%TF.ProjectId,keurig-filler,6b657572-6967-42d6-9669-6c6c65722e6b,rev?*%
%TF.SameCoordinates,Original*%
%TF.FileFunction,Paste,Top*%
%TF.FilePolarity,Positive*%
%FSLAX46Y46*%
G04 Gerber Fmt 4.6, Leading zero omitted, Abs format (unit mm)*
G04 Created by KiCad (PCBNEW (5.1.9)-1) date 2022-01-22 22:11:56*
%MOMM*%
%LPD*%
G01*
G04 APERTURE LIST*
%ADD10R,0.800000X0.900000*%
G04 APERTURE END LIST*
%TO.C,R12*%
G36*
G01*
X44707000Y-38169001D02*
X44707000Y-37268999D01*
G75*
G02*
X44956999Y-37019000I249999J0D01*
G01*
X45657001Y-37019000D01*
G75*
G02*
X45907000Y-37268999I0J-249999D01*
G01*
X45907000Y-38169001D01*
G75*
G02*
X45657001Y-38419000I-249999J0D01*
G01*
X44956999Y-38419000D01*
G75*
G02*
X44707000Y-38169001I0J249999D01*
G01*
G37*
G36*
G01*
X42707000Y-38169001D02*
X42707000Y-37268999D01*
G75*
G02*
X42956999Y-37019000I249999J0D01*
G01*
X43657001Y-37019000D01*
G75*
G02*
X43907000Y-37268999I0J-249999D01*
G01*
X43907000Y-38169001D01*
G75*
G02*
X43657001Y-38419000I-249999J0D01*
G01*
X42956999Y-38419000D01*
G75*
G02*
X42707000Y-38169001I0J249999D01*
G01*
G37*
%TD*%
%TO.C,R10*%
G36*
G01*
X61156001Y-35684000D02*
X60255999Y-35684000D01*
G75*
G02*
X60006000Y-35434001I0J249999D01*
G01*
X60006000Y-34733999D01*
G75*
G02*
X60255999Y-34484000I249999J0D01*
G01*
X61156001Y-34484000D01*
G75*
G02*
X61406000Y-34733999I0J-249999D01*
G01*
X61406000Y-35434001D01*
G75*
G02*
X61156001Y-35684000I-249999J0D01*
G01*
G37*
G36*
G01*
X61156001Y-37684000D02*
X60255999Y-37684000D01*
G75*
G02*
X60006000Y-37434001I0J249999D01*
G01*
X60006000Y-36733999D01*
G75*
G02*
X60255999Y-36484000I249999J0D01*
G01*
X61156001Y-36484000D01*
G75*
G02*
X61406000Y-36733999I0J-249999D01*
G01*
X61406000Y-37434001D01*
G75*
G02*
X61156001Y-37684000I-249999J0D01*
G01*
G37*
%TD*%
%TO.C,R8*%
G36*
G01*
X64458001Y-40621000D02*
X63557999Y-40621000D01*
G75*
G02*
X63308000Y-40371001I0J249999D01*
G01*
X63308000Y-39670999D01*
G75*
G02*
X63557999Y-39421000I249999J0D01*
G01*
X64458001Y-39421000D01*
G75*
G02*
X64708000Y-39670999I0J-249999D01*
G01*
X64708000Y-40371001D01*
G75*
G02*
X64458001Y-40621000I-249999J0D01*
G01*
G37*
G36*
G01*
X64458001Y-42621000D02*
X63557999Y-42621000D01*
G75*
G02*
X63308000Y-42371001I0J249999D01*
G01*
X63308000Y-41670999D01*
G75*
G02*
X63557999Y-41421000I249999J0D01*
G01*
X64458001Y-41421000D01*
G75*
G02*
X64708000Y-41670999I0J-249999D01*
G01*
X64708000Y-42371001D01*
G75*
G02*
X64458001Y-42621000I-249999J0D01*
G01*
G37*
%TD*%
%TO.C,U2*%
G36*
G01*
X56993400Y-73060000D02*
X56544600Y-73060000D01*
G75*
G02*
X56429000Y-72944400I0J115600D01*
G01*
X56429000Y-71585600D01*
G75*
G02*
X56544600Y-71470000I115600J0D01*
G01*
X56993400Y-71470000D01*
G75*
G02*
X57109000Y-71585600I0J-115600D01*
G01*
X57109000Y-72944400D01*
G75*
G02*
X56993400Y-73060000I-115600J0D01*
G01*
G37*
G36*
G01*
X58263400Y-73060000D02*
X57814600Y-73060000D01*
G75*
G02*
X57699000Y-72944400I0J115600D01*
G01*
X57699000Y-71585600D01*
G75*
G02*
X57814600Y-71470000I115600J0D01*
G01*
X58263400Y-71470000D01*
G75*
G02*
X58379000Y-71585600I0J-115600D01*
G01*
X58379000Y-72944400D01*
G75*
G02*
X58263400Y-73060000I-115600J0D01*
G01*
G37*
G36*
G01*
X59533400Y-73060000D02*
X59084600Y-73060000D01*
G75*
G02*
X58969000Y-72944400I0J115600D01*
G01*
X58969000Y-71585600D01*
G75*
G02*
X59084600Y-71470000I115600J0D01*
G01*
X59533400Y-71470000D01*
G75*
G02*
X59649000Y-71585600I0J-115600D01*
G01*
X59649000Y-72944400D01*
G75*
G02*
X59533400Y-73060000I-115600J0D01*
G01*
G37*
G36*
G01*
X60803400Y-73060000D02*
X60354600Y-73060000D01*
G75*
G02*
X60239000Y-72944400I0J115600D01*
G01*
X60239000Y-71585600D01*
G75*
G02*
X60354600Y-71470000I115600J0D01*
G01*
X60803400Y-71470000D01*
G75*
G02*
X60919000Y-71585600I0J-115600D01*
G01*
X60919000Y-72944400D01*
G75*
G02*
X60803400Y-73060000I-115600J0D01*
G01*
G37*
G36*
G01*
X60803400Y-78390000D02*
X60354600Y-78390000D01*
G75*
G02*
X60239000Y-78274400I0J115600D01*
G01*
X60239000Y-76915600D01*
G75*
G02*
X60354600Y-76800000I115600J0D01*
G01*
X60803400Y-76800000D01*
G75*
G02*
X60919000Y-76915600I0J-115600D01*
G01*
X60919000Y-78274400D01*
G75*
G02*
X60803400Y-78390000I-115600J0D01*
G01*
G37*
G36*
G01*
X59533400Y-78390000D02*
X59084600Y-78390000D01*
G75*
G02*
X58969000Y-78274400I0J115600D01*
G01*
X58969000Y-76915600D01*
G75*
G02*
X59084600Y-76800000I115600J0D01*
G01*
X59533400Y-76800000D01*
G75*
G02*
X59649000Y-76915600I0J-115600D01*
G01*
X59649000Y-78274400D01*
G75*
G02*
X59533400Y-78390000I-115600J0D01*
G01*
G37*
G36*
G01*
X58263400Y-78390000D02*
X57814600Y-78390000D01*
G75*
G02*
X57699000Y-78274400I0J115600D01*
G01*
X57699000Y-76915600D01*
G75*
G02*
X57814600Y-76800000I115600J0D01*
G01*
X58263400Y-76800000D01*
G75*
G02*
X58379000Y-76915600I0J-115600D01*
G01*
X58379000Y-78274400D01*
G75*
G02*
X58263400Y-78390000I-115600J0D01*
G01*
G37*
G36*
G01*
X56993400Y-78390000D02*
X56544600Y-78390000D01*
G75*
G02*
X56429000Y-78274400I0J115600D01*
G01*
X56429000Y-76915600D01*
G75*
G02*
X56544600Y-76800000I115600J0D01*
G01*
X56993400Y-76800000D01*
G75*
G02*
X57109000Y-76915600I0J-115600D01*
G01*
X57109000Y-78274400D01*
G75*
G02*
X56993400Y-78390000I-115600J0D01*
G01*
G37*
%TD*%
%TO.C,R7*%
G36*
G01*
X79178999Y-30499000D02*
X80079001Y-30499000D01*
G75*
G02*
X80329000Y-30748999I0J-249999D01*
G01*
X80329000Y-31449001D01*
G75*
G02*
X80079001Y-31699000I-249999J0D01*
G01*
X79178999Y-31699000D01*
G75*
G02*
X78929000Y-31449001I0J249999D01*
G01*
X78929000Y-30748999D01*
G75*
G02*
X79178999Y-30499000I249999J0D01*
G01*
G37*
G36*
G01*
X79178999Y-28499000D02*
X80079001Y-28499000D01*
G75*
G02*
X80329000Y-28748999I0J-249999D01*
G01*
X80329000Y-29449001D01*
G75*
G02*
X80079001Y-29699000I-249999J0D01*
G01*
X79178999Y-29699000D01*
G75*
G02*
X78929000Y-29449001I0J249999D01*
G01*
X78929000Y-28748999D01*
G75*
G02*
X79178999Y-28499000I249999J0D01*
G01*
G37*
%TD*%
%TO.C,R6*%
G36*
G01*
X83381001Y-34668000D02*
X82480999Y-34668000D01*
G75*
G02*
X82231000Y-34418001I0J249999D01*
G01*
X82231000Y-33717999D01*
G75*
G02*
X82480999Y-33468000I249999J0D01*
G01*
X83381001Y-33468000D01*
G75*
G02*
X83631000Y-33717999I0J-249999D01*
G01*
X83631000Y-34418001D01*
G75*
G02*
X83381001Y-34668000I-249999J0D01*
G01*
G37*
G36*
G01*
X83381001Y-36668000D02*
X82480999Y-36668000D01*
G75*
G02*
X82231000Y-36418001I0J249999D01*
G01*
X82231000Y-35717999D01*
G75*
G02*
X82480999Y-35468000I249999J0D01*
G01*
X83381001Y-35468000D01*
G75*
G02*
X83631000Y-35717999I0J-249999D01*
G01*
X83631000Y-36418001D01*
G75*
G02*
X83381001Y-36668000I-249999J0D01*
G01*
G37*
%TD*%
%TO.C,R5*%
G36*
G01*
X33585999Y-54740000D02*
X34486001Y-54740000D01*
G75*
G02*
X34736000Y-54989999I0J-249999D01*
G01*
X34736000Y-55690001D01*
G75*
G02*
X34486001Y-55940000I-249999J0D01*
G01*
X33585999Y-55940000D01*
G75*
G02*
X33336000Y-55690001I0J249999D01*
G01*
X33336000Y-54989999D01*
G75*
G02*
X33585999Y-54740000I249999J0D01*
G01*
G37*
G36*
G01*
X33585999Y-52740000D02*
X34486001Y-52740000D01*
G75*
G02*
X34736000Y-52989999I0J-249999D01*
G01*
X34736000Y-53690001D01*
G75*
G02*
X34486001Y-53940000I-249999J0D01*
G01*
X33585999Y-53940000D01*
G75*
G02*
X33336000Y-53690001I0J249999D01*
G01*
X33336000Y-52989999D01*
G75*
G02*
X33585999Y-52740000I249999J0D01*
G01*
G37*
%TD*%
%TO.C,R1*%
G36*
G01*
X74044000Y-54044001D02*
X74044000Y-53143999D01*
G75*
G02*
X74293999Y-52894000I249999J0D01*
G01*
X74994001Y-52894000D01*
G75*
G02*
X75244000Y-53143999I0J-249999D01*
G01*
X75244000Y-54044001D01*
G75*
G02*
X74994001Y-54294000I-249999J0D01*
G01*
X74293999Y-54294000D01*
G75*
G02*
X74044000Y-54044001I0J249999D01*
G01*
G37*
G36*
G01*
X72044000Y-54044001D02*
X72044000Y-53143999D01*
G75*
G02*
X72293999Y-52894000I249999J0D01*
G01*
X72994001Y-52894000D01*
G75*
G02*
X73244000Y-53143999I0J-249999D01*
G01*
X73244000Y-54044001D01*
G75*
G02*
X72994001Y-54294000I-249999J0D01*
G01*
X72293999Y-54294000D01*
G75*
G02*
X72044000Y-54044001I0J249999D01*
G01*
G37*
%TD*%
%TO.C,Q1*%
G36*
G01*
X57340000Y-31853200D02*
X57340000Y-31340800D01*
G75*
G02*
X57388800Y-31292000I48800J0D01*
G01*
X58471200Y-31292000D01*
G75*
G02*
X58520000Y-31340800I0J-48800D01*
G01*
X58520000Y-31853200D01*
G75*
G02*
X58471200Y-31902000I-48800J0D01*
G01*
X57388800Y-31902000D01*
G75*
G02*
X57340000Y-31853200I0J48800D01*
G01*
G37*
G36*
G01*
X55290000Y-32768200D02*
X55290000Y-32255800D01*
G75*
G02*
X55338800Y-32207000I48800J0D01*
G01*
X56421200Y-32207000D01*
G75*
G02*
X56470000Y-32255800I0J-48800D01*
G01*
X56470000Y-32768200D01*
G75*
G02*
X56421200Y-32817000I-48800J0D01*
G01*
X55338800Y-32817000D01*
G75*
G02*
X55290000Y-32768200I0J48800D01*
G01*
G37*
G36*
G01*
X55290000Y-30938200D02*
X55290000Y-30425800D01*
G75*
G02*
X55338800Y-30377000I48800J0D01*
G01*
X56421200Y-30377000D01*
G75*
G02*
X56470000Y-30425800I0J-48800D01*
G01*
X56470000Y-30938200D01*
G75*
G02*
X56421200Y-30987000I-48800J0D01*
G01*
X55338800Y-30987000D01*
G75*
G02*
X55290000Y-30938200I0J48800D01*
G01*
G37*
%TD*%
D10*
%TO.C,D1*%
X73660000Y-48022000D03*
X74610000Y-50022000D03*
X72710000Y-50022000D03*
%TD*%
M02*
