%FSLAX45Y45*%
G04 Gerber Fmt 4.5, Leading zero omitted, Abs format (unit mm)*
G04 Created by KiCad (PCBNEW (5.1.9)-1) date 2022-01-22 22:11:41*
%MOMM*%
%LPD*%
G01*
G04 APERTURE LIST*
%TA.AperFunction,Profile*%
%ADD10C,0.100000*%
%TD*%
%ADD11C,0.200000*%
%ADD12C,0.300000*%
G04 APERTURE END LIST*
D10*
X10820400Y-2184400D02*
X10820400Y-8661400D01*
X2209800Y-2184400D02*
X10820400Y-2184400D01*
X2209800Y-8661400D02*
X2209800Y-2184400D01*
X10820400Y-8661400D02*
X2209800Y-8661400D01*
D11*
X3364800Y-5155000D02*
X3404800Y-5195000D01*
X3404800Y-5155000D02*
X3364800Y-5195000D01*
X3536000Y-6825300D02*
X3576000Y-6865300D01*
X3576000Y-6825300D02*
X3536000Y-6865300D01*
X3554800Y-5155000D02*
X3594800Y-5195000D01*
X3594800Y-5155000D02*
X3554800Y-5195000D01*
X3917000Y-4856800D02*
X3957000Y-4896800D01*
X3957000Y-4856800D02*
X3917000Y-4896800D01*
X3980500Y-7574600D02*
X4020500Y-7614600D01*
X4020500Y-7574600D02*
X3980500Y-7614600D01*
X4042400Y-5287000D02*
X4082400Y-5327000D01*
X4082400Y-5287000D02*
X4042400Y-5327000D01*
X4044000Y-6215700D02*
X4084000Y-6255700D01*
X4084000Y-6215700D02*
X4044000Y-6255700D01*
X4044000Y-7104700D02*
X4084000Y-7144700D01*
X4084000Y-7104700D02*
X4044000Y-7144700D01*
X4056700Y-6368100D02*
X4096700Y-6408100D01*
X4096700Y-6368100D02*
X4056700Y-6408100D01*
X4085800Y-6749100D02*
X4125800Y-6789100D01*
X4125800Y-6749100D02*
X4085800Y-6789100D01*
X4145600Y-4602800D02*
X4185600Y-4642800D01*
X4185600Y-4602800D02*
X4145600Y-4642800D01*
X4158300Y-5339400D02*
X4198300Y-5379400D01*
X4198300Y-5339400D02*
X4158300Y-5379400D01*
X4247200Y-5212400D02*
X4287200Y-5252400D01*
X4287200Y-5212400D02*
X4247200Y-5252400D01*
X4247200Y-6977700D02*
X4287200Y-7017700D01*
X4287200Y-6977700D02*
X4247200Y-7017700D01*
X4336100Y-4996500D02*
X4376100Y-5036500D01*
X4376100Y-4996500D02*
X4336100Y-5036500D01*
X4336100Y-6342700D02*
X4376100Y-6382700D01*
X4376100Y-6342700D02*
X4336100Y-6382700D01*
X4412300Y-5199700D02*
X4452300Y-5239700D01*
X4452300Y-5199700D02*
X4412300Y-5239700D01*
X4412300Y-6076000D02*
X4452300Y-6116000D01*
X4452300Y-6076000D02*
X4412300Y-6116000D01*
X4412300Y-6203000D02*
X4452300Y-6243000D01*
X4452300Y-6203000D02*
X4412300Y-6243000D01*
X4418650Y-3491550D02*
X4458650Y-3531550D01*
X4458650Y-3491550D02*
X4418650Y-3531550D01*
X4425000Y-7727000D02*
X4465000Y-7767000D01*
X4465000Y-7727000D02*
X4425000Y-7767000D01*
X4513900Y-5656900D02*
X4553900Y-5696900D01*
X4553900Y-5656900D02*
X4513900Y-5696900D01*
X4513900Y-5974400D02*
X4553900Y-6014400D01*
X4553900Y-5974400D02*
X4513900Y-6014400D01*
X4564700Y-6520500D02*
X4604700Y-6560500D01*
X4604700Y-6520500D02*
X4564700Y-6560500D01*
X4564700Y-7561900D02*
X4604700Y-7601900D01*
X4604700Y-7561900D02*
X4564700Y-7601900D01*
X4615500Y-4869500D02*
X4655500Y-4909500D01*
X4655500Y-4869500D02*
X4615500Y-4909500D01*
X4628200Y-4602800D02*
X4668200Y-4642800D01*
X4668200Y-4602800D02*
X4628200Y-4642800D01*
X5263200Y-3231200D02*
X5303200Y-3271200D01*
X5303200Y-3231200D02*
X5263200Y-3271200D01*
X5822000Y-3675700D02*
X5862000Y-3715700D01*
X5862000Y-3675700D02*
X5822000Y-3715700D01*
X6037900Y-6952300D02*
X6077900Y-6992300D01*
X6077900Y-6952300D02*
X6037900Y-6992300D01*
X6050600Y-7930200D02*
X6090600Y-7970200D01*
X6090600Y-7930200D02*
X6050600Y-7970200D01*
X6228400Y-4018600D02*
X6268400Y-4058600D01*
X6268400Y-4018600D02*
X6228400Y-4058600D01*
X6380800Y-6253800D02*
X6420800Y-6293800D01*
X6420800Y-6253800D02*
X6380800Y-6293800D01*
X6711000Y-3866200D02*
X6751000Y-3906200D01*
X6751000Y-3866200D02*
X6711000Y-3906200D01*
X6711000Y-4755200D02*
X6751000Y-4795200D01*
X6751000Y-4755200D02*
X6711000Y-4795200D01*
X6838000Y-5339400D02*
X6878000Y-5379400D01*
X6878000Y-5339400D02*
X6838000Y-5379400D01*
X6914200Y-4298000D02*
X6954200Y-4338000D01*
X6954200Y-4298000D02*
X6914200Y-4338000D01*
X7117400Y-4044000D02*
X7157400Y-4084000D01*
X7157400Y-4044000D02*
X7117400Y-4084000D01*
X7358700Y-6279200D02*
X7398700Y-6319200D01*
X7398700Y-6279200D02*
X7358700Y-6319200D01*
X7498400Y-3155000D02*
X7538400Y-3195000D01*
X7538400Y-3155000D02*
X7498400Y-3195000D01*
X7650800Y-5339400D02*
X7690800Y-5379400D01*
X7690800Y-5339400D02*
X7650800Y-5379400D01*
X7752400Y-3586800D02*
X7792400Y-3626800D01*
X7792400Y-3586800D02*
X7752400Y-3626800D01*
X7993700Y-3332800D02*
X8033700Y-3372800D01*
X8033700Y-3332800D02*
X7993700Y-3372800D01*
X5091900Y-2438400D02*
G75*
G03*
X5091900Y-2438400I-50000J0D01*
G01*
X5345900Y-2438400D02*
G75*
G03*
X5345900Y-2438400I-50000J0D01*
G01*
X5599900Y-2438400D02*
G75*
G03*
X5599900Y-2438400I-50000J0D01*
G01*
X5853900Y-2438400D02*
G75*
G03*
X5853900Y-2438400I-50000J0D01*
G01*
X6107900Y-2438400D02*
G75*
G03*
X6107900Y-2438400I-50000J0D01*
G01*
X6222200Y-3149600D02*
G75*
G03*
X6222200Y-3149600I-50000J0D01*
G01*
X6361900Y-2438400D02*
G75*
G03*
X6361900Y-2438400I-50000J0D01*
G01*
X6476200Y-3149600D02*
G75*
G03*
X6476200Y-3149600I-50000J0D01*
G01*
X6730200Y-3149600D02*
G75*
G03*
X6730200Y-3149600I-50000J0D01*
G01*
X6984200Y-3149600D02*
G75*
G03*
X6984200Y-3149600I-50000J0D01*
G01*
X7060400Y-8013700D02*
G75*
G03*
X7060400Y-8013700I-50000J0D01*
G01*
X7314400Y-8013700D02*
G75*
G03*
X7314400Y-8013700I-50000J0D01*
G01*
X7568400Y-8013700D02*
G75*
G03*
X7568400Y-8013700I-50000J0D01*
G01*
X7822400Y-8013700D02*
G75*
G03*
X7822400Y-8013700I-50000J0D01*
G01*
X8457400Y-2895600D02*
G75*
G03*
X8457400Y-2895600I-50000J0D01*
G01*
X8711400Y-2895600D02*
G75*
G03*
X8711400Y-2895600I-50000J0D01*
G01*
X8965400Y-2895600D02*
G75*
G03*
X8965400Y-2895600I-50000J0D01*
G01*
X9727400Y-2895600D02*
G75*
G03*
X9727400Y-2895600I-50000J0D01*
G01*
X9981400Y-2895600D02*
G75*
G03*
X9981400Y-2895600I-50000J0D01*
G01*
X10235400Y-2895600D02*
G75*
G03*
X10235400Y-2895600I-50000J0D01*
G01*
X3059000Y-2986800D02*
X3059000Y-3088800D01*
X3008000Y-3037800D02*
X3110000Y-3037800D01*
X3059000Y-3240800D02*
X3059000Y-3342800D01*
X3008000Y-3291800D02*
X3110000Y-3291800D01*
X3059000Y-3494800D02*
X3059000Y-3596800D01*
X3008000Y-3545800D02*
X3110000Y-3545800D01*
X3059000Y-3748800D02*
X3059000Y-3850800D01*
X3008000Y-3799800D02*
X3110000Y-3799800D01*
X3059000Y-4002800D02*
X3059000Y-4104800D01*
X3008000Y-4053800D02*
X3110000Y-4053800D01*
X3059000Y-4256800D02*
X3059000Y-4358800D01*
X3008000Y-4307800D02*
X3110000Y-4307800D01*
X3059000Y-4510800D02*
X3059000Y-4612800D01*
X3008000Y-4561800D02*
X3110000Y-4561800D01*
X3059000Y-4764800D02*
X3059000Y-4866800D01*
X3008000Y-4815800D02*
X3110000Y-4815800D01*
X3059000Y-5018800D02*
X3059000Y-5120800D01*
X3008000Y-5069800D02*
X3110000Y-5069800D01*
X3059000Y-5272800D02*
X3059000Y-5374800D01*
X3008000Y-5323800D02*
X3110000Y-5323800D01*
X3059000Y-5526800D02*
X3059000Y-5628800D01*
X3008000Y-5577800D02*
X3110000Y-5577800D01*
X3059000Y-5780800D02*
X3059000Y-5882800D01*
X3008000Y-5831800D02*
X3110000Y-5831800D01*
X3059000Y-6034800D02*
X3059000Y-6136800D01*
X3008000Y-6085800D02*
X3110000Y-6085800D01*
X3059000Y-6288800D02*
X3059000Y-6390800D01*
X3008000Y-6339800D02*
X3110000Y-6339800D01*
X3059000Y-6542800D02*
X3059000Y-6644800D01*
X3008000Y-6593800D02*
X3110000Y-6593800D01*
X3059000Y-6796800D02*
X3059000Y-6898800D01*
X3008000Y-6847800D02*
X3110000Y-6847800D01*
X3059000Y-7050800D02*
X3059000Y-7152800D01*
X3008000Y-7101800D02*
X3110000Y-7101800D01*
X3059000Y-7304800D02*
X3059000Y-7406800D01*
X3008000Y-7355800D02*
X3110000Y-7355800D01*
X3059000Y-7558800D02*
X3059000Y-7660800D01*
X3008000Y-7609800D02*
X3110000Y-7609800D01*
X3059000Y-7812800D02*
X3059000Y-7914800D01*
X3008000Y-7863800D02*
X3110000Y-7863800D01*
X3694000Y-7789800D02*
X3694000Y-7891800D01*
X3643000Y-7840800D02*
X3745000Y-7840800D01*
X3948000Y-7789800D02*
X3948000Y-7891800D01*
X3897000Y-7840800D02*
X3999000Y-7840800D01*
X4202000Y-7789800D02*
X4202000Y-7891800D01*
X4151000Y-7840800D02*
X4253000Y-7840800D01*
X4837000Y-2986800D02*
X4837000Y-3088800D01*
X4786000Y-3037800D02*
X4888000Y-3037800D01*
X4837000Y-3240800D02*
X4837000Y-3342800D01*
X4786000Y-3291800D02*
X4888000Y-3291800D01*
X4837000Y-3494800D02*
X4837000Y-3596800D01*
X4786000Y-3545800D02*
X4888000Y-3545800D01*
X4837000Y-3748800D02*
X4837000Y-3850800D01*
X4786000Y-3799800D02*
X4888000Y-3799800D01*
X4837000Y-4002800D02*
X4837000Y-4104800D01*
X4786000Y-4053800D02*
X4888000Y-4053800D01*
X4837000Y-4256800D02*
X4837000Y-4358800D01*
X4786000Y-4307800D02*
X4888000Y-4307800D01*
X4837000Y-4510800D02*
X4837000Y-4612800D01*
X4786000Y-4561800D02*
X4888000Y-4561800D01*
X4837000Y-4764800D02*
X4837000Y-4866800D01*
X4786000Y-4815800D02*
X4888000Y-4815800D01*
X4837000Y-5018800D02*
X4837000Y-5120800D01*
X4786000Y-5069800D02*
X4888000Y-5069800D01*
X4837000Y-5272800D02*
X4837000Y-5374800D01*
X4786000Y-5323800D02*
X4888000Y-5323800D01*
X4837000Y-5526800D02*
X4837000Y-5628800D01*
X4786000Y-5577800D02*
X4888000Y-5577800D01*
X4837000Y-5780800D02*
X4837000Y-5882800D01*
X4786000Y-5831800D02*
X4888000Y-5831800D01*
X4837000Y-6034800D02*
X4837000Y-6136800D01*
X4786000Y-6085800D02*
X4888000Y-6085800D01*
X4837000Y-6288800D02*
X4837000Y-6390800D01*
X4786000Y-6339800D02*
X4888000Y-6339800D01*
X4837000Y-6542800D02*
X4837000Y-6644800D01*
X4786000Y-6593800D02*
X4888000Y-6593800D01*
X4837000Y-6796800D02*
X4837000Y-6898800D01*
X4786000Y-6847800D02*
X4888000Y-6847800D01*
X4837000Y-7050800D02*
X4837000Y-7152800D01*
X4786000Y-7101800D02*
X4888000Y-7101800D01*
X4837000Y-7304800D02*
X4837000Y-7406800D01*
X4786000Y-7355800D02*
X4888000Y-7355800D01*
X4837000Y-7558800D02*
X4837000Y-7660800D01*
X4786000Y-7609800D02*
X4888000Y-7609800D01*
X4837000Y-7812800D02*
X4837000Y-7914800D01*
X4786000Y-7863800D02*
X4888000Y-7863800D01*
X8179527Y-4342027D02*
X8179527Y-4257173D01*
X8094673Y-4257173D01*
X8094673Y-4342027D01*
X8179527Y-4342027D01*
X8179527Y-5358027D02*
X8179527Y-5273173D01*
X8094673Y-5273173D01*
X8094673Y-5358027D01*
X8179527Y-5358027D01*
X8179527Y-6628027D02*
X8179527Y-6543173D01*
X8094673Y-6543173D01*
X8094673Y-6628027D01*
X8179527Y-6628027D01*
X8179527Y-7136027D02*
X8179527Y-7051173D01*
X8094673Y-7051173D01*
X8094673Y-7136027D01*
X8179527Y-7136027D01*
X9956800Y-3850600D02*
X10022800Y-3784600D01*
X9956800Y-3718600D01*
X9890800Y-3784600D01*
X9956800Y-3850600D01*
X9956800Y-4350600D02*
X10022800Y-4284600D01*
X9956800Y-4218600D01*
X9890800Y-4284600D01*
X9956800Y-4350600D01*
X9956800Y-4850600D02*
X10022800Y-4784600D01*
X9956800Y-4718600D01*
X9890800Y-4784600D01*
X9956800Y-4850600D01*
X9956800Y-5882600D02*
X10022800Y-5816600D01*
X9956800Y-5750600D01*
X9890800Y-5816600D01*
X9956800Y-5882600D01*
X9956800Y-6382600D02*
X10022800Y-6316600D01*
X9956800Y-6250600D01*
X9890800Y-6316600D01*
X9956800Y-6382600D01*
X9956800Y-7152600D02*
X10022800Y-7086600D01*
X9956800Y-7020600D01*
X9890800Y-7086600D01*
X9956800Y-7152600D01*
X9956800Y-7652600D02*
X10022800Y-7586600D01*
X9956800Y-7520600D01*
X9890800Y-7586600D01*
X9956800Y-7652600D01*
D12*
X2491228Y-9132114D02*
X2491228Y-8832114D01*
X2562657Y-8832114D01*
X2605514Y-8846400D01*
X2634086Y-8874972D01*
X2648371Y-8903543D01*
X2662657Y-8960686D01*
X2662657Y-9003543D01*
X2648371Y-9060686D01*
X2634086Y-9089257D01*
X2605514Y-9117829D01*
X2562657Y-9132114D01*
X2491228Y-9132114D01*
X2791228Y-9132114D02*
X2791228Y-8932114D01*
X2791228Y-8989257D02*
X2805514Y-8960686D01*
X2819800Y-8946400D01*
X2848371Y-8932114D01*
X2876943Y-8932114D01*
X2976943Y-9132114D02*
X2976943Y-8932114D01*
X2976943Y-8832114D02*
X2962657Y-8846400D01*
X2976943Y-8860686D01*
X2991228Y-8846400D01*
X2976943Y-8832114D01*
X2976943Y-8860686D01*
X3162657Y-9132114D02*
X3134086Y-9117829D01*
X3119800Y-9089257D01*
X3119800Y-8832114D01*
X3319800Y-9132114D02*
X3291228Y-9117829D01*
X3276943Y-9089257D01*
X3276943Y-8832114D01*
X3662657Y-9132114D02*
X3662657Y-8832114D01*
X3762657Y-9046400D01*
X3862657Y-8832114D01*
X3862657Y-9132114D01*
X4134086Y-9132114D02*
X4134086Y-8974972D01*
X4119800Y-8946400D01*
X4091228Y-8932114D01*
X4034086Y-8932114D01*
X4005514Y-8946400D01*
X4134086Y-9117829D02*
X4105514Y-9132114D01*
X4034086Y-9132114D01*
X4005514Y-9117829D01*
X3991228Y-9089257D01*
X3991228Y-9060686D01*
X4005514Y-9032114D01*
X4034086Y-9017829D01*
X4105514Y-9017829D01*
X4134086Y-9003543D01*
X4276943Y-8932114D02*
X4276943Y-9232114D01*
X4276943Y-8946400D02*
X4305514Y-8932114D01*
X4362657Y-8932114D01*
X4391228Y-8946400D01*
X4405514Y-8960686D01*
X4419800Y-8989257D01*
X4419800Y-9074972D01*
X4405514Y-9103543D01*
X4391228Y-9117829D01*
X4362657Y-9132114D01*
X4305514Y-9132114D01*
X4276943Y-9117829D01*
X4548371Y-9103543D02*
X4562657Y-9117829D01*
X4548371Y-9132114D01*
X4534086Y-9117829D01*
X4548371Y-9103543D01*
X4548371Y-9132114D01*
X4548371Y-8946400D02*
X4562657Y-8960686D01*
X4548371Y-8974972D01*
X4534086Y-8960686D01*
X4548371Y-8946400D01*
X4548371Y-8974972D01*
X2164800Y-9606400D02*
X2204800Y-9646400D01*
X2204800Y-9606400D02*
X2164800Y-9646400D01*
X2548371Y-9462114D02*
X2576943Y-9462114D01*
X2605514Y-9476400D01*
X2619800Y-9490686D01*
X2634086Y-9519257D01*
X2648371Y-9576400D01*
X2648371Y-9647829D01*
X2634086Y-9704972D01*
X2619800Y-9733543D01*
X2605514Y-9747829D01*
X2576943Y-9762114D01*
X2548371Y-9762114D01*
X2519800Y-9747829D01*
X2505514Y-9733543D01*
X2491228Y-9704972D01*
X2476943Y-9647829D01*
X2476943Y-9576400D01*
X2491228Y-9519257D01*
X2505514Y-9490686D01*
X2519800Y-9476400D01*
X2548371Y-9462114D01*
X2776943Y-9733543D02*
X2791228Y-9747829D01*
X2776943Y-9762114D01*
X2762657Y-9747829D01*
X2776943Y-9733543D01*
X2776943Y-9762114D01*
X3048371Y-9562114D02*
X3048371Y-9762114D01*
X2976943Y-9447829D02*
X2905514Y-9662114D01*
X3091228Y-9662114D01*
X3262657Y-9462114D02*
X3291228Y-9462114D01*
X3319800Y-9476400D01*
X3334086Y-9490686D01*
X3348371Y-9519257D01*
X3362657Y-9576400D01*
X3362657Y-9647829D01*
X3348371Y-9704972D01*
X3334086Y-9733543D01*
X3319800Y-9747829D01*
X3291228Y-9762114D01*
X3262657Y-9762114D01*
X3234086Y-9747829D01*
X3219800Y-9733543D01*
X3205514Y-9704972D01*
X3191228Y-9647829D01*
X3191228Y-9576400D01*
X3205514Y-9519257D01*
X3219800Y-9490686D01*
X3234086Y-9476400D01*
X3262657Y-9462114D01*
X3491228Y-9762114D02*
X3491228Y-9562114D01*
X3491228Y-9590686D02*
X3505514Y-9576400D01*
X3534086Y-9562114D01*
X3576943Y-9562114D01*
X3605514Y-9576400D01*
X3619800Y-9604972D01*
X3619800Y-9762114D01*
X3619800Y-9604972D02*
X3634086Y-9576400D01*
X3662657Y-9562114D01*
X3705514Y-9562114D01*
X3734086Y-9576400D01*
X3748371Y-9604972D01*
X3748371Y-9762114D01*
X3891228Y-9762114D02*
X3891228Y-9562114D01*
X3891228Y-9590686D02*
X3905514Y-9576400D01*
X3934086Y-9562114D01*
X3976943Y-9562114D01*
X4005514Y-9576400D01*
X4019800Y-9604972D01*
X4019800Y-9762114D01*
X4019800Y-9604972D02*
X4034086Y-9576400D01*
X4062657Y-9562114D01*
X4105514Y-9562114D01*
X4134086Y-9576400D01*
X4148371Y-9604972D01*
X4148371Y-9762114D01*
X4734086Y-9447829D02*
X4476943Y-9833543D01*
X5119800Y-9462114D02*
X5148371Y-9462114D01*
X5176943Y-9476400D01*
X5191228Y-9490686D01*
X5205514Y-9519257D01*
X5219800Y-9576400D01*
X5219800Y-9647829D01*
X5205514Y-9704972D01*
X5191228Y-9733543D01*
X5176943Y-9747829D01*
X5148371Y-9762114D01*
X5119800Y-9762114D01*
X5091228Y-9747829D01*
X5076943Y-9733543D01*
X5062657Y-9704972D01*
X5048371Y-9647829D01*
X5048371Y-9576400D01*
X5062657Y-9519257D01*
X5076943Y-9490686D01*
X5091228Y-9476400D01*
X5119800Y-9462114D01*
X5348371Y-9733543D02*
X5362657Y-9747829D01*
X5348371Y-9762114D01*
X5334086Y-9747829D01*
X5348371Y-9733543D01*
X5348371Y-9762114D01*
X5548371Y-9462114D02*
X5576943Y-9462114D01*
X5605514Y-9476400D01*
X5619800Y-9490686D01*
X5634086Y-9519257D01*
X5648371Y-9576400D01*
X5648371Y-9647829D01*
X5634086Y-9704972D01*
X5619800Y-9733543D01*
X5605514Y-9747829D01*
X5576943Y-9762114D01*
X5548371Y-9762114D01*
X5519800Y-9747829D01*
X5505514Y-9733543D01*
X5491228Y-9704972D01*
X5476943Y-9647829D01*
X5476943Y-9576400D01*
X5491228Y-9519257D01*
X5505514Y-9490686D01*
X5519800Y-9476400D01*
X5548371Y-9462114D01*
X5934086Y-9762114D02*
X5762657Y-9762114D01*
X5848371Y-9762114D02*
X5848371Y-9462114D01*
X5819800Y-9504972D01*
X5791228Y-9533543D01*
X5762657Y-9547829D01*
X6191228Y-9462114D02*
X6134086Y-9462114D01*
X6105514Y-9476400D01*
X6091228Y-9490686D01*
X6062657Y-9533543D01*
X6048371Y-9590686D01*
X6048371Y-9704972D01*
X6062657Y-9733543D01*
X6076943Y-9747829D01*
X6105514Y-9762114D01*
X6162657Y-9762114D01*
X6191228Y-9747829D01*
X6205514Y-9733543D01*
X6219800Y-9704972D01*
X6219800Y-9633543D01*
X6205514Y-9604972D01*
X6191228Y-9590686D01*
X6162657Y-9576400D01*
X6105514Y-9576400D01*
X6076943Y-9590686D01*
X6062657Y-9604972D01*
X6048371Y-9633543D01*
X6334086Y-9462114D02*
X6334086Y-9519257D01*
X6448371Y-9462114D02*
X6448371Y-9519257D01*
X6891228Y-9876400D02*
X6876943Y-9862114D01*
X6848371Y-9819257D01*
X6834086Y-9790686D01*
X6819800Y-9747829D01*
X6805514Y-9676400D01*
X6805514Y-9619257D01*
X6819800Y-9547829D01*
X6834086Y-9504972D01*
X6848371Y-9476400D01*
X6876943Y-9433543D01*
X6891228Y-9419257D01*
X7134086Y-9562114D02*
X7134086Y-9762114D01*
X7062657Y-9447829D02*
X6991228Y-9662114D01*
X7176943Y-9662114D01*
X7262657Y-9462114D02*
X7448371Y-9462114D01*
X7348371Y-9576400D01*
X7391228Y-9576400D01*
X7419800Y-9590686D01*
X7434086Y-9604972D01*
X7448371Y-9633543D01*
X7448371Y-9704972D01*
X7434086Y-9733543D01*
X7419800Y-9747829D01*
X7391228Y-9762114D01*
X7305514Y-9762114D01*
X7276943Y-9747829D01*
X7262657Y-9733543D01*
X7805514Y-9762114D02*
X7805514Y-9462114D01*
X7934086Y-9762114D02*
X7934086Y-9604972D01*
X7919800Y-9576400D01*
X7891228Y-9562114D01*
X7848371Y-9562114D01*
X7819800Y-9576400D01*
X7805514Y-9590686D01*
X8119800Y-9762114D02*
X8091228Y-9747829D01*
X8076943Y-9733543D01*
X8062657Y-9704972D01*
X8062657Y-9619257D01*
X8076943Y-9590686D01*
X8091228Y-9576400D01*
X8119800Y-9562114D01*
X8162657Y-9562114D01*
X8191228Y-9576400D01*
X8205514Y-9590686D01*
X8219800Y-9619257D01*
X8219800Y-9704972D01*
X8205514Y-9733543D01*
X8191228Y-9747829D01*
X8162657Y-9762114D01*
X8119800Y-9762114D01*
X8391228Y-9762114D02*
X8362657Y-9747829D01*
X8348371Y-9719257D01*
X8348371Y-9462114D01*
X8619800Y-9747829D02*
X8591228Y-9762114D01*
X8534086Y-9762114D01*
X8505514Y-9747829D01*
X8491228Y-9719257D01*
X8491228Y-9604972D01*
X8505514Y-9576400D01*
X8534086Y-9562114D01*
X8591228Y-9562114D01*
X8619800Y-9576400D01*
X8634086Y-9604972D01*
X8634086Y-9633543D01*
X8491228Y-9662114D01*
X8748371Y-9747829D02*
X8776943Y-9762114D01*
X8834086Y-9762114D01*
X8862657Y-9747829D01*
X8876943Y-9719257D01*
X8876943Y-9704972D01*
X8862657Y-9676400D01*
X8834086Y-9662114D01*
X8791228Y-9662114D01*
X8762657Y-9647829D01*
X8748371Y-9619257D01*
X8748371Y-9604972D01*
X8762657Y-9576400D01*
X8791228Y-9562114D01*
X8834086Y-9562114D01*
X8862657Y-9576400D01*
X8976943Y-9876400D02*
X8991228Y-9862114D01*
X9019800Y-9819257D01*
X9034086Y-9790686D01*
X9048371Y-9747829D01*
X9062657Y-9676400D01*
X9062657Y-9619257D01*
X9048371Y-9547829D01*
X9034086Y-9504972D01*
X9019800Y-9476400D01*
X8991228Y-9433543D01*
X8976943Y-9419257D01*
X2204800Y-10022400D02*
G75*
G03*
X2204800Y-10022400I-50000J0D01*
G01*
X2648371Y-10158114D02*
X2476943Y-10158114D01*
X2562657Y-10158114D02*
X2562657Y-9858114D01*
X2534086Y-9900972D01*
X2505514Y-9929543D01*
X2476943Y-9943829D01*
X2776943Y-10129543D02*
X2791228Y-10143829D01*
X2776943Y-10158114D01*
X2762657Y-10143829D01*
X2776943Y-10129543D01*
X2776943Y-10158114D01*
X2976943Y-9858114D02*
X3005514Y-9858114D01*
X3034086Y-9872400D01*
X3048371Y-9886686D01*
X3062657Y-9915257D01*
X3076943Y-9972400D01*
X3076943Y-10043829D01*
X3062657Y-10100972D01*
X3048371Y-10129543D01*
X3034086Y-10143829D01*
X3005514Y-10158114D01*
X2976943Y-10158114D01*
X2948371Y-10143829D01*
X2934086Y-10129543D01*
X2919800Y-10100972D01*
X2905514Y-10043829D01*
X2905514Y-9972400D01*
X2919800Y-9915257D01*
X2934086Y-9886686D01*
X2948371Y-9872400D01*
X2976943Y-9858114D01*
X3262657Y-9858114D02*
X3291228Y-9858114D01*
X3319800Y-9872400D01*
X3334086Y-9886686D01*
X3348371Y-9915257D01*
X3362657Y-9972400D01*
X3362657Y-10043829D01*
X3348371Y-10100972D01*
X3334086Y-10129543D01*
X3319800Y-10143829D01*
X3291228Y-10158114D01*
X3262657Y-10158114D01*
X3234086Y-10143829D01*
X3219800Y-10129543D01*
X3205514Y-10100972D01*
X3191228Y-10043829D01*
X3191228Y-9972400D01*
X3205514Y-9915257D01*
X3219800Y-9886686D01*
X3234086Y-9872400D01*
X3262657Y-9858114D01*
X3491228Y-10158114D02*
X3491228Y-9958114D01*
X3491228Y-9986686D02*
X3505514Y-9972400D01*
X3534086Y-9958114D01*
X3576943Y-9958114D01*
X3605514Y-9972400D01*
X3619800Y-10000972D01*
X3619800Y-10158114D01*
X3619800Y-10000972D02*
X3634086Y-9972400D01*
X3662657Y-9958114D01*
X3705514Y-9958114D01*
X3734086Y-9972400D01*
X3748371Y-10000972D01*
X3748371Y-10158114D01*
X3891228Y-10158114D02*
X3891228Y-9958114D01*
X3891228Y-9986686D02*
X3905514Y-9972400D01*
X3934086Y-9958114D01*
X3976943Y-9958114D01*
X4005514Y-9972400D01*
X4019800Y-10000972D01*
X4019800Y-10158114D01*
X4019800Y-10000972D02*
X4034086Y-9972400D01*
X4062657Y-9958114D01*
X4105514Y-9958114D01*
X4134086Y-9972400D01*
X4148371Y-10000972D01*
X4148371Y-10158114D01*
X4734086Y-9843829D02*
X4476943Y-10229543D01*
X5119800Y-9858114D02*
X5148371Y-9858114D01*
X5176943Y-9872400D01*
X5191228Y-9886686D01*
X5205514Y-9915257D01*
X5219800Y-9972400D01*
X5219800Y-10043829D01*
X5205514Y-10100972D01*
X5191228Y-10129543D01*
X5176943Y-10143829D01*
X5148371Y-10158114D01*
X5119800Y-10158114D01*
X5091228Y-10143829D01*
X5076943Y-10129543D01*
X5062657Y-10100972D01*
X5048371Y-10043829D01*
X5048371Y-9972400D01*
X5062657Y-9915257D01*
X5076943Y-9886686D01*
X5091228Y-9872400D01*
X5119800Y-9858114D01*
X5348371Y-10129543D02*
X5362657Y-10143829D01*
X5348371Y-10158114D01*
X5334086Y-10143829D01*
X5348371Y-10129543D01*
X5348371Y-10158114D01*
X5548371Y-9858114D02*
X5576943Y-9858114D01*
X5605514Y-9872400D01*
X5619800Y-9886686D01*
X5634086Y-9915257D01*
X5648371Y-9972400D01*
X5648371Y-10043829D01*
X5634086Y-10100972D01*
X5619800Y-10129543D01*
X5605514Y-10143829D01*
X5576943Y-10158114D01*
X5548371Y-10158114D01*
X5519800Y-10143829D01*
X5505514Y-10129543D01*
X5491228Y-10100972D01*
X5476943Y-10043829D01*
X5476943Y-9972400D01*
X5491228Y-9915257D01*
X5505514Y-9886686D01*
X5519800Y-9872400D01*
X5548371Y-9858114D01*
X5748371Y-9858114D02*
X5934086Y-9858114D01*
X5834086Y-9972400D01*
X5876943Y-9972400D01*
X5905514Y-9986686D01*
X5919800Y-10000972D01*
X5934086Y-10029543D01*
X5934086Y-10100972D01*
X5919800Y-10129543D01*
X5905514Y-10143829D01*
X5876943Y-10158114D01*
X5791228Y-10158114D01*
X5762657Y-10143829D01*
X5748371Y-10129543D01*
X6076943Y-10158114D02*
X6134086Y-10158114D01*
X6162657Y-10143829D01*
X6176943Y-10129543D01*
X6205514Y-10086686D01*
X6219800Y-10029543D01*
X6219800Y-9915257D01*
X6205514Y-9886686D01*
X6191228Y-9872400D01*
X6162657Y-9858114D01*
X6105514Y-9858114D01*
X6076943Y-9872400D01*
X6062657Y-9886686D01*
X6048371Y-9915257D01*
X6048371Y-9986686D01*
X6062657Y-10015257D01*
X6076943Y-10029543D01*
X6105514Y-10043829D01*
X6162657Y-10043829D01*
X6191228Y-10029543D01*
X6205514Y-10015257D01*
X6219800Y-9986686D01*
X6334086Y-9858114D02*
X6334086Y-9915257D01*
X6448371Y-9858114D02*
X6448371Y-9915257D01*
X6891228Y-10272400D02*
X6876943Y-10258114D01*
X6848371Y-10215257D01*
X6834086Y-10186686D01*
X6819800Y-10143829D01*
X6805514Y-10072400D01*
X6805514Y-10015257D01*
X6819800Y-9943829D01*
X6834086Y-9900972D01*
X6848371Y-9872400D01*
X6876943Y-9829543D01*
X6891228Y-9815257D01*
X6991228Y-9886686D02*
X7005514Y-9872400D01*
X7034086Y-9858114D01*
X7105514Y-9858114D01*
X7134086Y-9872400D01*
X7148371Y-9886686D01*
X7162657Y-9915257D01*
X7162657Y-9943829D01*
X7148371Y-9986686D01*
X6976943Y-10158114D01*
X7162657Y-10158114D01*
X7348371Y-9858114D02*
X7376943Y-9858114D01*
X7405514Y-9872400D01*
X7419800Y-9886686D01*
X7434086Y-9915257D01*
X7448371Y-9972400D01*
X7448371Y-10043829D01*
X7434086Y-10100972D01*
X7419800Y-10129543D01*
X7405514Y-10143829D01*
X7376943Y-10158114D01*
X7348371Y-10158114D01*
X7319800Y-10143829D01*
X7305514Y-10129543D01*
X7291228Y-10100972D01*
X7276943Y-10043829D01*
X7276943Y-9972400D01*
X7291228Y-9915257D01*
X7305514Y-9886686D01*
X7319800Y-9872400D01*
X7348371Y-9858114D01*
X7805514Y-10158114D02*
X7805514Y-9858114D01*
X7934086Y-10158114D02*
X7934086Y-10000972D01*
X7919800Y-9972400D01*
X7891228Y-9958114D01*
X7848371Y-9958114D01*
X7819800Y-9972400D01*
X7805514Y-9986686D01*
X8119800Y-10158114D02*
X8091228Y-10143829D01*
X8076943Y-10129543D01*
X8062657Y-10100972D01*
X8062657Y-10015257D01*
X8076943Y-9986686D01*
X8091228Y-9972400D01*
X8119800Y-9958114D01*
X8162657Y-9958114D01*
X8191228Y-9972400D01*
X8205514Y-9986686D01*
X8219800Y-10015257D01*
X8219800Y-10100972D01*
X8205514Y-10129543D01*
X8191228Y-10143829D01*
X8162657Y-10158114D01*
X8119800Y-10158114D01*
X8391228Y-10158114D02*
X8362657Y-10143829D01*
X8348371Y-10115257D01*
X8348371Y-9858114D01*
X8619800Y-10143829D02*
X8591228Y-10158114D01*
X8534086Y-10158114D01*
X8505514Y-10143829D01*
X8491228Y-10115257D01*
X8491228Y-10000972D01*
X8505514Y-9972400D01*
X8534086Y-9958114D01*
X8591228Y-9958114D01*
X8619800Y-9972400D01*
X8634086Y-10000972D01*
X8634086Y-10029543D01*
X8491228Y-10058114D01*
X8748371Y-10143829D02*
X8776943Y-10158114D01*
X8834086Y-10158114D01*
X8862657Y-10143829D01*
X8876943Y-10115257D01*
X8876943Y-10100972D01*
X8862657Y-10072400D01*
X8834086Y-10058114D01*
X8791228Y-10058114D01*
X8762657Y-10043829D01*
X8748371Y-10015257D01*
X8748371Y-10000972D01*
X8762657Y-9972400D01*
X8791228Y-9958114D01*
X8834086Y-9958114D01*
X8862657Y-9972400D01*
X8976943Y-10272400D02*
X8991228Y-10258114D01*
X9019800Y-10215257D01*
X9034086Y-10186686D01*
X9048371Y-10143829D01*
X9062657Y-10072400D01*
X9062657Y-10015257D01*
X9048371Y-9943829D01*
X9034086Y-9900972D01*
X9019800Y-9872400D01*
X8991228Y-9829543D01*
X8976943Y-9815257D01*
X2153800Y-10367400D02*
X2153800Y-10469400D01*
X2102800Y-10418400D02*
X2204800Y-10418400D01*
X2648371Y-10554114D02*
X2476943Y-10554114D01*
X2562657Y-10554114D02*
X2562657Y-10254114D01*
X2534086Y-10296972D01*
X2505514Y-10325543D01*
X2476943Y-10339829D01*
X2776943Y-10525543D02*
X2791228Y-10539829D01*
X2776943Y-10554114D01*
X2762657Y-10539829D01*
X2776943Y-10525543D01*
X2776943Y-10554114D01*
X2976943Y-10254114D02*
X3005514Y-10254114D01*
X3034086Y-10268400D01*
X3048371Y-10282686D01*
X3062657Y-10311257D01*
X3076943Y-10368400D01*
X3076943Y-10439829D01*
X3062657Y-10496972D01*
X3048371Y-10525543D01*
X3034086Y-10539829D01*
X3005514Y-10554114D01*
X2976943Y-10554114D01*
X2948371Y-10539829D01*
X2934086Y-10525543D01*
X2919800Y-10496972D01*
X2905514Y-10439829D01*
X2905514Y-10368400D01*
X2919800Y-10311257D01*
X2934086Y-10282686D01*
X2948371Y-10268400D01*
X2976943Y-10254114D01*
X3191228Y-10282686D02*
X3205514Y-10268400D01*
X3234086Y-10254114D01*
X3305514Y-10254114D01*
X3334086Y-10268400D01*
X3348371Y-10282686D01*
X3362657Y-10311257D01*
X3362657Y-10339829D01*
X3348371Y-10382686D01*
X3176943Y-10554114D01*
X3362657Y-10554114D01*
X3491228Y-10554114D02*
X3491228Y-10354114D01*
X3491228Y-10382686D02*
X3505514Y-10368400D01*
X3534086Y-10354114D01*
X3576943Y-10354114D01*
X3605514Y-10368400D01*
X3619800Y-10396972D01*
X3619800Y-10554114D01*
X3619800Y-10396972D02*
X3634086Y-10368400D01*
X3662657Y-10354114D01*
X3705514Y-10354114D01*
X3734086Y-10368400D01*
X3748371Y-10396972D01*
X3748371Y-10554114D01*
X3891228Y-10554114D02*
X3891228Y-10354114D01*
X3891228Y-10382686D02*
X3905514Y-10368400D01*
X3934086Y-10354114D01*
X3976943Y-10354114D01*
X4005514Y-10368400D01*
X4019800Y-10396972D01*
X4019800Y-10554114D01*
X4019800Y-10396972D02*
X4034086Y-10368400D01*
X4062657Y-10354114D01*
X4105514Y-10354114D01*
X4134086Y-10368400D01*
X4148371Y-10396972D01*
X4148371Y-10554114D01*
X4734086Y-10239829D02*
X4476943Y-10625543D01*
X5119800Y-10254114D02*
X5148371Y-10254114D01*
X5176943Y-10268400D01*
X5191228Y-10282686D01*
X5205514Y-10311257D01*
X5219800Y-10368400D01*
X5219800Y-10439829D01*
X5205514Y-10496972D01*
X5191228Y-10525543D01*
X5176943Y-10539829D01*
X5148371Y-10554114D01*
X5119800Y-10554114D01*
X5091228Y-10539829D01*
X5076943Y-10525543D01*
X5062657Y-10496972D01*
X5048371Y-10439829D01*
X5048371Y-10368400D01*
X5062657Y-10311257D01*
X5076943Y-10282686D01*
X5091228Y-10268400D01*
X5119800Y-10254114D01*
X5348371Y-10525543D02*
X5362657Y-10539829D01*
X5348371Y-10554114D01*
X5334086Y-10539829D01*
X5348371Y-10525543D01*
X5348371Y-10554114D01*
X5548371Y-10254114D02*
X5576943Y-10254114D01*
X5605514Y-10268400D01*
X5619800Y-10282686D01*
X5634086Y-10311257D01*
X5648371Y-10368400D01*
X5648371Y-10439829D01*
X5634086Y-10496972D01*
X5619800Y-10525543D01*
X5605514Y-10539829D01*
X5576943Y-10554114D01*
X5548371Y-10554114D01*
X5519800Y-10539829D01*
X5505514Y-10525543D01*
X5491228Y-10496972D01*
X5476943Y-10439829D01*
X5476943Y-10368400D01*
X5491228Y-10311257D01*
X5505514Y-10282686D01*
X5519800Y-10268400D01*
X5548371Y-10254114D01*
X5905514Y-10354114D02*
X5905514Y-10554114D01*
X5834086Y-10239829D02*
X5762657Y-10454114D01*
X5948371Y-10454114D01*
X6119800Y-10254114D02*
X6148371Y-10254114D01*
X6176943Y-10268400D01*
X6191228Y-10282686D01*
X6205514Y-10311257D01*
X6219800Y-10368400D01*
X6219800Y-10439829D01*
X6205514Y-10496972D01*
X6191228Y-10525543D01*
X6176943Y-10539829D01*
X6148371Y-10554114D01*
X6119800Y-10554114D01*
X6091228Y-10539829D01*
X6076943Y-10525543D01*
X6062657Y-10496972D01*
X6048371Y-10439829D01*
X6048371Y-10368400D01*
X6062657Y-10311257D01*
X6076943Y-10282686D01*
X6091228Y-10268400D01*
X6119800Y-10254114D01*
X6334086Y-10254114D02*
X6334086Y-10311257D01*
X6448371Y-10254114D02*
X6448371Y-10311257D01*
X6891228Y-10668400D02*
X6876943Y-10654114D01*
X6848371Y-10611257D01*
X6834086Y-10582686D01*
X6819800Y-10539829D01*
X6805514Y-10468400D01*
X6805514Y-10411257D01*
X6819800Y-10339829D01*
X6834086Y-10296972D01*
X6848371Y-10268400D01*
X6876943Y-10225543D01*
X6891228Y-10211257D01*
X7134086Y-10354114D02*
X7134086Y-10554114D01*
X7062657Y-10239829D02*
X6991228Y-10454114D01*
X7176943Y-10454114D01*
X7262657Y-10254114D02*
X7448371Y-10254114D01*
X7348371Y-10368400D01*
X7391228Y-10368400D01*
X7419800Y-10382686D01*
X7434086Y-10396972D01*
X7448371Y-10425543D01*
X7448371Y-10496972D01*
X7434086Y-10525543D01*
X7419800Y-10539829D01*
X7391228Y-10554114D01*
X7305514Y-10554114D01*
X7276943Y-10539829D01*
X7262657Y-10525543D01*
X7805514Y-10554114D02*
X7805514Y-10254114D01*
X7934086Y-10554114D02*
X7934086Y-10396972D01*
X7919800Y-10368400D01*
X7891228Y-10354114D01*
X7848371Y-10354114D01*
X7819800Y-10368400D01*
X7805514Y-10382686D01*
X8119800Y-10554114D02*
X8091228Y-10539829D01*
X8076943Y-10525543D01*
X8062657Y-10496972D01*
X8062657Y-10411257D01*
X8076943Y-10382686D01*
X8091228Y-10368400D01*
X8119800Y-10354114D01*
X8162657Y-10354114D01*
X8191228Y-10368400D01*
X8205514Y-10382686D01*
X8219800Y-10411257D01*
X8219800Y-10496972D01*
X8205514Y-10525543D01*
X8191228Y-10539829D01*
X8162657Y-10554114D01*
X8119800Y-10554114D01*
X8391228Y-10554114D02*
X8362657Y-10539829D01*
X8348371Y-10511257D01*
X8348371Y-10254114D01*
X8619800Y-10539829D02*
X8591228Y-10554114D01*
X8534086Y-10554114D01*
X8505514Y-10539829D01*
X8491228Y-10511257D01*
X8491228Y-10396972D01*
X8505514Y-10368400D01*
X8534086Y-10354114D01*
X8591228Y-10354114D01*
X8619800Y-10368400D01*
X8634086Y-10396972D01*
X8634086Y-10425543D01*
X8491228Y-10454114D01*
X8748371Y-10539829D02*
X8776943Y-10554114D01*
X8834086Y-10554114D01*
X8862657Y-10539829D01*
X8876943Y-10511257D01*
X8876943Y-10496972D01*
X8862657Y-10468400D01*
X8834086Y-10454114D01*
X8791228Y-10454114D01*
X8762657Y-10439829D01*
X8748371Y-10411257D01*
X8748371Y-10396972D01*
X8762657Y-10368400D01*
X8791228Y-10354114D01*
X8834086Y-10354114D01*
X8862657Y-10368400D01*
X8976943Y-10668400D02*
X8991228Y-10654114D01*
X9019800Y-10611257D01*
X9034086Y-10582686D01*
X9048371Y-10539829D01*
X9062657Y-10468400D01*
X9062657Y-10411257D01*
X9048371Y-10339829D01*
X9034086Y-10296972D01*
X9019800Y-10268400D01*
X8991228Y-10225543D01*
X8976943Y-10211257D01*
X2187227Y-10856827D02*
X2187227Y-10771973D01*
X2102373Y-10771973D01*
X2102373Y-10856827D01*
X2187227Y-10856827D01*
X2648371Y-10950114D02*
X2476943Y-10950114D01*
X2562657Y-10950114D02*
X2562657Y-10650114D01*
X2534086Y-10692972D01*
X2505514Y-10721543D01*
X2476943Y-10735829D01*
X2776943Y-10921543D02*
X2791228Y-10935829D01*
X2776943Y-10950114D01*
X2762657Y-10935829D01*
X2776943Y-10921543D01*
X2776943Y-10950114D01*
X2905514Y-10678686D02*
X2919800Y-10664400D01*
X2948371Y-10650114D01*
X3019800Y-10650114D01*
X3048371Y-10664400D01*
X3062657Y-10678686D01*
X3076943Y-10707257D01*
X3076943Y-10735829D01*
X3062657Y-10778686D01*
X2891228Y-10950114D01*
X3076943Y-10950114D01*
X3262657Y-10650114D02*
X3291228Y-10650114D01*
X3319800Y-10664400D01*
X3334086Y-10678686D01*
X3348371Y-10707257D01*
X3362657Y-10764400D01*
X3362657Y-10835829D01*
X3348371Y-10892972D01*
X3334086Y-10921543D01*
X3319800Y-10935829D01*
X3291228Y-10950114D01*
X3262657Y-10950114D01*
X3234086Y-10935829D01*
X3219800Y-10921543D01*
X3205514Y-10892972D01*
X3191228Y-10835829D01*
X3191228Y-10764400D01*
X3205514Y-10707257D01*
X3219800Y-10678686D01*
X3234086Y-10664400D01*
X3262657Y-10650114D01*
X3491228Y-10950114D02*
X3491228Y-10750114D01*
X3491228Y-10778686D02*
X3505514Y-10764400D01*
X3534086Y-10750114D01*
X3576943Y-10750114D01*
X3605514Y-10764400D01*
X3619800Y-10792972D01*
X3619800Y-10950114D01*
X3619800Y-10792972D02*
X3634086Y-10764400D01*
X3662657Y-10750114D01*
X3705514Y-10750114D01*
X3734086Y-10764400D01*
X3748371Y-10792972D01*
X3748371Y-10950114D01*
X3891228Y-10950114D02*
X3891228Y-10750114D01*
X3891228Y-10778686D02*
X3905514Y-10764400D01*
X3934086Y-10750114D01*
X3976943Y-10750114D01*
X4005514Y-10764400D01*
X4019800Y-10792972D01*
X4019800Y-10950114D01*
X4019800Y-10792972D02*
X4034086Y-10764400D01*
X4062657Y-10750114D01*
X4105514Y-10750114D01*
X4134086Y-10764400D01*
X4148371Y-10792972D01*
X4148371Y-10950114D01*
X4734086Y-10635829D02*
X4476943Y-11021543D01*
X5119800Y-10650114D02*
X5148371Y-10650114D01*
X5176943Y-10664400D01*
X5191228Y-10678686D01*
X5205514Y-10707257D01*
X5219800Y-10764400D01*
X5219800Y-10835829D01*
X5205514Y-10892972D01*
X5191228Y-10921543D01*
X5176943Y-10935829D01*
X5148371Y-10950114D01*
X5119800Y-10950114D01*
X5091228Y-10935829D01*
X5076943Y-10921543D01*
X5062657Y-10892972D01*
X5048371Y-10835829D01*
X5048371Y-10764400D01*
X5062657Y-10707257D01*
X5076943Y-10678686D01*
X5091228Y-10664400D01*
X5119800Y-10650114D01*
X5348371Y-10921543D02*
X5362657Y-10935829D01*
X5348371Y-10950114D01*
X5334086Y-10935829D01*
X5348371Y-10921543D01*
X5348371Y-10950114D01*
X5548371Y-10650114D02*
X5576943Y-10650114D01*
X5605514Y-10664400D01*
X5619800Y-10678686D01*
X5634086Y-10707257D01*
X5648371Y-10764400D01*
X5648371Y-10835829D01*
X5634086Y-10892972D01*
X5619800Y-10921543D01*
X5605514Y-10935829D01*
X5576943Y-10950114D01*
X5548371Y-10950114D01*
X5519800Y-10935829D01*
X5505514Y-10921543D01*
X5491228Y-10892972D01*
X5476943Y-10835829D01*
X5476943Y-10764400D01*
X5491228Y-10707257D01*
X5505514Y-10678686D01*
X5519800Y-10664400D01*
X5548371Y-10650114D01*
X5905514Y-10750114D02*
X5905514Y-10950114D01*
X5834086Y-10635829D02*
X5762657Y-10850114D01*
X5948371Y-10850114D01*
X6034086Y-10650114D02*
X6234086Y-10650114D01*
X6105514Y-10950114D01*
X6334086Y-10650114D02*
X6334086Y-10707257D01*
X6448371Y-10650114D02*
X6448371Y-10707257D01*
X6891228Y-11064400D02*
X6876943Y-11050114D01*
X6848371Y-11007257D01*
X6834086Y-10978686D01*
X6819800Y-10935829D01*
X6805514Y-10864400D01*
X6805514Y-10807257D01*
X6819800Y-10735829D01*
X6834086Y-10692972D01*
X6848371Y-10664400D01*
X6876943Y-10621543D01*
X6891228Y-10607257D01*
X7134086Y-10750114D02*
X7134086Y-10950114D01*
X7062657Y-10635829D02*
X6991228Y-10850114D01*
X7176943Y-10850114D01*
X7519800Y-10950114D02*
X7519800Y-10650114D01*
X7648371Y-10950114D02*
X7648371Y-10792972D01*
X7634086Y-10764400D01*
X7605514Y-10750114D01*
X7562657Y-10750114D01*
X7534086Y-10764400D01*
X7519800Y-10778686D01*
X7834086Y-10950114D02*
X7805514Y-10935829D01*
X7791228Y-10921543D01*
X7776943Y-10892972D01*
X7776943Y-10807257D01*
X7791228Y-10778686D01*
X7805514Y-10764400D01*
X7834086Y-10750114D01*
X7876943Y-10750114D01*
X7905514Y-10764400D01*
X7919800Y-10778686D01*
X7934086Y-10807257D01*
X7934086Y-10892972D01*
X7919800Y-10921543D01*
X7905514Y-10935829D01*
X7876943Y-10950114D01*
X7834086Y-10950114D01*
X8105514Y-10950114D02*
X8076943Y-10935829D01*
X8062657Y-10907257D01*
X8062657Y-10650114D01*
X8334086Y-10935829D02*
X8305514Y-10950114D01*
X8248371Y-10950114D01*
X8219800Y-10935829D01*
X8205514Y-10907257D01*
X8205514Y-10792972D01*
X8219800Y-10764400D01*
X8248371Y-10750114D01*
X8305514Y-10750114D01*
X8334086Y-10764400D01*
X8348371Y-10792972D01*
X8348371Y-10821543D01*
X8205514Y-10850114D01*
X8462657Y-10935829D02*
X8491228Y-10950114D01*
X8548371Y-10950114D01*
X8576943Y-10935829D01*
X8591228Y-10907257D01*
X8591228Y-10892972D01*
X8576943Y-10864400D01*
X8548371Y-10850114D01*
X8505514Y-10850114D01*
X8476943Y-10835829D01*
X8462657Y-10807257D01*
X8462657Y-10792972D01*
X8476943Y-10764400D01*
X8505514Y-10750114D01*
X8548371Y-10750114D01*
X8576943Y-10764400D01*
X8691228Y-11064400D02*
X8705514Y-11050114D01*
X8734086Y-11007257D01*
X8748371Y-10978686D01*
X8762657Y-10935829D01*
X8776943Y-10864400D01*
X8776943Y-10807257D01*
X8762657Y-10735829D01*
X8748371Y-10692972D01*
X8734086Y-10664400D01*
X8705514Y-10621543D01*
X8691228Y-10607257D01*
X2138800Y-11276400D02*
X2204800Y-11210400D01*
X2138800Y-11144400D01*
X2072800Y-11210400D01*
X2138800Y-11276400D01*
X2648371Y-11346114D02*
X2476943Y-11346114D01*
X2562657Y-11346114D02*
X2562657Y-11046114D01*
X2534086Y-11088972D01*
X2505514Y-11117543D01*
X2476943Y-11131829D01*
X2776943Y-11317543D02*
X2791228Y-11331829D01*
X2776943Y-11346114D01*
X2762657Y-11331829D01*
X2776943Y-11317543D01*
X2776943Y-11346114D01*
X2891228Y-11046114D02*
X3076943Y-11046114D01*
X2976943Y-11160400D01*
X3019800Y-11160400D01*
X3048371Y-11174686D01*
X3062657Y-11188971D01*
X3076943Y-11217543D01*
X3076943Y-11288971D01*
X3062657Y-11317543D01*
X3048371Y-11331829D01*
X3019800Y-11346114D01*
X2934086Y-11346114D01*
X2905514Y-11331829D01*
X2891228Y-11317543D01*
X3191228Y-11074686D02*
X3205514Y-11060400D01*
X3234086Y-11046114D01*
X3305514Y-11046114D01*
X3334086Y-11060400D01*
X3348371Y-11074686D01*
X3362657Y-11103257D01*
X3362657Y-11131829D01*
X3348371Y-11174686D01*
X3176943Y-11346114D01*
X3362657Y-11346114D01*
X3491228Y-11346114D02*
X3491228Y-11146114D01*
X3491228Y-11174686D02*
X3505514Y-11160400D01*
X3534086Y-11146114D01*
X3576943Y-11146114D01*
X3605514Y-11160400D01*
X3619800Y-11188971D01*
X3619800Y-11346114D01*
X3619800Y-11188971D02*
X3634086Y-11160400D01*
X3662657Y-11146114D01*
X3705514Y-11146114D01*
X3734086Y-11160400D01*
X3748371Y-11188971D01*
X3748371Y-11346114D01*
X3891228Y-11346114D02*
X3891228Y-11146114D01*
X3891228Y-11174686D02*
X3905514Y-11160400D01*
X3934086Y-11146114D01*
X3976943Y-11146114D01*
X4005514Y-11160400D01*
X4019800Y-11188971D01*
X4019800Y-11346114D01*
X4019800Y-11188971D02*
X4034086Y-11160400D01*
X4062657Y-11146114D01*
X4105514Y-11146114D01*
X4134086Y-11160400D01*
X4148371Y-11188971D01*
X4148371Y-11346114D01*
X4734086Y-11031829D02*
X4476943Y-11417543D01*
X5119800Y-11046114D02*
X5148371Y-11046114D01*
X5176943Y-11060400D01*
X5191228Y-11074686D01*
X5205514Y-11103257D01*
X5219800Y-11160400D01*
X5219800Y-11231829D01*
X5205514Y-11288971D01*
X5191228Y-11317543D01*
X5176943Y-11331829D01*
X5148371Y-11346114D01*
X5119800Y-11346114D01*
X5091228Y-11331829D01*
X5076943Y-11317543D01*
X5062657Y-11288971D01*
X5048371Y-11231829D01*
X5048371Y-11160400D01*
X5062657Y-11103257D01*
X5076943Y-11074686D01*
X5091228Y-11060400D01*
X5119800Y-11046114D01*
X5348371Y-11317543D02*
X5362657Y-11331829D01*
X5348371Y-11346114D01*
X5334086Y-11331829D01*
X5348371Y-11317543D01*
X5348371Y-11346114D01*
X5548371Y-11046114D02*
X5576943Y-11046114D01*
X5605514Y-11060400D01*
X5619800Y-11074686D01*
X5634086Y-11103257D01*
X5648371Y-11160400D01*
X5648371Y-11231829D01*
X5634086Y-11288971D01*
X5619800Y-11317543D01*
X5605514Y-11331829D01*
X5576943Y-11346114D01*
X5548371Y-11346114D01*
X5519800Y-11331829D01*
X5505514Y-11317543D01*
X5491228Y-11288971D01*
X5476943Y-11231829D01*
X5476943Y-11160400D01*
X5491228Y-11103257D01*
X5505514Y-11074686D01*
X5519800Y-11060400D01*
X5548371Y-11046114D01*
X5919800Y-11046114D02*
X5776943Y-11046114D01*
X5762657Y-11188971D01*
X5776943Y-11174686D01*
X5805514Y-11160400D01*
X5876943Y-11160400D01*
X5905514Y-11174686D01*
X5919800Y-11188971D01*
X5934086Y-11217543D01*
X5934086Y-11288971D01*
X5919800Y-11317543D01*
X5905514Y-11331829D01*
X5876943Y-11346114D01*
X5805514Y-11346114D01*
X5776943Y-11331829D01*
X5762657Y-11317543D01*
X6048371Y-11074686D02*
X6062657Y-11060400D01*
X6091228Y-11046114D01*
X6162657Y-11046114D01*
X6191228Y-11060400D01*
X6205514Y-11074686D01*
X6219800Y-11103257D01*
X6219800Y-11131829D01*
X6205514Y-11174686D01*
X6034086Y-11346114D01*
X6219800Y-11346114D01*
X6334086Y-11046114D02*
X6334086Y-11103257D01*
X6448371Y-11046114D02*
X6448371Y-11103257D01*
X6891228Y-11460400D02*
X6876943Y-11446114D01*
X6848371Y-11403257D01*
X6834086Y-11374686D01*
X6819800Y-11331829D01*
X6805514Y-11260400D01*
X6805514Y-11203257D01*
X6819800Y-11131829D01*
X6834086Y-11088972D01*
X6848371Y-11060400D01*
X6876943Y-11017543D01*
X6891228Y-11003257D01*
X6976943Y-11046114D02*
X7176943Y-11046114D01*
X7048371Y-11346114D01*
X7519800Y-11346114D02*
X7519800Y-11046114D01*
X7648371Y-11346114D02*
X7648371Y-11188971D01*
X7634086Y-11160400D01*
X7605514Y-11146114D01*
X7562657Y-11146114D01*
X7534086Y-11160400D01*
X7519800Y-11174686D01*
X7834086Y-11346114D02*
X7805514Y-11331829D01*
X7791228Y-11317543D01*
X7776943Y-11288971D01*
X7776943Y-11203257D01*
X7791228Y-11174686D01*
X7805514Y-11160400D01*
X7834086Y-11146114D01*
X7876943Y-11146114D01*
X7905514Y-11160400D01*
X7919800Y-11174686D01*
X7934086Y-11203257D01*
X7934086Y-11288971D01*
X7919800Y-11317543D01*
X7905514Y-11331829D01*
X7876943Y-11346114D01*
X7834086Y-11346114D01*
X8105514Y-11346114D02*
X8076943Y-11331829D01*
X8062657Y-11303257D01*
X8062657Y-11046114D01*
X8334086Y-11331829D02*
X8305514Y-11346114D01*
X8248371Y-11346114D01*
X8219800Y-11331829D01*
X8205514Y-11303257D01*
X8205514Y-11188971D01*
X8219800Y-11160400D01*
X8248371Y-11146114D01*
X8305514Y-11146114D01*
X8334086Y-11160400D01*
X8348371Y-11188971D01*
X8348371Y-11217543D01*
X8205514Y-11246114D01*
X8462657Y-11331829D02*
X8491228Y-11346114D01*
X8548371Y-11346114D01*
X8576943Y-11331829D01*
X8591228Y-11303257D01*
X8591228Y-11288971D01*
X8576943Y-11260400D01*
X8548371Y-11246114D01*
X8505514Y-11246114D01*
X8476943Y-11231829D01*
X8462657Y-11203257D01*
X8462657Y-11188971D01*
X8476943Y-11160400D01*
X8505514Y-11146114D01*
X8548371Y-11146114D01*
X8576943Y-11160400D01*
X8691228Y-11460400D02*
X8705514Y-11446114D01*
X8734086Y-11403257D01*
X8748371Y-11374686D01*
X8762657Y-11331829D01*
X8776943Y-11260400D01*
X8776943Y-11203257D01*
X8762657Y-11131829D01*
X8748371Y-11088972D01*
X8734086Y-11060400D01*
X8705514Y-11017543D01*
X8691228Y-11003257D01*
M02*
