%TF.GenerationSoftware,KiCad,Pcbnew,(5.1.9)-1*%
%TF.CreationDate,2022-01-16T00:30:18-08:00*%
%TF.ProjectId,keurig-filler,6b657572-6967-42d6-9669-6c6c65722e6b,rev?*%
%TF.SameCoordinates,Original*%
%TF.FileFunction,Paste,Top*%
%TF.FilePolarity,Positive*%
%FSLAX46Y46*%
G04 Gerber Fmt 4.6, Leading zero omitted, Abs format (unit mm)*
G04 Created by KiCad (PCBNEW (5.1.9)-1) date 2022-01-16 00:30:18*
%MOMM*%
%LPD*%
G01*
G04 APERTURE LIST*
%ADD10R,0.800000X0.900000*%
G04 APERTURE END LIST*
%TO.C,R1*%
G36*
G01*
X74044000Y-54044001D02*
X74044000Y-53143999D01*
G75*
G02*
X74293999Y-52894000I249999J0D01*
G01*
X74994001Y-52894000D01*
G75*
G02*
X75244000Y-53143999I0J-249999D01*
G01*
X75244000Y-54044001D01*
G75*
G02*
X74994001Y-54294000I-249999J0D01*
G01*
X74293999Y-54294000D01*
G75*
G02*
X74044000Y-54044001I0J249999D01*
G01*
G37*
G36*
G01*
X72044000Y-54044001D02*
X72044000Y-53143999D01*
G75*
G02*
X72293999Y-52894000I249999J0D01*
G01*
X72994001Y-52894000D01*
G75*
G02*
X73244000Y-53143999I0J-249999D01*
G01*
X73244000Y-54044001D01*
G75*
G02*
X72994001Y-54294000I-249999J0D01*
G01*
X72293999Y-54294000D01*
G75*
G02*
X72044000Y-54044001I0J249999D01*
G01*
G37*
%TD*%
%TO.C,Q1*%
G36*
G01*
X57340000Y-31853200D02*
X57340000Y-31340800D01*
G75*
G02*
X57388800Y-31292000I48800J0D01*
G01*
X58471200Y-31292000D01*
G75*
G02*
X58520000Y-31340800I0J-48800D01*
G01*
X58520000Y-31853200D01*
G75*
G02*
X58471200Y-31902000I-48800J0D01*
G01*
X57388800Y-31902000D01*
G75*
G02*
X57340000Y-31853200I0J48800D01*
G01*
G37*
G36*
G01*
X55290000Y-32768200D02*
X55290000Y-32255800D01*
G75*
G02*
X55338800Y-32207000I48800J0D01*
G01*
X56421200Y-32207000D01*
G75*
G02*
X56470000Y-32255800I0J-48800D01*
G01*
X56470000Y-32768200D01*
G75*
G02*
X56421200Y-32817000I-48800J0D01*
G01*
X55338800Y-32817000D01*
G75*
G02*
X55290000Y-32768200I0J48800D01*
G01*
G37*
G36*
G01*
X55290000Y-30938200D02*
X55290000Y-30425800D01*
G75*
G02*
X55338800Y-30377000I48800J0D01*
G01*
X56421200Y-30377000D01*
G75*
G02*
X56470000Y-30425800I0J-48800D01*
G01*
X56470000Y-30938200D01*
G75*
G02*
X56421200Y-30987000I-48800J0D01*
G01*
X55338800Y-30987000D01*
G75*
G02*
X55290000Y-30938200I0J48800D01*
G01*
G37*
%TD*%
D10*
%TO.C,D1*%
X73660000Y-48022000D03*
X74610000Y-50022000D03*
X72710000Y-50022000D03*
%TD*%
M02*
