%TF.GenerationSoftware,KiCad,Pcbnew,(5.1.9)-1*%
%TF.CreationDate,2022-01-16T00:30:18-08:00*%
%TF.ProjectId,keurig-filler,6b657572-6967-42d6-9669-6c6c65722e6b,rev?*%
%TF.SameCoordinates,Original*%
%TF.FileFunction,Copper,L2,Bot*%
%TF.FilePolarity,Positive*%
%FSLAX46Y46*%
G04 Gerber Fmt 4.6, Leading zero omitted, Abs format (unit mm)*
G04 Created by KiCad (PCBNEW (5.1.9)-1) date 2022-01-16 00:30:18*
%MOMM*%
%LPD*%
G01*
G04 APERTURE LIST*
%TA.AperFunction,ComponentPad*%
%ADD10O,1.700000X1.700000*%
%TD*%
%TA.AperFunction,ComponentPad*%
%ADD11R,1.700000X1.700000*%
%TD*%
%TA.AperFunction,ComponentPad*%
%ADD12O,3.960000X1.980000*%
%TD*%
%TA.AperFunction,ComponentPad*%
%ADD13R,3.960000X1.980000*%
%TD*%
%TA.AperFunction,ComponentPad*%
%ADD14C,1.800000*%
%TD*%
%TA.AperFunction,ComponentPad*%
%ADD15R,1.800000X1.800000*%
%TD*%
%TA.AperFunction,ViaPad*%
%ADD16C,0.800000*%
%TD*%
%TA.AperFunction,Conductor*%
%ADD17C,0.250000*%
%TD*%
%TA.AperFunction,Conductor*%
%ADD18C,0.254000*%
%TD*%
%TA.AperFunction,Conductor*%
%ADD19C,0.100000*%
%TD*%
G04 APERTURE END LIST*
D10*
%TO.P,U1,43*%
%TO.N,Net-(U1-Pad43)*%
X42020000Y-78408001D03*
D11*
%TO.P,U1,42*%
%TO.N,GND*%
X39480000Y-78408001D03*
D10*
%TO.P,U1,41*%
%TO.N,Net-(U1-Pad41)*%
X36940000Y-78408001D03*
%TO.P,U1,40*%
%TO.N,VBUS*%
X48370000Y-30378001D03*
%TO.P,U1,39*%
%TO.N,+5V*%
X48370000Y-32918001D03*
D11*
%TO.P,U1,38*%
%TO.N,GND*%
X48370000Y-35458001D03*
D10*
%TO.P,U1,37*%
%TO.N,Net-(U1-Pad37)*%
X48370000Y-37998001D03*
%TO.P,U1,36*%
%TO.N,+3V3*%
X48370000Y-40538001D03*
%TO.P,U1,35*%
X48370000Y-43078001D03*
%TO.P,U1,34*%
%TO.N,GND*%
X48370000Y-45618001D03*
D11*
%TO.P,U1,33*%
X48370000Y-48158001D03*
D10*
%TO.P,U1,32*%
%TO.N,ADC1*%
X48370000Y-50698001D03*
%TO.P,U1,31*%
%TO.N,ADC0*%
X48370000Y-53238001D03*
%TO.P,U1,30*%
%TO.N,~RESET*%
X48370000Y-55778001D03*
%TO.P,U1,29*%
%TO.N,PUMP_EN*%
X48370000Y-58318001D03*
D11*
%TO.P,U1,28*%
%TO.N,GND*%
X48370000Y-60858001D03*
D10*
%TO.P,U1,27*%
%TO.N,Net-(U1-Pad27)*%
X48370000Y-63398001D03*
%TO.P,U1,26*%
%TO.N,FLOW_PULSE*%
X48370000Y-65938001D03*
%TO.P,U1,25*%
%TO.N,MOSI*%
X48370000Y-68478001D03*
%TO.P,U1,24*%
%TO.N,SCK0*%
X48370000Y-71018001D03*
D11*
%TO.P,U1,23*%
%TO.N,GND*%
X48370000Y-73558001D03*
D10*
%TO.P,U1,22*%
%TO.N,SPI_CS0*%
X48370000Y-76098001D03*
%TO.P,U1,21*%
%TO.N,MISO0*%
X48370000Y-78638001D03*
%TO.P,U1,20*%
%TO.N,Net-(U1-Pad20)*%
X30590000Y-78638001D03*
%TO.P,U1,19*%
%TO.N,Net-(U1-Pad19)*%
X30590000Y-76098001D03*
D11*
%TO.P,U1,18*%
%TO.N,GND*%
X30590000Y-73558001D03*
D10*
%TO.P,U1,17*%
%TO.N,Net-(U1-Pad17)*%
X30590000Y-71018001D03*
%TO.P,U1,16*%
%TO.N,Net-(U1-Pad16)*%
X30590000Y-68478001D03*
%TO.P,U1,15*%
%TO.N,Net-(U1-Pad15)*%
X30590000Y-65938001D03*
%TO.P,U1,14*%
%TO.N,Net-(U1-Pad14)*%
X30590000Y-63398001D03*
D11*
%TO.P,U1,13*%
%TO.N,GND*%
X30590000Y-60858001D03*
D10*
%TO.P,U1,12*%
%TO.N,Net-(U1-Pad12)*%
X30590000Y-58318001D03*
%TO.P,U1,11*%
%TO.N,Net-(U1-Pad11)*%
X30590000Y-55778001D03*
%TO.P,U1,10*%
%TO.N,SCL0*%
X30590000Y-53238001D03*
%TO.P,U1,9*%
%TO.N,SDA0*%
X30590000Y-50698001D03*
D11*
%TO.P,U1,8*%
%TO.N,GND*%
X30590000Y-48158001D03*
D10*
%TO.P,U1,7*%
%TO.N,Net-(U1-Pad7)*%
X30590000Y-45618001D03*
%TO.P,U1,6*%
%TO.N,Net-(U1-Pad6)*%
X30590000Y-43078001D03*
%TO.P,U1,5*%
%TO.N,Net-(U1-Pad5)*%
X30590000Y-40538001D03*
%TO.P,U1,4*%
%TO.N,Net-(U1-Pad4)*%
X30590000Y-37998001D03*
D11*
%TO.P,U1,3*%
%TO.N,GND*%
X30590000Y-35458001D03*
D10*
%TO.P,U1,2*%
%TO.N,UART_RX0*%
X30590000Y-32918001D03*
%TO.P,U1,1*%
%TO.N,UART_TX0*%
X30590000Y-30378001D03*
%TD*%
D12*
%TO.P,J6,2*%
%TO.N,GND*%
X99568000Y-75866000D03*
D13*
%TO.P,J6,1*%
%TO.N,+12V*%
X99568000Y-70866000D03*
%TD*%
D12*
%TO.P,J4,2*%
%TO.N,GND*%
X99568000Y-63166000D03*
D13*
%TO.P,J4,1*%
%TO.N,Net-(J4-Pad1)*%
X99568000Y-58166000D03*
%TD*%
D12*
%TO.P,J3,3*%
%TO.N,Net-(D1-Pad1)*%
X99568000Y-47846000D03*
%TO.P,J3,2*%
%TO.N,+12V*%
X99568000Y-42846000D03*
D13*
%TO.P,J3,1*%
%TO.N,GND*%
X99568000Y-37846000D03*
%TD*%
D14*
%TO.P,K1,4*%
%TO.N,+12V*%
X81371000Y-42996000D03*
%TO.P,K1,3*%
%TO.N,Net-(J4-Pad1)*%
X81371000Y-53156000D03*
%TO.P,K1,2*%
%TO.N,PUMP_EN*%
X81371000Y-65856000D03*
D15*
%TO.P,K1,1*%
%TO.N,GND*%
X81371000Y-70936000D03*
%TD*%
D10*
%TO.P,J5,4*%
%TO.N,N/C*%
X69342000Y-31496000D03*
%TO.P,J5,3*%
%TO.N,+12V*%
X66802000Y-31496000D03*
%TO.P,J5,2*%
%TO.N,GND*%
X64262000Y-31496000D03*
D11*
%TO.P,J5,1*%
%TO.N,Net-(J5-Pad1)*%
X61722000Y-31496000D03*
%TD*%
D10*
%TO.P,J2,3*%
%TO.N,ADC0*%
X84074000Y-28956000D03*
%TO.P,J2,2*%
%TO.N,+3V3*%
X86614000Y-28956000D03*
D11*
%TO.P,J2,1*%
%TO.N,GND*%
X89154000Y-28956000D03*
%TD*%
D10*
%TO.P,J1,3*%
%TO.N,ADC1*%
X96774000Y-28956000D03*
%TO.P,J1,2*%
%TO.N,+3V3*%
X99314000Y-28956000D03*
D11*
%TO.P,J1,1*%
%TO.N,GND*%
X101854000Y-28956000D03*
%TD*%
D16*
%TO.N,FLOW_PULSE*%
X68580000Y-53594000D03*
X64008000Y-62738000D03*
%TO.N,ADC1*%
X71374000Y-40640000D03*
X77724000Y-36068000D03*
%TO.N,GND*%
X76708000Y-53594000D03*
%TO.N,ADC0*%
X69342000Y-43180000D03*
X75184000Y-31750000D03*
%TD*%
D17*
%TO.N,FLOW_PULSE*%
X68580000Y-53594000D02*
X68580000Y-58166000D01*
X68580000Y-58166000D02*
X64008000Y-62738000D01*
%TO.N,ADC1*%
X75946000Y-36068000D02*
X71374000Y-40640000D01*
X77724000Y-36068000D02*
X75946000Y-36068000D01*
%TO.N,ADC0*%
X69342000Y-37592000D02*
X69342000Y-43180000D01*
X75184000Y-31750000D02*
X69342000Y-37592000D01*
%TD*%
D18*
%TO.N,GND*%
X107315000Y-84455000D02*
X106828074Y-84455000D01*
X106968561Y-84115834D01*
X107041000Y-83751656D01*
X107041000Y-83380344D01*
X106968561Y-83016166D01*
X106826466Y-82673118D01*
X106620175Y-82364382D01*
X106357618Y-82101825D01*
X106048882Y-81895534D01*
X105705834Y-81753439D01*
X105341656Y-81681000D01*
X104970344Y-81681000D01*
X104606166Y-81753439D01*
X104263118Y-81895534D01*
X103954382Y-82101825D01*
X103691825Y-82364382D01*
X103485534Y-82673118D01*
X103343439Y-83016166D01*
X103271000Y-83380344D01*
X103271000Y-83751656D01*
X103343439Y-84115834D01*
X103483926Y-84455000D01*
X26923284Y-84455000D01*
X26958561Y-84369834D01*
X27031000Y-84005656D01*
X27031000Y-83634344D01*
X26958561Y-83270166D01*
X26816466Y-82927118D01*
X26610175Y-82618382D01*
X26347618Y-82355825D01*
X26038882Y-82149534D01*
X25695834Y-82007439D01*
X25331656Y-81935000D01*
X24960344Y-81935000D01*
X24596166Y-82007439D01*
X24253118Y-82149534D01*
X24003000Y-82316658D01*
X24003000Y-74408001D01*
X29101928Y-74408001D01*
X29114188Y-74532483D01*
X29150498Y-74652181D01*
X29209463Y-74762495D01*
X29288815Y-74859186D01*
X29385506Y-74938538D01*
X29495820Y-74997503D01*
X29568380Y-75019514D01*
X29436525Y-75151369D01*
X29274010Y-75394590D01*
X29162068Y-75664843D01*
X29105000Y-75951741D01*
X29105000Y-76244261D01*
X29162068Y-76531159D01*
X29274010Y-76801412D01*
X29436525Y-77044633D01*
X29643368Y-77251476D01*
X29817760Y-77368001D01*
X29643368Y-77484526D01*
X29436525Y-77691369D01*
X29274010Y-77934590D01*
X29162068Y-78204843D01*
X29105000Y-78491741D01*
X29105000Y-78784261D01*
X29162068Y-79071159D01*
X29274010Y-79341412D01*
X29436525Y-79584633D01*
X29643368Y-79791476D01*
X29886589Y-79953991D01*
X30156842Y-80065933D01*
X30443740Y-80123001D01*
X30736260Y-80123001D01*
X31023158Y-80065933D01*
X31293411Y-79953991D01*
X31536632Y-79791476D01*
X31743475Y-79584633D01*
X31905990Y-79341412D01*
X32017932Y-79071159D01*
X32075000Y-78784261D01*
X32075000Y-78491741D01*
X32029250Y-78261741D01*
X35455000Y-78261741D01*
X35455000Y-78554261D01*
X35512068Y-78841159D01*
X35624010Y-79111412D01*
X35786525Y-79354633D01*
X35993368Y-79561476D01*
X36236589Y-79723991D01*
X36506842Y-79835933D01*
X36793740Y-79893001D01*
X37086260Y-79893001D01*
X37373158Y-79835933D01*
X37643411Y-79723991D01*
X37886632Y-79561476D01*
X38018487Y-79429621D01*
X38040498Y-79502181D01*
X38099463Y-79612495D01*
X38178815Y-79709186D01*
X38275506Y-79788538D01*
X38385820Y-79847503D01*
X38505518Y-79883813D01*
X38630000Y-79896073D01*
X39194250Y-79893001D01*
X39353000Y-79734251D01*
X39353000Y-78535001D01*
X39333000Y-78535001D01*
X39333000Y-78281001D01*
X39353000Y-78281001D01*
X39353000Y-77081751D01*
X39607000Y-77081751D01*
X39607000Y-78281001D01*
X39627000Y-78281001D01*
X39627000Y-78535001D01*
X39607000Y-78535001D01*
X39607000Y-79734251D01*
X39765750Y-79893001D01*
X40330000Y-79896073D01*
X40454482Y-79883813D01*
X40574180Y-79847503D01*
X40684494Y-79788538D01*
X40781185Y-79709186D01*
X40860537Y-79612495D01*
X40919502Y-79502181D01*
X40941513Y-79429621D01*
X41073368Y-79561476D01*
X41316589Y-79723991D01*
X41586842Y-79835933D01*
X41873740Y-79893001D01*
X42166260Y-79893001D01*
X42453158Y-79835933D01*
X42723411Y-79723991D01*
X42966632Y-79561476D01*
X43173475Y-79354633D01*
X43335990Y-79111412D01*
X43447932Y-78841159D01*
X43505000Y-78554261D01*
X43505000Y-78261741D01*
X43447932Y-77974843D01*
X43335990Y-77704590D01*
X43173475Y-77461369D01*
X42966632Y-77254526D01*
X42723411Y-77092011D01*
X42453158Y-76980069D01*
X42166260Y-76923001D01*
X41873740Y-76923001D01*
X41586842Y-76980069D01*
X41316589Y-77092011D01*
X41073368Y-77254526D01*
X40941513Y-77386381D01*
X40919502Y-77313821D01*
X40860537Y-77203507D01*
X40781185Y-77106816D01*
X40684494Y-77027464D01*
X40574180Y-76968499D01*
X40454482Y-76932189D01*
X40330000Y-76919929D01*
X39765750Y-76923001D01*
X39607000Y-77081751D01*
X39353000Y-77081751D01*
X39194250Y-76923001D01*
X38630000Y-76919929D01*
X38505518Y-76932189D01*
X38385820Y-76968499D01*
X38275506Y-77027464D01*
X38178815Y-77106816D01*
X38099463Y-77203507D01*
X38040498Y-77313821D01*
X38018487Y-77386381D01*
X37886632Y-77254526D01*
X37643411Y-77092011D01*
X37373158Y-76980069D01*
X37086260Y-76923001D01*
X36793740Y-76923001D01*
X36506842Y-76980069D01*
X36236589Y-77092011D01*
X35993368Y-77254526D01*
X35786525Y-77461369D01*
X35624010Y-77704590D01*
X35512068Y-77974843D01*
X35455000Y-78261741D01*
X32029250Y-78261741D01*
X32017932Y-78204843D01*
X31905990Y-77934590D01*
X31743475Y-77691369D01*
X31536632Y-77484526D01*
X31362240Y-77368001D01*
X31536632Y-77251476D01*
X31743475Y-77044633D01*
X31905990Y-76801412D01*
X32017932Y-76531159D01*
X32075000Y-76244261D01*
X32075000Y-75951741D01*
X32017932Y-75664843D01*
X31905990Y-75394590D01*
X31743475Y-75151369D01*
X31611620Y-75019514D01*
X31684180Y-74997503D01*
X31794494Y-74938538D01*
X31891185Y-74859186D01*
X31970537Y-74762495D01*
X32029502Y-74652181D01*
X32065812Y-74532483D01*
X32078072Y-74408001D01*
X46881928Y-74408001D01*
X46894188Y-74532483D01*
X46930498Y-74652181D01*
X46989463Y-74762495D01*
X47068815Y-74859186D01*
X47165506Y-74938538D01*
X47275820Y-74997503D01*
X47348380Y-75019514D01*
X47216525Y-75151369D01*
X47054010Y-75394590D01*
X46942068Y-75664843D01*
X46885000Y-75951741D01*
X46885000Y-76244261D01*
X46942068Y-76531159D01*
X47054010Y-76801412D01*
X47216525Y-77044633D01*
X47423368Y-77251476D01*
X47597760Y-77368001D01*
X47423368Y-77484526D01*
X47216525Y-77691369D01*
X47054010Y-77934590D01*
X46942068Y-78204843D01*
X46885000Y-78491741D01*
X46885000Y-78784261D01*
X46942068Y-79071159D01*
X47054010Y-79341412D01*
X47216525Y-79584633D01*
X47423368Y-79791476D01*
X47666589Y-79953991D01*
X47936842Y-80065933D01*
X48223740Y-80123001D01*
X48516260Y-80123001D01*
X48803158Y-80065933D01*
X49073411Y-79953991D01*
X49316632Y-79791476D01*
X49523475Y-79584633D01*
X49685990Y-79341412D01*
X49797932Y-79071159D01*
X49855000Y-78784261D01*
X49855000Y-78491741D01*
X49797932Y-78204843D01*
X49685990Y-77934590D01*
X49523475Y-77691369D01*
X49316632Y-77484526D01*
X49142240Y-77368001D01*
X49316632Y-77251476D01*
X49523475Y-77044633D01*
X49685990Y-76801412D01*
X49797932Y-76531159D01*
X49854879Y-76244865D01*
X96997782Y-76244865D01*
X97028095Y-76370528D01*
X97156304Y-76663205D01*
X97339148Y-76925246D01*
X97569601Y-77146581D01*
X97838806Y-77318704D01*
X98136418Y-77435000D01*
X98451000Y-77491000D01*
X99441000Y-77491000D01*
X99441000Y-75993000D01*
X99695000Y-75993000D01*
X99695000Y-77491000D01*
X100685000Y-77491000D01*
X100999582Y-77435000D01*
X101297194Y-77318704D01*
X101566399Y-77146581D01*
X101796852Y-76925246D01*
X101979696Y-76663205D01*
X102107905Y-76370528D01*
X102138218Y-76244865D01*
X102018740Y-75993000D01*
X99695000Y-75993000D01*
X99441000Y-75993000D01*
X97117260Y-75993000D01*
X96997782Y-76244865D01*
X49854879Y-76244865D01*
X49855000Y-76244261D01*
X49855000Y-75951741D01*
X49797932Y-75664843D01*
X49724324Y-75487135D01*
X96997782Y-75487135D01*
X97117260Y-75739000D01*
X99441000Y-75739000D01*
X99441000Y-74241000D01*
X99695000Y-74241000D01*
X99695000Y-75739000D01*
X102018740Y-75739000D01*
X102138218Y-75487135D01*
X102107905Y-75361472D01*
X101979696Y-75068795D01*
X101796852Y-74806754D01*
X101566399Y-74585419D01*
X101297194Y-74413296D01*
X100999582Y-74297000D01*
X100685000Y-74241000D01*
X99695000Y-74241000D01*
X99441000Y-74241000D01*
X98451000Y-74241000D01*
X98136418Y-74297000D01*
X97838806Y-74413296D01*
X97569601Y-74585419D01*
X97339148Y-74806754D01*
X97156304Y-75068795D01*
X97028095Y-75361472D01*
X96997782Y-75487135D01*
X49724324Y-75487135D01*
X49685990Y-75394590D01*
X49523475Y-75151369D01*
X49391620Y-75019514D01*
X49464180Y-74997503D01*
X49574494Y-74938538D01*
X49671185Y-74859186D01*
X49750537Y-74762495D01*
X49809502Y-74652181D01*
X49845812Y-74532483D01*
X49858072Y-74408001D01*
X49855000Y-73843751D01*
X49696250Y-73685001D01*
X48497000Y-73685001D01*
X48497000Y-73705001D01*
X48243000Y-73705001D01*
X48243000Y-73685001D01*
X47043750Y-73685001D01*
X46885000Y-73843751D01*
X46881928Y-74408001D01*
X32078072Y-74408001D01*
X32075000Y-73843751D01*
X31916250Y-73685001D01*
X30717000Y-73685001D01*
X30717000Y-73705001D01*
X30463000Y-73705001D01*
X30463000Y-73685001D01*
X29263750Y-73685001D01*
X29105000Y-73843751D01*
X29101928Y-74408001D01*
X24003000Y-74408001D01*
X24003000Y-61708001D01*
X29101928Y-61708001D01*
X29114188Y-61832483D01*
X29150498Y-61952181D01*
X29209463Y-62062495D01*
X29288815Y-62159186D01*
X29385506Y-62238538D01*
X29495820Y-62297503D01*
X29568380Y-62319514D01*
X29436525Y-62451369D01*
X29274010Y-62694590D01*
X29162068Y-62964843D01*
X29105000Y-63251741D01*
X29105000Y-63544261D01*
X29162068Y-63831159D01*
X29274010Y-64101412D01*
X29436525Y-64344633D01*
X29643368Y-64551476D01*
X29817760Y-64668001D01*
X29643368Y-64784526D01*
X29436525Y-64991369D01*
X29274010Y-65234590D01*
X29162068Y-65504843D01*
X29105000Y-65791741D01*
X29105000Y-66084261D01*
X29162068Y-66371159D01*
X29274010Y-66641412D01*
X29436525Y-66884633D01*
X29643368Y-67091476D01*
X29817760Y-67208001D01*
X29643368Y-67324526D01*
X29436525Y-67531369D01*
X29274010Y-67774590D01*
X29162068Y-68044843D01*
X29105000Y-68331741D01*
X29105000Y-68624261D01*
X29162068Y-68911159D01*
X29274010Y-69181412D01*
X29436525Y-69424633D01*
X29643368Y-69631476D01*
X29817760Y-69748001D01*
X29643368Y-69864526D01*
X29436525Y-70071369D01*
X29274010Y-70314590D01*
X29162068Y-70584843D01*
X29105000Y-70871741D01*
X29105000Y-71164261D01*
X29162068Y-71451159D01*
X29274010Y-71721412D01*
X29436525Y-71964633D01*
X29568380Y-72096488D01*
X29495820Y-72118499D01*
X29385506Y-72177464D01*
X29288815Y-72256816D01*
X29209463Y-72353507D01*
X29150498Y-72463821D01*
X29114188Y-72583519D01*
X29101928Y-72708001D01*
X29105000Y-73272251D01*
X29263750Y-73431001D01*
X30463000Y-73431001D01*
X30463000Y-73411001D01*
X30717000Y-73411001D01*
X30717000Y-73431001D01*
X31916250Y-73431001D01*
X32075000Y-73272251D01*
X32078072Y-72708001D01*
X32065812Y-72583519D01*
X32029502Y-72463821D01*
X31970537Y-72353507D01*
X31891185Y-72256816D01*
X31794494Y-72177464D01*
X31684180Y-72118499D01*
X31611620Y-72096488D01*
X31743475Y-71964633D01*
X31905990Y-71721412D01*
X32017932Y-71451159D01*
X32075000Y-71164261D01*
X32075000Y-70871741D01*
X32017932Y-70584843D01*
X31905990Y-70314590D01*
X31743475Y-70071369D01*
X31536632Y-69864526D01*
X31362240Y-69748001D01*
X31536632Y-69631476D01*
X31743475Y-69424633D01*
X31905990Y-69181412D01*
X32017932Y-68911159D01*
X32075000Y-68624261D01*
X32075000Y-68331741D01*
X32017932Y-68044843D01*
X31905990Y-67774590D01*
X31743475Y-67531369D01*
X31536632Y-67324526D01*
X31362240Y-67208001D01*
X31536632Y-67091476D01*
X31743475Y-66884633D01*
X31905990Y-66641412D01*
X32017932Y-66371159D01*
X32075000Y-66084261D01*
X32075000Y-65791741D01*
X32017932Y-65504843D01*
X31905990Y-65234590D01*
X31743475Y-64991369D01*
X31536632Y-64784526D01*
X31362240Y-64668001D01*
X31536632Y-64551476D01*
X31743475Y-64344633D01*
X31905990Y-64101412D01*
X32017932Y-63831159D01*
X32075000Y-63544261D01*
X32075000Y-63251741D01*
X32017932Y-62964843D01*
X31905990Y-62694590D01*
X31743475Y-62451369D01*
X31611620Y-62319514D01*
X31684180Y-62297503D01*
X31794494Y-62238538D01*
X31891185Y-62159186D01*
X31970537Y-62062495D01*
X32029502Y-61952181D01*
X32065812Y-61832483D01*
X32078072Y-61708001D01*
X46881928Y-61708001D01*
X46894188Y-61832483D01*
X46930498Y-61952181D01*
X46989463Y-62062495D01*
X47068815Y-62159186D01*
X47165506Y-62238538D01*
X47275820Y-62297503D01*
X47348380Y-62319514D01*
X47216525Y-62451369D01*
X47054010Y-62694590D01*
X46942068Y-62964843D01*
X46885000Y-63251741D01*
X46885000Y-63544261D01*
X46942068Y-63831159D01*
X47054010Y-64101412D01*
X47216525Y-64344633D01*
X47423368Y-64551476D01*
X47597760Y-64668001D01*
X47423368Y-64784526D01*
X47216525Y-64991369D01*
X47054010Y-65234590D01*
X46942068Y-65504843D01*
X46885000Y-65791741D01*
X46885000Y-66084261D01*
X46942068Y-66371159D01*
X47054010Y-66641412D01*
X47216525Y-66884633D01*
X47423368Y-67091476D01*
X47597760Y-67208001D01*
X47423368Y-67324526D01*
X47216525Y-67531369D01*
X47054010Y-67774590D01*
X46942068Y-68044843D01*
X46885000Y-68331741D01*
X46885000Y-68624261D01*
X46942068Y-68911159D01*
X47054010Y-69181412D01*
X47216525Y-69424633D01*
X47423368Y-69631476D01*
X47597760Y-69748001D01*
X47423368Y-69864526D01*
X47216525Y-70071369D01*
X47054010Y-70314590D01*
X46942068Y-70584843D01*
X46885000Y-70871741D01*
X46885000Y-71164261D01*
X46942068Y-71451159D01*
X47054010Y-71721412D01*
X47216525Y-71964633D01*
X47348380Y-72096488D01*
X47275820Y-72118499D01*
X47165506Y-72177464D01*
X47068815Y-72256816D01*
X46989463Y-72353507D01*
X46930498Y-72463821D01*
X46894188Y-72583519D01*
X46881928Y-72708001D01*
X46885000Y-73272251D01*
X47043750Y-73431001D01*
X48243000Y-73431001D01*
X48243000Y-73411001D01*
X48497000Y-73411001D01*
X48497000Y-73431001D01*
X49696250Y-73431001D01*
X49855000Y-73272251D01*
X49858072Y-72708001D01*
X49845812Y-72583519D01*
X49809502Y-72463821D01*
X49750537Y-72353507D01*
X49671185Y-72256816D01*
X49574494Y-72177464D01*
X49464180Y-72118499D01*
X49391620Y-72096488D01*
X49523475Y-71964633D01*
X49609424Y-71836000D01*
X79832928Y-71836000D01*
X79845188Y-71960482D01*
X79881498Y-72080180D01*
X79940463Y-72190494D01*
X80019815Y-72287185D01*
X80116506Y-72366537D01*
X80226820Y-72425502D01*
X80346518Y-72461812D01*
X80471000Y-72474072D01*
X81085250Y-72471000D01*
X81244000Y-72312250D01*
X81244000Y-71063000D01*
X81498000Y-71063000D01*
X81498000Y-72312250D01*
X81656750Y-72471000D01*
X82271000Y-72474072D01*
X82395482Y-72461812D01*
X82515180Y-72425502D01*
X82625494Y-72366537D01*
X82722185Y-72287185D01*
X82801537Y-72190494D01*
X82860502Y-72080180D01*
X82896812Y-71960482D01*
X82909072Y-71836000D01*
X82906000Y-71221750D01*
X82747250Y-71063000D01*
X81498000Y-71063000D01*
X81244000Y-71063000D01*
X79994750Y-71063000D01*
X79836000Y-71221750D01*
X79832928Y-71836000D01*
X49609424Y-71836000D01*
X49685990Y-71721412D01*
X49797932Y-71451159D01*
X49855000Y-71164261D01*
X49855000Y-70871741D01*
X49797932Y-70584843D01*
X49685990Y-70314590D01*
X49523475Y-70071369D01*
X49488106Y-70036000D01*
X79832928Y-70036000D01*
X79836000Y-70650250D01*
X79994750Y-70809000D01*
X81244000Y-70809000D01*
X81244000Y-69559750D01*
X81498000Y-69559750D01*
X81498000Y-70809000D01*
X82747250Y-70809000D01*
X82906000Y-70650250D01*
X82909072Y-70036000D01*
X82896812Y-69911518D01*
X82886038Y-69876000D01*
X96949928Y-69876000D01*
X96949928Y-71856000D01*
X96962188Y-71980482D01*
X96998498Y-72100180D01*
X97057463Y-72210494D01*
X97136815Y-72307185D01*
X97233506Y-72386537D01*
X97343820Y-72445502D01*
X97463518Y-72481812D01*
X97588000Y-72494072D01*
X101548000Y-72494072D01*
X101672482Y-72481812D01*
X101792180Y-72445502D01*
X101902494Y-72386537D01*
X101999185Y-72307185D01*
X102078537Y-72210494D01*
X102137502Y-72100180D01*
X102173812Y-71980482D01*
X102186072Y-71856000D01*
X102186072Y-69876000D01*
X102173812Y-69751518D01*
X102137502Y-69631820D01*
X102078537Y-69521506D01*
X101999185Y-69424815D01*
X101902494Y-69345463D01*
X101792180Y-69286498D01*
X101672482Y-69250188D01*
X101548000Y-69237928D01*
X97588000Y-69237928D01*
X97463518Y-69250188D01*
X97343820Y-69286498D01*
X97233506Y-69345463D01*
X97136815Y-69424815D01*
X97057463Y-69521506D01*
X96998498Y-69631820D01*
X96962188Y-69751518D01*
X96949928Y-69876000D01*
X82886038Y-69876000D01*
X82860502Y-69791820D01*
X82801537Y-69681506D01*
X82722185Y-69584815D01*
X82625494Y-69505463D01*
X82515180Y-69446498D01*
X82395482Y-69410188D01*
X82271000Y-69397928D01*
X81656750Y-69401000D01*
X81498000Y-69559750D01*
X81244000Y-69559750D01*
X81085250Y-69401000D01*
X80471000Y-69397928D01*
X80346518Y-69410188D01*
X80226820Y-69446498D01*
X80116506Y-69505463D01*
X80019815Y-69584815D01*
X79940463Y-69681506D01*
X79881498Y-69791820D01*
X79845188Y-69911518D01*
X79832928Y-70036000D01*
X49488106Y-70036000D01*
X49316632Y-69864526D01*
X49142240Y-69748001D01*
X49316632Y-69631476D01*
X49523475Y-69424633D01*
X49685990Y-69181412D01*
X49797932Y-68911159D01*
X49855000Y-68624261D01*
X49855000Y-68331741D01*
X49797932Y-68044843D01*
X49685990Y-67774590D01*
X49523475Y-67531369D01*
X49316632Y-67324526D01*
X49142240Y-67208001D01*
X49316632Y-67091476D01*
X49523475Y-66884633D01*
X49685990Y-66641412D01*
X49797932Y-66371159D01*
X49855000Y-66084261D01*
X49855000Y-65791741D01*
X49837710Y-65704816D01*
X79836000Y-65704816D01*
X79836000Y-66007184D01*
X79894989Y-66303743D01*
X80010701Y-66583095D01*
X80178688Y-66834505D01*
X80392495Y-67048312D01*
X80643905Y-67216299D01*
X80923257Y-67332011D01*
X81219816Y-67391000D01*
X81522184Y-67391000D01*
X81818743Y-67332011D01*
X82098095Y-67216299D01*
X82349505Y-67048312D01*
X82563312Y-66834505D01*
X82731299Y-66583095D01*
X82847011Y-66303743D01*
X82906000Y-66007184D01*
X82906000Y-65704816D01*
X82847011Y-65408257D01*
X82731299Y-65128905D01*
X82563312Y-64877495D01*
X82349505Y-64663688D01*
X82098095Y-64495701D01*
X81818743Y-64379989D01*
X81522184Y-64321000D01*
X81219816Y-64321000D01*
X80923257Y-64379989D01*
X80643905Y-64495701D01*
X80392495Y-64663688D01*
X80178688Y-64877495D01*
X80010701Y-65128905D01*
X79894989Y-65408257D01*
X79836000Y-65704816D01*
X49837710Y-65704816D01*
X49797932Y-65504843D01*
X49685990Y-65234590D01*
X49523475Y-64991369D01*
X49316632Y-64784526D01*
X49142240Y-64668001D01*
X49316632Y-64551476D01*
X49523475Y-64344633D01*
X49685990Y-64101412D01*
X49797932Y-63831159D01*
X49855000Y-63544261D01*
X49855000Y-63251741D01*
X49797932Y-62964843D01*
X49685990Y-62694590D01*
X49646883Y-62636061D01*
X62973000Y-62636061D01*
X62973000Y-62839939D01*
X63012774Y-63039898D01*
X63090795Y-63228256D01*
X63204063Y-63397774D01*
X63348226Y-63541937D01*
X63517744Y-63655205D01*
X63706102Y-63733226D01*
X63906061Y-63773000D01*
X64109939Y-63773000D01*
X64309898Y-63733226D01*
X64498256Y-63655205D01*
X64663391Y-63544865D01*
X96997782Y-63544865D01*
X97028095Y-63670528D01*
X97156304Y-63963205D01*
X97339148Y-64225246D01*
X97569601Y-64446581D01*
X97838806Y-64618704D01*
X98136418Y-64735000D01*
X98451000Y-64791000D01*
X99441000Y-64791000D01*
X99441000Y-63293000D01*
X99695000Y-63293000D01*
X99695000Y-64791000D01*
X100685000Y-64791000D01*
X100999582Y-64735000D01*
X101297194Y-64618704D01*
X101566399Y-64446581D01*
X101796852Y-64225246D01*
X101979696Y-63963205D01*
X102107905Y-63670528D01*
X102138218Y-63544865D01*
X102018740Y-63293000D01*
X99695000Y-63293000D01*
X99441000Y-63293000D01*
X97117260Y-63293000D01*
X96997782Y-63544865D01*
X64663391Y-63544865D01*
X64667774Y-63541937D01*
X64811937Y-63397774D01*
X64925205Y-63228256D01*
X65003226Y-63039898D01*
X65043000Y-62839939D01*
X65043000Y-62787135D01*
X96997782Y-62787135D01*
X97117260Y-63039000D01*
X99441000Y-63039000D01*
X99441000Y-61541000D01*
X99695000Y-61541000D01*
X99695000Y-63039000D01*
X102018740Y-63039000D01*
X102138218Y-62787135D01*
X102107905Y-62661472D01*
X101979696Y-62368795D01*
X101796852Y-62106754D01*
X101566399Y-61885419D01*
X101297194Y-61713296D01*
X100999582Y-61597000D01*
X100685000Y-61541000D01*
X99695000Y-61541000D01*
X99441000Y-61541000D01*
X98451000Y-61541000D01*
X98136418Y-61597000D01*
X97838806Y-61713296D01*
X97569601Y-61885419D01*
X97339148Y-62106754D01*
X97156304Y-62368795D01*
X97028095Y-62661472D01*
X96997782Y-62787135D01*
X65043000Y-62787135D01*
X65043000Y-62777801D01*
X69091008Y-58729795D01*
X69120001Y-58706001D01*
X69143795Y-58677008D01*
X69143799Y-58677004D01*
X69214973Y-58590277D01*
X69214974Y-58590276D01*
X69285546Y-58458247D01*
X69329003Y-58314986D01*
X69340000Y-58203333D01*
X69340000Y-58203324D01*
X69343676Y-58166001D01*
X69340000Y-58128678D01*
X69340000Y-57176000D01*
X96949928Y-57176000D01*
X96949928Y-59156000D01*
X96962188Y-59280482D01*
X96998498Y-59400180D01*
X97057463Y-59510494D01*
X97136815Y-59607185D01*
X97233506Y-59686537D01*
X97343820Y-59745502D01*
X97463518Y-59781812D01*
X97588000Y-59794072D01*
X101548000Y-59794072D01*
X101672482Y-59781812D01*
X101792180Y-59745502D01*
X101902494Y-59686537D01*
X101999185Y-59607185D01*
X102078537Y-59510494D01*
X102137502Y-59400180D01*
X102173812Y-59280482D01*
X102186072Y-59156000D01*
X102186072Y-57176000D01*
X102173812Y-57051518D01*
X102137502Y-56931820D01*
X102078537Y-56821506D01*
X101999185Y-56724815D01*
X101902494Y-56645463D01*
X101792180Y-56586498D01*
X101672482Y-56550188D01*
X101548000Y-56537928D01*
X97588000Y-56537928D01*
X97463518Y-56550188D01*
X97343820Y-56586498D01*
X97233506Y-56645463D01*
X97136815Y-56724815D01*
X97057463Y-56821506D01*
X96998498Y-56931820D01*
X96962188Y-57051518D01*
X96949928Y-57176000D01*
X69340000Y-57176000D01*
X69340000Y-54297711D01*
X69383937Y-54253774D01*
X69497205Y-54084256D01*
X69575226Y-53895898D01*
X69615000Y-53695939D01*
X69615000Y-53492061D01*
X69575226Y-53292102D01*
X69497205Y-53103744D01*
X69431104Y-53004816D01*
X79836000Y-53004816D01*
X79836000Y-53307184D01*
X79894989Y-53603743D01*
X80010701Y-53883095D01*
X80178688Y-54134505D01*
X80392495Y-54348312D01*
X80643905Y-54516299D01*
X80923257Y-54632011D01*
X81219816Y-54691000D01*
X81522184Y-54691000D01*
X81818743Y-54632011D01*
X82098095Y-54516299D01*
X82349505Y-54348312D01*
X82563312Y-54134505D01*
X82731299Y-53883095D01*
X82847011Y-53603743D01*
X82906000Y-53307184D01*
X82906000Y-53004816D01*
X82847011Y-52708257D01*
X82731299Y-52428905D01*
X82563312Y-52177495D01*
X82349505Y-51963688D01*
X82098095Y-51795701D01*
X81818743Y-51679989D01*
X81522184Y-51621000D01*
X81219816Y-51621000D01*
X80923257Y-51679989D01*
X80643905Y-51795701D01*
X80392495Y-51963688D01*
X80178688Y-52177495D01*
X80010701Y-52428905D01*
X79894989Y-52708257D01*
X79836000Y-53004816D01*
X69431104Y-53004816D01*
X69383937Y-52934226D01*
X69239774Y-52790063D01*
X69070256Y-52676795D01*
X68881898Y-52598774D01*
X68681939Y-52559000D01*
X68478061Y-52559000D01*
X68278102Y-52598774D01*
X68089744Y-52676795D01*
X67920226Y-52790063D01*
X67776063Y-52934226D01*
X67662795Y-53103744D01*
X67584774Y-53292102D01*
X67545000Y-53492061D01*
X67545000Y-53695939D01*
X67584774Y-53895898D01*
X67662795Y-54084256D01*
X67776063Y-54253774D01*
X67820000Y-54297711D01*
X67820001Y-57851196D01*
X63968199Y-61703000D01*
X63906061Y-61703000D01*
X63706102Y-61742774D01*
X63517744Y-61820795D01*
X63348226Y-61934063D01*
X63204063Y-62078226D01*
X63090795Y-62247744D01*
X63012774Y-62436102D01*
X62973000Y-62636061D01*
X49646883Y-62636061D01*
X49523475Y-62451369D01*
X49391620Y-62319514D01*
X49464180Y-62297503D01*
X49574494Y-62238538D01*
X49671185Y-62159186D01*
X49750537Y-62062495D01*
X49809502Y-61952181D01*
X49845812Y-61832483D01*
X49858072Y-61708001D01*
X49855000Y-61143751D01*
X49696250Y-60985001D01*
X48497000Y-60985001D01*
X48497000Y-61005001D01*
X48243000Y-61005001D01*
X48243000Y-60985001D01*
X47043750Y-60985001D01*
X46885000Y-61143751D01*
X46881928Y-61708001D01*
X32078072Y-61708001D01*
X32075000Y-61143751D01*
X31916250Y-60985001D01*
X30717000Y-60985001D01*
X30717000Y-61005001D01*
X30463000Y-61005001D01*
X30463000Y-60985001D01*
X29263750Y-60985001D01*
X29105000Y-61143751D01*
X29101928Y-61708001D01*
X24003000Y-61708001D01*
X24003000Y-49008001D01*
X29101928Y-49008001D01*
X29114188Y-49132483D01*
X29150498Y-49252181D01*
X29209463Y-49362495D01*
X29288815Y-49459186D01*
X29385506Y-49538538D01*
X29495820Y-49597503D01*
X29568380Y-49619514D01*
X29436525Y-49751369D01*
X29274010Y-49994590D01*
X29162068Y-50264843D01*
X29105000Y-50551741D01*
X29105000Y-50844261D01*
X29162068Y-51131159D01*
X29274010Y-51401412D01*
X29436525Y-51644633D01*
X29643368Y-51851476D01*
X29817760Y-51968001D01*
X29643368Y-52084526D01*
X29436525Y-52291369D01*
X29274010Y-52534590D01*
X29162068Y-52804843D01*
X29105000Y-53091741D01*
X29105000Y-53384261D01*
X29162068Y-53671159D01*
X29274010Y-53941412D01*
X29436525Y-54184633D01*
X29643368Y-54391476D01*
X29817760Y-54508001D01*
X29643368Y-54624526D01*
X29436525Y-54831369D01*
X29274010Y-55074590D01*
X29162068Y-55344843D01*
X29105000Y-55631741D01*
X29105000Y-55924261D01*
X29162068Y-56211159D01*
X29274010Y-56481412D01*
X29436525Y-56724633D01*
X29643368Y-56931476D01*
X29817760Y-57048001D01*
X29643368Y-57164526D01*
X29436525Y-57371369D01*
X29274010Y-57614590D01*
X29162068Y-57884843D01*
X29105000Y-58171741D01*
X29105000Y-58464261D01*
X29162068Y-58751159D01*
X29274010Y-59021412D01*
X29436525Y-59264633D01*
X29568380Y-59396488D01*
X29495820Y-59418499D01*
X29385506Y-59477464D01*
X29288815Y-59556816D01*
X29209463Y-59653507D01*
X29150498Y-59763821D01*
X29114188Y-59883519D01*
X29101928Y-60008001D01*
X29105000Y-60572251D01*
X29263750Y-60731001D01*
X30463000Y-60731001D01*
X30463000Y-60711001D01*
X30717000Y-60711001D01*
X30717000Y-60731001D01*
X31916250Y-60731001D01*
X32075000Y-60572251D01*
X32078072Y-60008001D01*
X32065812Y-59883519D01*
X32029502Y-59763821D01*
X31970537Y-59653507D01*
X31891185Y-59556816D01*
X31794494Y-59477464D01*
X31684180Y-59418499D01*
X31611620Y-59396488D01*
X31743475Y-59264633D01*
X31905990Y-59021412D01*
X32017932Y-58751159D01*
X32075000Y-58464261D01*
X32075000Y-58171741D01*
X32017932Y-57884843D01*
X31905990Y-57614590D01*
X31743475Y-57371369D01*
X31536632Y-57164526D01*
X31362240Y-57048001D01*
X31536632Y-56931476D01*
X31743475Y-56724633D01*
X31905990Y-56481412D01*
X32017932Y-56211159D01*
X32075000Y-55924261D01*
X32075000Y-55631741D01*
X32017932Y-55344843D01*
X31905990Y-55074590D01*
X31743475Y-54831369D01*
X31536632Y-54624526D01*
X31362240Y-54508001D01*
X31536632Y-54391476D01*
X31743475Y-54184633D01*
X31905990Y-53941412D01*
X32017932Y-53671159D01*
X32075000Y-53384261D01*
X32075000Y-53091741D01*
X32017932Y-52804843D01*
X31905990Y-52534590D01*
X31743475Y-52291369D01*
X31536632Y-52084526D01*
X31362240Y-51968001D01*
X31536632Y-51851476D01*
X31743475Y-51644633D01*
X31905990Y-51401412D01*
X32017932Y-51131159D01*
X32075000Y-50844261D01*
X32075000Y-50551741D01*
X32017932Y-50264843D01*
X31905990Y-49994590D01*
X31743475Y-49751369D01*
X31611620Y-49619514D01*
X31684180Y-49597503D01*
X31794494Y-49538538D01*
X31891185Y-49459186D01*
X31970537Y-49362495D01*
X32029502Y-49252181D01*
X32065812Y-49132483D01*
X32078072Y-49008001D01*
X46881928Y-49008001D01*
X46894188Y-49132483D01*
X46930498Y-49252181D01*
X46989463Y-49362495D01*
X47068815Y-49459186D01*
X47165506Y-49538538D01*
X47275820Y-49597503D01*
X47348380Y-49619514D01*
X47216525Y-49751369D01*
X47054010Y-49994590D01*
X46942068Y-50264843D01*
X46885000Y-50551741D01*
X46885000Y-50844261D01*
X46942068Y-51131159D01*
X47054010Y-51401412D01*
X47216525Y-51644633D01*
X47423368Y-51851476D01*
X47597760Y-51968001D01*
X47423368Y-52084526D01*
X47216525Y-52291369D01*
X47054010Y-52534590D01*
X46942068Y-52804843D01*
X46885000Y-53091741D01*
X46885000Y-53384261D01*
X46942068Y-53671159D01*
X47054010Y-53941412D01*
X47216525Y-54184633D01*
X47423368Y-54391476D01*
X47597760Y-54508001D01*
X47423368Y-54624526D01*
X47216525Y-54831369D01*
X47054010Y-55074590D01*
X46942068Y-55344843D01*
X46885000Y-55631741D01*
X46885000Y-55924261D01*
X46942068Y-56211159D01*
X47054010Y-56481412D01*
X47216525Y-56724633D01*
X47423368Y-56931476D01*
X47597760Y-57048001D01*
X47423368Y-57164526D01*
X47216525Y-57371369D01*
X47054010Y-57614590D01*
X46942068Y-57884843D01*
X46885000Y-58171741D01*
X46885000Y-58464261D01*
X46942068Y-58751159D01*
X47054010Y-59021412D01*
X47216525Y-59264633D01*
X47348380Y-59396488D01*
X47275820Y-59418499D01*
X47165506Y-59477464D01*
X47068815Y-59556816D01*
X46989463Y-59653507D01*
X46930498Y-59763821D01*
X46894188Y-59883519D01*
X46881928Y-60008001D01*
X46885000Y-60572251D01*
X47043750Y-60731001D01*
X48243000Y-60731001D01*
X48243000Y-60711001D01*
X48497000Y-60711001D01*
X48497000Y-60731001D01*
X49696250Y-60731001D01*
X49855000Y-60572251D01*
X49858072Y-60008001D01*
X49845812Y-59883519D01*
X49809502Y-59763821D01*
X49750537Y-59653507D01*
X49671185Y-59556816D01*
X49574494Y-59477464D01*
X49464180Y-59418499D01*
X49391620Y-59396488D01*
X49523475Y-59264633D01*
X49685990Y-59021412D01*
X49797932Y-58751159D01*
X49855000Y-58464261D01*
X49855000Y-58171741D01*
X49797932Y-57884843D01*
X49685990Y-57614590D01*
X49523475Y-57371369D01*
X49316632Y-57164526D01*
X49142240Y-57048001D01*
X49316632Y-56931476D01*
X49523475Y-56724633D01*
X49685990Y-56481412D01*
X49797932Y-56211159D01*
X49855000Y-55924261D01*
X49855000Y-55631741D01*
X49797932Y-55344843D01*
X49685990Y-55074590D01*
X49523475Y-54831369D01*
X49316632Y-54624526D01*
X49142240Y-54508001D01*
X49316632Y-54391476D01*
X49523475Y-54184633D01*
X49685990Y-53941412D01*
X49797932Y-53671159D01*
X49855000Y-53384261D01*
X49855000Y-53091741D01*
X49797932Y-52804843D01*
X49685990Y-52534590D01*
X49523475Y-52291369D01*
X49316632Y-52084526D01*
X49142240Y-51968001D01*
X49316632Y-51851476D01*
X49523475Y-51644633D01*
X49685990Y-51401412D01*
X49797932Y-51131159D01*
X49855000Y-50844261D01*
X49855000Y-50551741D01*
X49797932Y-50264843D01*
X49685990Y-49994590D01*
X49523475Y-49751369D01*
X49391620Y-49619514D01*
X49464180Y-49597503D01*
X49574494Y-49538538D01*
X49671185Y-49459186D01*
X49750537Y-49362495D01*
X49809502Y-49252181D01*
X49845812Y-49132483D01*
X49858072Y-49008001D01*
X49855000Y-48443751D01*
X49696250Y-48285001D01*
X48497000Y-48285001D01*
X48497000Y-48305001D01*
X48243000Y-48305001D01*
X48243000Y-48285001D01*
X47043750Y-48285001D01*
X46885000Y-48443751D01*
X46881928Y-49008001D01*
X32078072Y-49008001D01*
X32075000Y-48443751D01*
X31916250Y-48285001D01*
X30717000Y-48285001D01*
X30717000Y-48305001D01*
X30463000Y-48305001D01*
X30463000Y-48285001D01*
X29263750Y-48285001D01*
X29105000Y-48443751D01*
X29101928Y-49008001D01*
X24003000Y-49008001D01*
X24003000Y-36308001D01*
X29101928Y-36308001D01*
X29114188Y-36432483D01*
X29150498Y-36552181D01*
X29209463Y-36662495D01*
X29288815Y-36759186D01*
X29385506Y-36838538D01*
X29495820Y-36897503D01*
X29568380Y-36919514D01*
X29436525Y-37051369D01*
X29274010Y-37294590D01*
X29162068Y-37564843D01*
X29105000Y-37851741D01*
X29105000Y-38144261D01*
X29162068Y-38431159D01*
X29274010Y-38701412D01*
X29436525Y-38944633D01*
X29643368Y-39151476D01*
X29817760Y-39268001D01*
X29643368Y-39384526D01*
X29436525Y-39591369D01*
X29274010Y-39834590D01*
X29162068Y-40104843D01*
X29105000Y-40391741D01*
X29105000Y-40684261D01*
X29162068Y-40971159D01*
X29274010Y-41241412D01*
X29436525Y-41484633D01*
X29643368Y-41691476D01*
X29817760Y-41808001D01*
X29643368Y-41924526D01*
X29436525Y-42131369D01*
X29274010Y-42374590D01*
X29162068Y-42644843D01*
X29105000Y-42931741D01*
X29105000Y-43224261D01*
X29162068Y-43511159D01*
X29274010Y-43781412D01*
X29436525Y-44024633D01*
X29643368Y-44231476D01*
X29817760Y-44348001D01*
X29643368Y-44464526D01*
X29436525Y-44671369D01*
X29274010Y-44914590D01*
X29162068Y-45184843D01*
X29105000Y-45471741D01*
X29105000Y-45764261D01*
X29162068Y-46051159D01*
X29274010Y-46321412D01*
X29436525Y-46564633D01*
X29568380Y-46696488D01*
X29495820Y-46718499D01*
X29385506Y-46777464D01*
X29288815Y-46856816D01*
X29209463Y-46953507D01*
X29150498Y-47063821D01*
X29114188Y-47183519D01*
X29101928Y-47308001D01*
X29105000Y-47872251D01*
X29263750Y-48031001D01*
X30463000Y-48031001D01*
X30463000Y-48011001D01*
X30717000Y-48011001D01*
X30717000Y-48031001D01*
X31916250Y-48031001D01*
X32075000Y-47872251D01*
X32078072Y-47308001D01*
X46881928Y-47308001D01*
X46885000Y-47872251D01*
X47043750Y-48031001D01*
X48243000Y-48031001D01*
X48243000Y-45745001D01*
X48497000Y-45745001D01*
X48497000Y-48031001D01*
X49696250Y-48031001D01*
X49855000Y-47872251D01*
X49855142Y-47846000D01*
X96945138Y-47846000D01*
X96976513Y-48164556D01*
X97069432Y-48470869D01*
X97220325Y-48753170D01*
X97423392Y-49000608D01*
X97670830Y-49203675D01*
X97953131Y-49354568D01*
X98259444Y-49447487D01*
X98498176Y-49471000D01*
X100637824Y-49471000D01*
X100876556Y-49447487D01*
X101182869Y-49354568D01*
X101465170Y-49203675D01*
X101712608Y-49000608D01*
X101915675Y-48753170D01*
X102066568Y-48470869D01*
X102159487Y-48164556D01*
X102190862Y-47846000D01*
X102159487Y-47527444D01*
X102066568Y-47221131D01*
X101915675Y-46938830D01*
X101712608Y-46691392D01*
X101465170Y-46488325D01*
X101182869Y-46337432D01*
X100876556Y-46244513D01*
X100637824Y-46221000D01*
X98498176Y-46221000D01*
X98259444Y-46244513D01*
X97953131Y-46337432D01*
X97670830Y-46488325D01*
X97423392Y-46691392D01*
X97220325Y-46938830D01*
X97069432Y-47221131D01*
X96976513Y-47527444D01*
X96945138Y-47846000D01*
X49855142Y-47846000D01*
X49858072Y-47308001D01*
X49845812Y-47183519D01*
X49809502Y-47063821D01*
X49750537Y-46953507D01*
X49671185Y-46856816D01*
X49574494Y-46777464D01*
X49464180Y-46718499D01*
X49383534Y-46694035D01*
X49467588Y-46618270D01*
X49641641Y-46384921D01*
X49766825Y-46122100D01*
X49811476Y-45974891D01*
X49690155Y-45745001D01*
X48497000Y-45745001D01*
X48243000Y-45745001D01*
X47049845Y-45745001D01*
X46928524Y-45974891D01*
X46973175Y-46122100D01*
X47098359Y-46384921D01*
X47272412Y-46618270D01*
X47356466Y-46694035D01*
X47275820Y-46718499D01*
X47165506Y-46777464D01*
X47068815Y-46856816D01*
X46989463Y-46953507D01*
X46930498Y-47063821D01*
X46894188Y-47183519D01*
X46881928Y-47308001D01*
X32078072Y-47308001D01*
X32065812Y-47183519D01*
X32029502Y-47063821D01*
X31970537Y-46953507D01*
X31891185Y-46856816D01*
X31794494Y-46777464D01*
X31684180Y-46718499D01*
X31611620Y-46696488D01*
X31743475Y-46564633D01*
X31905990Y-46321412D01*
X32017932Y-46051159D01*
X32075000Y-45764261D01*
X32075000Y-45471741D01*
X32017932Y-45184843D01*
X31905990Y-44914590D01*
X31743475Y-44671369D01*
X31536632Y-44464526D01*
X31362240Y-44348001D01*
X31536632Y-44231476D01*
X31743475Y-44024633D01*
X31905990Y-43781412D01*
X32017932Y-43511159D01*
X32075000Y-43224261D01*
X32075000Y-42931741D01*
X32017932Y-42644843D01*
X31905990Y-42374590D01*
X31743475Y-42131369D01*
X31536632Y-41924526D01*
X31362240Y-41808001D01*
X31536632Y-41691476D01*
X31743475Y-41484633D01*
X31905990Y-41241412D01*
X32017932Y-40971159D01*
X32075000Y-40684261D01*
X32075000Y-40391741D01*
X32017932Y-40104843D01*
X31905990Y-39834590D01*
X31743475Y-39591369D01*
X31536632Y-39384526D01*
X31362240Y-39268001D01*
X31536632Y-39151476D01*
X31743475Y-38944633D01*
X31905990Y-38701412D01*
X32017932Y-38431159D01*
X32075000Y-38144261D01*
X32075000Y-37851741D01*
X32017932Y-37564843D01*
X31905990Y-37294590D01*
X31743475Y-37051369D01*
X31611620Y-36919514D01*
X31684180Y-36897503D01*
X31794494Y-36838538D01*
X31891185Y-36759186D01*
X31970537Y-36662495D01*
X32029502Y-36552181D01*
X32065812Y-36432483D01*
X32078072Y-36308001D01*
X46881928Y-36308001D01*
X46894188Y-36432483D01*
X46930498Y-36552181D01*
X46989463Y-36662495D01*
X47068815Y-36759186D01*
X47165506Y-36838538D01*
X47275820Y-36897503D01*
X47348380Y-36919514D01*
X47216525Y-37051369D01*
X47054010Y-37294590D01*
X46942068Y-37564843D01*
X46885000Y-37851741D01*
X46885000Y-38144261D01*
X46942068Y-38431159D01*
X47054010Y-38701412D01*
X47216525Y-38944633D01*
X47423368Y-39151476D01*
X47597760Y-39268001D01*
X47423368Y-39384526D01*
X47216525Y-39591369D01*
X47054010Y-39834590D01*
X46942068Y-40104843D01*
X46885000Y-40391741D01*
X46885000Y-40684261D01*
X46942068Y-40971159D01*
X47054010Y-41241412D01*
X47216525Y-41484633D01*
X47423368Y-41691476D01*
X47597760Y-41808001D01*
X47423368Y-41924526D01*
X47216525Y-42131369D01*
X47054010Y-42374590D01*
X46942068Y-42644843D01*
X46885000Y-42931741D01*
X46885000Y-43224261D01*
X46942068Y-43511159D01*
X47054010Y-43781412D01*
X47216525Y-44024633D01*
X47423368Y-44231476D01*
X47605534Y-44353196D01*
X47488645Y-44422823D01*
X47272412Y-44617732D01*
X47098359Y-44851081D01*
X46973175Y-45113902D01*
X46928524Y-45261111D01*
X47049845Y-45491001D01*
X48243000Y-45491001D01*
X48243000Y-45471001D01*
X48497000Y-45471001D01*
X48497000Y-45491001D01*
X49690155Y-45491001D01*
X49811476Y-45261111D01*
X49766825Y-45113902D01*
X49641641Y-44851081D01*
X49467588Y-44617732D01*
X49251355Y-44422823D01*
X49134466Y-44353196D01*
X49316632Y-44231476D01*
X49523475Y-44024633D01*
X49685990Y-43781412D01*
X49797932Y-43511159D01*
X49855000Y-43224261D01*
X49855000Y-43078061D01*
X68307000Y-43078061D01*
X68307000Y-43281939D01*
X68346774Y-43481898D01*
X68424795Y-43670256D01*
X68538063Y-43839774D01*
X68682226Y-43983937D01*
X68851744Y-44097205D01*
X69040102Y-44175226D01*
X69240061Y-44215000D01*
X69443939Y-44215000D01*
X69643898Y-44175226D01*
X69832256Y-44097205D01*
X70001774Y-43983937D01*
X70145937Y-43839774D01*
X70259205Y-43670256D01*
X70337226Y-43481898D01*
X70377000Y-43281939D01*
X70377000Y-43078061D01*
X70337226Y-42878102D01*
X70323439Y-42844816D01*
X79836000Y-42844816D01*
X79836000Y-43147184D01*
X79894989Y-43443743D01*
X80010701Y-43723095D01*
X80178688Y-43974505D01*
X80392495Y-44188312D01*
X80643905Y-44356299D01*
X80923257Y-44472011D01*
X81219816Y-44531000D01*
X81522184Y-44531000D01*
X81818743Y-44472011D01*
X82098095Y-44356299D01*
X82349505Y-44188312D01*
X82563312Y-43974505D01*
X82731299Y-43723095D01*
X82847011Y-43443743D01*
X82906000Y-43147184D01*
X82906000Y-42846000D01*
X96945138Y-42846000D01*
X96976513Y-43164556D01*
X97069432Y-43470869D01*
X97220325Y-43753170D01*
X97423392Y-44000608D01*
X97670830Y-44203675D01*
X97953131Y-44354568D01*
X98259444Y-44447487D01*
X98498176Y-44471000D01*
X100637824Y-44471000D01*
X100876556Y-44447487D01*
X101182869Y-44354568D01*
X101465170Y-44203675D01*
X101712608Y-44000608D01*
X101915675Y-43753170D01*
X102066568Y-43470869D01*
X102159487Y-43164556D01*
X102190862Y-42846000D01*
X102159487Y-42527444D01*
X102066568Y-42221131D01*
X101915675Y-41938830D01*
X101712608Y-41691392D01*
X101465170Y-41488325D01*
X101182869Y-41337432D01*
X100876556Y-41244513D01*
X100637824Y-41221000D01*
X98498176Y-41221000D01*
X98259444Y-41244513D01*
X97953131Y-41337432D01*
X97670830Y-41488325D01*
X97423392Y-41691392D01*
X97220325Y-41938830D01*
X97069432Y-42221131D01*
X96976513Y-42527444D01*
X96945138Y-42846000D01*
X82906000Y-42846000D01*
X82906000Y-42844816D01*
X82847011Y-42548257D01*
X82731299Y-42268905D01*
X82563312Y-42017495D01*
X82349505Y-41803688D01*
X82098095Y-41635701D01*
X81818743Y-41519989D01*
X81522184Y-41461000D01*
X81219816Y-41461000D01*
X80923257Y-41519989D01*
X80643905Y-41635701D01*
X80392495Y-41803688D01*
X80178688Y-42017495D01*
X80010701Y-42268905D01*
X79894989Y-42548257D01*
X79836000Y-42844816D01*
X70323439Y-42844816D01*
X70259205Y-42689744D01*
X70145937Y-42520226D01*
X70102000Y-42476289D01*
X70102000Y-40538061D01*
X70339000Y-40538061D01*
X70339000Y-40741939D01*
X70378774Y-40941898D01*
X70456795Y-41130256D01*
X70570063Y-41299774D01*
X70714226Y-41443937D01*
X70883744Y-41557205D01*
X71072102Y-41635226D01*
X71272061Y-41675000D01*
X71475939Y-41675000D01*
X71675898Y-41635226D01*
X71864256Y-41557205D01*
X72033774Y-41443937D01*
X72177937Y-41299774D01*
X72291205Y-41130256D01*
X72369226Y-40941898D01*
X72409000Y-40741939D01*
X72409000Y-40679801D01*
X74252801Y-38836000D01*
X96949928Y-38836000D01*
X96962188Y-38960482D01*
X96998498Y-39080180D01*
X97057463Y-39190494D01*
X97136815Y-39287185D01*
X97233506Y-39366537D01*
X97343820Y-39425502D01*
X97463518Y-39461812D01*
X97588000Y-39474072D01*
X99282250Y-39471000D01*
X99441000Y-39312250D01*
X99441000Y-37973000D01*
X99695000Y-37973000D01*
X99695000Y-39312250D01*
X99853750Y-39471000D01*
X101548000Y-39474072D01*
X101672482Y-39461812D01*
X101792180Y-39425502D01*
X101902494Y-39366537D01*
X101999185Y-39287185D01*
X102078537Y-39190494D01*
X102137502Y-39080180D01*
X102173812Y-38960482D01*
X102186072Y-38836000D01*
X102183000Y-38131750D01*
X102024250Y-37973000D01*
X99695000Y-37973000D01*
X99441000Y-37973000D01*
X97111750Y-37973000D01*
X96953000Y-38131750D01*
X96949928Y-38836000D01*
X74252801Y-38836000D01*
X76260803Y-36828000D01*
X77020289Y-36828000D01*
X77064226Y-36871937D01*
X77233744Y-36985205D01*
X77422102Y-37063226D01*
X77622061Y-37103000D01*
X77825939Y-37103000D01*
X78025898Y-37063226D01*
X78214256Y-36985205D01*
X78383774Y-36871937D01*
X78399711Y-36856000D01*
X96949928Y-36856000D01*
X96953000Y-37560250D01*
X97111750Y-37719000D01*
X99441000Y-37719000D01*
X99441000Y-36379750D01*
X99695000Y-36379750D01*
X99695000Y-37719000D01*
X102024250Y-37719000D01*
X102183000Y-37560250D01*
X102186072Y-36856000D01*
X102173812Y-36731518D01*
X102137502Y-36611820D01*
X102078537Y-36501506D01*
X101999185Y-36404815D01*
X101902494Y-36325463D01*
X101792180Y-36266498D01*
X101672482Y-36230188D01*
X101548000Y-36217928D01*
X99853750Y-36221000D01*
X99695000Y-36379750D01*
X99441000Y-36379750D01*
X99282250Y-36221000D01*
X97588000Y-36217928D01*
X97463518Y-36230188D01*
X97343820Y-36266498D01*
X97233506Y-36325463D01*
X97136815Y-36404815D01*
X97057463Y-36501506D01*
X96998498Y-36611820D01*
X96962188Y-36731518D01*
X96949928Y-36856000D01*
X78399711Y-36856000D01*
X78527937Y-36727774D01*
X78641205Y-36558256D01*
X78719226Y-36369898D01*
X78759000Y-36169939D01*
X78759000Y-35966061D01*
X78719226Y-35766102D01*
X78641205Y-35577744D01*
X78527937Y-35408226D01*
X78383774Y-35264063D01*
X78214256Y-35150795D01*
X78025898Y-35072774D01*
X77825939Y-35033000D01*
X77622061Y-35033000D01*
X77422102Y-35072774D01*
X77233744Y-35150795D01*
X77064226Y-35264063D01*
X77020289Y-35308000D01*
X75983322Y-35308000D01*
X75945999Y-35304324D01*
X75908676Y-35308000D01*
X75908667Y-35308000D01*
X75797014Y-35318997D01*
X75653753Y-35362454D01*
X75521724Y-35433026D01*
X75521722Y-35433027D01*
X75521723Y-35433027D01*
X75434996Y-35504201D01*
X75434992Y-35504205D01*
X75405999Y-35527999D01*
X75382205Y-35556992D01*
X71334199Y-39605000D01*
X71272061Y-39605000D01*
X71072102Y-39644774D01*
X70883744Y-39722795D01*
X70714226Y-39836063D01*
X70570063Y-39980226D01*
X70456795Y-40149744D01*
X70378774Y-40338102D01*
X70339000Y-40538061D01*
X70102000Y-40538061D01*
X70102000Y-37906801D01*
X75223802Y-32785000D01*
X75285939Y-32785000D01*
X75485898Y-32745226D01*
X75674256Y-32667205D01*
X75843774Y-32553937D01*
X75987937Y-32409774D01*
X76101205Y-32240256D01*
X76179226Y-32051898D01*
X76219000Y-31851939D01*
X76219000Y-31648061D01*
X76179226Y-31448102D01*
X76101205Y-31259744D01*
X75987937Y-31090226D01*
X75843774Y-30946063D01*
X75674256Y-30832795D01*
X75485898Y-30754774D01*
X75285939Y-30715000D01*
X75082061Y-30715000D01*
X74882102Y-30754774D01*
X74693744Y-30832795D01*
X74524226Y-30946063D01*
X74380063Y-31090226D01*
X74266795Y-31259744D01*
X74188774Y-31448102D01*
X74149000Y-31648061D01*
X74149000Y-31710198D01*
X68831003Y-37028196D01*
X68801999Y-37051999D01*
X68760144Y-37103000D01*
X68707026Y-37167724D01*
X68639214Y-37294590D01*
X68636454Y-37299754D01*
X68592997Y-37443015D01*
X68582000Y-37554668D01*
X68582000Y-37554678D01*
X68578324Y-37592000D01*
X68582000Y-37629323D01*
X68582001Y-42476288D01*
X68538063Y-42520226D01*
X68424795Y-42689744D01*
X68346774Y-42878102D01*
X68307000Y-43078061D01*
X49855000Y-43078061D01*
X49855000Y-42931741D01*
X49797932Y-42644843D01*
X49685990Y-42374590D01*
X49523475Y-42131369D01*
X49316632Y-41924526D01*
X49142240Y-41808001D01*
X49316632Y-41691476D01*
X49523475Y-41484633D01*
X49685990Y-41241412D01*
X49797932Y-40971159D01*
X49855000Y-40684261D01*
X49855000Y-40391741D01*
X49797932Y-40104843D01*
X49685990Y-39834590D01*
X49523475Y-39591369D01*
X49316632Y-39384526D01*
X49142240Y-39268001D01*
X49316632Y-39151476D01*
X49523475Y-38944633D01*
X49685990Y-38701412D01*
X49797932Y-38431159D01*
X49855000Y-38144261D01*
X49855000Y-37851741D01*
X49797932Y-37564843D01*
X49685990Y-37294590D01*
X49523475Y-37051369D01*
X49391620Y-36919514D01*
X49464180Y-36897503D01*
X49574494Y-36838538D01*
X49671185Y-36759186D01*
X49750537Y-36662495D01*
X49809502Y-36552181D01*
X49845812Y-36432483D01*
X49858072Y-36308001D01*
X49855000Y-35743751D01*
X49696250Y-35585001D01*
X48497000Y-35585001D01*
X48497000Y-35605001D01*
X48243000Y-35605001D01*
X48243000Y-35585001D01*
X47043750Y-35585001D01*
X46885000Y-35743751D01*
X46881928Y-36308001D01*
X32078072Y-36308001D01*
X32075000Y-35743751D01*
X31916250Y-35585001D01*
X30717000Y-35585001D01*
X30717000Y-35605001D01*
X30463000Y-35605001D01*
X30463000Y-35585001D01*
X29263750Y-35585001D01*
X29105000Y-35743751D01*
X29101928Y-36308001D01*
X24003000Y-36308001D01*
X24003000Y-34608001D01*
X29101928Y-34608001D01*
X29105000Y-35172251D01*
X29263750Y-35331001D01*
X30463000Y-35331001D01*
X30463000Y-35311001D01*
X30717000Y-35311001D01*
X30717000Y-35331001D01*
X31916250Y-35331001D01*
X32075000Y-35172251D01*
X32078072Y-34608001D01*
X32065812Y-34483519D01*
X32029502Y-34363821D01*
X31970537Y-34253507D01*
X31891185Y-34156816D01*
X31794494Y-34077464D01*
X31684180Y-34018499D01*
X31611620Y-33996488D01*
X31743475Y-33864633D01*
X31905990Y-33621412D01*
X31997042Y-33401590D01*
X35670000Y-33401590D01*
X35670000Y-33674412D01*
X35723225Y-33941990D01*
X35827629Y-34194044D01*
X35979201Y-34420887D01*
X36172114Y-34613800D01*
X36398957Y-34765372D01*
X36651011Y-34869776D01*
X36918589Y-34923001D01*
X37191411Y-34923001D01*
X37458989Y-34869776D01*
X37711043Y-34765372D01*
X37937886Y-34613800D01*
X38130799Y-34420887D01*
X38282371Y-34194044D01*
X38386775Y-33941990D01*
X38440000Y-33674412D01*
X38440000Y-33401590D01*
X40520000Y-33401590D01*
X40520000Y-33674412D01*
X40573225Y-33941990D01*
X40677629Y-34194044D01*
X40829201Y-34420887D01*
X41022114Y-34613800D01*
X41248957Y-34765372D01*
X41501011Y-34869776D01*
X41768589Y-34923001D01*
X42041411Y-34923001D01*
X42308989Y-34869776D01*
X42561043Y-34765372D01*
X42787886Y-34613800D01*
X42793685Y-34608001D01*
X46881928Y-34608001D01*
X46885000Y-35172251D01*
X47043750Y-35331001D01*
X48243000Y-35331001D01*
X48243000Y-35311001D01*
X48497000Y-35311001D01*
X48497000Y-35331001D01*
X49696250Y-35331001D01*
X49855000Y-35172251D01*
X49858072Y-34608001D01*
X49845812Y-34483519D01*
X49809502Y-34363821D01*
X49750537Y-34253507D01*
X49671185Y-34156816D01*
X49574494Y-34077464D01*
X49464180Y-34018499D01*
X49391620Y-33996488D01*
X49523475Y-33864633D01*
X49685990Y-33621412D01*
X49797932Y-33351159D01*
X49855000Y-33064261D01*
X49855000Y-32771741D01*
X49797932Y-32484843D01*
X49685990Y-32214590D01*
X49523475Y-31971369D01*
X49316632Y-31764526D01*
X49142240Y-31648001D01*
X49316632Y-31531476D01*
X49523475Y-31324633D01*
X49685990Y-31081412D01*
X49797932Y-30811159D01*
X49830784Y-30646000D01*
X60233928Y-30646000D01*
X60233928Y-32346000D01*
X60246188Y-32470482D01*
X60282498Y-32590180D01*
X60341463Y-32700494D01*
X60420815Y-32797185D01*
X60517506Y-32876537D01*
X60627820Y-32935502D01*
X60747518Y-32971812D01*
X60872000Y-32984072D01*
X62572000Y-32984072D01*
X62696482Y-32971812D01*
X62816180Y-32935502D01*
X62926494Y-32876537D01*
X63023185Y-32797185D01*
X63102537Y-32700494D01*
X63161502Y-32590180D01*
X63185966Y-32509534D01*
X63261731Y-32593588D01*
X63495080Y-32767641D01*
X63757901Y-32892825D01*
X63905110Y-32937476D01*
X64135000Y-32816155D01*
X64135000Y-31623000D01*
X64115000Y-31623000D01*
X64115000Y-31369000D01*
X64135000Y-31369000D01*
X64135000Y-30175845D01*
X64389000Y-30175845D01*
X64389000Y-31369000D01*
X64409000Y-31369000D01*
X64409000Y-31623000D01*
X64389000Y-31623000D01*
X64389000Y-32816155D01*
X64618890Y-32937476D01*
X64766099Y-32892825D01*
X65028920Y-32767641D01*
X65262269Y-32593588D01*
X65457178Y-32377355D01*
X65526805Y-32260466D01*
X65648525Y-32442632D01*
X65855368Y-32649475D01*
X66098589Y-32811990D01*
X66368842Y-32923932D01*
X66655740Y-32981000D01*
X66948260Y-32981000D01*
X67235158Y-32923932D01*
X67505411Y-32811990D01*
X67748632Y-32649475D01*
X67955475Y-32442632D01*
X68072000Y-32268240D01*
X68188525Y-32442632D01*
X68395368Y-32649475D01*
X68638589Y-32811990D01*
X68908842Y-32923932D01*
X69195740Y-32981000D01*
X69488260Y-32981000D01*
X69775158Y-32923932D01*
X70045411Y-32811990D01*
X70288632Y-32649475D01*
X70495475Y-32442632D01*
X70657990Y-32199411D01*
X70769932Y-31929158D01*
X70827000Y-31642260D01*
X70827000Y-31349740D01*
X70769932Y-31062842D01*
X70657990Y-30792589D01*
X70495475Y-30549368D01*
X70288632Y-30342525D01*
X70045411Y-30180010D01*
X69775158Y-30068068D01*
X69488260Y-30011000D01*
X69195740Y-30011000D01*
X68908842Y-30068068D01*
X68638589Y-30180010D01*
X68395368Y-30342525D01*
X68188525Y-30549368D01*
X68072000Y-30723760D01*
X67955475Y-30549368D01*
X67748632Y-30342525D01*
X67505411Y-30180010D01*
X67235158Y-30068068D01*
X66948260Y-30011000D01*
X66655740Y-30011000D01*
X66368842Y-30068068D01*
X66098589Y-30180010D01*
X65855368Y-30342525D01*
X65648525Y-30549368D01*
X65526805Y-30731534D01*
X65457178Y-30614645D01*
X65262269Y-30398412D01*
X65028920Y-30224359D01*
X64766099Y-30099175D01*
X64618890Y-30054524D01*
X64389000Y-30175845D01*
X64135000Y-30175845D01*
X63905110Y-30054524D01*
X63757901Y-30099175D01*
X63495080Y-30224359D01*
X63261731Y-30398412D01*
X63185966Y-30482466D01*
X63161502Y-30401820D01*
X63102537Y-30291506D01*
X63023185Y-30194815D01*
X62926494Y-30115463D01*
X62816180Y-30056498D01*
X62696482Y-30020188D01*
X62572000Y-30007928D01*
X60872000Y-30007928D01*
X60747518Y-30020188D01*
X60627820Y-30056498D01*
X60517506Y-30115463D01*
X60420815Y-30194815D01*
X60341463Y-30291506D01*
X60282498Y-30401820D01*
X60246188Y-30521518D01*
X60233928Y-30646000D01*
X49830784Y-30646000D01*
X49855000Y-30524261D01*
X49855000Y-30231741D01*
X49797932Y-29944843D01*
X49685990Y-29674590D01*
X49523475Y-29431369D01*
X49316632Y-29224526D01*
X49073411Y-29062011D01*
X48803158Y-28950069D01*
X48516260Y-28893001D01*
X48223740Y-28893001D01*
X47936842Y-28950069D01*
X47666589Y-29062011D01*
X47423368Y-29224526D01*
X47216525Y-29431369D01*
X47054010Y-29674590D01*
X46942068Y-29944843D01*
X46885000Y-30231741D01*
X46885000Y-30524261D01*
X46942068Y-30811159D01*
X47054010Y-31081412D01*
X47216525Y-31324633D01*
X47423368Y-31531476D01*
X47597760Y-31648001D01*
X47423368Y-31764526D01*
X47216525Y-31971369D01*
X47054010Y-32214590D01*
X46942068Y-32484843D01*
X46885000Y-32771741D01*
X46885000Y-33064261D01*
X46942068Y-33351159D01*
X47054010Y-33621412D01*
X47216525Y-33864633D01*
X47348380Y-33996488D01*
X47275820Y-34018499D01*
X47165506Y-34077464D01*
X47068815Y-34156816D01*
X46989463Y-34253507D01*
X46930498Y-34363821D01*
X46894188Y-34483519D01*
X46881928Y-34608001D01*
X42793685Y-34608001D01*
X42980799Y-34420887D01*
X43132371Y-34194044D01*
X43236775Y-33941990D01*
X43290000Y-33674412D01*
X43290000Y-33401590D01*
X43236775Y-33134012D01*
X43132371Y-32881958D01*
X42980799Y-32655115D01*
X42787886Y-32462202D01*
X42561043Y-32310630D01*
X42308989Y-32206226D01*
X42041411Y-32153001D01*
X41768589Y-32153001D01*
X41501011Y-32206226D01*
X41248957Y-32310630D01*
X41022114Y-32462202D01*
X40829201Y-32655115D01*
X40677629Y-32881958D01*
X40573225Y-33134012D01*
X40520000Y-33401590D01*
X38440000Y-33401590D01*
X38386775Y-33134012D01*
X38282371Y-32881958D01*
X38130799Y-32655115D01*
X37937886Y-32462202D01*
X37711043Y-32310630D01*
X37458989Y-32206226D01*
X37191411Y-32153001D01*
X36918589Y-32153001D01*
X36651011Y-32206226D01*
X36398957Y-32310630D01*
X36172114Y-32462202D01*
X35979201Y-32655115D01*
X35827629Y-32881958D01*
X35723225Y-33134012D01*
X35670000Y-33401590D01*
X31997042Y-33401590D01*
X32017932Y-33351159D01*
X32075000Y-33064261D01*
X32075000Y-32771741D01*
X32017932Y-32484843D01*
X31905990Y-32214590D01*
X31743475Y-31971369D01*
X31536632Y-31764526D01*
X31362240Y-31648001D01*
X31536632Y-31531476D01*
X31743475Y-31324633D01*
X31905990Y-31081412D01*
X32017932Y-30811159D01*
X32075000Y-30524261D01*
X32075000Y-30356817D01*
X35220000Y-30356817D01*
X35220000Y-30659185D01*
X35278989Y-30955744D01*
X35394701Y-31235096D01*
X35562688Y-31486506D01*
X35776495Y-31700313D01*
X36027905Y-31868300D01*
X36307257Y-31984012D01*
X36603816Y-32043001D01*
X36906184Y-32043001D01*
X37202743Y-31984012D01*
X37482095Y-31868300D01*
X37733505Y-31700313D01*
X37947312Y-31486506D01*
X38115299Y-31235096D01*
X38231011Y-30955744D01*
X38290000Y-30659185D01*
X38290000Y-30356817D01*
X40670000Y-30356817D01*
X40670000Y-30659185D01*
X40728989Y-30955744D01*
X40844701Y-31235096D01*
X41012688Y-31486506D01*
X41226495Y-31700313D01*
X41477905Y-31868300D01*
X41757257Y-31984012D01*
X42053816Y-32043001D01*
X42356184Y-32043001D01*
X42652743Y-31984012D01*
X42932095Y-31868300D01*
X43183505Y-31700313D01*
X43397312Y-31486506D01*
X43565299Y-31235096D01*
X43681011Y-30955744D01*
X43740000Y-30659185D01*
X43740000Y-30356817D01*
X43681011Y-30060258D01*
X43565299Y-29780906D01*
X43397312Y-29529496D01*
X43183505Y-29315689D01*
X42932095Y-29147702D01*
X42652743Y-29031990D01*
X42356184Y-28973001D01*
X42053816Y-28973001D01*
X41757257Y-29031990D01*
X41477905Y-29147702D01*
X41226495Y-29315689D01*
X41012688Y-29529496D01*
X40844701Y-29780906D01*
X40728989Y-30060258D01*
X40670000Y-30356817D01*
X38290000Y-30356817D01*
X38231011Y-30060258D01*
X38115299Y-29780906D01*
X37947312Y-29529496D01*
X37733505Y-29315689D01*
X37482095Y-29147702D01*
X37202743Y-29031990D01*
X36906184Y-28973001D01*
X36603816Y-28973001D01*
X36307257Y-29031990D01*
X36027905Y-29147702D01*
X35776495Y-29315689D01*
X35562688Y-29529496D01*
X35394701Y-29780906D01*
X35278989Y-30060258D01*
X35220000Y-30356817D01*
X32075000Y-30356817D01*
X32075000Y-30231741D01*
X32017932Y-29944843D01*
X31905990Y-29674590D01*
X31743475Y-29431369D01*
X31536632Y-29224526D01*
X31293411Y-29062011D01*
X31023158Y-28950069D01*
X30736260Y-28893001D01*
X30443740Y-28893001D01*
X30156842Y-28950069D01*
X29886589Y-29062011D01*
X29643368Y-29224526D01*
X29436525Y-29431369D01*
X29274010Y-29674590D01*
X29162068Y-29944843D01*
X29105000Y-30231741D01*
X29105000Y-30524261D01*
X29162068Y-30811159D01*
X29274010Y-31081412D01*
X29436525Y-31324633D01*
X29643368Y-31531476D01*
X29817760Y-31648001D01*
X29643368Y-31764526D01*
X29436525Y-31971369D01*
X29274010Y-32214590D01*
X29162068Y-32484843D01*
X29105000Y-32771741D01*
X29105000Y-33064261D01*
X29162068Y-33351159D01*
X29274010Y-33621412D01*
X29436525Y-33864633D01*
X29568380Y-33996488D01*
X29495820Y-34018499D01*
X29385506Y-34077464D01*
X29288815Y-34156816D01*
X29209463Y-34253507D01*
X29150498Y-34363821D01*
X29114188Y-34483519D01*
X29101928Y-34608001D01*
X24003000Y-34608001D01*
X24003000Y-28809740D01*
X82589000Y-28809740D01*
X82589000Y-29102260D01*
X82646068Y-29389158D01*
X82758010Y-29659411D01*
X82920525Y-29902632D01*
X83127368Y-30109475D01*
X83370589Y-30271990D01*
X83640842Y-30383932D01*
X83927740Y-30441000D01*
X84220260Y-30441000D01*
X84507158Y-30383932D01*
X84777411Y-30271990D01*
X85020632Y-30109475D01*
X85227475Y-29902632D01*
X85344000Y-29728240D01*
X85460525Y-29902632D01*
X85667368Y-30109475D01*
X85910589Y-30271990D01*
X86180842Y-30383932D01*
X86467740Y-30441000D01*
X86760260Y-30441000D01*
X87047158Y-30383932D01*
X87317411Y-30271990D01*
X87560632Y-30109475D01*
X87692487Y-29977620D01*
X87714498Y-30050180D01*
X87773463Y-30160494D01*
X87852815Y-30257185D01*
X87949506Y-30336537D01*
X88059820Y-30395502D01*
X88179518Y-30431812D01*
X88304000Y-30444072D01*
X88868250Y-30441000D01*
X89027000Y-30282250D01*
X89027000Y-29083000D01*
X89281000Y-29083000D01*
X89281000Y-30282250D01*
X89439750Y-30441000D01*
X90004000Y-30444072D01*
X90128482Y-30431812D01*
X90248180Y-30395502D01*
X90358494Y-30336537D01*
X90455185Y-30257185D01*
X90534537Y-30160494D01*
X90593502Y-30050180D01*
X90629812Y-29930482D01*
X90642072Y-29806000D01*
X90639000Y-29241750D01*
X90480250Y-29083000D01*
X89281000Y-29083000D01*
X89027000Y-29083000D01*
X89007000Y-29083000D01*
X89007000Y-28829000D01*
X89027000Y-28829000D01*
X89027000Y-27629750D01*
X89281000Y-27629750D01*
X89281000Y-28829000D01*
X90480250Y-28829000D01*
X90499510Y-28809740D01*
X95289000Y-28809740D01*
X95289000Y-29102260D01*
X95346068Y-29389158D01*
X95458010Y-29659411D01*
X95620525Y-29902632D01*
X95827368Y-30109475D01*
X96070589Y-30271990D01*
X96340842Y-30383932D01*
X96627740Y-30441000D01*
X96920260Y-30441000D01*
X97207158Y-30383932D01*
X97477411Y-30271990D01*
X97720632Y-30109475D01*
X97927475Y-29902632D01*
X98044000Y-29728240D01*
X98160525Y-29902632D01*
X98367368Y-30109475D01*
X98610589Y-30271990D01*
X98880842Y-30383932D01*
X99167740Y-30441000D01*
X99460260Y-30441000D01*
X99747158Y-30383932D01*
X100017411Y-30271990D01*
X100260632Y-30109475D01*
X100392487Y-29977620D01*
X100414498Y-30050180D01*
X100473463Y-30160494D01*
X100552815Y-30257185D01*
X100649506Y-30336537D01*
X100759820Y-30395502D01*
X100879518Y-30431812D01*
X101004000Y-30444072D01*
X101568250Y-30441000D01*
X101727000Y-30282250D01*
X101727000Y-29083000D01*
X101981000Y-29083000D01*
X101981000Y-30282250D01*
X102139750Y-30441000D01*
X102704000Y-30444072D01*
X102828482Y-30431812D01*
X102948180Y-30395502D01*
X103058494Y-30336537D01*
X103155185Y-30257185D01*
X103234537Y-30160494D01*
X103293502Y-30050180D01*
X103329812Y-29930482D01*
X103342072Y-29806000D01*
X103339000Y-29241750D01*
X103180250Y-29083000D01*
X101981000Y-29083000D01*
X101727000Y-29083000D01*
X101707000Y-29083000D01*
X101707000Y-28829000D01*
X101727000Y-28829000D01*
X101727000Y-27629750D01*
X101981000Y-27629750D01*
X101981000Y-28829000D01*
X103180250Y-28829000D01*
X103339000Y-28670250D01*
X103342072Y-28106000D01*
X103329812Y-27981518D01*
X103293502Y-27861820D01*
X103234537Y-27751506D01*
X103155185Y-27654815D01*
X103058494Y-27575463D01*
X102948180Y-27516498D01*
X102828482Y-27480188D01*
X102704000Y-27467928D01*
X102139750Y-27471000D01*
X101981000Y-27629750D01*
X101727000Y-27629750D01*
X101568250Y-27471000D01*
X101004000Y-27467928D01*
X100879518Y-27480188D01*
X100759820Y-27516498D01*
X100649506Y-27575463D01*
X100552815Y-27654815D01*
X100473463Y-27751506D01*
X100414498Y-27861820D01*
X100392487Y-27934380D01*
X100260632Y-27802525D01*
X100017411Y-27640010D01*
X99747158Y-27528068D01*
X99460260Y-27471000D01*
X99167740Y-27471000D01*
X98880842Y-27528068D01*
X98610589Y-27640010D01*
X98367368Y-27802525D01*
X98160525Y-28009368D01*
X98044000Y-28183760D01*
X97927475Y-28009368D01*
X97720632Y-27802525D01*
X97477411Y-27640010D01*
X97207158Y-27528068D01*
X96920260Y-27471000D01*
X96627740Y-27471000D01*
X96340842Y-27528068D01*
X96070589Y-27640010D01*
X95827368Y-27802525D01*
X95620525Y-28009368D01*
X95458010Y-28252589D01*
X95346068Y-28522842D01*
X95289000Y-28809740D01*
X90499510Y-28809740D01*
X90639000Y-28670250D01*
X90642072Y-28106000D01*
X90629812Y-27981518D01*
X90593502Y-27861820D01*
X90534537Y-27751506D01*
X90455185Y-27654815D01*
X90358494Y-27575463D01*
X90248180Y-27516498D01*
X90128482Y-27480188D01*
X90004000Y-27467928D01*
X89439750Y-27471000D01*
X89281000Y-27629750D01*
X89027000Y-27629750D01*
X88868250Y-27471000D01*
X88304000Y-27467928D01*
X88179518Y-27480188D01*
X88059820Y-27516498D01*
X87949506Y-27575463D01*
X87852815Y-27654815D01*
X87773463Y-27751506D01*
X87714498Y-27861820D01*
X87692487Y-27934380D01*
X87560632Y-27802525D01*
X87317411Y-27640010D01*
X87047158Y-27528068D01*
X86760260Y-27471000D01*
X86467740Y-27471000D01*
X86180842Y-27528068D01*
X85910589Y-27640010D01*
X85667368Y-27802525D01*
X85460525Y-28009368D01*
X85344000Y-28183760D01*
X85227475Y-28009368D01*
X85020632Y-27802525D01*
X84777411Y-27640010D01*
X84507158Y-27528068D01*
X84220260Y-27471000D01*
X83927740Y-27471000D01*
X83640842Y-27528068D01*
X83370589Y-27640010D01*
X83127368Y-27802525D01*
X82920525Y-28009368D01*
X82758010Y-28252589D01*
X82646068Y-28522842D01*
X82589000Y-28809740D01*
X24003000Y-28809740D01*
X24003000Y-25214344D01*
X24023000Y-25214344D01*
X24023000Y-25585656D01*
X24095439Y-25949834D01*
X24237534Y-26292882D01*
X24443825Y-26601618D01*
X24706382Y-26864175D01*
X25015118Y-27070466D01*
X25358166Y-27212561D01*
X25722344Y-27285000D01*
X26093656Y-27285000D01*
X26457834Y-27212561D01*
X26800882Y-27070466D01*
X27109618Y-26864175D01*
X27372175Y-26601618D01*
X27578466Y-26292882D01*
X27720561Y-25949834D01*
X27793000Y-25585656D01*
X27793000Y-25214344D01*
X27742477Y-24960344D01*
X103271000Y-24960344D01*
X103271000Y-25331656D01*
X103343439Y-25695834D01*
X103485534Y-26038882D01*
X103691825Y-26347618D01*
X103954382Y-26610175D01*
X104263118Y-26816466D01*
X104606166Y-26958561D01*
X104970344Y-27031000D01*
X105341656Y-27031000D01*
X105705834Y-26958561D01*
X106048882Y-26816466D01*
X106357618Y-26610175D01*
X106620175Y-26347618D01*
X106826466Y-26038882D01*
X106968561Y-25695834D01*
X107041000Y-25331656D01*
X107041000Y-24960344D01*
X106968561Y-24596166D01*
X106826466Y-24253118D01*
X106620175Y-23944382D01*
X106357618Y-23681825D01*
X106048882Y-23475534D01*
X105705834Y-23333439D01*
X105341656Y-23261000D01*
X104970344Y-23261000D01*
X104606166Y-23333439D01*
X104263118Y-23475534D01*
X103954382Y-23681825D01*
X103691825Y-23944382D01*
X103485534Y-24253118D01*
X103343439Y-24596166D01*
X103271000Y-24960344D01*
X27742477Y-24960344D01*
X27720561Y-24850166D01*
X27578466Y-24507118D01*
X27372175Y-24198382D01*
X27109618Y-23935825D01*
X26800882Y-23729534D01*
X26457834Y-23587439D01*
X26093656Y-23515000D01*
X25722344Y-23515000D01*
X25358166Y-23587439D01*
X25015118Y-23729534D01*
X24706382Y-23935825D01*
X24443825Y-24198382D01*
X24237534Y-24507118D01*
X24095439Y-24850166D01*
X24023000Y-25214344D01*
X24003000Y-25214344D01*
X24003000Y-23241000D01*
X107315000Y-23241000D01*
X107315000Y-84455000D01*
%TA.AperFunction,Conductor*%
D19*
G36*
X107315000Y-84455000D02*
G01*
X106828074Y-84455000D01*
X106968561Y-84115834D01*
X107041000Y-83751656D01*
X107041000Y-83380344D01*
X106968561Y-83016166D01*
X106826466Y-82673118D01*
X106620175Y-82364382D01*
X106357618Y-82101825D01*
X106048882Y-81895534D01*
X105705834Y-81753439D01*
X105341656Y-81681000D01*
X104970344Y-81681000D01*
X104606166Y-81753439D01*
X104263118Y-81895534D01*
X103954382Y-82101825D01*
X103691825Y-82364382D01*
X103485534Y-82673118D01*
X103343439Y-83016166D01*
X103271000Y-83380344D01*
X103271000Y-83751656D01*
X103343439Y-84115834D01*
X103483926Y-84455000D01*
X26923284Y-84455000D01*
X26958561Y-84369834D01*
X27031000Y-84005656D01*
X27031000Y-83634344D01*
X26958561Y-83270166D01*
X26816466Y-82927118D01*
X26610175Y-82618382D01*
X26347618Y-82355825D01*
X26038882Y-82149534D01*
X25695834Y-82007439D01*
X25331656Y-81935000D01*
X24960344Y-81935000D01*
X24596166Y-82007439D01*
X24253118Y-82149534D01*
X24003000Y-82316658D01*
X24003000Y-74408001D01*
X29101928Y-74408001D01*
X29114188Y-74532483D01*
X29150498Y-74652181D01*
X29209463Y-74762495D01*
X29288815Y-74859186D01*
X29385506Y-74938538D01*
X29495820Y-74997503D01*
X29568380Y-75019514D01*
X29436525Y-75151369D01*
X29274010Y-75394590D01*
X29162068Y-75664843D01*
X29105000Y-75951741D01*
X29105000Y-76244261D01*
X29162068Y-76531159D01*
X29274010Y-76801412D01*
X29436525Y-77044633D01*
X29643368Y-77251476D01*
X29817760Y-77368001D01*
X29643368Y-77484526D01*
X29436525Y-77691369D01*
X29274010Y-77934590D01*
X29162068Y-78204843D01*
X29105000Y-78491741D01*
X29105000Y-78784261D01*
X29162068Y-79071159D01*
X29274010Y-79341412D01*
X29436525Y-79584633D01*
X29643368Y-79791476D01*
X29886589Y-79953991D01*
X30156842Y-80065933D01*
X30443740Y-80123001D01*
X30736260Y-80123001D01*
X31023158Y-80065933D01*
X31293411Y-79953991D01*
X31536632Y-79791476D01*
X31743475Y-79584633D01*
X31905990Y-79341412D01*
X32017932Y-79071159D01*
X32075000Y-78784261D01*
X32075000Y-78491741D01*
X32029250Y-78261741D01*
X35455000Y-78261741D01*
X35455000Y-78554261D01*
X35512068Y-78841159D01*
X35624010Y-79111412D01*
X35786525Y-79354633D01*
X35993368Y-79561476D01*
X36236589Y-79723991D01*
X36506842Y-79835933D01*
X36793740Y-79893001D01*
X37086260Y-79893001D01*
X37373158Y-79835933D01*
X37643411Y-79723991D01*
X37886632Y-79561476D01*
X38018487Y-79429621D01*
X38040498Y-79502181D01*
X38099463Y-79612495D01*
X38178815Y-79709186D01*
X38275506Y-79788538D01*
X38385820Y-79847503D01*
X38505518Y-79883813D01*
X38630000Y-79896073D01*
X39194250Y-79893001D01*
X39353000Y-79734251D01*
X39353000Y-78535001D01*
X39333000Y-78535001D01*
X39333000Y-78281001D01*
X39353000Y-78281001D01*
X39353000Y-77081751D01*
X39607000Y-77081751D01*
X39607000Y-78281001D01*
X39627000Y-78281001D01*
X39627000Y-78535001D01*
X39607000Y-78535001D01*
X39607000Y-79734251D01*
X39765750Y-79893001D01*
X40330000Y-79896073D01*
X40454482Y-79883813D01*
X40574180Y-79847503D01*
X40684494Y-79788538D01*
X40781185Y-79709186D01*
X40860537Y-79612495D01*
X40919502Y-79502181D01*
X40941513Y-79429621D01*
X41073368Y-79561476D01*
X41316589Y-79723991D01*
X41586842Y-79835933D01*
X41873740Y-79893001D01*
X42166260Y-79893001D01*
X42453158Y-79835933D01*
X42723411Y-79723991D01*
X42966632Y-79561476D01*
X43173475Y-79354633D01*
X43335990Y-79111412D01*
X43447932Y-78841159D01*
X43505000Y-78554261D01*
X43505000Y-78261741D01*
X43447932Y-77974843D01*
X43335990Y-77704590D01*
X43173475Y-77461369D01*
X42966632Y-77254526D01*
X42723411Y-77092011D01*
X42453158Y-76980069D01*
X42166260Y-76923001D01*
X41873740Y-76923001D01*
X41586842Y-76980069D01*
X41316589Y-77092011D01*
X41073368Y-77254526D01*
X40941513Y-77386381D01*
X40919502Y-77313821D01*
X40860537Y-77203507D01*
X40781185Y-77106816D01*
X40684494Y-77027464D01*
X40574180Y-76968499D01*
X40454482Y-76932189D01*
X40330000Y-76919929D01*
X39765750Y-76923001D01*
X39607000Y-77081751D01*
X39353000Y-77081751D01*
X39194250Y-76923001D01*
X38630000Y-76919929D01*
X38505518Y-76932189D01*
X38385820Y-76968499D01*
X38275506Y-77027464D01*
X38178815Y-77106816D01*
X38099463Y-77203507D01*
X38040498Y-77313821D01*
X38018487Y-77386381D01*
X37886632Y-77254526D01*
X37643411Y-77092011D01*
X37373158Y-76980069D01*
X37086260Y-76923001D01*
X36793740Y-76923001D01*
X36506842Y-76980069D01*
X36236589Y-77092011D01*
X35993368Y-77254526D01*
X35786525Y-77461369D01*
X35624010Y-77704590D01*
X35512068Y-77974843D01*
X35455000Y-78261741D01*
X32029250Y-78261741D01*
X32017932Y-78204843D01*
X31905990Y-77934590D01*
X31743475Y-77691369D01*
X31536632Y-77484526D01*
X31362240Y-77368001D01*
X31536632Y-77251476D01*
X31743475Y-77044633D01*
X31905990Y-76801412D01*
X32017932Y-76531159D01*
X32075000Y-76244261D01*
X32075000Y-75951741D01*
X32017932Y-75664843D01*
X31905990Y-75394590D01*
X31743475Y-75151369D01*
X31611620Y-75019514D01*
X31684180Y-74997503D01*
X31794494Y-74938538D01*
X31891185Y-74859186D01*
X31970537Y-74762495D01*
X32029502Y-74652181D01*
X32065812Y-74532483D01*
X32078072Y-74408001D01*
X46881928Y-74408001D01*
X46894188Y-74532483D01*
X46930498Y-74652181D01*
X46989463Y-74762495D01*
X47068815Y-74859186D01*
X47165506Y-74938538D01*
X47275820Y-74997503D01*
X47348380Y-75019514D01*
X47216525Y-75151369D01*
X47054010Y-75394590D01*
X46942068Y-75664843D01*
X46885000Y-75951741D01*
X46885000Y-76244261D01*
X46942068Y-76531159D01*
X47054010Y-76801412D01*
X47216525Y-77044633D01*
X47423368Y-77251476D01*
X47597760Y-77368001D01*
X47423368Y-77484526D01*
X47216525Y-77691369D01*
X47054010Y-77934590D01*
X46942068Y-78204843D01*
X46885000Y-78491741D01*
X46885000Y-78784261D01*
X46942068Y-79071159D01*
X47054010Y-79341412D01*
X47216525Y-79584633D01*
X47423368Y-79791476D01*
X47666589Y-79953991D01*
X47936842Y-80065933D01*
X48223740Y-80123001D01*
X48516260Y-80123001D01*
X48803158Y-80065933D01*
X49073411Y-79953991D01*
X49316632Y-79791476D01*
X49523475Y-79584633D01*
X49685990Y-79341412D01*
X49797932Y-79071159D01*
X49855000Y-78784261D01*
X49855000Y-78491741D01*
X49797932Y-78204843D01*
X49685990Y-77934590D01*
X49523475Y-77691369D01*
X49316632Y-77484526D01*
X49142240Y-77368001D01*
X49316632Y-77251476D01*
X49523475Y-77044633D01*
X49685990Y-76801412D01*
X49797932Y-76531159D01*
X49854879Y-76244865D01*
X96997782Y-76244865D01*
X97028095Y-76370528D01*
X97156304Y-76663205D01*
X97339148Y-76925246D01*
X97569601Y-77146581D01*
X97838806Y-77318704D01*
X98136418Y-77435000D01*
X98451000Y-77491000D01*
X99441000Y-77491000D01*
X99441000Y-75993000D01*
X99695000Y-75993000D01*
X99695000Y-77491000D01*
X100685000Y-77491000D01*
X100999582Y-77435000D01*
X101297194Y-77318704D01*
X101566399Y-77146581D01*
X101796852Y-76925246D01*
X101979696Y-76663205D01*
X102107905Y-76370528D01*
X102138218Y-76244865D01*
X102018740Y-75993000D01*
X99695000Y-75993000D01*
X99441000Y-75993000D01*
X97117260Y-75993000D01*
X96997782Y-76244865D01*
X49854879Y-76244865D01*
X49855000Y-76244261D01*
X49855000Y-75951741D01*
X49797932Y-75664843D01*
X49724324Y-75487135D01*
X96997782Y-75487135D01*
X97117260Y-75739000D01*
X99441000Y-75739000D01*
X99441000Y-74241000D01*
X99695000Y-74241000D01*
X99695000Y-75739000D01*
X102018740Y-75739000D01*
X102138218Y-75487135D01*
X102107905Y-75361472D01*
X101979696Y-75068795D01*
X101796852Y-74806754D01*
X101566399Y-74585419D01*
X101297194Y-74413296D01*
X100999582Y-74297000D01*
X100685000Y-74241000D01*
X99695000Y-74241000D01*
X99441000Y-74241000D01*
X98451000Y-74241000D01*
X98136418Y-74297000D01*
X97838806Y-74413296D01*
X97569601Y-74585419D01*
X97339148Y-74806754D01*
X97156304Y-75068795D01*
X97028095Y-75361472D01*
X96997782Y-75487135D01*
X49724324Y-75487135D01*
X49685990Y-75394590D01*
X49523475Y-75151369D01*
X49391620Y-75019514D01*
X49464180Y-74997503D01*
X49574494Y-74938538D01*
X49671185Y-74859186D01*
X49750537Y-74762495D01*
X49809502Y-74652181D01*
X49845812Y-74532483D01*
X49858072Y-74408001D01*
X49855000Y-73843751D01*
X49696250Y-73685001D01*
X48497000Y-73685001D01*
X48497000Y-73705001D01*
X48243000Y-73705001D01*
X48243000Y-73685001D01*
X47043750Y-73685001D01*
X46885000Y-73843751D01*
X46881928Y-74408001D01*
X32078072Y-74408001D01*
X32075000Y-73843751D01*
X31916250Y-73685001D01*
X30717000Y-73685001D01*
X30717000Y-73705001D01*
X30463000Y-73705001D01*
X30463000Y-73685001D01*
X29263750Y-73685001D01*
X29105000Y-73843751D01*
X29101928Y-74408001D01*
X24003000Y-74408001D01*
X24003000Y-61708001D01*
X29101928Y-61708001D01*
X29114188Y-61832483D01*
X29150498Y-61952181D01*
X29209463Y-62062495D01*
X29288815Y-62159186D01*
X29385506Y-62238538D01*
X29495820Y-62297503D01*
X29568380Y-62319514D01*
X29436525Y-62451369D01*
X29274010Y-62694590D01*
X29162068Y-62964843D01*
X29105000Y-63251741D01*
X29105000Y-63544261D01*
X29162068Y-63831159D01*
X29274010Y-64101412D01*
X29436525Y-64344633D01*
X29643368Y-64551476D01*
X29817760Y-64668001D01*
X29643368Y-64784526D01*
X29436525Y-64991369D01*
X29274010Y-65234590D01*
X29162068Y-65504843D01*
X29105000Y-65791741D01*
X29105000Y-66084261D01*
X29162068Y-66371159D01*
X29274010Y-66641412D01*
X29436525Y-66884633D01*
X29643368Y-67091476D01*
X29817760Y-67208001D01*
X29643368Y-67324526D01*
X29436525Y-67531369D01*
X29274010Y-67774590D01*
X29162068Y-68044843D01*
X29105000Y-68331741D01*
X29105000Y-68624261D01*
X29162068Y-68911159D01*
X29274010Y-69181412D01*
X29436525Y-69424633D01*
X29643368Y-69631476D01*
X29817760Y-69748001D01*
X29643368Y-69864526D01*
X29436525Y-70071369D01*
X29274010Y-70314590D01*
X29162068Y-70584843D01*
X29105000Y-70871741D01*
X29105000Y-71164261D01*
X29162068Y-71451159D01*
X29274010Y-71721412D01*
X29436525Y-71964633D01*
X29568380Y-72096488D01*
X29495820Y-72118499D01*
X29385506Y-72177464D01*
X29288815Y-72256816D01*
X29209463Y-72353507D01*
X29150498Y-72463821D01*
X29114188Y-72583519D01*
X29101928Y-72708001D01*
X29105000Y-73272251D01*
X29263750Y-73431001D01*
X30463000Y-73431001D01*
X30463000Y-73411001D01*
X30717000Y-73411001D01*
X30717000Y-73431001D01*
X31916250Y-73431001D01*
X32075000Y-73272251D01*
X32078072Y-72708001D01*
X32065812Y-72583519D01*
X32029502Y-72463821D01*
X31970537Y-72353507D01*
X31891185Y-72256816D01*
X31794494Y-72177464D01*
X31684180Y-72118499D01*
X31611620Y-72096488D01*
X31743475Y-71964633D01*
X31905990Y-71721412D01*
X32017932Y-71451159D01*
X32075000Y-71164261D01*
X32075000Y-70871741D01*
X32017932Y-70584843D01*
X31905990Y-70314590D01*
X31743475Y-70071369D01*
X31536632Y-69864526D01*
X31362240Y-69748001D01*
X31536632Y-69631476D01*
X31743475Y-69424633D01*
X31905990Y-69181412D01*
X32017932Y-68911159D01*
X32075000Y-68624261D01*
X32075000Y-68331741D01*
X32017932Y-68044843D01*
X31905990Y-67774590D01*
X31743475Y-67531369D01*
X31536632Y-67324526D01*
X31362240Y-67208001D01*
X31536632Y-67091476D01*
X31743475Y-66884633D01*
X31905990Y-66641412D01*
X32017932Y-66371159D01*
X32075000Y-66084261D01*
X32075000Y-65791741D01*
X32017932Y-65504843D01*
X31905990Y-65234590D01*
X31743475Y-64991369D01*
X31536632Y-64784526D01*
X31362240Y-64668001D01*
X31536632Y-64551476D01*
X31743475Y-64344633D01*
X31905990Y-64101412D01*
X32017932Y-63831159D01*
X32075000Y-63544261D01*
X32075000Y-63251741D01*
X32017932Y-62964843D01*
X31905990Y-62694590D01*
X31743475Y-62451369D01*
X31611620Y-62319514D01*
X31684180Y-62297503D01*
X31794494Y-62238538D01*
X31891185Y-62159186D01*
X31970537Y-62062495D01*
X32029502Y-61952181D01*
X32065812Y-61832483D01*
X32078072Y-61708001D01*
X46881928Y-61708001D01*
X46894188Y-61832483D01*
X46930498Y-61952181D01*
X46989463Y-62062495D01*
X47068815Y-62159186D01*
X47165506Y-62238538D01*
X47275820Y-62297503D01*
X47348380Y-62319514D01*
X47216525Y-62451369D01*
X47054010Y-62694590D01*
X46942068Y-62964843D01*
X46885000Y-63251741D01*
X46885000Y-63544261D01*
X46942068Y-63831159D01*
X47054010Y-64101412D01*
X47216525Y-64344633D01*
X47423368Y-64551476D01*
X47597760Y-64668001D01*
X47423368Y-64784526D01*
X47216525Y-64991369D01*
X47054010Y-65234590D01*
X46942068Y-65504843D01*
X46885000Y-65791741D01*
X46885000Y-66084261D01*
X46942068Y-66371159D01*
X47054010Y-66641412D01*
X47216525Y-66884633D01*
X47423368Y-67091476D01*
X47597760Y-67208001D01*
X47423368Y-67324526D01*
X47216525Y-67531369D01*
X47054010Y-67774590D01*
X46942068Y-68044843D01*
X46885000Y-68331741D01*
X46885000Y-68624261D01*
X46942068Y-68911159D01*
X47054010Y-69181412D01*
X47216525Y-69424633D01*
X47423368Y-69631476D01*
X47597760Y-69748001D01*
X47423368Y-69864526D01*
X47216525Y-70071369D01*
X47054010Y-70314590D01*
X46942068Y-70584843D01*
X46885000Y-70871741D01*
X46885000Y-71164261D01*
X46942068Y-71451159D01*
X47054010Y-71721412D01*
X47216525Y-71964633D01*
X47348380Y-72096488D01*
X47275820Y-72118499D01*
X47165506Y-72177464D01*
X47068815Y-72256816D01*
X46989463Y-72353507D01*
X46930498Y-72463821D01*
X46894188Y-72583519D01*
X46881928Y-72708001D01*
X46885000Y-73272251D01*
X47043750Y-73431001D01*
X48243000Y-73431001D01*
X48243000Y-73411001D01*
X48497000Y-73411001D01*
X48497000Y-73431001D01*
X49696250Y-73431001D01*
X49855000Y-73272251D01*
X49858072Y-72708001D01*
X49845812Y-72583519D01*
X49809502Y-72463821D01*
X49750537Y-72353507D01*
X49671185Y-72256816D01*
X49574494Y-72177464D01*
X49464180Y-72118499D01*
X49391620Y-72096488D01*
X49523475Y-71964633D01*
X49609424Y-71836000D01*
X79832928Y-71836000D01*
X79845188Y-71960482D01*
X79881498Y-72080180D01*
X79940463Y-72190494D01*
X80019815Y-72287185D01*
X80116506Y-72366537D01*
X80226820Y-72425502D01*
X80346518Y-72461812D01*
X80471000Y-72474072D01*
X81085250Y-72471000D01*
X81244000Y-72312250D01*
X81244000Y-71063000D01*
X81498000Y-71063000D01*
X81498000Y-72312250D01*
X81656750Y-72471000D01*
X82271000Y-72474072D01*
X82395482Y-72461812D01*
X82515180Y-72425502D01*
X82625494Y-72366537D01*
X82722185Y-72287185D01*
X82801537Y-72190494D01*
X82860502Y-72080180D01*
X82896812Y-71960482D01*
X82909072Y-71836000D01*
X82906000Y-71221750D01*
X82747250Y-71063000D01*
X81498000Y-71063000D01*
X81244000Y-71063000D01*
X79994750Y-71063000D01*
X79836000Y-71221750D01*
X79832928Y-71836000D01*
X49609424Y-71836000D01*
X49685990Y-71721412D01*
X49797932Y-71451159D01*
X49855000Y-71164261D01*
X49855000Y-70871741D01*
X49797932Y-70584843D01*
X49685990Y-70314590D01*
X49523475Y-70071369D01*
X49488106Y-70036000D01*
X79832928Y-70036000D01*
X79836000Y-70650250D01*
X79994750Y-70809000D01*
X81244000Y-70809000D01*
X81244000Y-69559750D01*
X81498000Y-69559750D01*
X81498000Y-70809000D01*
X82747250Y-70809000D01*
X82906000Y-70650250D01*
X82909072Y-70036000D01*
X82896812Y-69911518D01*
X82886038Y-69876000D01*
X96949928Y-69876000D01*
X96949928Y-71856000D01*
X96962188Y-71980482D01*
X96998498Y-72100180D01*
X97057463Y-72210494D01*
X97136815Y-72307185D01*
X97233506Y-72386537D01*
X97343820Y-72445502D01*
X97463518Y-72481812D01*
X97588000Y-72494072D01*
X101548000Y-72494072D01*
X101672482Y-72481812D01*
X101792180Y-72445502D01*
X101902494Y-72386537D01*
X101999185Y-72307185D01*
X102078537Y-72210494D01*
X102137502Y-72100180D01*
X102173812Y-71980482D01*
X102186072Y-71856000D01*
X102186072Y-69876000D01*
X102173812Y-69751518D01*
X102137502Y-69631820D01*
X102078537Y-69521506D01*
X101999185Y-69424815D01*
X101902494Y-69345463D01*
X101792180Y-69286498D01*
X101672482Y-69250188D01*
X101548000Y-69237928D01*
X97588000Y-69237928D01*
X97463518Y-69250188D01*
X97343820Y-69286498D01*
X97233506Y-69345463D01*
X97136815Y-69424815D01*
X97057463Y-69521506D01*
X96998498Y-69631820D01*
X96962188Y-69751518D01*
X96949928Y-69876000D01*
X82886038Y-69876000D01*
X82860502Y-69791820D01*
X82801537Y-69681506D01*
X82722185Y-69584815D01*
X82625494Y-69505463D01*
X82515180Y-69446498D01*
X82395482Y-69410188D01*
X82271000Y-69397928D01*
X81656750Y-69401000D01*
X81498000Y-69559750D01*
X81244000Y-69559750D01*
X81085250Y-69401000D01*
X80471000Y-69397928D01*
X80346518Y-69410188D01*
X80226820Y-69446498D01*
X80116506Y-69505463D01*
X80019815Y-69584815D01*
X79940463Y-69681506D01*
X79881498Y-69791820D01*
X79845188Y-69911518D01*
X79832928Y-70036000D01*
X49488106Y-70036000D01*
X49316632Y-69864526D01*
X49142240Y-69748001D01*
X49316632Y-69631476D01*
X49523475Y-69424633D01*
X49685990Y-69181412D01*
X49797932Y-68911159D01*
X49855000Y-68624261D01*
X49855000Y-68331741D01*
X49797932Y-68044843D01*
X49685990Y-67774590D01*
X49523475Y-67531369D01*
X49316632Y-67324526D01*
X49142240Y-67208001D01*
X49316632Y-67091476D01*
X49523475Y-66884633D01*
X49685990Y-66641412D01*
X49797932Y-66371159D01*
X49855000Y-66084261D01*
X49855000Y-65791741D01*
X49837710Y-65704816D01*
X79836000Y-65704816D01*
X79836000Y-66007184D01*
X79894989Y-66303743D01*
X80010701Y-66583095D01*
X80178688Y-66834505D01*
X80392495Y-67048312D01*
X80643905Y-67216299D01*
X80923257Y-67332011D01*
X81219816Y-67391000D01*
X81522184Y-67391000D01*
X81818743Y-67332011D01*
X82098095Y-67216299D01*
X82349505Y-67048312D01*
X82563312Y-66834505D01*
X82731299Y-66583095D01*
X82847011Y-66303743D01*
X82906000Y-66007184D01*
X82906000Y-65704816D01*
X82847011Y-65408257D01*
X82731299Y-65128905D01*
X82563312Y-64877495D01*
X82349505Y-64663688D01*
X82098095Y-64495701D01*
X81818743Y-64379989D01*
X81522184Y-64321000D01*
X81219816Y-64321000D01*
X80923257Y-64379989D01*
X80643905Y-64495701D01*
X80392495Y-64663688D01*
X80178688Y-64877495D01*
X80010701Y-65128905D01*
X79894989Y-65408257D01*
X79836000Y-65704816D01*
X49837710Y-65704816D01*
X49797932Y-65504843D01*
X49685990Y-65234590D01*
X49523475Y-64991369D01*
X49316632Y-64784526D01*
X49142240Y-64668001D01*
X49316632Y-64551476D01*
X49523475Y-64344633D01*
X49685990Y-64101412D01*
X49797932Y-63831159D01*
X49855000Y-63544261D01*
X49855000Y-63251741D01*
X49797932Y-62964843D01*
X49685990Y-62694590D01*
X49646883Y-62636061D01*
X62973000Y-62636061D01*
X62973000Y-62839939D01*
X63012774Y-63039898D01*
X63090795Y-63228256D01*
X63204063Y-63397774D01*
X63348226Y-63541937D01*
X63517744Y-63655205D01*
X63706102Y-63733226D01*
X63906061Y-63773000D01*
X64109939Y-63773000D01*
X64309898Y-63733226D01*
X64498256Y-63655205D01*
X64663391Y-63544865D01*
X96997782Y-63544865D01*
X97028095Y-63670528D01*
X97156304Y-63963205D01*
X97339148Y-64225246D01*
X97569601Y-64446581D01*
X97838806Y-64618704D01*
X98136418Y-64735000D01*
X98451000Y-64791000D01*
X99441000Y-64791000D01*
X99441000Y-63293000D01*
X99695000Y-63293000D01*
X99695000Y-64791000D01*
X100685000Y-64791000D01*
X100999582Y-64735000D01*
X101297194Y-64618704D01*
X101566399Y-64446581D01*
X101796852Y-64225246D01*
X101979696Y-63963205D01*
X102107905Y-63670528D01*
X102138218Y-63544865D01*
X102018740Y-63293000D01*
X99695000Y-63293000D01*
X99441000Y-63293000D01*
X97117260Y-63293000D01*
X96997782Y-63544865D01*
X64663391Y-63544865D01*
X64667774Y-63541937D01*
X64811937Y-63397774D01*
X64925205Y-63228256D01*
X65003226Y-63039898D01*
X65043000Y-62839939D01*
X65043000Y-62787135D01*
X96997782Y-62787135D01*
X97117260Y-63039000D01*
X99441000Y-63039000D01*
X99441000Y-61541000D01*
X99695000Y-61541000D01*
X99695000Y-63039000D01*
X102018740Y-63039000D01*
X102138218Y-62787135D01*
X102107905Y-62661472D01*
X101979696Y-62368795D01*
X101796852Y-62106754D01*
X101566399Y-61885419D01*
X101297194Y-61713296D01*
X100999582Y-61597000D01*
X100685000Y-61541000D01*
X99695000Y-61541000D01*
X99441000Y-61541000D01*
X98451000Y-61541000D01*
X98136418Y-61597000D01*
X97838806Y-61713296D01*
X97569601Y-61885419D01*
X97339148Y-62106754D01*
X97156304Y-62368795D01*
X97028095Y-62661472D01*
X96997782Y-62787135D01*
X65043000Y-62787135D01*
X65043000Y-62777801D01*
X69091008Y-58729795D01*
X69120001Y-58706001D01*
X69143795Y-58677008D01*
X69143799Y-58677004D01*
X69214973Y-58590277D01*
X69214974Y-58590276D01*
X69285546Y-58458247D01*
X69329003Y-58314986D01*
X69340000Y-58203333D01*
X69340000Y-58203324D01*
X69343676Y-58166001D01*
X69340000Y-58128678D01*
X69340000Y-57176000D01*
X96949928Y-57176000D01*
X96949928Y-59156000D01*
X96962188Y-59280482D01*
X96998498Y-59400180D01*
X97057463Y-59510494D01*
X97136815Y-59607185D01*
X97233506Y-59686537D01*
X97343820Y-59745502D01*
X97463518Y-59781812D01*
X97588000Y-59794072D01*
X101548000Y-59794072D01*
X101672482Y-59781812D01*
X101792180Y-59745502D01*
X101902494Y-59686537D01*
X101999185Y-59607185D01*
X102078537Y-59510494D01*
X102137502Y-59400180D01*
X102173812Y-59280482D01*
X102186072Y-59156000D01*
X102186072Y-57176000D01*
X102173812Y-57051518D01*
X102137502Y-56931820D01*
X102078537Y-56821506D01*
X101999185Y-56724815D01*
X101902494Y-56645463D01*
X101792180Y-56586498D01*
X101672482Y-56550188D01*
X101548000Y-56537928D01*
X97588000Y-56537928D01*
X97463518Y-56550188D01*
X97343820Y-56586498D01*
X97233506Y-56645463D01*
X97136815Y-56724815D01*
X97057463Y-56821506D01*
X96998498Y-56931820D01*
X96962188Y-57051518D01*
X96949928Y-57176000D01*
X69340000Y-57176000D01*
X69340000Y-54297711D01*
X69383937Y-54253774D01*
X69497205Y-54084256D01*
X69575226Y-53895898D01*
X69615000Y-53695939D01*
X69615000Y-53492061D01*
X69575226Y-53292102D01*
X69497205Y-53103744D01*
X69431104Y-53004816D01*
X79836000Y-53004816D01*
X79836000Y-53307184D01*
X79894989Y-53603743D01*
X80010701Y-53883095D01*
X80178688Y-54134505D01*
X80392495Y-54348312D01*
X80643905Y-54516299D01*
X80923257Y-54632011D01*
X81219816Y-54691000D01*
X81522184Y-54691000D01*
X81818743Y-54632011D01*
X82098095Y-54516299D01*
X82349505Y-54348312D01*
X82563312Y-54134505D01*
X82731299Y-53883095D01*
X82847011Y-53603743D01*
X82906000Y-53307184D01*
X82906000Y-53004816D01*
X82847011Y-52708257D01*
X82731299Y-52428905D01*
X82563312Y-52177495D01*
X82349505Y-51963688D01*
X82098095Y-51795701D01*
X81818743Y-51679989D01*
X81522184Y-51621000D01*
X81219816Y-51621000D01*
X80923257Y-51679989D01*
X80643905Y-51795701D01*
X80392495Y-51963688D01*
X80178688Y-52177495D01*
X80010701Y-52428905D01*
X79894989Y-52708257D01*
X79836000Y-53004816D01*
X69431104Y-53004816D01*
X69383937Y-52934226D01*
X69239774Y-52790063D01*
X69070256Y-52676795D01*
X68881898Y-52598774D01*
X68681939Y-52559000D01*
X68478061Y-52559000D01*
X68278102Y-52598774D01*
X68089744Y-52676795D01*
X67920226Y-52790063D01*
X67776063Y-52934226D01*
X67662795Y-53103744D01*
X67584774Y-53292102D01*
X67545000Y-53492061D01*
X67545000Y-53695939D01*
X67584774Y-53895898D01*
X67662795Y-54084256D01*
X67776063Y-54253774D01*
X67820000Y-54297711D01*
X67820001Y-57851196D01*
X63968199Y-61703000D01*
X63906061Y-61703000D01*
X63706102Y-61742774D01*
X63517744Y-61820795D01*
X63348226Y-61934063D01*
X63204063Y-62078226D01*
X63090795Y-62247744D01*
X63012774Y-62436102D01*
X62973000Y-62636061D01*
X49646883Y-62636061D01*
X49523475Y-62451369D01*
X49391620Y-62319514D01*
X49464180Y-62297503D01*
X49574494Y-62238538D01*
X49671185Y-62159186D01*
X49750537Y-62062495D01*
X49809502Y-61952181D01*
X49845812Y-61832483D01*
X49858072Y-61708001D01*
X49855000Y-61143751D01*
X49696250Y-60985001D01*
X48497000Y-60985001D01*
X48497000Y-61005001D01*
X48243000Y-61005001D01*
X48243000Y-60985001D01*
X47043750Y-60985001D01*
X46885000Y-61143751D01*
X46881928Y-61708001D01*
X32078072Y-61708001D01*
X32075000Y-61143751D01*
X31916250Y-60985001D01*
X30717000Y-60985001D01*
X30717000Y-61005001D01*
X30463000Y-61005001D01*
X30463000Y-60985001D01*
X29263750Y-60985001D01*
X29105000Y-61143751D01*
X29101928Y-61708001D01*
X24003000Y-61708001D01*
X24003000Y-49008001D01*
X29101928Y-49008001D01*
X29114188Y-49132483D01*
X29150498Y-49252181D01*
X29209463Y-49362495D01*
X29288815Y-49459186D01*
X29385506Y-49538538D01*
X29495820Y-49597503D01*
X29568380Y-49619514D01*
X29436525Y-49751369D01*
X29274010Y-49994590D01*
X29162068Y-50264843D01*
X29105000Y-50551741D01*
X29105000Y-50844261D01*
X29162068Y-51131159D01*
X29274010Y-51401412D01*
X29436525Y-51644633D01*
X29643368Y-51851476D01*
X29817760Y-51968001D01*
X29643368Y-52084526D01*
X29436525Y-52291369D01*
X29274010Y-52534590D01*
X29162068Y-52804843D01*
X29105000Y-53091741D01*
X29105000Y-53384261D01*
X29162068Y-53671159D01*
X29274010Y-53941412D01*
X29436525Y-54184633D01*
X29643368Y-54391476D01*
X29817760Y-54508001D01*
X29643368Y-54624526D01*
X29436525Y-54831369D01*
X29274010Y-55074590D01*
X29162068Y-55344843D01*
X29105000Y-55631741D01*
X29105000Y-55924261D01*
X29162068Y-56211159D01*
X29274010Y-56481412D01*
X29436525Y-56724633D01*
X29643368Y-56931476D01*
X29817760Y-57048001D01*
X29643368Y-57164526D01*
X29436525Y-57371369D01*
X29274010Y-57614590D01*
X29162068Y-57884843D01*
X29105000Y-58171741D01*
X29105000Y-58464261D01*
X29162068Y-58751159D01*
X29274010Y-59021412D01*
X29436525Y-59264633D01*
X29568380Y-59396488D01*
X29495820Y-59418499D01*
X29385506Y-59477464D01*
X29288815Y-59556816D01*
X29209463Y-59653507D01*
X29150498Y-59763821D01*
X29114188Y-59883519D01*
X29101928Y-60008001D01*
X29105000Y-60572251D01*
X29263750Y-60731001D01*
X30463000Y-60731001D01*
X30463000Y-60711001D01*
X30717000Y-60711001D01*
X30717000Y-60731001D01*
X31916250Y-60731001D01*
X32075000Y-60572251D01*
X32078072Y-60008001D01*
X32065812Y-59883519D01*
X32029502Y-59763821D01*
X31970537Y-59653507D01*
X31891185Y-59556816D01*
X31794494Y-59477464D01*
X31684180Y-59418499D01*
X31611620Y-59396488D01*
X31743475Y-59264633D01*
X31905990Y-59021412D01*
X32017932Y-58751159D01*
X32075000Y-58464261D01*
X32075000Y-58171741D01*
X32017932Y-57884843D01*
X31905990Y-57614590D01*
X31743475Y-57371369D01*
X31536632Y-57164526D01*
X31362240Y-57048001D01*
X31536632Y-56931476D01*
X31743475Y-56724633D01*
X31905990Y-56481412D01*
X32017932Y-56211159D01*
X32075000Y-55924261D01*
X32075000Y-55631741D01*
X32017932Y-55344843D01*
X31905990Y-55074590D01*
X31743475Y-54831369D01*
X31536632Y-54624526D01*
X31362240Y-54508001D01*
X31536632Y-54391476D01*
X31743475Y-54184633D01*
X31905990Y-53941412D01*
X32017932Y-53671159D01*
X32075000Y-53384261D01*
X32075000Y-53091741D01*
X32017932Y-52804843D01*
X31905990Y-52534590D01*
X31743475Y-52291369D01*
X31536632Y-52084526D01*
X31362240Y-51968001D01*
X31536632Y-51851476D01*
X31743475Y-51644633D01*
X31905990Y-51401412D01*
X32017932Y-51131159D01*
X32075000Y-50844261D01*
X32075000Y-50551741D01*
X32017932Y-50264843D01*
X31905990Y-49994590D01*
X31743475Y-49751369D01*
X31611620Y-49619514D01*
X31684180Y-49597503D01*
X31794494Y-49538538D01*
X31891185Y-49459186D01*
X31970537Y-49362495D01*
X32029502Y-49252181D01*
X32065812Y-49132483D01*
X32078072Y-49008001D01*
X46881928Y-49008001D01*
X46894188Y-49132483D01*
X46930498Y-49252181D01*
X46989463Y-49362495D01*
X47068815Y-49459186D01*
X47165506Y-49538538D01*
X47275820Y-49597503D01*
X47348380Y-49619514D01*
X47216525Y-49751369D01*
X47054010Y-49994590D01*
X46942068Y-50264843D01*
X46885000Y-50551741D01*
X46885000Y-50844261D01*
X46942068Y-51131159D01*
X47054010Y-51401412D01*
X47216525Y-51644633D01*
X47423368Y-51851476D01*
X47597760Y-51968001D01*
X47423368Y-52084526D01*
X47216525Y-52291369D01*
X47054010Y-52534590D01*
X46942068Y-52804843D01*
X46885000Y-53091741D01*
X46885000Y-53384261D01*
X46942068Y-53671159D01*
X47054010Y-53941412D01*
X47216525Y-54184633D01*
X47423368Y-54391476D01*
X47597760Y-54508001D01*
X47423368Y-54624526D01*
X47216525Y-54831369D01*
X47054010Y-55074590D01*
X46942068Y-55344843D01*
X46885000Y-55631741D01*
X46885000Y-55924261D01*
X46942068Y-56211159D01*
X47054010Y-56481412D01*
X47216525Y-56724633D01*
X47423368Y-56931476D01*
X47597760Y-57048001D01*
X47423368Y-57164526D01*
X47216525Y-57371369D01*
X47054010Y-57614590D01*
X46942068Y-57884843D01*
X46885000Y-58171741D01*
X46885000Y-58464261D01*
X46942068Y-58751159D01*
X47054010Y-59021412D01*
X47216525Y-59264633D01*
X47348380Y-59396488D01*
X47275820Y-59418499D01*
X47165506Y-59477464D01*
X47068815Y-59556816D01*
X46989463Y-59653507D01*
X46930498Y-59763821D01*
X46894188Y-59883519D01*
X46881928Y-60008001D01*
X46885000Y-60572251D01*
X47043750Y-60731001D01*
X48243000Y-60731001D01*
X48243000Y-60711001D01*
X48497000Y-60711001D01*
X48497000Y-60731001D01*
X49696250Y-60731001D01*
X49855000Y-60572251D01*
X49858072Y-60008001D01*
X49845812Y-59883519D01*
X49809502Y-59763821D01*
X49750537Y-59653507D01*
X49671185Y-59556816D01*
X49574494Y-59477464D01*
X49464180Y-59418499D01*
X49391620Y-59396488D01*
X49523475Y-59264633D01*
X49685990Y-59021412D01*
X49797932Y-58751159D01*
X49855000Y-58464261D01*
X49855000Y-58171741D01*
X49797932Y-57884843D01*
X49685990Y-57614590D01*
X49523475Y-57371369D01*
X49316632Y-57164526D01*
X49142240Y-57048001D01*
X49316632Y-56931476D01*
X49523475Y-56724633D01*
X49685990Y-56481412D01*
X49797932Y-56211159D01*
X49855000Y-55924261D01*
X49855000Y-55631741D01*
X49797932Y-55344843D01*
X49685990Y-55074590D01*
X49523475Y-54831369D01*
X49316632Y-54624526D01*
X49142240Y-54508001D01*
X49316632Y-54391476D01*
X49523475Y-54184633D01*
X49685990Y-53941412D01*
X49797932Y-53671159D01*
X49855000Y-53384261D01*
X49855000Y-53091741D01*
X49797932Y-52804843D01*
X49685990Y-52534590D01*
X49523475Y-52291369D01*
X49316632Y-52084526D01*
X49142240Y-51968001D01*
X49316632Y-51851476D01*
X49523475Y-51644633D01*
X49685990Y-51401412D01*
X49797932Y-51131159D01*
X49855000Y-50844261D01*
X49855000Y-50551741D01*
X49797932Y-50264843D01*
X49685990Y-49994590D01*
X49523475Y-49751369D01*
X49391620Y-49619514D01*
X49464180Y-49597503D01*
X49574494Y-49538538D01*
X49671185Y-49459186D01*
X49750537Y-49362495D01*
X49809502Y-49252181D01*
X49845812Y-49132483D01*
X49858072Y-49008001D01*
X49855000Y-48443751D01*
X49696250Y-48285001D01*
X48497000Y-48285001D01*
X48497000Y-48305001D01*
X48243000Y-48305001D01*
X48243000Y-48285001D01*
X47043750Y-48285001D01*
X46885000Y-48443751D01*
X46881928Y-49008001D01*
X32078072Y-49008001D01*
X32075000Y-48443751D01*
X31916250Y-48285001D01*
X30717000Y-48285001D01*
X30717000Y-48305001D01*
X30463000Y-48305001D01*
X30463000Y-48285001D01*
X29263750Y-48285001D01*
X29105000Y-48443751D01*
X29101928Y-49008001D01*
X24003000Y-49008001D01*
X24003000Y-36308001D01*
X29101928Y-36308001D01*
X29114188Y-36432483D01*
X29150498Y-36552181D01*
X29209463Y-36662495D01*
X29288815Y-36759186D01*
X29385506Y-36838538D01*
X29495820Y-36897503D01*
X29568380Y-36919514D01*
X29436525Y-37051369D01*
X29274010Y-37294590D01*
X29162068Y-37564843D01*
X29105000Y-37851741D01*
X29105000Y-38144261D01*
X29162068Y-38431159D01*
X29274010Y-38701412D01*
X29436525Y-38944633D01*
X29643368Y-39151476D01*
X29817760Y-39268001D01*
X29643368Y-39384526D01*
X29436525Y-39591369D01*
X29274010Y-39834590D01*
X29162068Y-40104843D01*
X29105000Y-40391741D01*
X29105000Y-40684261D01*
X29162068Y-40971159D01*
X29274010Y-41241412D01*
X29436525Y-41484633D01*
X29643368Y-41691476D01*
X29817760Y-41808001D01*
X29643368Y-41924526D01*
X29436525Y-42131369D01*
X29274010Y-42374590D01*
X29162068Y-42644843D01*
X29105000Y-42931741D01*
X29105000Y-43224261D01*
X29162068Y-43511159D01*
X29274010Y-43781412D01*
X29436525Y-44024633D01*
X29643368Y-44231476D01*
X29817760Y-44348001D01*
X29643368Y-44464526D01*
X29436525Y-44671369D01*
X29274010Y-44914590D01*
X29162068Y-45184843D01*
X29105000Y-45471741D01*
X29105000Y-45764261D01*
X29162068Y-46051159D01*
X29274010Y-46321412D01*
X29436525Y-46564633D01*
X29568380Y-46696488D01*
X29495820Y-46718499D01*
X29385506Y-46777464D01*
X29288815Y-46856816D01*
X29209463Y-46953507D01*
X29150498Y-47063821D01*
X29114188Y-47183519D01*
X29101928Y-47308001D01*
X29105000Y-47872251D01*
X29263750Y-48031001D01*
X30463000Y-48031001D01*
X30463000Y-48011001D01*
X30717000Y-48011001D01*
X30717000Y-48031001D01*
X31916250Y-48031001D01*
X32075000Y-47872251D01*
X32078072Y-47308001D01*
X46881928Y-47308001D01*
X46885000Y-47872251D01*
X47043750Y-48031001D01*
X48243000Y-48031001D01*
X48243000Y-45745001D01*
X48497000Y-45745001D01*
X48497000Y-48031001D01*
X49696250Y-48031001D01*
X49855000Y-47872251D01*
X49855142Y-47846000D01*
X96945138Y-47846000D01*
X96976513Y-48164556D01*
X97069432Y-48470869D01*
X97220325Y-48753170D01*
X97423392Y-49000608D01*
X97670830Y-49203675D01*
X97953131Y-49354568D01*
X98259444Y-49447487D01*
X98498176Y-49471000D01*
X100637824Y-49471000D01*
X100876556Y-49447487D01*
X101182869Y-49354568D01*
X101465170Y-49203675D01*
X101712608Y-49000608D01*
X101915675Y-48753170D01*
X102066568Y-48470869D01*
X102159487Y-48164556D01*
X102190862Y-47846000D01*
X102159487Y-47527444D01*
X102066568Y-47221131D01*
X101915675Y-46938830D01*
X101712608Y-46691392D01*
X101465170Y-46488325D01*
X101182869Y-46337432D01*
X100876556Y-46244513D01*
X100637824Y-46221000D01*
X98498176Y-46221000D01*
X98259444Y-46244513D01*
X97953131Y-46337432D01*
X97670830Y-46488325D01*
X97423392Y-46691392D01*
X97220325Y-46938830D01*
X97069432Y-47221131D01*
X96976513Y-47527444D01*
X96945138Y-47846000D01*
X49855142Y-47846000D01*
X49858072Y-47308001D01*
X49845812Y-47183519D01*
X49809502Y-47063821D01*
X49750537Y-46953507D01*
X49671185Y-46856816D01*
X49574494Y-46777464D01*
X49464180Y-46718499D01*
X49383534Y-46694035D01*
X49467588Y-46618270D01*
X49641641Y-46384921D01*
X49766825Y-46122100D01*
X49811476Y-45974891D01*
X49690155Y-45745001D01*
X48497000Y-45745001D01*
X48243000Y-45745001D01*
X47049845Y-45745001D01*
X46928524Y-45974891D01*
X46973175Y-46122100D01*
X47098359Y-46384921D01*
X47272412Y-46618270D01*
X47356466Y-46694035D01*
X47275820Y-46718499D01*
X47165506Y-46777464D01*
X47068815Y-46856816D01*
X46989463Y-46953507D01*
X46930498Y-47063821D01*
X46894188Y-47183519D01*
X46881928Y-47308001D01*
X32078072Y-47308001D01*
X32065812Y-47183519D01*
X32029502Y-47063821D01*
X31970537Y-46953507D01*
X31891185Y-46856816D01*
X31794494Y-46777464D01*
X31684180Y-46718499D01*
X31611620Y-46696488D01*
X31743475Y-46564633D01*
X31905990Y-46321412D01*
X32017932Y-46051159D01*
X32075000Y-45764261D01*
X32075000Y-45471741D01*
X32017932Y-45184843D01*
X31905990Y-44914590D01*
X31743475Y-44671369D01*
X31536632Y-44464526D01*
X31362240Y-44348001D01*
X31536632Y-44231476D01*
X31743475Y-44024633D01*
X31905990Y-43781412D01*
X32017932Y-43511159D01*
X32075000Y-43224261D01*
X32075000Y-42931741D01*
X32017932Y-42644843D01*
X31905990Y-42374590D01*
X31743475Y-42131369D01*
X31536632Y-41924526D01*
X31362240Y-41808001D01*
X31536632Y-41691476D01*
X31743475Y-41484633D01*
X31905990Y-41241412D01*
X32017932Y-40971159D01*
X32075000Y-40684261D01*
X32075000Y-40391741D01*
X32017932Y-40104843D01*
X31905990Y-39834590D01*
X31743475Y-39591369D01*
X31536632Y-39384526D01*
X31362240Y-39268001D01*
X31536632Y-39151476D01*
X31743475Y-38944633D01*
X31905990Y-38701412D01*
X32017932Y-38431159D01*
X32075000Y-38144261D01*
X32075000Y-37851741D01*
X32017932Y-37564843D01*
X31905990Y-37294590D01*
X31743475Y-37051369D01*
X31611620Y-36919514D01*
X31684180Y-36897503D01*
X31794494Y-36838538D01*
X31891185Y-36759186D01*
X31970537Y-36662495D01*
X32029502Y-36552181D01*
X32065812Y-36432483D01*
X32078072Y-36308001D01*
X46881928Y-36308001D01*
X46894188Y-36432483D01*
X46930498Y-36552181D01*
X46989463Y-36662495D01*
X47068815Y-36759186D01*
X47165506Y-36838538D01*
X47275820Y-36897503D01*
X47348380Y-36919514D01*
X47216525Y-37051369D01*
X47054010Y-37294590D01*
X46942068Y-37564843D01*
X46885000Y-37851741D01*
X46885000Y-38144261D01*
X46942068Y-38431159D01*
X47054010Y-38701412D01*
X47216525Y-38944633D01*
X47423368Y-39151476D01*
X47597760Y-39268001D01*
X47423368Y-39384526D01*
X47216525Y-39591369D01*
X47054010Y-39834590D01*
X46942068Y-40104843D01*
X46885000Y-40391741D01*
X46885000Y-40684261D01*
X46942068Y-40971159D01*
X47054010Y-41241412D01*
X47216525Y-41484633D01*
X47423368Y-41691476D01*
X47597760Y-41808001D01*
X47423368Y-41924526D01*
X47216525Y-42131369D01*
X47054010Y-42374590D01*
X46942068Y-42644843D01*
X46885000Y-42931741D01*
X46885000Y-43224261D01*
X46942068Y-43511159D01*
X47054010Y-43781412D01*
X47216525Y-44024633D01*
X47423368Y-44231476D01*
X47605534Y-44353196D01*
X47488645Y-44422823D01*
X47272412Y-44617732D01*
X47098359Y-44851081D01*
X46973175Y-45113902D01*
X46928524Y-45261111D01*
X47049845Y-45491001D01*
X48243000Y-45491001D01*
X48243000Y-45471001D01*
X48497000Y-45471001D01*
X48497000Y-45491001D01*
X49690155Y-45491001D01*
X49811476Y-45261111D01*
X49766825Y-45113902D01*
X49641641Y-44851081D01*
X49467588Y-44617732D01*
X49251355Y-44422823D01*
X49134466Y-44353196D01*
X49316632Y-44231476D01*
X49523475Y-44024633D01*
X49685990Y-43781412D01*
X49797932Y-43511159D01*
X49855000Y-43224261D01*
X49855000Y-43078061D01*
X68307000Y-43078061D01*
X68307000Y-43281939D01*
X68346774Y-43481898D01*
X68424795Y-43670256D01*
X68538063Y-43839774D01*
X68682226Y-43983937D01*
X68851744Y-44097205D01*
X69040102Y-44175226D01*
X69240061Y-44215000D01*
X69443939Y-44215000D01*
X69643898Y-44175226D01*
X69832256Y-44097205D01*
X70001774Y-43983937D01*
X70145937Y-43839774D01*
X70259205Y-43670256D01*
X70337226Y-43481898D01*
X70377000Y-43281939D01*
X70377000Y-43078061D01*
X70337226Y-42878102D01*
X70323439Y-42844816D01*
X79836000Y-42844816D01*
X79836000Y-43147184D01*
X79894989Y-43443743D01*
X80010701Y-43723095D01*
X80178688Y-43974505D01*
X80392495Y-44188312D01*
X80643905Y-44356299D01*
X80923257Y-44472011D01*
X81219816Y-44531000D01*
X81522184Y-44531000D01*
X81818743Y-44472011D01*
X82098095Y-44356299D01*
X82349505Y-44188312D01*
X82563312Y-43974505D01*
X82731299Y-43723095D01*
X82847011Y-43443743D01*
X82906000Y-43147184D01*
X82906000Y-42846000D01*
X96945138Y-42846000D01*
X96976513Y-43164556D01*
X97069432Y-43470869D01*
X97220325Y-43753170D01*
X97423392Y-44000608D01*
X97670830Y-44203675D01*
X97953131Y-44354568D01*
X98259444Y-44447487D01*
X98498176Y-44471000D01*
X100637824Y-44471000D01*
X100876556Y-44447487D01*
X101182869Y-44354568D01*
X101465170Y-44203675D01*
X101712608Y-44000608D01*
X101915675Y-43753170D01*
X102066568Y-43470869D01*
X102159487Y-43164556D01*
X102190862Y-42846000D01*
X102159487Y-42527444D01*
X102066568Y-42221131D01*
X101915675Y-41938830D01*
X101712608Y-41691392D01*
X101465170Y-41488325D01*
X101182869Y-41337432D01*
X100876556Y-41244513D01*
X100637824Y-41221000D01*
X98498176Y-41221000D01*
X98259444Y-41244513D01*
X97953131Y-41337432D01*
X97670830Y-41488325D01*
X97423392Y-41691392D01*
X97220325Y-41938830D01*
X97069432Y-42221131D01*
X96976513Y-42527444D01*
X96945138Y-42846000D01*
X82906000Y-42846000D01*
X82906000Y-42844816D01*
X82847011Y-42548257D01*
X82731299Y-42268905D01*
X82563312Y-42017495D01*
X82349505Y-41803688D01*
X82098095Y-41635701D01*
X81818743Y-41519989D01*
X81522184Y-41461000D01*
X81219816Y-41461000D01*
X80923257Y-41519989D01*
X80643905Y-41635701D01*
X80392495Y-41803688D01*
X80178688Y-42017495D01*
X80010701Y-42268905D01*
X79894989Y-42548257D01*
X79836000Y-42844816D01*
X70323439Y-42844816D01*
X70259205Y-42689744D01*
X70145937Y-42520226D01*
X70102000Y-42476289D01*
X70102000Y-40538061D01*
X70339000Y-40538061D01*
X70339000Y-40741939D01*
X70378774Y-40941898D01*
X70456795Y-41130256D01*
X70570063Y-41299774D01*
X70714226Y-41443937D01*
X70883744Y-41557205D01*
X71072102Y-41635226D01*
X71272061Y-41675000D01*
X71475939Y-41675000D01*
X71675898Y-41635226D01*
X71864256Y-41557205D01*
X72033774Y-41443937D01*
X72177937Y-41299774D01*
X72291205Y-41130256D01*
X72369226Y-40941898D01*
X72409000Y-40741939D01*
X72409000Y-40679801D01*
X74252801Y-38836000D01*
X96949928Y-38836000D01*
X96962188Y-38960482D01*
X96998498Y-39080180D01*
X97057463Y-39190494D01*
X97136815Y-39287185D01*
X97233506Y-39366537D01*
X97343820Y-39425502D01*
X97463518Y-39461812D01*
X97588000Y-39474072D01*
X99282250Y-39471000D01*
X99441000Y-39312250D01*
X99441000Y-37973000D01*
X99695000Y-37973000D01*
X99695000Y-39312250D01*
X99853750Y-39471000D01*
X101548000Y-39474072D01*
X101672482Y-39461812D01*
X101792180Y-39425502D01*
X101902494Y-39366537D01*
X101999185Y-39287185D01*
X102078537Y-39190494D01*
X102137502Y-39080180D01*
X102173812Y-38960482D01*
X102186072Y-38836000D01*
X102183000Y-38131750D01*
X102024250Y-37973000D01*
X99695000Y-37973000D01*
X99441000Y-37973000D01*
X97111750Y-37973000D01*
X96953000Y-38131750D01*
X96949928Y-38836000D01*
X74252801Y-38836000D01*
X76260803Y-36828000D01*
X77020289Y-36828000D01*
X77064226Y-36871937D01*
X77233744Y-36985205D01*
X77422102Y-37063226D01*
X77622061Y-37103000D01*
X77825939Y-37103000D01*
X78025898Y-37063226D01*
X78214256Y-36985205D01*
X78383774Y-36871937D01*
X78399711Y-36856000D01*
X96949928Y-36856000D01*
X96953000Y-37560250D01*
X97111750Y-37719000D01*
X99441000Y-37719000D01*
X99441000Y-36379750D01*
X99695000Y-36379750D01*
X99695000Y-37719000D01*
X102024250Y-37719000D01*
X102183000Y-37560250D01*
X102186072Y-36856000D01*
X102173812Y-36731518D01*
X102137502Y-36611820D01*
X102078537Y-36501506D01*
X101999185Y-36404815D01*
X101902494Y-36325463D01*
X101792180Y-36266498D01*
X101672482Y-36230188D01*
X101548000Y-36217928D01*
X99853750Y-36221000D01*
X99695000Y-36379750D01*
X99441000Y-36379750D01*
X99282250Y-36221000D01*
X97588000Y-36217928D01*
X97463518Y-36230188D01*
X97343820Y-36266498D01*
X97233506Y-36325463D01*
X97136815Y-36404815D01*
X97057463Y-36501506D01*
X96998498Y-36611820D01*
X96962188Y-36731518D01*
X96949928Y-36856000D01*
X78399711Y-36856000D01*
X78527937Y-36727774D01*
X78641205Y-36558256D01*
X78719226Y-36369898D01*
X78759000Y-36169939D01*
X78759000Y-35966061D01*
X78719226Y-35766102D01*
X78641205Y-35577744D01*
X78527937Y-35408226D01*
X78383774Y-35264063D01*
X78214256Y-35150795D01*
X78025898Y-35072774D01*
X77825939Y-35033000D01*
X77622061Y-35033000D01*
X77422102Y-35072774D01*
X77233744Y-35150795D01*
X77064226Y-35264063D01*
X77020289Y-35308000D01*
X75983322Y-35308000D01*
X75945999Y-35304324D01*
X75908676Y-35308000D01*
X75908667Y-35308000D01*
X75797014Y-35318997D01*
X75653753Y-35362454D01*
X75521724Y-35433026D01*
X75521722Y-35433027D01*
X75521723Y-35433027D01*
X75434996Y-35504201D01*
X75434992Y-35504205D01*
X75405999Y-35527999D01*
X75382205Y-35556992D01*
X71334199Y-39605000D01*
X71272061Y-39605000D01*
X71072102Y-39644774D01*
X70883744Y-39722795D01*
X70714226Y-39836063D01*
X70570063Y-39980226D01*
X70456795Y-40149744D01*
X70378774Y-40338102D01*
X70339000Y-40538061D01*
X70102000Y-40538061D01*
X70102000Y-37906801D01*
X75223802Y-32785000D01*
X75285939Y-32785000D01*
X75485898Y-32745226D01*
X75674256Y-32667205D01*
X75843774Y-32553937D01*
X75987937Y-32409774D01*
X76101205Y-32240256D01*
X76179226Y-32051898D01*
X76219000Y-31851939D01*
X76219000Y-31648061D01*
X76179226Y-31448102D01*
X76101205Y-31259744D01*
X75987937Y-31090226D01*
X75843774Y-30946063D01*
X75674256Y-30832795D01*
X75485898Y-30754774D01*
X75285939Y-30715000D01*
X75082061Y-30715000D01*
X74882102Y-30754774D01*
X74693744Y-30832795D01*
X74524226Y-30946063D01*
X74380063Y-31090226D01*
X74266795Y-31259744D01*
X74188774Y-31448102D01*
X74149000Y-31648061D01*
X74149000Y-31710198D01*
X68831003Y-37028196D01*
X68801999Y-37051999D01*
X68760144Y-37103000D01*
X68707026Y-37167724D01*
X68639214Y-37294590D01*
X68636454Y-37299754D01*
X68592997Y-37443015D01*
X68582000Y-37554668D01*
X68582000Y-37554678D01*
X68578324Y-37592000D01*
X68582000Y-37629323D01*
X68582001Y-42476288D01*
X68538063Y-42520226D01*
X68424795Y-42689744D01*
X68346774Y-42878102D01*
X68307000Y-43078061D01*
X49855000Y-43078061D01*
X49855000Y-42931741D01*
X49797932Y-42644843D01*
X49685990Y-42374590D01*
X49523475Y-42131369D01*
X49316632Y-41924526D01*
X49142240Y-41808001D01*
X49316632Y-41691476D01*
X49523475Y-41484633D01*
X49685990Y-41241412D01*
X49797932Y-40971159D01*
X49855000Y-40684261D01*
X49855000Y-40391741D01*
X49797932Y-40104843D01*
X49685990Y-39834590D01*
X49523475Y-39591369D01*
X49316632Y-39384526D01*
X49142240Y-39268001D01*
X49316632Y-39151476D01*
X49523475Y-38944633D01*
X49685990Y-38701412D01*
X49797932Y-38431159D01*
X49855000Y-38144261D01*
X49855000Y-37851741D01*
X49797932Y-37564843D01*
X49685990Y-37294590D01*
X49523475Y-37051369D01*
X49391620Y-36919514D01*
X49464180Y-36897503D01*
X49574494Y-36838538D01*
X49671185Y-36759186D01*
X49750537Y-36662495D01*
X49809502Y-36552181D01*
X49845812Y-36432483D01*
X49858072Y-36308001D01*
X49855000Y-35743751D01*
X49696250Y-35585001D01*
X48497000Y-35585001D01*
X48497000Y-35605001D01*
X48243000Y-35605001D01*
X48243000Y-35585001D01*
X47043750Y-35585001D01*
X46885000Y-35743751D01*
X46881928Y-36308001D01*
X32078072Y-36308001D01*
X32075000Y-35743751D01*
X31916250Y-35585001D01*
X30717000Y-35585001D01*
X30717000Y-35605001D01*
X30463000Y-35605001D01*
X30463000Y-35585001D01*
X29263750Y-35585001D01*
X29105000Y-35743751D01*
X29101928Y-36308001D01*
X24003000Y-36308001D01*
X24003000Y-34608001D01*
X29101928Y-34608001D01*
X29105000Y-35172251D01*
X29263750Y-35331001D01*
X30463000Y-35331001D01*
X30463000Y-35311001D01*
X30717000Y-35311001D01*
X30717000Y-35331001D01*
X31916250Y-35331001D01*
X32075000Y-35172251D01*
X32078072Y-34608001D01*
X32065812Y-34483519D01*
X32029502Y-34363821D01*
X31970537Y-34253507D01*
X31891185Y-34156816D01*
X31794494Y-34077464D01*
X31684180Y-34018499D01*
X31611620Y-33996488D01*
X31743475Y-33864633D01*
X31905990Y-33621412D01*
X31997042Y-33401590D01*
X35670000Y-33401590D01*
X35670000Y-33674412D01*
X35723225Y-33941990D01*
X35827629Y-34194044D01*
X35979201Y-34420887D01*
X36172114Y-34613800D01*
X36398957Y-34765372D01*
X36651011Y-34869776D01*
X36918589Y-34923001D01*
X37191411Y-34923001D01*
X37458989Y-34869776D01*
X37711043Y-34765372D01*
X37937886Y-34613800D01*
X38130799Y-34420887D01*
X38282371Y-34194044D01*
X38386775Y-33941990D01*
X38440000Y-33674412D01*
X38440000Y-33401590D01*
X40520000Y-33401590D01*
X40520000Y-33674412D01*
X40573225Y-33941990D01*
X40677629Y-34194044D01*
X40829201Y-34420887D01*
X41022114Y-34613800D01*
X41248957Y-34765372D01*
X41501011Y-34869776D01*
X41768589Y-34923001D01*
X42041411Y-34923001D01*
X42308989Y-34869776D01*
X42561043Y-34765372D01*
X42787886Y-34613800D01*
X42793685Y-34608001D01*
X46881928Y-34608001D01*
X46885000Y-35172251D01*
X47043750Y-35331001D01*
X48243000Y-35331001D01*
X48243000Y-35311001D01*
X48497000Y-35311001D01*
X48497000Y-35331001D01*
X49696250Y-35331001D01*
X49855000Y-35172251D01*
X49858072Y-34608001D01*
X49845812Y-34483519D01*
X49809502Y-34363821D01*
X49750537Y-34253507D01*
X49671185Y-34156816D01*
X49574494Y-34077464D01*
X49464180Y-34018499D01*
X49391620Y-33996488D01*
X49523475Y-33864633D01*
X49685990Y-33621412D01*
X49797932Y-33351159D01*
X49855000Y-33064261D01*
X49855000Y-32771741D01*
X49797932Y-32484843D01*
X49685990Y-32214590D01*
X49523475Y-31971369D01*
X49316632Y-31764526D01*
X49142240Y-31648001D01*
X49316632Y-31531476D01*
X49523475Y-31324633D01*
X49685990Y-31081412D01*
X49797932Y-30811159D01*
X49830784Y-30646000D01*
X60233928Y-30646000D01*
X60233928Y-32346000D01*
X60246188Y-32470482D01*
X60282498Y-32590180D01*
X60341463Y-32700494D01*
X60420815Y-32797185D01*
X60517506Y-32876537D01*
X60627820Y-32935502D01*
X60747518Y-32971812D01*
X60872000Y-32984072D01*
X62572000Y-32984072D01*
X62696482Y-32971812D01*
X62816180Y-32935502D01*
X62926494Y-32876537D01*
X63023185Y-32797185D01*
X63102537Y-32700494D01*
X63161502Y-32590180D01*
X63185966Y-32509534D01*
X63261731Y-32593588D01*
X63495080Y-32767641D01*
X63757901Y-32892825D01*
X63905110Y-32937476D01*
X64135000Y-32816155D01*
X64135000Y-31623000D01*
X64115000Y-31623000D01*
X64115000Y-31369000D01*
X64135000Y-31369000D01*
X64135000Y-30175845D01*
X64389000Y-30175845D01*
X64389000Y-31369000D01*
X64409000Y-31369000D01*
X64409000Y-31623000D01*
X64389000Y-31623000D01*
X64389000Y-32816155D01*
X64618890Y-32937476D01*
X64766099Y-32892825D01*
X65028920Y-32767641D01*
X65262269Y-32593588D01*
X65457178Y-32377355D01*
X65526805Y-32260466D01*
X65648525Y-32442632D01*
X65855368Y-32649475D01*
X66098589Y-32811990D01*
X66368842Y-32923932D01*
X66655740Y-32981000D01*
X66948260Y-32981000D01*
X67235158Y-32923932D01*
X67505411Y-32811990D01*
X67748632Y-32649475D01*
X67955475Y-32442632D01*
X68072000Y-32268240D01*
X68188525Y-32442632D01*
X68395368Y-32649475D01*
X68638589Y-32811990D01*
X68908842Y-32923932D01*
X69195740Y-32981000D01*
X69488260Y-32981000D01*
X69775158Y-32923932D01*
X70045411Y-32811990D01*
X70288632Y-32649475D01*
X70495475Y-32442632D01*
X70657990Y-32199411D01*
X70769932Y-31929158D01*
X70827000Y-31642260D01*
X70827000Y-31349740D01*
X70769932Y-31062842D01*
X70657990Y-30792589D01*
X70495475Y-30549368D01*
X70288632Y-30342525D01*
X70045411Y-30180010D01*
X69775158Y-30068068D01*
X69488260Y-30011000D01*
X69195740Y-30011000D01*
X68908842Y-30068068D01*
X68638589Y-30180010D01*
X68395368Y-30342525D01*
X68188525Y-30549368D01*
X68072000Y-30723760D01*
X67955475Y-30549368D01*
X67748632Y-30342525D01*
X67505411Y-30180010D01*
X67235158Y-30068068D01*
X66948260Y-30011000D01*
X66655740Y-30011000D01*
X66368842Y-30068068D01*
X66098589Y-30180010D01*
X65855368Y-30342525D01*
X65648525Y-30549368D01*
X65526805Y-30731534D01*
X65457178Y-30614645D01*
X65262269Y-30398412D01*
X65028920Y-30224359D01*
X64766099Y-30099175D01*
X64618890Y-30054524D01*
X64389000Y-30175845D01*
X64135000Y-30175845D01*
X63905110Y-30054524D01*
X63757901Y-30099175D01*
X63495080Y-30224359D01*
X63261731Y-30398412D01*
X63185966Y-30482466D01*
X63161502Y-30401820D01*
X63102537Y-30291506D01*
X63023185Y-30194815D01*
X62926494Y-30115463D01*
X62816180Y-30056498D01*
X62696482Y-30020188D01*
X62572000Y-30007928D01*
X60872000Y-30007928D01*
X60747518Y-30020188D01*
X60627820Y-30056498D01*
X60517506Y-30115463D01*
X60420815Y-30194815D01*
X60341463Y-30291506D01*
X60282498Y-30401820D01*
X60246188Y-30521518D01*
X60233928Y-30646000D01*
X49830784Y-30646000D01*
X49855000Y-30524261D01*
X49855000Y-30231741D01*
X49797932Y-29944843D01*
X49685990Y-29674590D01*
X49523475Y-29431369D01*
X49316632Y-29224526D01*
X49073411Y-29062011D01*
X48803158Y-28950069D01*
X48516260Y-28893001D01*
X48223740Y-28893001D01*
X47936842Y-28950069D01*
X47666589Y-29062011D01*
X47423368Y-29224526D01*
X47216525Y-29431369D01*
X47054010Y-29674590D01*
X46942068Y-29944843D01*
X46885000Y-30231741D01*
X46885000Y-30524261D01*
X46942068Y-30811159D01*
X47054010Y-31081412D01*
X47216525Y-31324633D01*
X47423368Y-31531476D01*
X47597760Y-31648001D01*
X47423368Y-31764526D01*
X47216525Y-31971369D01*
X47054010Y-32214590D01*
X46942068Y-32484843D01*
X46885000Y-32771741D01*
X46885000Y-33064261D01*
X46942068Y-33351159D01*
X47054010Y-33621412D01*
X47216525Y-33864633D01*
X47348380Y-33996488D01*
X47275820Y-34018499D01*
X47165506Y-34077464D01*
X47068815Y-34156816D01*
X46989463Y-34253507D01*
X46930498Y-34363821D01*
X46894188Y-34483519D01*
X46881928Y-34608001D01*
X42793685Y-34608001D01*
X42980799Y-34420887D01*
X43132371Y-34194044D01*
X43236775Y-33941990D01*
X43290000Y-33674412D01*
X43290000Y-33401590D01*
X43236775Y-33134012D01*
X43132371Y-32881958D01*
X42980799Y-32655115D01*
X42787886Y-32462202D01*
X42561043Y-32310630D01*
X42308989Y-32206226D01*
X42041411Y-32153001D01*
X41768589Y-32153001D01*
X41501011Y-32206226D01*
X41248957Y-32310630D01*
X41022114Y-32462202D01*
X40829201Y-32655115D01*
X40677629Y-32881958D01*
X40573225Y-33134012D01*
X40520000Y-33401590D01*
X38440000Y-33401590D01*
X38386775Y-33134012D01*
X38282371Y-32881958D01*
X38130799Y-32655115D01*
X37937886Y-32462202D01*
X37711043Y-32310630D01*
X37458989Y-32206226D01*
X37191411Y-32153001D01*
X36918589Y-32153001D01*
X36651011Y-32206226D01*
X36398957Y-32310630D01*
X36172114Y-32462202D01*
X35979201Y-32655115D01*
X35827629Y-32881958D01*
X35723225Y-33134012D01*
X35670000Y-33401590D01*
X31997042Y-33401590D01*
X32017932Y-33351159D01*
X32075000Y-33064261D01*
X32075000Y-32771741D01*
X32017932Y-32484843D01*
X31905990Y-32214590D01*
X31743475Y-31971369D01*
X31536632Y-31764526D01*
X31362240Y-31648001D01*
X31536632Y-31531476D01*
X31743475Y-31324633D01*
X31905990Y-31081412D01*
X32017932Y-30811159D01*
X32075000Y-30524261D01*
X32075000Y-30356817D01*
X35220000Y-30356817D01*
X35220000Y-30659185D01*
X35278989Y-30955744D01*
X35394701Y-31235096D01*
X35562688Y-31486506D01*
X35776495Y-31700313D01*
X36027905Y-31868300D01*
X36307257Y-31984012D01*
X36603816Y-32043001D01*
X36906184Y-32043001D01*
X37202743Y-31984012D01*
X37482095Y-31868300D01*
X37733505Y-31700313D01*
X37947312Y-31486506D01*
X38115299Y-31235096D01*
X38231011Y-30955744D01*
X38290000Y-30659185D01*
X38290000Y-30356817D01*
X40670000Y-30356817D01*
X40670000Y-30659185D01*
X40728989Y-30955744D01*
X40844701Y-31235096D01*
X41012688Y-31486506D01*
X41226495Y-31700313D01*
X41477905Y-31868300D01*
X41757257Y-31984012D01*
X42053816Y-32043001D01*
X42356184Y-32043001D01*
X42652743Y-31984012D01*
X42932095Y-31868300D01*
X43183505Y-31700313D01*
X43397312Y-31486506D01*
X43565299Y-31235096D01*
X43681011Y-30955744D01*
X43740000Y-30659185D01*
X43740000Y-30356817D01*
X43681011Y-30060258D01*
X43565299Y-29780906D01*
X43397312Y-29529496D01*
X43183505Y-29315689D01*
X42932095Y-29147702D01*
X42652743Y-29031990D01*
X42356184Y-28973001D01*
X42053816Y-28973001D01*
X41757257Y-29031990D01*
X41477905Y-29147702D01*
X41226495Y-29315689D01*
X41012688Y-29529496D01*
X40844701Y-29780906D01*
X40728989Y-30060258D01*
X40670000Y-30356817D01*
X38290000Y-30356817D01*
X38231011Y-30060258D01*
X38115299Y-29780906D01*
X37947312Y-29529496D01*
X37733505Y-29315689D01*
X37482095Y-29147702D01*
X37202743Y-29031990D01*
X36906184Y-28973001D01*
X36603816Y-28973001D01*
X36307257Y-29031990D01*
X36027905Y-29147702D01*
X35776495Y-29315689D01*
X35562688Y-29529496D01*
X35394701Y-29780906D01*
X35278989Y-30060258D01*
X35220000Y-30356817D01*
X32075000Y-30356817D01*
X32075000Y-30231741D01*
X32017932Y-29944843D01*
X31905990Y-29674590D01*
X31743475Y-29431369D01*
X31536632Y-29224526D01*
X31293411Y-29062011D01*
X31023158Y-28950069D01*
X30736260Y-28893001D01*
X30443740Y-28893001D01*
X30156842Y-28950069D01*
X29886589Y-29062011D01*
X29643368Y-29224526D01*
X29436525Y-29431369D01*
X29274010Y-29674590D01*
X29162068Y-29944843D01*
X29105000Y-30231741D01*
X29105000Y-30524261D01*
X29162068Y-30811159D01*
X29274010Y-31081412D01*
X29436525Y-31324633D01*
X29643368Y-31531476D01*
X29817760Y-31648001D01*
X29643368Y-31764526D01*
X29436525Y-31971369D01*
X29274010Y-32214590D01*
X29162068Y-32484843D01*
X29105000Y-32771741D01*
X29105000Y-33064261D01*
X29162068Y-33351159D01*
X29274010Y-33621412D01*
X29436525Y-33864633D01*
X29568380Y-33996488D01*
X29495820Y-34018499D01*
X29385506Y-34077464D01*
X29288815Y-34156816D01*
X29209463Y-34253507D01*
X29150498Y-34363821D01*
X29114188Y-34483519D01*
X29101928Y-34608001D01*
X24003000Y-34608001D01*
X24003000Y-28809740D01*
X82589000Y-28809740D01*
X82589000Y-29102260D01*
X82646068Y-29389158D01*
X82758010Y-29659411D01*
X82920525Y-29902632D01*
X83127368Y-30109475D01*
X83370589Y-30271990D01*
X83640842Y-30383932D01*
X83927740Y-30441000D01*
X84220260Y-30441000D01*
X84507158Y-30383932D01*
X84777411Y-30271990D01*
X85020632Y-30109475D01*
X85227475Y-29902632D01*
X85344000Y-29728240D01*
X85460525Y-29902632D01*
X85667368Y-30109475D01*
X85910589Y-30271990D01*
X86180842Y-30383932D01*
X86467740Y-30441000D01*
X86760260Y-30441000D01*
X87047158Y-30383932D01*
X87317411Y-30271990D01*
X87560632Y-30109475D01*
X87692487Y-29977620D01*
X87714498Y-30050180D01*
X87773463Y-30160494D01*
X87852815Y-30257185D01*
X87949506Y-30336537D01*
X88059820Y-30395502D01*
X88179518Y-30431812D01*
X88304000Y-30444072D01*
X88868250Y-30441000D01*
X89027000Y-30282250D01*
X89027000Y-29083000D01*
X89281000Y-29083000D01*
X89281000Y-30282250D01*
X89439750Y-30441000D01*
X90004000Y-30444072D01*
X90128482Y-30431812D01*
X90248180Y-30395502D01*
X90358494Y-30336537D01*
X90455185Y-30257185D01*
X90534537Y-30160494D01*
X90593502Y-30050180D01*
X90629812Y-29930482D01*
X90642072Y-29806000D01*
X90639000Y-29241750D01*
X90480250Y-29083000D01*
X89281000Y-29083000D01*
X89027000Y-29083000D01*
X89007000Y-29083000D01*
X89007000Y-28829000D01*
X89027000Y-28829000D01*
X89027000Y-27629750D01*
X89281000Y-27629750D01*
X89281000Y-28829000D01*
X90480250Y-28829000D01*
X90499510Y-28809740D01*
X95289000Y-28809740D01*
X95289000Y-29102260D01*
X95346068Y-29389158D01*
X95458010Y-29659411D01*
X95620525Y-29902632D01*
X95827368Y-30109475D01*
X96070589Y-30271990D01*
X96340842Y-30383932D01*
X96627740Y-30441000D01*
X96920260Y-30441000D01*
X97207158Y-30383932D01*
X97477411Y-30271990D01*
X97720632Y-30109475D01*
X97927475Y-29902632D01*
X98044000Y-29728240D01*
X98160525Y-29902632D01*
X98367368Y-30109475D01*
X98610589Y-30271990D01*
X98880842Y-30383932D01*
X99167740Y-30441000D01*
X99460260Y-30441000D01*
X99747158Y-30383932D01*
X100017411Y-30271990D01*
X100260632Y-30109475D01*
X100392487Y-29977620D01*
X100414498Y-30050180D01*
X100473463Y-30160494D01*
X100552815Y-30257185D01*
X100649506Y-30336537D01*
X100759820Y-30395502D01*
X100879518Y-30431812D01*
X101004000Y-30444072D01*
X101568250Y-30441000D01*
X101727000Y-30282250D01*
X101727000Y-29083000D01*
X101981000Y-29083000D01*
X101981000Y-30282250D01*
X102139750Y-30441000D01*
X102704000Y-30444072D01*
X102828482Y-30431812D01*
X102948180Y-30395502D01*
X103058494Y-30336537D01*
X103155185Y-30257185D01*
X103234537Y-30160494D01*
X103293502Y-30050180D01*
X103329812Y-29930482D01*
X103342072Y-29806000D01*
X103339000Y-29241750D01*
X103180250Y-29083000D01*
X101981000Y-29083000D01*
X101727000Y-29083000D01*
X101707000Y-29083000D01*
X101707000Y-28829000D01*
X101727000Y-28829000D01*
X101727000Y-27629750D01*
X101981000Y-27629750D01*
X101981000Y-28829000D01*
X103180250Y-28829000D01*
X103339000Y-28670250D01*
X103342072Y-28106000D01*
X103329812Y-27981518D01*
X103293502Y-27861820D01*
X103234537Y-27751506D01*
X103155185Y-27654815D01*
X103058494Y-27575463D01*
X102948180Y-27516498D01*
X102828482Y-27480188D01*
X102704000Y-27467928D01*
X102139750Y-27471000D01*
X101981000Y-27629750D01*
X101727000Y-27629750D01*
X101568250Y-27471000D01*
X101004000Y-27467928D01*
X100879518Y-27480188D01*
X100759820Y-27516498D01*
X100649506Y-27575463D01*
X100552815Y-27654815D01*
X100473463Y-27751506D01*
X100414498Y-27861820D01*
X100392487Y-27934380D01*
X100260632Y-27802525D01*
X100017411Y-27640010D01*
X99747158Y-27528068D01*
X99460260Y-27471000D01*
X99167740Y-27471000D01*
X98880842Y-27528068D01*
X98610589Y-27640010D01*
X98367368Y-27802525D01*
X98160525Y-28009368D01*
X98044000Y-28183760D01*
X97927475Y-28009368D01*
X97720632Y-27802525D01*
X97477411Y-27640010D01*
X97207158Y-27528068D01*
X96920260Y-27471000D01*
X96627740Y-27471000D01*
X96340842Y-27528068D01*
X96070589Y-27640010D01*
X95827368Y-27802525D01*
X95620525Y-28009368D01*
X95458010Y-28252589D01*
X95346068Y-28522842D01*
X95289000Y-28809740D01*
X90499510Y-28809740D01*
X90639000Y-28670250D01*
X90642072Y-28106000D01*
X90629812Y-27981518D01*
X90593502Y-27861820D01*
X90534537Y-27751506D01*
X90455185Y-27654815D01*
X90358494Y-27575463D01*
X90248180Y-27516498D01*
X90128482Y-27480188D01*
X90004000Y-27467928D01*
X89439750Y-27471000D01*
X89281000Y-27629750D01*
X89027000Y-27629750D01*
X88868250Y-27471000D01*
X88304000Y-27467928D01*
X88179518Y-27480188D01*
X88059820Y-27516498D01*
X87949506Y-27575463D01*
X87852815Y-27654815D01*
X87773463Y-27751506D01*
X87714498Y-27861820D01*
X87692487Y-27934380D01*
X87560632Y-27802525D01*
X87317411Y-27640010D01*
X87047158Y-27528068D01*
X86760260Y-27471000D01*
X86467740Y-27471000D01*
X86180842Y-27528068D01*
X85910589Y-27640010D01*
X85667368Y-27802525D01*
X85460525Y-28009368D01*
X85344000Y-28183760D01*
X85227475Y-28009368D01*
X85020632Y-27802525D01*
X84777411Y-27640010D01*
X84507158Y-27528068D01*
X84220260Y-27471000D01*
X83927740Y-27471000D01*
X83640842Y-27528068D01*
X83370589Y-27640010D01*
X83127368Y-27802525D01*
X82920525Y-28009368D01*
X82758010Y-28252589D01*
X82646068Y-28522842D01*
X82589000Y-28809740D01*
X24003000Y-28809740D01*
X24003000Y-25214344D01*
X24023000Y-25214344D01*
X24023000Y-25585656D01*
X24095439Y-25949834D01*
X24237534Y-26292882D01*
X24443825Y-26601618D01*
X24706382Y-26864175D01*
X25015118Y-27070466D01*
X25358166Y-27212561D01*
X25722344Y-27285000D01*
X26093656Y-27285000D01*
X26457834Y-27212561D01*
X26800882Y-27070466D01*
X27109618Y-26864175D01*
X27372175Y-26601618D01*
X27578466Y-26292882D01*
X27720561Y-25949834D01*
X27793000Y-25585656D01*
X27793000Y-25214344D01*
X27742477Y-24960344D01*
X103271000Y-24960344D01*
X103271000Y-25331656D01*
X103343439Y-25695834D01*
X103485534Y-26038882D01*
X103691825Y-26347618D01*
X103954382Y-26610175D01*
X104263118Y-26816466D01*
X104606166Y-26958561D01*
X104970344Y-27031000D01*
X105341656Y-27031000D01*
X105705834Y-26958561D01*
X106048882Y-26816466D01*
X106357618Y-26610175D01*
X106620175Y-26347618D01*
X106826466Y-26038882D01*
X106968561Y-25695834D01*
X107041000Y-25331656D01*
X107041000Y-24960344D01*
X106968561Y-24596166D01*
X106826466Y-24253118D01*
X106620175Y-23944382D01*
X106357618Y-23681825D01*
X106048882Y-23475534D01*
X105705834Y-23333439D01*
X105341656Y-23261000D01*
X104970344Y-23261000D01*
X104606166Y-23333439D01*
X104263118Y-23475534D01*
X103954382Y-23681825D01*
X103691825Y-23944382D01*
X103485534Y-24253118D01*
X103343439Y-24596166D01*
X103271000Y-24960344D01*
X27742477Y-24960344D01*
X27720561Y-24850166D01*
X27578466Y-24507118D01*
X27372175Y-24198382D01*
X27109618Y-23935825D01*
X26800882Y-23729534D01*
X26457834Y-23587439D01*
X26093656Y-23515000D01*
X25722344Y-23515000D01*
X25358166Y-23587439D01*
X25015118Y-23729534D01*
X24706382Y-23935825D01*
X24443825Y-24198382D01*
X24237534Y-24507118D01*
X24095439Y-24850166D01*
X24023000Y-25214344D01*
X24003000Y-25214344D01*
X24003000Y-23241000D01*
X107315000Y-23241000D01*
X107315000Y-84455000D01*
G37*
%TD.AperFunction*%
%TD*%
M02*
