M48
; DRILL file {KiCad (5.1.9)-1} date 01/22/22 22:11:38
; FORMAT={-:-/ absolute / inch / decimal}
; #@! TF.CreationDate,2022-01-22T22:11:38-08:00
; #@! TF.GenerationSoftware,Kicad,Pcbnew,(5.1.9)-1
; #@! TF.FileFunction,Plated,1,2,PTH
FMAT,2
INCH
T1C0.0157
T2C0.0394
T3C0.0402
T4C0.0472
T5C0.0520
%
G90
G05
T1
X1.3326Y-2.0374
X1.4Y-2.695
X1.4074Y-2.0374
X1.55Y-1.92
X1.575Y-2.99
X1.5994Y-2.0894
X1.6Y-2.455
X1.6Y-2.805
X1.605Y-2.515
X1.6165Y-2.665
X1.64Y-1.82
X1.645Y-2.11
X1.68Y-2.06
X1.68Y-2.755
X1.715Y-1.975
X1.715Y-2.505
X1.745Y-2.055
X1.745Y-2.4
X1.745Y-2.45
X1.7475Y-1.3825
X1.75Y-3.05
X1.785Y-2.235
X1.785Y-2.36
X1.805Y-2.575
X1.805Y-2.985
X1.825Y-1.925
X1.83Y-1.82
X2.08Y-1.28
X2.3Y-1.455
X2.385Y-2.745
X2.39Y-3.13
X2.46Y-1.59
X2.52Y-2.47
X2.65Y-1.53
X2.65Y-1.88
X2.7Y-2.11
X2.73Y-1.7
X2.81Y-1.6
X2.905Y-2.48
X2.96Y-1.25
X3.02Y-2.11
X3.06Y-1.42
X3.155Y-1.32
T2
X1.985Y-0.96
X2.085Y-0.96
X2.185Y-0.96
X2.285Y-0.96
X2.385Y-0.96
X2.43Y-1.24
X2.485Y-0.96
X2.53Y-1.24
X2.63Y-1.24
X2.73Y-1.24
X2.76Y-3.155
X2.86Y-3.155
X2.96Y-3.155
X3.06Y-3.155
X3.31Y-1.14
X3.41Y-1.14
X3.51Y-1.14
X3.81Y-1.14
X3.91Y-1.14
X4.01Y-1.14
T3
X1.2043Y-1.196
X1.2043Y-1.296
X1.2043Y-1.396
X1.2043Y-1.496
X1.2043Y-1.596
X1.2043Y-1.696
X1.2043Y-1.796
X1.2043Y-1.896
X1.2043Y-1.996
X1.2043Y-2.096
X1.2043Y-2.196
X1.2043Y-2.296
X1.2043Y-2.396
X1.2043Y-2.496
X1.2043Y-2.596
X1.2043Y-2.696
X1.2043Y-2.796
X1.2043Y-2.896
X1.2043Y-2.996
X1.2043Y-3.096
X1.4543Y-3.0869
X1.5543Y-3.0869
X1.6543Y-3.0869
X1.9043Y-1.196
X1.9043Y-1.296
X1.9043Y-1.396
X1.9043Y-1.496
X1.9043Y-1.596
X1.9043Y-1.696
X1.9043Y-1.796
X1.9043Y-1.896
X1.9043Y-1.996
X1.9043Y-2.096
X1.9043Y-2.196
X1.9043Y-2.296
X1.9043Y-2.396
X1.9043Y-2.496
X1.9043Y-2.596
X1.9043Y-2.696
X1.9043Y-2.796
X1.9043Y-2.896
X1.9043Y-2.996
X1.9043Y-3.096
T4
X3.2036Y-1.6928
X3.2036Y-2.0928
X3.2036Y-2.5928
X3.2036Y-2.7928
T5
X3.92Y-1.49
X3.92Y-1.6869
X3.92Y-1.8837
X3.92Y-2.29
X3.92Y-2.4869
X3.92Y-2.79
X3.92Y-2.9869
T0
M30
