%TF.GenerationSoftware,KiCad,Pcbnew,(5.1.9)-1*%
%TF.CreationDate,2022-01-22T22:11:56-08:00*%
%TF.ProjectId,keurig-filler,6b657572-6967-42d6-9669-6c6c65722e6b,rev?*%
%TF.SameCoordinates,Original*%
%TF.FileFunction,Soldermask,Top*%
%TF.FilePolarity,Negative*%
%FSLAX46Y46*%
G04 Gerber Fmt 4.6, Leading zero omitted, Abs format (unit mm)*
G04 Created by KiCad (PCBNEW (5.1.9)-1) date 2022-01-22 22:11:56*
%MOMM*%
%LPD*%
G01*
G04 APERTURE LIST*
%ADD10C,0.010000*%
%ADD11O,1.700000X1.700000*%
%ADD12R,1.700000X1.700000*%
%ADD13R,1.700000X3.500000*%
%ADD14O,1.500000X1.500000*%
%ADD15O,1.800000X1.800000*%
%ADD16R,3.500000X1.700000*%
%ADD17O,3.960000X1.980000*%
%ADD18R,3.960000X1.980000*%
%ADD19C,1.800000*%
%ADD20R,1.800000X1.800000*%
%ADD21R,0.800000X0.900000*%
G04 APERTURE END LIST*
D10*
%TO.C,U2*%
G36*
X56429000Y-77595000D02*
G01*
X56429000Y-76970000D01*
X56431100Y-76943400D01*
X56437300Y-76917500D01*
X56447500Y-76892800D01*
X56461500Y-76870100D01*
X56478800Y-76849800D01*
X56499100Y-76832500D01*
X56521800Y-76818500D01*
X56546500Y-76808300D01*
X56572400Y-76802100D01*
X56939000Y-76800000D01*
X56965600Y-76802100D01*
X56991500Y-76808300D01*
X57016200Y-76818500D01*
X57038900Y-76832500D01*
X57059200Y-76849800D01*
X57076500Y-76870100D01*
X57090500Y-76892800D01*
X57100700Y-76917500D01*
X57106900Y-76943400D01*
X57109000Y-76970000D01*
X57109000Y-78220000D01*
X57106900Y-78246600D01*
X57100700Y-78272500D01*
X57090500Y-78297200D01*
X57076500Y-78319900D01*
X57059200Y-78340200D01*
X57038900Y-78357500D01*
X57016200Y-78371500D01*
X56991500Y-78381700D01*
X56965600Y-78387900D01*
X56599000Y-78390000D01*
X56572400Y-78387900D01*
X56546500Y-78381700D01*
X56521800Y-78371500D01*
X56499100Y-78357500D01*
X56478800Y-78340200D01*
X56461500Y-78319900D01*
X56447500Y-78297200D01*
X56437300Y-78272500D01*
X56431100Y-78246600D01*
X56429000Y-78220000D01*
X56429000Y-77595000D01*
G37*
X56429000Y-77595000D02*
X56429000Y-76970000D01*
X56431100Y-76943400D01*
X56437300Y-76917500D01*
X56447500Y-76892800D01*
X56461500Y-76870100D01*
X56478800Y-76849800D01*
X56499100Y-76832500D01*
X56521800Y-76818500D01*
X56546500Y-76808300D01*
X56572400Y-76802100D01*
X56939000Y-76800000D01*
X56965600Y-76802100D01*
X56991500Y-76808300D01*
X57016200Y-76818500D01*
X57038900Y-76832500D01*
X57059200Y-76849800D01*
X57076500Y-76870100D01*
X57090500Y-76892800D01*
X57100700Y-76917500D01*
X57106900Y-76943400D01*
X57109000Y-76970000D01*
X57109000Y-78220000D01*
X57106900Y-78246600D01*
X57100700Y-78272500D01*
X57090500Y-78297200D01*
X57076500Y-78319900D01*
X57059200Y-78340200D01*
X57038900Y-78357500D01*
X57016200Y-78371500D01*
X56991500Y-78381700D01*
X56965600Y-78387900D01*
X56599000Y-78390000D01*
X56572400Y-78387900D01*
X56546500Y-78381700D01*
X56521800Y-78371500D01*
X56499100Y-78357500D01*
X56478800Y-78340200D01*
X56461500Y-78319900D01*
X56447500Y-78297200D01*
X56437300Y-78272500D01*
X56431100Y-78246600D01*
X56429000Y-78220000D01*
X56429000Y-77595000D01*
G36*
X57699000Y-77595000D02*
G01*
X57699000Y-76970000D01*
X57701100Y-76943400D01*
X57707300Y-76917500D01*
X57717500Y-76892800D01*
X57731500Y-76870100D01*
X57748800Y-76849800D01*
X57769100Y-76832500D01*
X57791800Y-76818500D01*
X57816500Y-76808300D01*
X57842400Y-76802100D01*
X58209000Y-76800000D01*
X58235600Y-76802100D01*
X58261500Y-76808300D01*
X58286200Y-76818500D01*
X58308900Y-76832500D01*
X58329200Y-76849800D01*
X58346500Y-76870100D01*
X58360500Y-76892800D01*
X58370700Y-76917500D01*
X58376900Y-76943400D01*
X58379000Y-76970000D01*
X58379000Y-78220000D01*
X58376900Y-78246600D01*
X58370700Y-78272500D01*
X58360500Y-78297200D01*
X58346500Y-78319900D01*
X58329200Y-78340200D01*
X58308900Y-78357500D01*
X58286200Y-78371500D01*
X58261500Y-78381700D01*
X58235600Y-78387900D01*
X57869000Y-78390000D01*
X57842400Y-78387900D01*
X57816500Y-78381700D01*
X57791800Y-78371500D01*
X57769100Y-78357500D01*
X57748800Y-78340200D01*
X57731500Y-78319900D01*
X57717500Y-78297200D01*
X57707300Y-78272500D01*
X57701100Y-78246600D01*
X57699000Y-78220000D01*
X57699000Y-77595000D01*
G37*
X57699000Y-77595000D02*
X57699000Y-76970000D01*
X57701100Y-76943400D01*
X57707300Y-76917500D01*
X57717500Y-76892800D01*
X57731500Y-76870100D01*
X57748800Y-76849800D01*
X57769100Y-76832500D01*
X57791800Y-76818500D01*
X57816500Y-76808300D01*
X57842400Y-76802100D01*
X58209000Y-76800000D01*
X58235600Y-76802100D01*
X58261500Y-76808300D01*
X58286200Y-76818500D01*
X58308900Y-76832500D01*
X58329200Y-76849800D01*
X58346500Y-76870100D01*
X58360500Y-76892800D01*
X58370700Y-76917500D01*
X58376900Y-76943400D01*
X58379000Y-76970000D01*
X58379000Y-78220000D01*
X58376900Y-78246600D01*
X58370700Y-78272500D01*
X58360500Y-78297200D01*
X58346500Y-78319900D01*
X58329200Y-78340200D01*
X58308900Y-78357500D01*
X58286200Y-78371500D01*
X58261500Y-78381700D01*
X58235600Y-78387900D01*
X57869000Y-78390000D01*
X57842400Y-78387900D01*
X57816500Y-78381700D01*
X57791800Y-78371500D01*
X57769100Y-78357500D01*
X57748800Y-78340200D01*
X57731500Y-78319900D01*
X57717500Y-78297200D01*
X57707300Y-78272500D01*
X57701100Y-78246600D01*
X57699000Y-78220000D01*
X57699000Y-77595000D01*
G36*
X58969000Y-77595000D02*
G01*
X58969000Y-76970000D01*
X58971100Y-76943400D01*
X58977300Y-76917500D01*
X58987500Y-76892800D01*
X59001500Y-76870100D01*
X59018800Y-76849800D01*
X59039100Y-76832500D01*
X59061800Y-76818500D01*
X59086500Y-76808300D01*
X59112400Y-76802100D01*
X59479000Y-76800000D01*
X59505600Y-76802100D01*
X59531500Y-76808300D01*
X59556200Y-76818500D01*
X59578900Y-76832500D01*
X59599200Y-76849800D01*
X59616500Y-76870100D01*
X59630500Y-76892800D01*
X59640700Y-76917500D01*
X59646900Y-76943400D01*
X59649000Y-76970000D01*
X59649000Y-78220000D01*
X59646900Y-78246600D01*
X59640700Y-78272500D01*
X59630500Y-78297200D01*
X59616500Y-78319900D01*
X59599200Y-78340200D01*
X59578900Y-78357500D01*
X59556200Y-78371500D01*
X59531500Y-78381700D01*
X59505600Y-78387900D01*
X59139000Y-78390000D01*
X59112400Y-78387900D01*
X59086500Y-78381700D01*
X59061800Y-78371500D01*
X59039100Y-78357500D01*
X59018800Y-78340200D01*
X59001500Y-78319900D01*
X58987500Y-78297200D01*
X58977300Y-78272500D01*
X58971100Y-78246600D01*
X58969000Y-78220000D01*
X58969000Y-77595000D01*
G37*
X58969000Y-77595000D02*
X58969000Y-76970000D01*
X58971100Y-76943400D01*
X58977300Y-76917500D01*
X58987500Y-76892800D01*
X59001500Y-76870100D01*
X59018800Y-76849800D01*
X59039100Y-76832500D01*
X59061800Y-76818500D01*
X59086500Y-76808300D01*
X59112400Y-76802100D01*
X59479000Y-76800000D01*
X59505600Y-76802100D01*
X59531500Y-76808300D01*
X59556200Y-76818500D01*
X59578900Y-76832500D01*
X59599200Y-76849800D01*
X59616500Y-76870100D01*
X59630500Y-76892800D01*
X59640700Y-76917500D01*
X59646900Y-76943400D01*
X59649000Y-76970000D01*
X59649000Y-78220000D01*
X59646900Y-78246600D01*
X59640700Y-78272500D01*
X59630500Y-78297200D01*
X59616500Y-78319900D01*
X59599200Y-78340200D01*
X59578900Y-78357500D01*
X59556200Y-78371500D01*
X59531500Y-78381700D01*
X59505600Y-78387900D01*
X59139000Y-78390000D01*
X59112400Y-78387900D01*
X59086500Y-78381700D01*
X59061800Y-78371500D01*
X59039100Y-78357500D01*
X59018800Y-78340200D01*
X59001500Y-78319900D01*
X58987500Y-78297200D01*
X58977300Y-78272500D01*
X58971100Y-78246600D01*
X58969000Y-78220000D01*
X58969000Y-77595000D01*
G36*
X60239000Y-77595000D02*
G01*
X60239000Y-76970000D01*
X60241100Y-76943400D01*
X60247300Y-76917500D01*
X60257500Y-76892800D01*
X60271500Y-76870100D01*
X60288800Y-76849800D01*
X60309100Y-76832500D01*
X60331800Y-76818500D01*
X60356500Y-76808300D01*
X60382400Y-76802100D01*
X60749000Y-76800000D01*
X60775600Y-76802100D01*
X60801500Y-76808300D01*
X60826200Y-76818500D01*
X60848900Y-76832500D01*
X60869200Y-76849800D01*
X60886500Y-76870100D01*
X60900500Y-76892800D01*
X60910700Y-76917500D01*
X60916900Y-76943400D01*
X60919000Y-76970000D01*
X60919000Y-78220000D01*
X60916900Y-78246600D01*
X60910700Y-78272500D01*
X60900500Y-78297200D01*
X60886500Y-78319900D01*
X60869200Y-78340200D01*
X60848900Y-78357500D01*
X60826200Y-78371500D01*
X60801500Y-78381700D01*
X60775600Y-78387900D01*
X60409000Y-78390000D01*
X60382400Y-78387900D01*
X60356500Y-78381700D01*
X60331800Y-78371500D01*
X60309100Y-78357500D01*
X60288800Y-78340200D01*
X60271500Y-78319900D01*
X60257500Y-78297200D01*
X60247300Y-78272500D01*
X60241100Y-78246600D01*
X60239000Y-78220000D01*
X60239000Y-77595000D01*
G37*
X60239000Y-77595000D02*
X60239000Y-76970000D01*
X60241100Y-76943400D01*
X60247300Y-76917500D01*
X60257500Y-76892800D01*
X60271500Y-76870100D01*
X60288800Y-76849800D01*
X60309100Y-76832500D01*
X60331800Y-76818500D01*
X60356500Y-76808300D01*
X60382400Y-76802100D01*
X60749000Y-76800000D01*
X60775600Y-76802100D01*
X60801500Y-76808300D01*
X60826200Y-76818500D01*
X60848900Y-76832500D01*
X60869200Y-76849800D01*
X60886500Y-76870100D01*
X60900500Y-76892800D01*
X60910700Y-76917500D01*
X60916900Y-76943400D01*
X60919000Y-76970000D01*
X60919000Y-78220000D01*
X60916900Y-78246600D01*
X60910700Y-78272500D01*
X60900500Y-78297200D01*
X60886500Y-78319900D01*
X60869200Y-78340200D01*
X60848900Y-78357500D01*
X60826200Y-78371500D01*
X60801500Y-78381700D01*
X60775600Y-78387900D01*
X60409000Y-78390000D01*
X60382400Y-78387900D01*
X60356500Y-78381700D01*
X60331800Y-78371500D01*
X60309100Y-78357500D01*
X60288800Y-78340200D01*
X60271500Y-78319900D01*
X60257500Y-78297200D01*
X60247300Y-78272500D01*
X60241100Y-78246600D01*
X60239000Y-78220000D01*
X60239000Y-77595000D01*
G36*
X60919000Y-72265000D02*
G01*
X60919000Y-72890000D01*
X60916900Y-72916600D01*
X60910700Y-72942500D01*
X60900500Y-72967200D01*
X60886500Y-72989900D01*
X60869200Y-73010200D01*
X60848900Y-73027500D01*
X60826200Y-73041500D01*
X60801500Y-73051700D01*
X60775600Y-73057900D01*
X60409000Y-73060000D01*
X60382400Y-73057900D01*
X60356500Y-73051700D01*
X60331800Y-73041500D01*
X60309100Y-73027500D01*
X60288800Y-73010200D01*
X60271500Y-72989900D01*
X60257500Y-72967200D01*
X60247300Y-72942500D01*
X60241100Y-72916600D01*
X60239000Y-72890000D01*
X60239000Y-71640000D01*
X60241100Y-71613400D01*
X60247300Y-71587500D01*
X60257500Y-71562800D01*
X60271500Y-71540100D01*
X60288800Y-71519800D01*
X60309100Y-71502500D01*
X60331800Y-71488500D01*
X60356500Y-71478300D01*
X60382400Y-71472100D01*
X60749000Y-71470000D01*
X60775600Y-71472100D01*
X60801500Y-71478300D01*
X60826200Y-71488500D01*
X60848900Y-71502500D01*
X60869200Y-71519800D01*
X60886500Y-71540100D01*
X60900500Y-71562800D01*
X60910700Y-71587500D01*
X60916900Y-71613400D01*
X60919000Y-71640000D01*
X60919000Y-72265000D01*
G37*
X60919000Y-72265000D02*
X60919000Y-72890000D01*
X60916900Y-72916600D01*
X60910700Y-72942500D01*
X60900500Y-72967200D01*
X60886500Y-72989900D01*
X60869200Y-73010200D01*
X60848900Y-73027500D01*
X60826200Y-73041500D01*
X60801500Y-73051700D01*
X60775600Y-73057900D01*
X60409000Y-73060000D01*
X60382400Y-73057900D01*
X60356500Y-73051700D01*
X60331800Y-73041500D01*
X60309100Y-73027500D01*
X60288800Y-73010200D01*
X60271500Y-72989900D01*
X60257500Y-72967200D01*
X60247300Y-72942500D01*
X60241100Y-72916600D01*
X60239000Y-72890000D01*
X60239000Y-71640000D01*
X60241100Y-71613400D01*
X60247300Y-71587500D01*
X60257500Y-71562800D01*
X60271500Y-71540100D01*
X60288800Y-71519800D01*
X60309100Y-71502500D01*
X60331800Y-71488500D01*
X60356500Y-71478300D01*
X60382400Y-71472100D01*
X60749000Y-71470000D01*
X60775600Y-71472100D01*
X60801500Y-71478300D01*
X60826200Y-71488500D01*
X60848900Y-71502500D01*
X60869200Y-71519800D01*
X60886500Y-71540100D01*
X60900500Y-71562800D01*
X60910700Y-71587500D01*
X60916900Y-71613400D01*
X60919000Y-71640000D01*
X60919000Y-72265000D01*
G36*
X59649000Y-72265000D02*
G01*
X59649000Y-72890000D01*
X59646900Y-72916600D01*
X59640700Y-72942500D01*
X59630500Y-72967200D01*
X59616500Y-72989900D01*
X59599200Y-73010200D01*
X59578900Y-73027500D01*
X59556200Y-73041500D01*
X59531500Y-73051700D01*
X59505600Y-73057900D01*
X59139000Y-73060000D01*
X59112400Y-73057900D01*
X59086500Y-73051700D01*
X59061800Y-73041500D01*
X59039100Y-73027500D01*
X59018800Y-73010200D01*
X59001500Y-72989900D01*
X58987500Y-72967200D01*
X58977300Y-72942500D01*
X58971100Y-72916600D01*
X58969000Y-72890000D01*
X58969000Y-71640000D01*
X58971100Y-71613400D01*
X58977300Y-71587500D01*
X58987500Y-71562800D01*
X59001500Y-71540100D01*
X59018800Y-71519800D01*
X59039100Y-71502500D01*
X59061800Y-71488500D01*
X59086500Y-71478300D01*
X59112400Y-71472100D01*
X59479000Y-71470000D01*
X59505600Y-71472100D01*
X59531500Y-71478300D01*
X59556200Y-71488500D01*
X59578900Y-71502500D01*
X59599200Y-71519800D01*
X59616500Y-71540100D01*
X59630500Y-71562800D01*
X59640700Y-71587500D01*
X59646900Y-71613400D01*
X59649000Y-71640000D01*
X59649000Y-72265000D01*
G37*
X59649000Y-72265000D02*
X59649000Y-72890000D01*
X59646900Y-72916600D01*
X59640700Y-72942500D01*
X59630500Y-72967200D01*
X59616500Y-72989900D01*
X59599200Y-73010200D01*
X59578900Y-73027500D01*
X59556200Y-73041500D01*
X59531500Y-73051700D01*
X59505600Y-73057900D01*
X59139000Y-73060000D01*
X59112400Y-73057900D01*
X59086500Y-73051700D01*
X59061800Y-73041500D01*
X59039100Y-73027500D01*
X59018800Y-73010200D01*
X59001500Y-72989900D01*
X58987500Y-72967200D01*
X58977300Y-72942500D01*
X58971100Y-72916600D01*
X58969000Y-72890000D01*
X58969000Y-71640000D01*
X58971100Y-71613400D01*
X58977300Y-71587500D01*
X58987500Y-71562800D01*
X59001500Y-71540100D01*
X59018800Y-71519800D01*
X59039100Y-71502500D01*
X59061800Y-71488500D01*
X59086500Y-71478300D01*
X59112400Y-71472100D01*
X59479000Y-71470000D01*
X59505600Y-71472100D01*
X59531500Y-71478300D01*
X59556200Y-71488500D01*
X59578900Y-71502500D01*
X59599200Y-71519800D01*
X59616500Y-71540100D01*
X59630500Y-71562800D01*
X59640700Y-71587500D01*
X59646900Y-71613400D01*
X59649000Y-71640000D01*
X59649000Y-72265000D01*
G36*
X58379000Y-72265000D02*
G01*
X58379000Y-72890000D01*
X58376900Y-72916600D01*
X58370700Y-72942500D01*
X58360500Y-72967200D01*
X58346500Y-72989900D01*
X58329200Y-73010200D01*
X58308900Y-73027500D01*
X58286200Y-73041500D01*
X58261500Y-73051700D01*
X58235600Y-73057900D01*
X57869000Y-73060000D01*
X57842400Y-73057900D01*
X57816500Y-73051700D01*
X57791800Y-73041500D01*
X57769100Y-73027500D01*
X57748800Y-73010200D01*
X57731500Y-72989900D01*
X57717500Y-72967200D01*
X57707300Y-72942500D01*
X57701100Y-72916600D01*
X57699000Y-72890000D01*
X57699000Y-71640000D01*
X57701100Y-71613400D01*
X57707300Y-71587500D01*
X57717500Y-71562800D01*
X57731500Y-71540100D01*
X57748800Y-71519800D01*
X57769100Y-71502500D01*
X57791800Y-71488500D01*
X57816500Y-71478300D01*
X57842400Y-71472100D01*
X58209000Y-71470000D01*
X58235600Y-71472100D01*
X58261500Y-71478300D01*
X58286200Y-71488500D01*
X58308900Y-71502500D01*
X58329200Y-71519800D01*
X58346500Y-71540100D01*
X58360500Y-71562800D01*
X58370700Y-71587500D01*
X58376900Y-71613400D01*
X58379000Y-71640000D01*
X58379000Y-72265000D01*
G37*
X58379000Y-72265000D02*
X58379000Y-72890000D01*
X58376900Y-72916600D01*
X58370700Y-72942500D01*
X58360500Y-72967200D01*
X58346500Y-72989900D01*
X58329200Y-73010200D01*
X58308900Y-73027500D01*
X58286200Y-73041500D01*
X58261500Y-73051700D01*
X58235600Y-73057900D01*
X57869000Y-73060000D01*
X57842400Y-73057900D01*
X57816500Y-73051700D01*
X57791800Y-73041500D01*
X57769100Y-73027500D01*
X57748800Y-73010200D01*
X57731500Y-72989900D01*
X57717500Y-72967200D01*
X57707300Y-72942500D01*
X57701100Y-72916600D01*
X57699000Y-72890000D01*
X57699000Y-71640000D01*
X57701100Y-71613400D01*
X57707300Y-71587500D01*
X57717500Y-71562800D01*
X57731500Y-71540100D01*
X57748800Y-71519800D01*
X57769100Y-71502500D01*
X57791800Y-71488500D01*
X57816500Y-71478300D01*
X57842400Y-71472100D01*
X58209000Y-71470000D01*
X58235600Y-71472100D01*
X58261500Y-71478300D01*
X58286200Y-71488500D01*
X58308900Y-71502500D01*
X58329200Y-71519800D01*
X58346500Y-71540100D01*
X58360500Y-71562800D01*
X58370700Y-71587500D01*
X58376900Y-71613400D01*
X58379000Y-71640000D01*
X58379000Y-72265000D01*
G36*
X57109000Y-72265000D02*
G01*
X57109000Y-72890000D01*
X57106900Y-72916600D01*
X57100700Y-72942500D01*
X57090500Y-72967200D01*
X57076500Y-72989900D01*
X57059200Y-73010200D01*
X57038900Y-73027500D01*
X57016200Y-73041500D01*
X56991500Y-73051700D01*
X56965600Y-73057900D01*
X56599000Y-73060000D01*
X56572400Y-73057900D01*
X56546500Y-73051700D01*
X56521800Y-73041500D01*
X56499100Y-73027500D01*
X56478800Y-73010200D01*
X56461500Y-72989900D01*
X56447500Y-72967200D01*
X56437300Y-72942500D01*
X56431100Y-72916600D01*
X56429000Y-72890000D01*
X56429000Y-71640000D01*
X56431100Y-71613400D01*
X56437300Y-71587500D01*
X56447500Y-71562800D01*
X56461500Y-71540100D01*
X56478800Y-71519800D01*
X56499100Y-71502500D01*
X56521800Y-71488500D01*
X56546500Y-71478300D01*
X56572400Y-71472100D01*
X56939000Y-71470000D01*
X56965600Y-71472100D01*
X56991500Y-71478300D01*
X57016200Y-71488500D01*
X57038900Y-71502500D01*
X57059200Y-71519800D01*
X57076500Y-71540100D01*
X57090500Y-71562800D01*
X57100700Y-71587500D01*
X57106900Y-71613400D01*
X57109000Y-71640000D01*
X57109000Y-72265000D01*
G37*
X57109000Y-72265000D02*
X57109000Y-72890000D01*
X57106900Y-72916600D01*
X57100700Y-72942500D01*
X57090500Y-72967200D01*
X57076500Y-72989900D01*
X57059200Y-73010200D01*
X57038900Y-73027500D01*
X57016200Y-73041500D01*
X56991500Y-73051700D01*
X56965600Y-73057900D01*
X56599000Y-73060000D01*
X56572400Y-73057900D01*
X56546500Y-73051700D01*
X56521800Y-73041500D01*
X56499100Y-73027500D01*
X56478800Y-73010200D01*
X56461500Y-72989900D01*
X56447500Y-72967200D01*
X56437300Y-72942500D01*
X56431100Y-72916600D01*
X56429000Y-72890000D01*
X56429000Y-71640000D01*
X56431100Y-71613400D01*
X56437300Y-71587500D01*
X56447500Y-71562800D01*
X56461500Y-71540100D01*
X56478800Y-71519800D01*
X56499100Y-71502500D01*
X56521800Y-71488500D01*
X56546500Y-71478300D01*
X56572400Y-71472100D01*
X56939000Y-71470000D01*
X56965600Y-71472100D01*
X56991500Y-71478300D01*
X57016200Y-71488500D01*
X57038900Y-71502500D01*
X57059200Y-71519800D01*
X57076500Y-71540100D01*
X57090500Y-71562800D01*
X57100700Y-71587500D01*
X57106900Y-71613400D01*
X57109000Y-71640000D01*
X57109000Y-72265000D01*
%TD*%
%TO.C,R12*%
G36*
G01*
X44707000Y-38169001D02*
X44707000Y-37268999D01*
G75*
G02*
X44956999Y-37019000I249999J0D01*
G01*
X45657001Y-37019000D01*
G75*
G02*
X45907000Y-37268999I0J-249999D01*
G01*
X45907000Y-38169001D01*
G75*
G02*
X45657001Y-38419000I-249999J0D01*
G01*
X44956999Y-38419000D01*
G75*
G02*
X44707000Y-38169001I0J249999D01*
G01*
G37*
G36*
G01*
X42707000Y-38169001D02*
X42707000Y-37268999D01*
G75*
G02*
X42956999Y-37019000I249999J0D01*
G01*
X43657001Y-37019000D01*
G75*
G02*
X43907000Y-37268999I0J-249999D01*
G01*
X43907000Y-38169001D01*
G75*
G02*
X43657001Y-38419000I-249999J0D01*
G01*
X42956999Y-38419000D01*
G75*
G02*
X42707000Y-38169001I0J249999D01*
G01*
G37*
%TD*%
%TO.C,R10*%
G36*
G01*
X61156001Y-35684000D02*
X60255999Y-35684000D01*
G75*
G02*
X60006000Y-35434001I0J249999D01*
G01*
X60006000Y-34733999D01*
G75*
G02*
X60255999Y-34484000I249999J0D01*
G01*
X61156001Y-34484000D01*
G75*
G02*
X61406000Y-34733999I0J-249999D01*
G01*
X61406000Y-35434001D01*
G75*
G02*
X61156001Y-35684000I-249999J0D01*
G01*
G37*
G36*
G01*
X61156001Y-37684000D02*
X60255999Y-37684000D01*
G75*
G02*
X60006000Y-37434001I0J249999D01*
G01*
X60006000Y-36733999D01*
G75*
G02*
X60255999Y-36484000I249999J0D01*
G01*
X61156001Y-36484000D01*
G75*
G02*
X61406000Y-36733999I0J-249999D01*
G01*
X61406000Y-37434001D01*
G75*
G02*
X61156001Y-37684000I-249999J0D01*
G01*
G37*
%TD*%
%TO.C,R8*%
G36*
G01*
X64458001Y-40621000D02*
X63557999Y-40621000D01*
G75*
G02*
X63308000Y-40371001I0J249999D01*
G01*
X63308000Y-39670999D01*
G75*
G02*
X63557999Y-39421000I249999J0D01*
G01*
X64458001Y-39421000D01*
G75*
G02*
X64708000Y-39670999I0J-249999D01*
G01*
X64708000Y-40371001D01*
G75*
G02*
X64458001Y-40621000I-249999J0D01*
G01*
G37*
G36*
G01*
X64458001Y-42621000D02*
X63557999Y-42621000D01*
G75*
G02*
X63308000Y-42371001I0J249999D01*
G01*
X63308000Y-41670999D01*
G75*
G02*
X63557999Y-41421000I249999J0D01*
G01*
X64458001Y-41421000D01*
G75*
G02*
X64708000Y-41670999I0J-249999D01*
G01*
X64708000Y-42371001D01*
G75*
G02*
X64458001Y-42621000I-249999J0D01*
G01*
G37*
%TD*%
D11*
%TO.C,J8*%
X63119000Y-24384000D03*
X60579000Y-24384000D03*
X58039000Y-24384000D03*
X55499000Y-24384000D03*
X52959000Y-24384000D03*
D12*
X50419000Y-24384000D03*
%TD*%
%TO.C,R7*%
G36*
G01*
X79178999Y-30499000D02*
X80079001Y-30499000D01*
G75*
G02*
X80329000Y-30748999I0J-249999D01*
G01*
X80329000Y-31449001D01*
G75*
G02*
X80079001Y-31699000I-249999J0D01*
G01*
X79178999Y-31699000D01*
G75*
G02*
X78929000Y-31449001I0J249999D01*
G01*
X78929000Y-30748999D01*
G75*
G02*
X79178999Y-30499000I249999J0D01*
G01*
G37*
G36*
G01*
X79178999Y-28499000D02*
X80079001Y-28499000D01*
G75*
G02*
X80329000Y-28748999I0J-249999D01*
G01*
X80329000Y-29449001D01*
G75*
G02*
X80079001Y-29699000I-249999J0D01*
G01*
X79178999Y-29699000D01*
G75*
G02*
X78929000Y-29449001I0J249999D01*
G01*
X78929000Y-28748999D01*
G75*
G02*
X79178999Y-28499000I249999J0D01*
G01*
G37*
%TD*%
%TO.C,R6*%
G36*
G01*
X83381001Y-34668000D02*
X82480999Y-34668000D01*
G75*
G02*
X82231000Y-34418001I0J249999D01*
G01*
X82231000Y-33717999D01*
G75*
G02*
X82480999Y-33468000I249999J0D01*
G01*
X83381001Y-33468000D01*
G75*
G02*
X83631000Y-33717999I0J-249999D01*
G01*
X83631000Y-34418001D01*
G75*
G02*
X83381001Y-34668000I-249999J0D01*
G01*
G37*
G36*
G01*
X83381001Y-36668000D02*
X82480999Y-36668000D01*
G75*
G02*
X82231000Y-36418001I0J249999D01*
G01*
X82231000Y-35717999D01*
G75*
G02*
X82480999Y-35468000I249999J0D01*
G01*
X83381001Y-35468000D01*
G75*
G02*
X83631000Y-35717999I0J-249999D01*
G01*
X83631000Y-36418001D01*
G75*
G02*
X83381001Y-36668000I-249999J0D01*
G01*
G37*
%TD*%
%TO.C,R5*%
G36*
G01*
X33585999Y-54740000D02*
X34486001Y-54740000D01*
G75*
G02*
X34736000Y-54989999I0J-249999D01*
G01*
X34736000Y-55690001D01*
G75*
G02*
X34486001Y-55940000I-249999J0D01*
G01*
X33585999Y-55940000D01*
G75*
G02*
X33336000Y-55690001I0J249999D01*
G01*
X33336000Y-54989999D01*
G75*
G02*
X33585999Y-54740000I249999J0D01*
G01*
G37*
G36*
G01*
X33585999Y-52740000D02*
X34486001Y-52740000D01*
G75*
G02*
X34736000Y-52989999I0J-249999D01*
G01*
X34736000Y-53690001D01*
G75*
G02*
X34486001Y-53940000I-249999J0D01*
G01*
X33585999Y-53940000D01*
G75*
G02*
X33336000Y-53690001I0J249999D01*
G01*
X33336000Y-52989999D01*
G75*
G02*
X33585999Y-52740000I249999J0D01*
G01*
G37*
%TD*%
D11*
%TO.C,J7*%
X70104000Y-80137000D03*
X72644000Y-80137000D03*
X75184000Y-80137000D03*
D12*
X77724000Y-80137000D03*
%TD*%
D11*
%TO.C,U1*%
X42020000Y-78408001D03*
D13*
X42020000Y-79308001D03*
D12*
X39480000Y-78408001D03*
D13*
X39480000Y-79308001D03*
D11*
X36940000Y-78408001D03*
D13*
X36940000Y-79308001D03*
D14*
X41905000Y-33538001D03*
X37055000Y-33538001D03*
D15*
X42205000Y-30508001D03*
X36755000Y-30508001D03*
D16*
X49270000Y-78638001D03*
X49270000Y-76098001D03*
X49270000Y-73558001D03*
X49270000Y-71018001D03*
X49270000Y-68478001D03*
X49270000Y-65938001D03*
X49270000Y-63398001D03*
X49270000Y-60858001D03*
X49270000Y-58318001D03*
X49270000Y-55778001D03*
X49270000Y-53238001D03*
X49270000Y-50698001D03*
X49270000Y-48158001D03*
X49270000Y-45618001D03*
X49270000Y-43078001D03*
X49270000Y-40538001D03*
X49270000Y-37998001D03*
X49270000Y-35458001D03*
X49270000Y-32918001D03*
X49270000Y-30378001D03*
X29690000Y-78638001D03*
X29690000Y-76098001D03*
X29690000Y-73558001D03*
X29690000Y-71018001D03*
X29690000Y-68478001D03*
X29690000Y-65938001D03*
X29690000Y-63398001D03*
X29690000Y-60858001D03*
X29690000Y-58318001D03*
X29690000Y-55778001D03*
X29690000Y-53238001D03*
X29690000Y-50698001D03*
X29690000Y-48158001D03*
X29690000Y-45618001D03*
X29690000Y-43078001D03*
X29690000Y-40538001D03*
X29690000Y-37998001D03*
X29690000Y-35458001D03*
X29690000Y-32918001D03*
X29690000Y-30378001D03*
D11*
X48370000Y-30378001D03*
X48370000Y-32918001D03*
D12*
X48370000Y-35458001D03*
D11*
X48370000Y-37998001D03*
X48370000Y-40538001D03*
X48370000Y-43078001D03*
X48370000Y-45618001D03*
D12*
X48370000Y-48158001D03*
D11*
X48370000Y-50698001D03*
X48370000Y-53238001D03*
X48370000Y-55778001D03*
X48370000Y-58318001D03*
D12*
X48370000Y-60858001D03*
D11*
X48370000Y-63398001D03*
X48370000Y-65938001D03*
X48370000Y-68478001D03*
X48370000Y-71018001D03*
D12*
X48370000Y-73558001D03*
D11*
X48370000Y-76098001D03*
X48370000Y-78638001D03*
X30590000Y-78638001D03*
X30590000Y-76098001D03*
D12*
X30590000Y-73558001D03*
D11*
X30590000Y-71018001D03*
X30590000Y-68478001D03*
X30590000Y-65938001D03*
X30590000Y-63398001D03*
D12*
X30590000Y-60858001D03*
D11*
X30590000Y-58318001D03*
X30590000Y-55778001D03*
X30590000Y-53238001D03*
X30590000Y-50698001D03*
D12*
X30590000Y-48158001D03*
D11*
X30590000Y-45618001D03*
X30590000Y-43078001D03*
X30590000Y-40538001D03*
X30590000Y-37998001D03*
D12*
X30590000Y-35458001D03*
D11*
X30590000Y-32918001D03*
X30590000Y-30378001D03*
%TD*%
D17*
%TO.C,J6*%
X99568000Y-75866000D03*
D18*
X99568000Y-70866000D03*
%TD*%
D17*
%TO.C,J4*%
X99568000Y-63166000D03*
D18*
X99568000Y-58166000D03*
%TD*%
D17*
%TO.C,J3*%
X99568000Y-47846000D03*
X99568000Y-42846000D03*
D18*
X99568000Y-37846000D03*
%TD*%
%TO.C,R1*%
G36*
G01*
X74044000Y-54044001D02*
X74044000Y-53143999D01*
G75*
G02*
X74293999Y-52894000I249999J0D01*
G01*
X74994001Y-52894000D01*
G75*
G02*
X75244000Y-53143999I0J-249999D01*
G01*
X75244000Y-54044001D01*
G75*
G02*
X74994001Y-54294000I-249999J0D01*
G01*
X74293999Y-54294000D01*
G75*
G02*
X74044000Y-54044001I0J249999D01*
G01*
G37*
G36*
G01*
X72044000Y-54044001D02*
X72044000Y-53143999D01*
G75*
G02*
X72293999Y-52894000I249999J0D01*
G01*
X72994001Y-52894000D01*
G75*
G02*
X73244000Y-53143999I0J-249999D01*
G01*
X73244000Y-54044001D01*
G75*
G02*
X72994001Y-54294000I-249999J0D01*
G01*
X72293999Y-54294000D01*
G75*
G02*
X72044000Y-54044001I0J249999D01*
G01*
G37*
%TD*%
%TO.C,Q1*%
G36*
G01*
X57340000Y-31853200D02*
X57340000Y-31340800D01*
G75*
G02*
X57388800Y-31292000I48800J0D01*
G01*
X58471200Y-31292000D01*
G75*
G02*
X58520000Y-31340800I0J-48800D01*
G01*
X58520000Y-31853200D01*
G75*
G02*
X58471200Y-31902000I-48800J0D01*
G01*
X57388800Y-31902000D01*
G75*
G02*
X57340000Y-31853200I0J48800D01*
G01*
G37*
G36*
G01*
X55290000Y-32768200D02*
X55290000Y-32255800D01*
G75*
G02*
X55338800Y-32207000I48800J0D01*
G01*
X56421200Y-32207000D01*
G75*
G02*
X56470000Y-32255800I0J-48800D01*
G01*
X56470000Y-32768200D01*
G75*
G02*
X56421200Y-32817000I-48800J0D01*
G01*
X55338800Y-32817000D01*
G75*
G02*
X55290000Y-32768200I0J48800D01*
G01*
G37*
G36*
G01*
X55290000Y-30938200D02*
X55290000Y-30425800D01*
G75*
G02*
X55338800Y-30377000I48800J0D01*
G01*
X56421200Y-30377000D01*
G75*
G02*
X56470000Y-30425800I0J-48800D01*
G01*
X56470000Y-30938200D01*
G75*
G02*
X56421200Y-30987000I-48800J0D01*
G01*
X55338800Y-30987000D01*
G75*
G02*
X55290000Y-30938200I0J48800D01*
G01*
G37*
%TD*%
D19*
%TO.C,K1*%
X81371000Y-42996000D03*
X81371000Y-53156000D03*
X81371000Y-65856000D03*
D20*
X81371000Y-70936000D03*
%TD*%
D11*
%TO.C,J5*%
X69342000Y-31496000D03*
X66802000Y-31496000D03*
X64262000Y-31496000D03*
D12*
X61722000Y-31496000D03*
%TD*%
D11*
%TO.C,J2*%
X84074000Y-28956000D03*
X86614000Y-28956000D03*
D12*
X89154000Y-28956000D03*
%TD*%
D11*
%TO.C,J1*%
X96774000Y-28956000D03*
X99314000Y-28956000D03*
D12*
X101854000Y-28956000D03*
%TD*%
D21*
%TO.C,D1*%
X73660000Y-48022000D03*
X74610000Y-50022000D03*
X72710000Y-50022000D03*
%TD*%
M02*
